<svg xmlns="http://www.w3.org/2000/svg" viewBox="0 0 71.54 65.51"><defs><style>.cls-1{fill:#fff;}</style></defs><g id="Capa_2" data-name="Capa 2"><g id="Capa_1-2" data-name="Capa 1"><path class="cls-1" d="M43.74,7.88l-3-1.83c-1.48-.89-3-1.77-4.42-2.7a.87.87,0,0,0-1.11,0c-1,.67-2.08,1.29-3.13,1.91a1.47,1.47,0,0,1-2.18-.38,1.44,1.44,0,0,1,.68-2c1.31-.82,2.66-1.58,4-2.43A2.05,2.05,0,0,1,37,.41q5.93,3.66,11.9,7.24a3.12,3.12,0,0,0,1.49.41c2.45,0,4.89,0,7.33,0a3.76,3.76,0,0,1,4,4c0,.89,0,1.79,0,2.68a1.1,1.1,0,0,0,.65,1.13c2.62,1.58,5.22,3.21,7.86,4.76a2.3,2.3,0,0,1,1.28,2.23q0,20.28,0,40.57c0,1.65-.39,2.05-2.06,2.05H2.09c-1.67,0-2.07-.4-2.07-2q0-20.3,0-40.58a2.31,2.31,0,0,1,1.28-2.22c2.64-1.55,5.24-3.18,7.87-4.76a1.12,1.12,0,0,0,.65-1.13c-.05-.83,0-1.67,0-2.5,0-2.72,1.49-4.2,4.2-4.2H43.7ZM2.9,61.49c.39-.22.64-.36.89-.52l19-11.55a3.5,3.5,0,0,1,.78-.43,1.32,1.32,0,0,1,1.69.6A1.34,1.34,0,0,1,25,51.37a4.58,4.58,0,0,1-.74.5L7.54,62c-.21.13-.41.27-.79.53H64.58l0-.16L40.86,48a7.07,7.07,0,0,1-12.13-4.9c-.37.19-.71.35-1,.54-1.44.86-1.77.81-2.85-.47a10,10,0,0,0-5.46-3.34c-1.74-.42-1.86-.69-1.73-2.46.14-2-.31-3.81-2.34-5-3.84-2.21-7.59-4.58-11.37-6.89l-1-.6ZM39.14,37.05c0-.63,0-1.15-.09-1.67a1.45,1.45,0,0,1,1.24-1.76,10.67,10.67,0,0,0,6.42-3.9,1.43,1.43,0,0,1,2.13-.28,10.6,10.6,0,0,0,1.88,1,3.93,3.93,0,0,0,3.89-.39c1.18-.85,2.49-1.51,3.7-2.31a1.34,1.34,0,0,0,.56-1c0-4.86,0-9.71,0-14.56,0-1-.24-1.28-1.26-1.28H14c-1.08,0-1.31.23-1.31,1.32,0,4.8,0,9.59,0,14.39a1.12,1.12,0,0,0,.62,1.14A40.48,40.48,0,0,1,17,30.08a3.66,3.66,0,0,0,3.46.47,10.39,10.39,0,0,0,2.15-1c1-.61,1.61-.59,2.33.3a10.62,10.62,0,0,0,6.29,3.8,1.47,1.47,0,0,1,1.27,1.81c0,.52,0,1,0,1.57C35.78,36,36.25,36.05,39.14,37.05Zm29.5-12.22C64.33,27.45,60.19,30,56,32.5a3.88,3.88,0,0,0-2,2.88,10.05,10.05,0,0,0,0,2.39c.07,1-.26,1.69-1.22,1.87a10.5,10.5,0,0,0-6.41,3.9,1.4,1.4,0,0,1-2.12.28L42.79,43a10.37,10.37,0,0,1-.29,1.69c-.23.61,0,.89.49,1.2L67.77,61l.87.51ZM35.74,47.2a4,4,0,0,0,4.11-4,4,4,0,0,0-4-4,4.07,4.07,0,0,0-4.09,4.06A3.87,3.87,0,0,0,35.74,47.2ZM51.39,33.69c-1-.37-2-.76-3-1.1a.82.82,0,0,0-.66.25A13.67,13.67,0,0,1,42.54,36a.94.94,0,0,0-.52.57c-.17.78-.23,1.59-.39,2.37-.1.54,0,.83.59,1,.75.2,1.46.52,2.21.71a1,1,0,0,0,.81-.18,13.85,13.85,0,0,1,5.22-3.18,1,1,0,0,0,.51-.66C51.15,35.65,51.25,34.68,51.39,33.69Zm-31.23,0c.13,1,.24,2,.42,2.92a1.1,1.1,0,0,0,.52.65c1.17.63,2.41,1.15,3.55,1.83.75.45,1.32,1.44,2.08,1.58s1.66-.47,2.5-.75l.09,0c.58-.09.7-.42.59-1-.16-.76-.22-1.53-.39-2.28A1,1,0,0,0,29,36a13.59,13.59,0,0,1-5.21-3.17.86.86,0,0,0-.67-.24C22.12,32.93,21.13,33.32,20.16,33.69Zm41.67-14.8v6.74l5.52-3.37Zm-52.1,0L4.2,22.27l5.53,3.35Z" transform="translate(0)"></path></g></g></svg>