<svg xmlns="http://www.w3.org/2000/svg" viewBox="0 0 695.29 200.18"><defs><style>.cls-1{fill:#f5f3f2;}.cls-2{font-size:21.52px;font-family:FiraSans-Bold, Fira Sans;font-weight:700;}.cls-13,.cls-2{fill:#72aca9;}.cls-3{letter-spacing:-0.01em;}.cls-4{letter-spacing:0em;}.cls-5{letter-spacing:-0.24em;}.cls-6{letter-spacing:-0.01em;}.cls-7{letter-spacing:-0.01em;}.cls-8{letter-spacing:0em;}.cls-9{letter-spacing:-0.24em;}.cls-10{letter-spacing:-0.01em;}.cls-11{letter-spacing:-0.03em;}.cls-12{letter-spacing:-0.02em;}.cls-14,.cls-15{fill:none;stroke:#a9caca;stroke-miterlimit:10;stroke-width:3px;}.cls-15{stroke-dasharray:4.88 4.88;}</style></defs><g id="Capa_2" data-name="Capa 2"><g id="Capa_1-2" data-name="Capa 1"><rect class="cls-1" width="695.29" height="200.18" rx="32.56"></rect><text class="cls-2" transform="translate(71.25 135.29)">30 <tspan class="cls-3" x="28.88" y="0">t</tspan><tspan x="36.93" y="0">ab</tspan><tspan class="cls-4" x="61.58" y="0">l</tspan><tspan x="67.86" y="0">ets</tspan><tspan class="cls-5" x="98.45" y="0">​</tspan></text><text class="cls-2" transform="translate(256.32 138.07)">2 es<tspan class="cls-6" x="38.51" y="0">c</tspan><tspan x="48.6" y="0">ue</tspan><tspan class="cls-4" x="72.79" y="0">l</tspan><tspan class="cls-7" x="79.08" y="0">a</tspan><tspan class="cls-8" x="90.66" y="0">s en Lima</tspan><tspan class="cls-9" x="182.65" y="0">​</tspan><tspan x="-21.51" y="26.38">1 es</tspan><tspan class="cls-6" x="15.85" y="26.38">c</tspan><tspan x="25.95" y="26.38">ue</tspan><tspan class="cls-4" x="50.14" y="26.38">l</tspan><tspan x="56.42" y="26.38">a en </tspan><tspan class="cls-10" x="102.72" y="26.38">Ca</tspan><tspan x="126.46" y="26.38">jama</tspan><tspan class="cls-11" x="174.29" y="26.38">r</tspan><tspan class="cls-7" x="182.27" y="26.38">c</tspan><tspan x="192.37" y="26.38">a</tspan><tspan class="cls-9" x="204.16" y="26.38">​</tspan></text><text class="cls-2" transform="translate(537.15 137.41)">850 kits <tspan x="-7.34" y="23.61">es</tspan><tspan class="cls-12" x="14.94" y="23.61">c</tspan><tspan x="24.82" y="23.61">o</tspan><tspan class="cls-4" x="37.39" y="23.61">l</tspan><tspan x="43.67" y="23.61">a</tspan><tspan class="cls-11" x="55.47" y="23.61">r</tspan><tspan x="63.45" y="23.61">es</tspan><tspan class="cls-9" x="85.73" y="23.61">​</tspan></text><path class="cls-13" d="M86.05,50a4.27,4.27,0,0,1,2.37-3.15,6.69,6.69,0,0,1,2.46-.48q17.72,0,35.42,0c7.9,0,15.81.05,23.72,0a4.6,4.6,0,0,1,4.88,4.88c-.06,12.59,0,25.19,0,37.78a4.32,4.32,0,0,1-3.19,4.5,3,3,0,0,1-.79.13h-5.34v-6.4h2.81V52.85H92.55V87.23h.81c5.82,0,11.64,0,17.47,0a1,1,0,0,1,1,.58c.91,1.74,1.87,3.46,2.81,5.19.11.19.2.39.35.7H91.49c-3.24,0-4.24-.66-5.44-3.6ZM151.6,67.89A2.12,2.12,0,0,0,149.49,70a2.16,2.16,0,0,0,2.13,2.14,2.2,2.2,0,0,0,2.16-2.2A2.14,2.14,0,0,0,151.6,67.89Z"></path><path class="cls-13" d="M120.1,82.85V61.24c0-1.53.57-2.5,1.73-2.88a2.69,2.69,0,0,1,3.67,2.71c0,4.46,0,8.92,0,13.37v.71h.18c0-.62,0-1.25,0-1.88a2.68,2.68,0,1,1,5.35-.09c0,.71,0,1.41,0,2.12l.23,0a2.36,2.36,0,0,0,.09-.43c0-.65,0-1.3,0-1.95a2.67,2.67,0,0,1,5.25-.36,17.82,17.82,0,0,1,.1,2.07c0,.23,0,.45,0,.67h.17a2.42,2.42,0,0,0,.07-.47c0-.54,0-1.07,0-1.61a2.68,2.68,0,1,1,5.36,0c0,1.3,0,2.6,0,3.9,0,4.81,0,9.63,0,14.44a10.09,10.09,0,0,1-3.27,7.62,9.67,9.67,0,0,1-5.23,2.4,16.09,16.09,0,0,1-8.58-.81,9.55,9.55,0,0,1-4.94-4.6c-2.52-4.64-5.17-9.21-7.74-13.82a6.75,6.75,0,0,1-.71-1.94,2.06,2.06,0,0,1,1-2.41,2.5,2.5,0,0,1,3,.17,23,23,0,0,1,2.27,2.45c.63.74,1.22,1.52,1.83,2.28Z"></path><text></text><line class="cls-14" x1="208.82" y1="30.39" x2="208.82" y2="32.89"></line><line class="cls-15" x1="208.82" y1="37.78" x2="208.82" y2="162.32"></line><line class="cls-14" x1="208.82" y1="164.76" x2="208.82" y2="167.26"></line><line class="cls-14" x1="486.2" y1="30.39" x2="486.2" y2="32.89"></line><line class="cls-15" x1="486.2" y1="37.78" x2="486.2" y2="162.32"></line><line class="cls-14" x1="486.2" y1="164.76" x2="486.2" y2="167.26"></line><path class="cls-13" d="M590.72,60a.78.78,0,0,0-.78-.78H568.2a.79.79,0,0,0,0,1.57h21.74A.78.78,0,0,0,590.72,60Z"></path><path class="cls-13" d="M568.2,57.11h21.74a.79.79,0,0,0,0-1.57H568.2a.79.79,0,0,0,0,1.57Z"></path><path class="cls-13" d="M598.1,94.21,594.7,82v26.66h14a.82.82,0,0,0,.82-.82V95H599.14A1.14,1.14,0,0,1,598.1,94.21Z"></path><path class="cls-13" d="M592.42,80.44l-4.31,13.78a1.19,1.19,0,0,1-1.06.78H543.52v12.83a.82.82,0,0,0,.82.82h48.08Z"></path><path class="cls-13" d="M594.69,74.3l4.58,18a1.13,1.13,0,0,0,1,.8h14.27a.61.61,0,0,0,.55-.3.65.65,0,0,0,.06-.5l-4.59-18a1.11,1.11,0,0,0-1-.79H595.3A.6.6,0,0,0,594.69,74.3Z"></path><path class="cls-13" d="M585.54,93.11a1.23,1.23,0,0,0,1.08-.78l5.8-17.42v-.38h.13a.55.55,0,0,0-.57-.76H544.53a1.23,1.23,0,0,0-1.08.78l-5.92,17.78a.54.54,0,0,0,.34.74.78.78,0,0,0,.22,0Z"></path><path class="cls-13" d="M586.83,72.36l12-10.89V41.84a.49.49,0,0,0-.48-.48h-37a.49.49,0,0,0-.48.48V72.36Zm-21-20.18a112.42,112.42,0,0,1,26.44,0V65a112.42,112.42,0,0,1-26.44,0Z"></path><polygon class="cls-13" points="602.41 61.22 589.77 72.36 594.34 72.36 604.41 63.48 602.41 61.22"></polygon><polygon class="cls-13" points="609.77 57.72 611.65 59.84 613.74 56.11 609.77 57.72"></polygon><polygon class="cls-13" points="603.73 60.16 608.46 65.53 611 61 608.55 58.21 603.73 60.16"></polygon><polygon class="cls-13" points="596.16 72.36 600.82 72.36 607.24 66.7 605.21 64.39 596.16 72.36"></polygon><path class="cls-13" d="M559,72.36V42a.48.48,0,0,0-.48-.47h-3.32a.47.47,0,0,0-.47.47v30.4Z"></path><path class="cls-13" d="M373.9,79.59,356,66.62V55.38h2.56c.53,0,.62-.34.19-.76l-10-9.58V41.18H356V36h-7.28v-.86a.86.86,0,0,0-1.71,0v9.48a.44.44,0,0,0-.16.1l-10.29,9.86c-.44.42-.35.76.18.76h2.57V66.63l-17.92,13c-1,.74-.83,1.35.43,1.35h51.63C374.73,80.94,374.93,80.33,373.9,79.59Zm-30.73-23h8.95v8.57h-8.95Z"></path><path class="cls-13" d="M326,108.37h15.45V92.49h.13a6.16,6.16,0,0,1,12.12,0h.1v15.88h15.45V83.27H326Z"></path></g></g></svg>