<?xml version="1.0" encoding="utf-8"?>
<!-- Generator: Adobe Illustrator 23.0.3, SVG Export Plug-In . SVG Version: 6.00 Build 0)  -->
<svg version="1.1" id="Capa_1" xmlns="http://www.w3.org/2000/svg" xmlns:xlink="http://www.w3.org/1999/xlink" x="0px" y="0px"
	 width="200px" height="200px" viewBox="0 0 200 200" style="enable-background:new 0 0 200 200;" xml:space="preserve">
<style type="text/css">
	.st0{fill:#E36F1E;}
	.st1{fill:#FFFFFF;}
</style>
<rect class="st0" width="200" height="200"/>
<path class="st1" d="M119.857,125.543c-2.946,0-5.618-1.5-7.148-4.013c-0.575-0.943-1.805-1.243-2.748-0.668
	c-0.943,0.575-1.242,1.805-0.668,2.748c1.064,1.747,2.506,3.159,4.183,4.168l-2.073,9.407l-4.997-5.754
	c0.907-1.043,0.688-2.262-0.093-2.941c-0.833-0.724-2.096-0.637-2.821,0.197l-3.516,4.044l-8.858-9.842
	c0.754-1.448,1.211-3.036,1.341-4.692c17.143,5.047,34.293-7.892,34.293-25.665V76c0-1.104-0.896-2-2-2c-1.104,0-2,0.896-2,2v16.531
	c0,12.544-10.205,22.75-22.75,22.75s-22.75-10.205-22.75-22.75V75.558c4.876-0.277,9.023-3.338,10.501-8.886
	c8.327,5.333,17.662,8.788,27.458,10.159c1.098,0.153,2.105-0.613,2.258-1.703c0.153-1.094-0.609-2.105-1.703-2.258
	c-9.975-1.396-19.709-5.13-28.358-11.252c-1.322-0.937-3.163,0.016-3.155,1.645c0,0.05-0.019,5.01-3.781,7.273
	c-2.379,1.431-4.786,0.969-5.2,0.965c-1.022-0.01-1.888,0.757-2.005,1.769c-0.022,0.193-0.014-0.465-0.014,16.004
	C71.914,88.581,71,87.202,71,85.615V61.25c0-2.619,2.131-4.75,4.75-4.75c0.818,0,1.553-0.498,1.857-1.257
	C80.339,48.413,86.857,44,94.213,44h17.152c9.862,0,17.885,8.023,17.885,17.885v23.73c0,1.104,0.895,2,2,2c1.105,0,2-0.896,2-2
	v-23.73c0-12.067-9.817-21.885-21.885-21.885H94.213c-8.58,0-16.229,4.907-19.821,12.605C70.21,53.26,67,56.887,67,61.25v24.365
	c0,3.826,2.677,7.042,6.27,7.905c0.373,10.215,6.5,18.986,15.23,23.16v0.527c0,2.228-0.869,4.322-2.447,5.895
	c-2.798,2.79-6.324,2.44-5.91,2.44c-11.409,0-20.643,9.232-20.643,20.643V158c0,1.104,0.895,2,2,2s2-0.895,2-2v-11.814
	c0-9.199,7.444-16.643,16.643-16.643c0.875,0,1.749-0.093,2.613-0.278l2.791,12.665c0.353,1.604,2.388,2.119,3.463,0.881l3.94-4.537
	l-2.435,19.478c-0.137,1.096,0.641,2.095,1.737,2.232c1.098,0.137,2.096-0.642,2.233-1.736l2.814-22.51
	c0.127,0.141,1.239,1.388,1.382,1.514c0.826,0.725,2.083,0.651,2.817-0.177c0.396-0.453-0.628,0.723,1.2-1.378l2.819,22.551
	c0.137,1.094,1.134,1.873,2.233,1.736c1.096-0.137,1.873-1.136,1.737-2.232l-2.435-19.478l3.94,4.537
	c1.077,1.24,3.11,0.72,3.463-0.881l2.791-12.665c0.847,0.18,1.721,0.278,2.613,0.278c9.198,0,16.643,7.444,16.643,16.643V158
	c0,1.104,0.896,2,2,2c1.105,0,2-0.895,2-2v-11.814C140.5,134.776,131.267,125.542,119.857,125.543L119.857,125.543z M88.598,137.186
	l-2.073-9.409c0.763-0.461,1.478-1.009,2.137-1.636l4.849,5.388L88.598,137.186z"/>
</svg>
