<svg xmlns="http://www.w3.org/2000/svg" id="Capa_1" data-name="Capa 1" viewBox="0 0 300 300"><defs><style>.cls-1{fill:#e06f2b;}</style></defs><path class="cls-1" d="M125.61,42.77a38.29,38.29,0,0,1,26.68,11c1.55,1.45,2.42,1.4,4,0,7.94-7.39,17.28-11.34,28.26-10.89,13.07.53,22.28,7.2,28.55,18.31A40.29,40.29,0,0,1,218,86.45c-.19,1.48.31,2,1.66,2.53,9.19,3.33,13.87,10.35,15.25,19.65,1.31,8.91-1.69,16.5-8.13,22.74q-13.1,12.69-26.25,25.34c-3.09,3-5.41,3-8.47,0C187,151.83,181.86,147,176.85,142c-1.14-1.13-1.82-1.28-3-.09-5.08,5-10.26,9.88-15.4,14.81-3,2.91-5.27,2.93-8.25.06q-23.55-22.71-47.09-45.42a41.38,41.38,0,0,1-1.26-58.79A31.29,31.29,0,0,1,125.61,42.77Zm83.24,38.32a19.61,19.61,0,0,0-.56-5.87,38.61,38.61,0,0,0-1.65-5.76c-5-13.15-16.75-19.56-30.17-16.5-6.2,1.42-11.14,5-15.7,9.24-4.74,4.42-8.25,4.38-13,0a41,41,0,0,0-10.65-7.55c-10.93-4.9-22.78-2.52-30.17,6.17-10.63,12.5-9.49,32.33,2.46,43.64,5.66,5.35,11.25,10.76,16.85,16.16q13.22,12.73,26.4,25.49c.8.77,1.49,1.71,2.74.49q6-5.85,12-11.58c.88-.84.75-1.47-.09-2.19-.57-.48-1.06-1-1.6-1.55-6.77-6.56-9.7-14.52-7.94-23.8,1.79-9.43,6.94-16.35,16.59-19,7.48-2,14.23.06,20.25,4.65,1.23.94,2,1.06,3.23,0a20.13,20.13,0,0,1,6.51-3.75c4.34-1.58,4.34-1.6,4.5-6.29C208.86,82.59,208.85,82,208.85,81.09Zm-42.1,31.06a15.7,15.7,0,0,0,5.13,12.11c7.56,7.33,15.18,14.59,22.71,21.94,1.25,1.22,2.07,1.22,3.29,0,7.68-7.52,15.44-14.95,23.12-22.48a15.94,15.94,0,0,0,4.75-12.93c-.52-8.19-6.54-13.93-14.11-13.42a15,15,0,0,0-8.65,3.69c-6.43,5.31-7.3,5.28-13.73-.13a14,14,0,0,0-12.86-3.22C170.66,99.14,166.76,105.12,166.75,112.15Z"></path><path class="cls-1" d="M260.18,196.93c-.13-.37-.25-.75-.35-1.13-2-7.24-6.54-11.92-13.85-13.78a21.11,21.11,0,0,0-12.42.91q-16,5.56-32.09,11.07L188,198.62a3.13,3.13,0,0,1-.16-.71c1.58-11-6.88-23.06-21.59-22.62-9.67.29-19.36,0-29,.08a9.47,9.47,0,0,1-4.93-1.32c-8-4.54-16-9-24-13.52a38.19,38.19,0,0,0-19.67-5.07c-4.81,0-10.85,0-16.76,0v0H0v10H71.83c5.59,0,11.29,0,15.8,0a33.72,33.72,0,0,1,16.88,4.41c7.6,4.34,15.25,8.57,22.85,12.9a19.26,19.26,0,0,0,9.93,2.59q15.27-.13,30.53,0a9.91,9.91,0,1,1-.1,19.82q-24.21,0-48.4,0a8.87,8.87,0,0,0-3.43.37A4.92,4.92,0,0,0,117,215a22.76,22.76,0,0,0,2.48,0c15.56,0,31.11-.13,46.66.08,5,.07,9.36-1.66,13.88-3.22q28.32-9.82,56.67-19.56a13.47,13.47,0,0,1,5.09-.94,8.62,8.62,0,0,1,8.52,7.27,9.08,9.08,0,0,1-5.24,10.21c-7.37,3.35-14.81,6.55-22.21,9.81-23.74,10.45-47.45,21-71.23,31.32-17.3,7.54-34.13,6.21-50.34-3.37-7.68-4.54-15.36-9.09-23-13.79-4.3-2.66-12.34-4.56-17.58-5.78h-.08l-1-.23a4.83,4.83,0,0,0-2.92.23H-4.84v10H59.38a34.1,34.1,0,0,1,8.55,3.58c8.06,4.88,20.15,9.71,28.23,14.55a63.65,63.65,0,0,0,45,8.49c8.24-1.44,15.68-5.08,23.23-8.41l84.36-37.17a18.82,18.82,0,0,0,11.15-13.39,1.34,1.34,0,0,1,.09-.26,5.38,5.38,0,0,0,.4-1.94v-4.06A4.93,4.93,0,0,0,260.18,196.93Z"></path></svg>