<svg xmlns="http://www.w3.org/2000/svg" id="Capa_1" data-name="Capa 1" viewBox="0 0 300 300"><defs><style>.cls-1{fill:#e06f2b;}</style></defs><path class="cls-1" d="M204.1,209a4.65,4.65,0,0,0,.46-3.05c0-13.93,0-27.86,0-41.79,0-9.75,6.92-15.73,16.46-14.22,1.55.25,1.64-.28,1.79-1.54.82-6.93,5-11.27,11.68-12.36,6.13-1,11.56,2,14.36,8.19.63,1.39,1.26,1.47,2.56,1.2,8.42-1.76,15.62,3.31,16.72,11.84.2,1.57.4,2,2.16,1.69a13.37,13.37,0,0,1,16.09,13.22q.15,30.42,0,60.83a48.09,48.09,0,0,1-4.15,18.74c-3.75,8.79-5.46,33.89-4.88,43.42a16.83,16.83,0,0,1,0,2.56,4.37,4.37,0,0,1-4.5,4.2,4.24,4.24,0,0,1-4.5-4.18c-.28-9.3-.19-34.55,3.24-43.45,2.31-6,4.91-11.92,5.46-18.44.16-1.89.32-3.78.32-5.67q0-28.27,0-56.56c0-1.74,0-3.48-1.45-4.71a4.51,4.51,0,0,0-5-.74c-2,.89-2.62,2.55-2.62,4.6q0,14.5,0,29c0,4.69-1.4,6.81-4.51,6.84s-4.59-2.15-4.59-6.77q0-21,0-42.06c0-2-.17-3.83-2.05-5a4.56,4.56,0,0,0-4.87-.09c-1.78,1-2.2,2.68-2.19,4.6q0,20.19,0,40.37c0,1.23,0,2.46,0,3.69-.08,3.16-1.76,5.15-4.41,5.23s-4.66-2-4.67-5.25q0-25.73,0-51.45a26.87,26.87,0,0,0-.05-2.84,4.53,4.53,0,0,0-9-.07,19.82,19.82,0,0,0,0,2.56v50.31a15.7,15.7,0,0,1-.08,2.83c-.48,2.44-2,3.91-4.53,3.87s-4-1.53-4.42-4a14.44,14.44,0,0,1-.06-2.55q0-18.9,0-37.8c0-2.35-.44-4.35-2.92-5.28a4.46,4.46,0,0,0-6.13,3.61,22.25,22.25,0,0,0-.06,2.83v59.13c0,.85,0,1.71,0,2.55a4.36,4.36,0,0,1-4.44,4.26c-2.47,0-4.67-1.6-4.49-4.1.21-2.93-1.25-4.78-2.87-6.76-3.78-4.63-7.51-9.28-11.29-13.9-2.21-2.71-4.58-3.21-6.85-1.52s-2.45,3.94-.63,6.8q11.27,17.75,22.6,35.44c2.41,3.76,5.59,6.93,8.44,10.34,5.55,6.64,8.55,30.21,8.64,38.89,0,3.41-1.59,5.35-4.45,5.4s-4.49-1.8-4.64-5.26c-.31-7.29-2.87-29.65-7.95-34.92a75.22,75.22,0,0,1-9.4-12.09c-7.1-11.19-14.26-22.34-21.31-33.57a13.28,13.28,0,0,1,.73-15.9,13.6,13.6,0,0,1,14.8-4.57c3.62,1.13,6,3.78,8.29,6.63C200.56,204.43,202.27,206.64,204.1,209Z"></path><path class="cls-1" d="M210,94.92H187.54c-7.86,0-15.73.06-23.59,0-9.06-.09-15.09-7.34-13.57-16.31.22-1.3.16-1.75-1.34-1.94-7.22-.9-11.51-5-12.54-11.82-.92-6.11,2-11.29,8.35-14.26,1.24-.59,1.34-1.17,1.1-2.37-1.74-8.75,3.19-15.77,12-16.85,1.86-.23,1.77-.82,1.5-2.3a13.35,13.35,0,0,1,12.83-15.94q31.13-.21,62.25.06A44,44,0,0,1,251.56,17c9.12,3.92,34.58,5.78,44.51,5.13a12,12,0,0,1,2,0,4.38,4.38,0,0,1,4.35,4.64,4.27,4.27,0,0,1-4.3,4.38c-9.6.32-35.2.26-44.21-3.65-9.66-4.19-19.65-5.71-30.17-5.49-16.57.35-33.16.1-49.74.08-1.85,0-3.65.08-4.84,1.76a4.56,4.56,0,0,0-.44,4.84c.95,2,2.65,2.52,4.69,2.51h29.27a18.21,18.21,0,0,1,2.56.07,4.3,4.3,0,0,1,3.84,4.52,4.26,4.26,0,0,1-3.93,4.45,18.07,18.07,0,0,1-2.55,0q-21,0-42.07,0a6.48,6.48,0,0,0-3.85.69A4.37,4.37,0,0,0,154.72,46,4.16,4.16,0,0,0,159,49.41c3.7.05,7.39,0,11.09,0h33.82c2,0,3.74.52,4.69,2.51a4.54,4.54,0,0,1-.45,4.84c-1.18,1.68-3,1.76-4.83,1.76q-25.31,0-50.6,0c-.76,0-1.51,0-2.27,0-3.16.1-5,1.83-5,4.6s1.88,4.47,5.1,4.47q21.18,0,42.35,0c3.6,0,7.2,0,10.8,0,3.44,0,5.33,1.67,5.35,4.52s-1.89,4.56-5.3,4.56c-12.7,0-25.4,0-38.09,0a15.78,15.78,0,0,0-2.84.09,4.22,4.22,0,0,0-3.71,4.35,4.3,4.3,0,0,0,3.78,4.57,19.18,19.18,0,0,0,2.84.08h59.12c.85,0,1.71,0,2.56,0a4.38,4.38,0,0,1,4.38,4.61c-.05,2.47-1.72,4.5-4.27,4.35s-4.44,1.08-6.28,2.6c-4.76,3.91-9.57,7.75-14.34,11.65-2.57,2.1-3.06,4.42-1.48,6.63s4,2.58,6.78.81c12-7.61,24-15.16,35.88-23,3.62-2.37,6.78-5.45,10.13-8.24,6.64-5.54,30.24-8.51,38.93-8.55,3.22,0,5.11,1.58,5.23,4.32s-1.77,4.69-5.12,4.74c-6.51.12-28.31,2.16-33.17,6.47-14.55,12.92-31.83,21.8-47.94,32.4-6.05,4-13.73,2.2-18-3.46a13.29,13.29,0,0,1,1.7-18C202.84,100.44,206.14,98,210,94.92Z"></path><path class="cls-1" d="M95.42,89.48v3.63q0,20.74,0,41.5c0,10-6.72,15.91-16.52,14.43-2-.3-1.6.85-1.73,1.91A13.68,13.68,0,0,1,58.7,162.26,12.42,12.42,0,0,1,51.16,155c-.48-1.18-.81-1.81-2.4-1.5-9,1.76-15.67-3-16.94-12.12-.2-1.47-.61-1.59-1.93-1.37-9.15,1.51-16.31-4.52-16.33-13.82q-.08-29.28,0-58.55a47.82,47.82,0,0,1,3.82-19.38c4.06-9.2,5.85-33.74,5.26-43.76a13.24,13.24,0,0,1,0-2.27,4.35,4.35,0,0,1,4.54-4.15A4.27,4.27,0,0,1,31.69,2.3c.41,10.29,0,35.49-4.27,45.1a59.21,59.21,0,0,0-4.84,25.14c.2,17.62.06,35.24.05,52.87,0,1.84,0,3.66,1.69,4.87a4.53,4.53,0,0,0,4.82.54c2-.92,2.6-2.58,2.6-4.63q0-14.2,0-28.42c0-.86,0-1.71,0-2.56.13-3,1.81-4.77,4.48-4.8s4.49,1.75,4.58,4.7c.08,2.74,0,5.49,0,8.24q0,18.2,0,36.38c0,2,.51,3.74,2.5,4.69a4.54,4.54,0,0,0,4.84-.43c1.68-1.18,1.77-3,1.77-4.84q0-20.88,0-41.78c0-.85,0-1.71,0-2.55a4.52,4.52,0,0,1,9,.12c.1,2.36,0,4.73,0,7.1v45.48a14.83,14.83,0,0,0,.1,2.83,4.54,4.54,0,0,0,8.88.06,14,14,0,0,0,.11-2.83q0-25.73,0-51.45c0-1.86.11-3.65,1.8-4.82a4.54,4.54,0,0,1,4.84-.41c2,1,2.48,2.68,2.48,4.71q0,18.61,0,37.23c0,.85,0,1.71,0,2.56.1,3.15,1.85,5,4.62,5s4.33-1.84,4.46-4.83c0-.76,0-1.52,0-2.28V74.7c0-.85,0-1.7,0-2.55.19-2.77,1.93-4.48,4.51-4.48a4.17,4.17,0,0,1,4.48,4.45c-.11,2.42.9,4.08,2.32,5.8,3.93,4.74,7.76,9.56,11.64,14.34,2.28,2.8,4.51,3.39,6.83,1.84s2.68-4,.81-7C108.81,74.1,100.78,61,91.8,48.58a63.62,63.62,0,0,0-4.55-5.44C81,36.2,77.56,13.08,77.25,3.71,77.13.09,78.8-1.9,81.74-1.92s4.45,1.81,4.59,5.3c.31,7.19,2.8,28.49,7.8,33.69a79.8,79.8,0,0,1,9.73,12.55c7,10.94,14,21.87,20.88,32.83,4.22,6.68,2.87,14.52-3.15,19s-13.56,3.28-18.78-2.74C100.43,95.92,98.24,93,95.42,89.48Z"></path><path class="cls-1" d="M91,204.08q21.85,0,43.73,0a21.23,21.23,0,0,1,4.51.35,13.31,13.31,0,0,1,10.46,15.73c-.32,1.67,0,2,1.65,2.19,6.64.69,11,4.95,12.15,11.57,1,6.09-2,11.67-8.08,14.42-1.3.59-1.61,1.1-1.33,2.5,1.78,8.66-3.19,15.63-12,16.81-1.58.21-1.76.59-1.5,2.07a13.4,13.4,0,0,1-13.41,16.19q-30,.1-60,0a47.42,47.42,0,0,1-19.05-4c-8.86-3.92-34-5.57-43.66-5a15.63,15.63,0,0,1-2.56,0,4.51,4.51,0,0,1-4.31-4.44A4.44,4.44,0,0,1,2,267.8c10.69-.48,37.2.29,47.15,4.74a53.62,53.62,0,0,0,22.66,4.36c18-.13,36,0,54,0,1.73,0,3.48,0,4.72-1.42a4.49,4.49,0,0,0,.79-5c-.88-2-2.52-2.67-4.58-2.67h-29c-.85,0-1.71,0-2.56,0a4.51,4.51,0,0,1,0-9c1.89-.12,3.79,0,5.68,0q19.62,0,39.22,0c1.92,0,3.6-.41,4.61-2.19a4.54,4.54,0,0,0-.07-4.86c-1.13-1.88-3-2.08-5-2.07q-21,0-42.06,0c-4.75,0-6.75-1.34-6.76-4.53s2-4.57,6.71-4.57h51.16c1.75,0,3.47-.06,4.65-1.57a4.51,4.51,0,0,0,.69-4.8c-.86-2-2.47-2.74-4.54-2.73H130.25q-17,0-34.1,0c-1.92,0-3.6-.4-4.61-2.19a4.56,4.56,0,0,1,.08-4.86c1.14-1.88,3-2.07,5-2.06q18.9,0,37.8,0a14.06,14.06,0,0,0,2.83-.1,4.54,4.54,0,0,0,0-8.88,14.13,14.13,0,0,0-2.84-.11H75c-.85,0-1.71,0-2.55,0a4.37,4.37,0,0,1-4.3-4.41,4.16,4.16,0,0,1,4.36-4.56c2.54.12,4.26-1,6-2.44,4.74-3.93,9.56-7.76,14.33-11.65,2.7-2.21,3.24-4.61,1.6-6.87s-3.93-2.49-6.79-.71C74.61,190.67,61.46,198.76,49,207.8a67.33,67.33,0,0,0-5.44,4.56c-7,6.26-31.1,9.62-40.47,9.89-3.43.1-5.37-1.53-5.46-4.38s1.78-4.62,5.17-4.69c6.51-.12,28.3-2.2,33.17-6.5,14.51-12.8,31.76-21.56,47.7-32.23,6.26-4.18,13.93-2.41,18.21,3.35s3.45,13.48-2.35,18.61c-2.81,2.5-5.85,4.73-8.78,7.09Z"></path><path class="cls-1" d="M191,140.21c-.22,7.76-2.85,14-6.55,19.81-8,12.56-19,22-31.7,29.52a4.66,4.66,0,0,1-5.1.21c-14.76-8.88-27.5-19.79-35.25-35.59-3.32-6.77-4.39-13.84-2.18-21.21,4.66-15.52,22.11-20.17,33.82-9a25,25,0,0,1,4.52,5.44c1.23,2.12,1.87,1.57,3-.09a31.66,31.66,0,0,1,4.15-5c5.68-5.52,12.28-8.22,20.18-5.7,8.16,2.6,12.7,8.52,14.48,16.71C190.73,137.13,190.84,139,191,140.21Zm-9.15.68a15,15,0,0,0-.65-4.77c-2.56-9.61-12.23-12.24-19.26-5.27a30.44,30.44,0,0,0-7.14,11.79c-.85,2.43-2.07,4.38-4.9,4.33-2.67-.05-3.84-1.93-4.66-4.26a30.13,30.13,0,0,0-6.92-11.6c-3.06-3.07-6.5-5.29-11.13-4s-7.28,4.83-8.48,9.43c-1.53,5.83.31,11.07,3.08,16,6.44,11.52,16,20,26.9,27.15a2.24,2.24,0,0,0,2.82-.1c10-6.52,18.81-14.33,25.25-24.53C179.5,150.78,181.64,146.17,181.84,140.89Z"></path></svg>