<?xml version="1.0" encoding="utf-8"?>
<!-- Generator: Adobe Illustrator 23.0.3, SVG Export Plug-In . SVG Version: 6.00 Build 0)  -->
<svg version="1.1" id="Capa_1" xmlns="http://www.w3.org/2000/svg" xmlns:xlink="http://www.w3.org/1999/xlink" x="0px" y="0px"
	 width="200px" height="200px" viewBox="0 0 200 200" style="enable-background:new 0 0 200 200;" xml:space="preserve">
<style type="text/css">
	.st0{fill:#E36F1E;}
	.st1{fill:#FFFFFF;}
</style>
<rect class="st0" width="200" height="200"/>
<path class="st1" d="M140.5,146.185V158c0,1.105-0.895,2-2,2c-1.105,0-2-0.895-2-2v-11.814c0-9.198-7.444-16.643-16.643-16.643
	c-1.601,0-3.147-0.303-4.575-0.867l-4.565,29.628c-0.168,1.092-1.19,1.84-2.281,1.672c-1.092-0.168-1.84-1.189-1.672-2.281
	l4.825-31.316c-0.879-0.794-1.657-1.719-2.296-2.768c-0.575-0.943-0.276-2.174,0.668-2.748c0.943-0.575,2.174-0.276,2.748,0.668
	c1.515,2.486,4.19,4.013,7.148,4.013C131.266,125.542,140.5,134.775,140.5,146.185L140.5,146.185z M107.465,132.97
	c-0.676-0.873-1.932-1.033-2.806-0.357L100,136.22l-11.436-8.854l-0.153-0.991c2.3-2.071,3.79-4.935,4.046-8.179
	c17.074,5.026,34.155-7.787,34.291-25.456c0.001-0.044,0.001-13.946,0.001-13.991c0-0.75-0.431-1.465-1.138-1.802
	c-0.436-0.209-8.536-1.949-12.003-10.685c-0.571-1.438-2.503-1.715-3.449-0.475c-7.319,9.593-17.712,16.001-29.361,18.31
	c-1.083,0.215-1.787,1.267-1.573,2.351c0.189,0.952,1.025,1.611,1.96,1.611c0.502,0,17.339-2.489,30.146-17.368
	c2.663,4.555,6.741,7.816,11.418,9.511v12.329c0,12.544-10.205,22.75-22.75,22.75c-11.741,0-22.75-9.126-22.75-23.531
	c0-1.104-0.896-2-2-2c-1.104,0-2,0.896-2,2c0,0.104-0.002,1.104,0.003,1.204c0.163,10.456,6.356,19.476,15.247,23.727v0.527
	c0,2.228-0.869,4.322-2.447,5.895c-2.808,2.8-6.431,2.44-5.91,2.44c-3.225,0-6.335,0.74-9.143,2.13V66.875
	C71,54.262,81.262,44,93.875,44h12.5c12.613,0,22.875,10.262,22.875,22.875V121c0,1.104,0.895,2,2,2c1.105,0,2-0.895,2-2V66.875
	C133.25,52.056,121.193,40,106.375,40h-12.5C79.056,40,67,52.056,67,66.875v63.392c-4.786,3.966-7.5,9.723-7.5,15.918V158
	c0,1.105,0.895,2,2,2s2-0.895,2-2v-11.814c0-4.445,1.731-8.625,4.875-11.768c5.556-5.556,12.618-4.874,11.769-4.874
	c1.592,0,3.138-0.301,4.574-0.872l4.566,29.633c0.152,0.988,1.004,1.696,1.974,1.696c1.231,0,2.165-1.095,1.979-2.305l-3.788-24.585
	l9.327,7.221c0.722,0.559,1.729,0.557,2.449,0l5.883-4.555C107.981,135.1,108.141,133.844,107.465,132.97L107.465,132.97z"/>
</svg>
