<svg xmlns="http://www.w3.org/2000/svg" xmlns:xlink="http://www.w3.org/1999/xlink" id="Capa_1" x="0px" y="0px" viewBox="0 0 85 88" style="enable-background:new 0 0 85 88;" xml:space="preserve"><style type="text/css">	.st0{clip-path:url(#SVGID_2_);}	.st1{fill:#FFFFFF;}</style><g>	<defs>		<rect id="SVGID_1_" width="85" height="88"></rect>	</defs>	<clipPath id="SVGID_2_">		<use xlink:href="#SVGID_1_" style="overflow:visible;"></use>	</clipPath>	<g class="st0">		<path class="st1" d="M72,24.3h-3.1l-1.6,1.6c4.3,5.6,6.8,12.5,6.8,20c0,17.8-14.3,32.1-32,32.1c-18,0-32.3-14.4-32.3-32.1   s14.3-32.1,32-32.1c6.8,0,13,2.2,18.3,5.6l1.6-1.9l-0.6-2.8c-0.3-0.9,0-1.9,0.6-2.5l2.2-2.2c-6.5-4.1-14-6.2-22-6.2   C18.9,3.7,0,22.8,0,45.9S18.9,88,41.9,88c23.3,0,41.9-19,41.9-42.1c0-9-2.8-17.5-7.8-24.7l-1.9,2.2C73.5,24,72.6,24.3,72,24.3z"></path>		<path class="st1" d="M18,45.9c0,13.1,10.5,24,23.9,24c13,0,23.9-10.6,23.9-24c0-5-1.6-9.7-4.3-13.7l-6.8,7.5   c0.9,1.9,1.2,3.7,1.2,5.9c0,7.8-6.2,14-14,14c-7.8,0-14-5.9-14-13.7c0-7.8,6.2-14,14-14c2.2,0,4,0.3,5.9,1.2l6.8-7.5   c-3.7-2.2-8.1-3.7-12.7-3.7C28.9,21.8,18,32.8,18,45.9z"></path>		<path class="st1" d="M41.9,39.9c-3.1,0-5.9,2.5-5.9,5.9c0,3.4,2.5,5.9,5.9,5.9c3.4,0,5.9-2.5,5.9-5.9c0-0.6,0-1.6-0.3-2.2l1.9-2.2   l18-19.7l5,0.3l9.6-10.3l3.4-3.7l-7.1-1.2L76.3,0l-13,14l0.9,4.4l-18.3,20l-1.9,2.2C43.4,40.3,42.8,39.9,41.9,39.9z"></path>	</g></g></svg>