<svg xmlns="http://www.w3.org/2000/svg" xmlns:xlink="http://www.w3.org/1999/xlink" id="Capa_1" x="0px" y="0px" viewBox="0 0 175 140" style="enable-background:new 0 0 175 140;" xml:space="preserve"><style type="text/css">	.st0{fill:#231F20;}	.st1{fill:#FFFFFF;}	.st2{fill:#261F64;}</style><path class="st1" d="M121,89.2c-0.1,0-0.2,0-0.3,0c-5.4,0-10.8,0-16.2,0c-2.8,0-5.6,0-8.4,0c-1.5,0-2.6,0.8-3,2.1 c-0.4,1.2,0,2.5,1.1,3.3c0.5,0.4,1.1,0.6,1.9,0.6c0,0,0.1,0,0.1,0c3.1,0,5.7,0,8.5,0l2.8,0c0,0,0,0,0,0c0.7,0,1.2,0.6,1.2,1.2 c0,0.7-0.6,1.2-1.2,1.2l-2.8,0c-2.8,0-5.5,0-8.5,0c0,0-0.1,0-0.1,0c-1.6,0-2.5,0-3.1,0.1c-1.8,0.1-1.9,0.1-5.9-1l-0.4-0.1 c-0.2,0-0.6-0.2-1.2-0.3c-4.1-1-6.5-1.6-7-1.8c-3.6-1.4-5.2-2-7.7-3l-3.4-1.4C63.1,88.6,59,87,55,85.4c-1.1-0.4-2.1-0.4-3,0 c-0.7,0.4-1.2,1-1.4,1.9c-0.3,1.3,0.2,2.4,1.4,3.3c7.6,5.6,15.8,11.1,24.5,16.5c5.2,3.2,11.2,4.9,18,5c3.1,0,6.3,0,9.4,0l8.3,0 c1.2,0,2.4,0,3.6,0c2.5,0,5,0,7.5,0c-0.8-7.7-1.6-15.3-2.2-22.7C121,89.4,121,89.3,121,89.2z"></path><path class="st1" d="M123.7,113.4C123.7,113.4,123.7,113.4,123.7,113.4c-0.1,0-0.2,0-0.4,0C123.5,113.4,123.6,113.4,123.7,113.4z"></path><path class="st1" d="M93.7,57.5c-0.1,1,0.2,1,1,0.9c17-2.6,29.6-17.1,29.8-34.2c0-1.7,0-3.4,0-5.1c-0.1-2.3-1.7-4.2-3.9-4.3 c-6.6-0.3-13.1,0.1-19.3,2.9c-7.9,3.6-13.8,9.2-17.6,17c-0.2,0.4-0.4,0.7-0.5,1.1c0,0-0.1,0.1-0.2,0.2c-0.6-0.7-1.2-1.5-1.9-2.2 c-6.1-6.6-13.6-10-22.6-10.1c-2.7-0.1-4.6,1.9-4.6,4.6c-0.2,12.7,8.9,25.2,21,29c0.3,0.1,0.5,0.1,1,0.2c-0.7-7.6-3.5-14.2-8.1-20.2 c3.3,1.6,5.9,4,7.9,7c3.7,5.6,4.8,11.9,5,18.5c0,0,0,0.1,0,0.1c0,1.6,0.3,3.3-0.3,4.6c-0.7,1.5-2.7,1.1-4.1,1.6 c-6.7,2.5-11.8,7-16,12.6c-0.5,0.7-1.1,1.5-1.6,2.3c2,0.8,4,1.6,6,2.3c5,2,6.1,2.4,11.1,4.4c0.7,0.3,6.2,2.1,6.9,2.3 c6.2,1.6,5.3,1.8,11.2,2.8c-1-0.2-2.7-2.3-3.5-2.9c-1.5-1.1-2.1-3-1.6-4.7c0.6-1.9,2.1-3,4.2-3c6.2,0,12.5,0,18.7,0 c-3.9-6.2-8.7-11.6-15.5-14.9c-2-1-4-1.6-6.1-2.1c-0.5-0.1-0.9-0.2-1-0.9c-0.3-9.8,1.3-19,7.4-27c2.5-3.2,5.6-5.7,9.4-7.3 c-3.1,3.2-5.9,6.7-7.9,10.7C95.7,48,94.3,52.6,93.7,57.5z"></path></svg>