<svg xmlns="http://www.w3.org/2000/svg" xmlns:xlink="http://www.w3.org/1999/xlink" id="Capa_1" x="0px" y="0px" viewBox="0 0 175 140" style="enable-background:new 0 0 175 140;" xml:space="preserve"><style type="text/css">	.st0{fill:#231F20;}	.st1{fill:#FFFFFF;}	.st2{fill:#261F64;}</style><g>	<path d="M53.9,35.1c0,0,0.1,0,0.1,0C54,35.1,54,35.1,53.9,35.1z"></path>	<path class="st1" d="M54.1,35.1C54.1,35.1,54,35.1,54.1,35.1C54.1,35.1,54.1,35.1,54.1,35.1C54.1,35.1,54.1,35.1,54.1,35.1z"></path>	<path class="st1" d="M49.3,97.5h3.2c1,0,1.9,0.4,2.5,1c-0.6-0.7-1.6-1.1-2.6-1.2c-1.1,0-2.2,0-3.4,0v0.2  C49.2,97.5,49.3,97.5,49.3,97.5z"></path>	<path class="st1" d="M69.9,44.5c-0.4,0.1-0.8,0.2-1.1,0.5c0.5-0.3,1.2-0.5,2.3-0.5C70.7,44.4,70.3,44.4,69.9,44.5z"></path>	<path class="st1" d="M119.9,44.4C119.9,44.4,119.9,44.4,119.9,44.4c-8.2,0-16.3,0-24.4,0C103.6,44.4,111.8,44.4,119.9,44.4  C119.9,44.4,119.9,44.4,119.9,44.4z"></path>	<path class="st1" d="M68.6,47.5c0.3,0.3,0.8,0.6,1.4,0.6c0.4,0,0.7,0,1.1,0c-0.1,0-0.1,0-0.2,0C69.9,48.1,69.1,47.9,68.6,47.5z"></path>	<path class="st1" d="M119,48.1c0.3,0,0.6,0,0.9,0C119.6,48.1,119.3,48.1,119,48.1C119,48.1,119,48.1,119,48.1z"></path>	<path class="st1" d="M122.2,45c0.4,0.4,0.6,0.8,0.6,1.4c0,0.5-0.2,0.8-0.5,1.1c0.3-0.3,0.5-0.7,0.5-1.2  C122.9,45.7,122.6,45.2,122.2,45z"></path>	<path class="st1" d="M68.8,45c-0.4,0.3-0.6,0.7-0.6,1.3c0,0.5,0.2,0.9,0.5,1.2c-0.3-0.3-0.5-0.7-0.5-1.1  C68.1,45.8,68.4,45.3,68.8,45z"></path>	<path class="st1" d="M71.2,48.1c0.3,0,0.6,0,0.9,0c0,0,0,0,0,0C71.7,48.1,71.4,48.1,71.2,48.1z"></path>	<path class="st1" d="M95.5,44.4c-8.1,0-16.3,0-24.4,0c0,0,0,0,0,0c0,0,0,0,0,0C79.2,44.4,87.4,44.4,95.5,44.4z"></path>	<path class="st1" d="M121.1,44.5c-0.4-0.1-0.8,0-1.2,0c1.1,0,1.8,0.2,2.3,0.5C122,44.7,121.6,44.5,121.1,44.5z"></path>	<path class="st1" d="M119.9,48.1c0.4,0,0.8,0,1.1,0c0.6,0,1.1-0.3,1.4-0.6c-0.5,0.4-1.2,0.6-2.4,0.6  C120,48.1,119.9,48.1,119.9,48.1z"></path>	<path class="st1" d="M127.1,112.5c0-21.9,0-43.8,0-65.6c0-0.3,0-0.6,0-0.9c0.1-0.9,0.7-1.5,1.6-1.6c0.9-0.1,1.6,0.3,1.9,1.2  c0.2,0.5,0.2,1.1,0.2,1.7c0,21.5,0.1,43,0,64.5c0,3.6,2.2,5.3,5.1,5c1-0.1,1.9,0,3,0c0-1.4,0-2.8,0-4.1c-3-0.7-3.8-1.8-3.8-4.9  c0-2,0-4.1,0-6.1c0-1.6,0.3-2.6,1.1-3.4c0.6-0.7,1.5-1.1,2.5-1.2c0.1,0,0.2-0.1,0.3-0.1c0-15.7,0-31.3,0-47.1  c-0.3-0.1-0.6-0.1-0.9-0.2c-1.7-0.4-2.9-1.8-3-3.6c0-2.7,0-5.4,0-8.1c0-2,1.2-3.1,3.8-3.8c1.2-6.9-4.1-13.4-11.1-13.8  c-0.4,0-0.9,0-1.3,0c-3.7,0-7.5,0-11.2,0c-1.7-4.3-5.8-7.3-10.6-7.4c-6.7-0.1-13.4-0.1-20.1,0c-4.7,0-8.9,3-10.6,7.4c-3,0-6,0-9,0  c-5.8,0-10.3,3-11.9,8.2c-0.6,1.8-0.6,3.7-0.9,5.5c0.8,0.3,1.4,0.4,2,0.7c0,0,0.1,0,0.1,0c0,0,0,0,0,0c0,0,0,0,0.1,0  c1.2,0.6,2,1.8,2,3.2v8c0,1.7-1.2,3.2-2.9,3.5c-0.3,0.1-0.7,0.2-1.1,0.3c0,0.4,0,0.9,0,1.4c0,13,0,25.9,0,38.9  c0,1.9-0.6,2.8-1.8,2.8c-0.5,0-0.9-0.2-1.2-0.5v4.7c1.1,0,2.2,0,3.4,0c1,0,1.9,0.5,2.6,1.2c0.7,0.6,1.1,1.5,1.1,2.5v8  c0,1.8-1.3,3.3-3,3.5c-0.3,0.1-0.6,0.2-1,0.3c0,0.7,0,1.3,0,2c0,0.6,0,1.3,0,2c1.6,0,3.1,0.1,4.6,0c2-0.2,3.4-1.9,3.5-3.9  c0-0.5,0-1,0-1.5c0-24.8,0-49.5,0-74.3c0-3.4,1.3-6.1,4.4-7.6c1.1-0.5,2.4-0.8,3.6-0.8c18.1-0.1,36.2,0,54.4,0c4.6,0,8.9,3.5,8,10  c-0.1,1-0.8,1.6-1.9,1.5c-1.1-0.1-1.6-0.7-1.7-1.7c0-0.5,0-1.1,0-1.6c0-2.8-1.7-4.5-4.5-4.5c-3.7,0-7.3,0-11,0  c-14.2,0-28.4,0-42.6,0c-3.5,0-5,1.5-5,5c0,24.9,0,49.7,0,74.6c0,1.1-0.1,2.2-0.4,3.3c-0.9,3.1-3.8,5.3-7.1,5.4c-1.4,0-2.8,0-4.1,0  c-0.3,3.1,2.3,5.9,5.4,6.1c0.3,0,0.7,0,1,0c24.5,0,49.1,0,73.6,0c3.8,0,6.5-2.5,6.4-6.1c-1.2,0-2.3,0-3.5,0  C130.4,120.6,127.1,117.4,127.1,112.5z M84.1,17c6.9-0.1,13.7-0.1,20.6,0c2.7,0,4.9,1.5,6.2,3.7c-11,0-22.1,0-33.1,0  C79.1,18.6,81.4,17,84.1,17z M113.1,85.2c-0.1,2.5-1.6,4-4.1,4c-2.4,0-4.9,0-7.3,0c0,0-0.1,0-0.3,0.1c0,2.3,0,4.5,0,6.8  c0,3.4-1.4,4.8-4.8,4.8c-0.8,0-1.6,0-2.4,0c-2.7,0-4.2-1.5-4.3-4.3c0-2.4,0-4.9,0-7.5c-2,0-4,0-5.9,0c-4.9,0-5.7-1-5.9-5.9  c-0.1-3.8,1-6,5.7-5.7c2,0.1,4,0,6.1,0c0-2.1,0.1-4,0-6c-0.3-4.3,1.2-5.9,5.8-5.9c4.7,0,6,1.6,5.8,5.8c-0.1,1.9,0,3.9,0,6  c2,0,3.9,0,5.7,0c0.7,0,1.4,0,2.1,0c2.4,0.1,3.9,1.5,4,3.9C113.1,82.9,113.1,84,113.1,85.2z M122.4,47.5c-0.3,0.3-0.8,0.6-1.4,0.6  c-0.4,0-0.7,0-1.1,0c-0.3,0-0.6,0-0.9,0c0,2,0,3.9,0,5.7c0,1.8-0.6,3.4-2,4.6c-1.8,1.6-3.9,1.9-6.1,1c-2.2-0.9-3.4-2.6-3.5-5  c-0.1-2,0-4.1,0-6.3c-0.7,0-1.2,0-1.7,0c-3.4,0-6.8,0-10.3,0s-6.8,0-10.3,0c-0.5,0-1,0-1.7,0c0,2.2,0.1,4.2,0,6.3  c-0.1,2.4-1.3,4.1-3.5,5c-2.2,0.9-4.3,0.6-6.1-1c-1.4-1.2-2-2.8-2-4.6c0-1.9,0-3.7,0-5.7c-0.3,0-0.6,0-0.9,0c-0.4,0-0.8,0-1.1,0  c-0.6,0-1.1-0.3-1.4-0.6c-0.3-0.3-0.5-0.7-0.5-1.2c0-0.6,0.2-1,0.6-1.3c0.3-0.3,0.7-0.4,1.1-0.5c0.4-0.1,0.8,0,1.2,0c0,0,0,0,0,0  c8.1,0,16.3,0,24.4,0c8.1,0,16.3,0,24.4,0c0,0,0,0,0,0c0.4,0,0.8,0,1.2,0c0.4,0.1,0.8,0.2,1.1,0.5c0.4,0.3,0.6,0.7,0.6,1.3  C122.9,46.8,122.7,47.2,122.4,47.5z"></path>	<path class="st1" d="M109.3,85.2c0,0.2-0.7,0.5-1,0.5c-2.7,0-5.5,0-8.2,0c-1.9,0-2.5,0.5-2.5,2.4c0,2.6,0,5.2,0,7.8  c0,0.4,0,0.9,0,1.4c-1.5,0-2.7,0-4.1,0c0-0.5-0.1-0.9-0.1-1.3c0-2.4,0-4.8,0-7.2c0-2.9-0.3-3.2-3.1-3.2c-2.5,0-5.1,0-7.6,0  c-0.9,0-1.2-0.3-1.1-1.1c0.1-1,0-1.9,0-3.1c1,0,1.9,0,2.8,0c2.2,0,4.3,0,6.5,0c2,0,2.5-0.6,2.5-2.6c0-2.6,0-5.1,0-7.7  c0-0.4,0-0.9,0-1.4c1.4,0,2.7,0,4.2,0c0,0.7,0,1.4,0,2c0,2.4,0,4.8,0,7.2c0,1.8,0.6,2.4,2.4,2.4c3.1,0,6.1,0,9.4,0  C109.4,82.8,109.4,84,109.3,85.2z"></path></g></svg>