<svg xmlns="http://www.w3.org/2000/svg" width="47" height="46" viewBox="0 0 47 46" fill="none"><g clip-path="url(#clip0_406_358)"><path d="M24.3815 28.7583L27.6079 25.5666C27.7743 25.4021 27.9406 25.2047 28.0736 24.9744C28.0736 25.0073 28.0736 25.0402 28.0736 25.106C28.0736 25.5008 28.373 25.5666 28.7056 25.5666C30.4353 25.5666 32.1982 25.5666 33.9278 25.5666C34.0941 25.5666 34.2605 25.5666 34.4268 25.5666C36.0234 25.5666 37.62 25.5666 39.1833 25.5666C39.6157 25.5666 39.8153 25.3692 39.7488 25.0073C39.6823 24.6782 39.4162 24.6782 39.1501 24.6782C35.6575 24.6782 32.1982 24.6782 28.7056 24.6782C28.506 24.6782 28.3065 24.7111 28.2067 24.8098C28.3065 24.6124 28.4062 24.415 28.4395 24.2176C28.4728 24.1188 28.4728 24.0201 28.506 23.9214C28.506 23.8556 28.5393 23.8227 28.5393 23.7569V23.6911V23.033L28.506 22.9343C28.4728 22.704 28.4395 22.5065 28.3397 22.2762C27.9073 21.0259 26.7099 20.2033 25.3794 20.2033C24.7806 20.2033 24.2152 20.3678 23.7495 20.6639C23.3503 20.4007 22.8847 20.2691 22.3857 20.2033C21.5542 20.1374 20.8224 20.3349 20.1904 20.8284C19.8245 21.0917 19.5584 21.4207 19.3588 21.7826C16.4317 20.1045 13.5046 18.4593 10.5775 16.7812C10.4445 16.7154 10.3114 16.6167 10.1451 16.6167C9.91226 16.6167 9.77921 16.7483 9.71269 16.9457C9.6129 17.2748 9.84574 17.4064 10.0786 17.538C13.0722 19.249 16.0326 20.9271 19.0262 22.6382C18.9597 23.0001 18.9597 23.395 19.0262 23.8227C19.126 24.4479 19.4254 25.0073 19.9243 25.4679L23.1508 28.6596C23.3171 28.8241 23.5499 28.9228 23.7495 28.9228C23.9823 29.0216 24.1819 28.9228 24.3815 28.7583ZM21.0885 24.4479C20.8224 24.2176 20.6893 23.9543 20.6561 23.6582C20.5563 23.0988 20.7226 22.6382 21.1217 22.2433C21.3878 21.9801 21.7205 21.8485 22.1529 21.8485C22.552 21.8485 22.8847 21.9801 23.184 22.2433L23.2506 22.3091C23.5832 22.6053 24.0489 22.6053 24.3815 22.3091C24.5478 22.1446 24.6808 22.0459 24.8472 22.013C25.4126 21.7826 25.8783 21.8485 26.3772 22.1775C26.7099 22.4078 26.9094 22.704 26.976 23.0988C27.0757 23.5924 26.9427 24.0201 26.6101 24.3821C26.5435 24.4808 26.4438 24.5466 26.344 24.6453L25.4126 25.5666C24.8804 26.0931 24.3482 26.6196 23.816 27.146C22.8847 26.2247 21.9866 25.3363 21.0885 24.4479Z" fill="#E36F1E"></path><path d="M46.6007 24.6453C46.002 24.6453 45.37 24.6453 44.7713 24.6453C44.5052 24.6453 44.3389 24.8427 44.3721 25.1059C44.3721 25.3692 44.5385 25.5337 44.8046 25.5337C45.3035 25.5337 45.7692 25.5337 46.2681 25.5337C46.5342 25.5337 46.767 25.5008 46.9999 25.3362C46.9999 25.1717 46.9999 25.0401 46.9999 24.8756C46.9001 24.7769 46.767 24.6453 46.6007 24.6453Z" fill="#E36F1E"></path><path d="M38.4848 41.0973C38.0191 41.0315 37.5535 40.9656 37.0878 40.8998C36.6554 40.8669 36.356 40.7024 36.223 40.2747C36.0899 39.8469 35.8238 39.4521 35.6242 39.0572C35.5244 38.8269 35.3581 38.6624 35.1253 38.6624C34.8924 38.6624 34.7594 38.8598 34.6596 39.0572C34.4268 39.5508 34.1607 40.0443 33.9278 40.5379C33.828 40.7353 33.7283 40.834 33.4954 40.8669C32.9632 40.9327 32.3978 41.0315 31.8656 41.0973C31.6327 41.1302 31.3999 41.1631 31.3001 41.4263C31.2003 41.6895 31.3666 41.887 31.5662 42.0515C31.9321 42.3805 32.2647 42.7425 32.6639 43.0715C32.8967 43.2689 32.9965 43.4993 32.8967 43.8283C32.7636 44.3877 32.6971 44.9141 32.6306 45.4406C32.5973 45.9342 32.9632 46.1316 33.3956 45.9342C33.8946 45.7038 34.3935 45.4406 34.8592 45.1774C35.1253 45.0129 35.3581 45.0458 35.591 45.1774C36.0234 45.4406 36.4891 45.6709 36.9547 45.9013C37.1543 46.0329 37.3871 46.0658 37.5867 45.9342C37.8196 45.8026 37.7863 45.5393 37.753 45.309C37.6865 44.8483 37.5867 44.4206 37.5202 43.9599C37.4204 43.5651 37.4537 43.236 37.8528 42.9399C38.1854 42.6767 38.4515 42.3476 38.7842 42.0844C38.9837 41.9199 39.017 41.7224 38.9505 41.4921C38.9172 41.2289 38.7509 41.1302 38.4848 41.0973ZM36.7219 42.6767C36.4558 42.907 36.3227 43.1373 36.4225 43.4993C36.5223 43.8612 36.5556 44.2232 36.6221 44.6838C36.2229 44.4535 35.8571 44.289 35.4912 44.0915C35.2251 43.927 34.9922 43.927 34.7261 44.0915C34.3602 44.289 33.9944 44.4864 33.5952 44.6838C33.6617 44.2561 33.695 43.8612 33.7948 43.4664C33.8946 43.1373 33.7948 42.907 33.5619 42.7096C33.2958 42.4463 33.0297 42.1831 32.7636 41.887C33.2626 41.6895 33.8613 41.8212 34.2937 41.525C34.7594 41.2289 34.7927 40.6037 35.1253 40.1759C35.3581 40.4392 35.4912 40.8011 35.6242 41.0973C35.7905 41.4921 36.0566 41.6237 36.4558 41.6566C36.7884 41.6895 37.1543 41.7553 37.5867 41.8212C37.2541 42.1831 36.988 42.4463 36.7219 42.6767Z" fill="#E36F1E"></path><path d="M2.32828 13.5894C2.56112 13.7868 2.62765 14.0171 2.56112 14.3133C2.46133 14.8397 2.36155 15.3662 2.29502 15.794C2.26176 16.4521 2.56112 16.6495 3.09332 16.4191C3.59226 16.1559 4.0912 15.8927 4.59014 15.6294C4.78971 15.4978 4.98929 15.5307 5.18886 15.6294C5.65454 15.8927 6.12022 16.123 6.55263 16.3533C6.81873 16.485 7.05157 16.6166 7.31767 16.4191C7.55051 16.2217 7.48398 15.9585 7.41746 15.6953C7.31767 15.2346 7.21788 14.741 7.11809 14.2804C7.05157 14.0171 7.08483 13.7868 7.31767 13.5894C7.71682 13.2274 8.08271 12.8655 8.48186 12.4707C8.64817 12.3061 8.78122 12.1745 8.7147 11.9113C8.64817 11.648 8.41533 11.5822 8.18249 11.5493C7.65029 11.4835 7.11809 11.3848 6.58589 11.319C6.31979 11.2861 6.18674 11.1874 6.05369 10.9571C5.82085 10.4635 5.55475 9.93703 5.28865 9.47637C5.02255 8.98281 4.6234 8.98281 4.3573 9.47637C4.0912 9.96993 3.8251 10.4635 3.59226 10.9571C3.49247 11.1874 3.32616 11.2861 3.06006 11.319C2.4946 11.3848 1.92913 11.4506 1.39693 11.5493C0.864731 11.648 0.764943 12.01 1.16409 12.4048C1.52998 12.8655 1.89587 13.2603 2.32828 13.5894ZM4.75645 10.6609C5.08908 11.0229 5.22213 11.3848 5.38844 11.7139C5.52149 12.01 5.72106 12.2074 6.08695 12.2074C6.4861 12.2403 6.85199 12.339 7.41746 12.4048C6.25327 13.0629 5.88738 13.9513 6.45284 15.1359C6.41958 15.1359 6.35305 15.1688 6.31979 15.1688C5.9539 14.9714 5.62128 14.8068 5.25539 14.6094C4.98929 14.4449 4.75645 14.4449 4.49035 14.6094C4.15772 14.8068 3.79184 14.9714 3.39269 15.1688C3.35942 14.8068 3.45921 14.5107 3.52574 14.2146C3.62552 13.7539 3.559 13.3591 3.12659 13.0629C2.86048 12.8655 2.62765 12.6352 2.36155 12.4048C2.36155 12.3719 2.36155 12.3061 2.36155 12.2732C3.65879 12.4377 4.52361 12.01 4.75645 10.6609Z" fill="#E36F1E"></path><path d="M32.7303 7.23902C32.8634 7.37063 32.9299 7.50225 32.8966 7.69967C32.7636 8.29195 32.697 8.88422 32.5973 9.54231C32.564 10.003 32.8966 10.2333 33.3623 10.003C33.8612 9.73973 34.3602 9.4765 34.8591 9.21326C35.092 9.08165 35.2915 9.08165 35.5244 9.21326C35.99 9.4765 36.489 9.73973 36.9547 10.003C37.1542 10.1017 37.3538 10.1346 37.5534 10.003C37.753 9.87135 37.7862 9.67392 37.7197 9.44359C37.5866 8.88422 37.4869 8.32485 37.3538 7.76548C37.2873 7.53515 37.3538 7.40354 37.5201 7.23902C37.9193 6.87707 38.2852 6.51512 38.6843 6.12027C38.8506 5.95575 39.0502 5.75833 38.9504 5.4951C38.8506 5.19896 38.6178 5.16605 38.3517 5.13315C37.8195 5.06734 37.2873 4.96863 36.7551 4.90282C36.5222 4.86992 36.3892 4.80411 36.2894 4.57378C36.0566 4.08022 35.7905 3.55375 35.5576 3.06019C35.4578 2.86276 35.3248 2.69824 35.0919 2.69824C34.8258 2.69824 34.7261 2.86276 34.6263 3.06019C34.3602 3.55375 34.0941 4.04731 33.8612 4.54087C33.7614 4.7712 33.6284 4.83701 33.3623 4.86992C32.7968 4.93572 32.2314 5.00153 31.6992 5.10025C31.1337 5.19896 31.0339 5.5609 31.4331 5.95575C31.8987 6.44932 32.2979 6.84417 32.7303 7.23902ZM33.9278 5.75833C34.2936 5.72542 34.4932 5.528 34.6595 5.23186C34.7926 4.90282 34.9589 4.60668 35.1585 4.27764C35.4246 4.57378 35.5576 4.93572 35.7239 5.26477C35.857 5.5609 36.0566 5.72542 36.4225 5.75833C36.8216 5.79123 37.1875 5.88995 37.6532 5.95575C37.3205 6.25189 37.0544 6.54803 36.7551 6.77836C36.5222 7.00869 36.3892 7.23902 36.489 7.56806C36.5888 7.93 36.622 8.29195 36.6886 8.75261C36.3892 8.58809 36.1231 8.48937 35.9235 8.35776C35.3913 7.96291 34.8924 7.99581 34.3934 8.35776C34.1939 8.52228 33.9278 8.58809 33.6617 8.75261C33.7282 8.32485 33.7614 7.93 33.8612 7.60096C33.961 7.23902 33.8612 7.00869 33.5951 6.74545C33.329 6.48222 33.0962 6.18608 32.8301 5.92285C33.1295 5.88994 33.5286 5.79123 33.9278 5.75833Z" fill="#E36F1E"></path><path d="M17.3299 28.4621C17.2301 28.495 17.1303 28.5608 17.0638 28.5937C13.1721 30.8312 9.28035 33.0687 5.38863 35.3062C5.25558 35.372 5.12253 35.4707 5.02274 35.5694C4.88969 35.701 4.85643 35.8985 4.95621 36.063C5.056 36.2275 5.18905 36.2604 5.28884 36.2933C5.55494 36.2933 5.72125 36.1946 5.88757 36.0959C9.74602 33.8913 13.6045 31.6867 17.4629 29.4821C17.596 29.4163 17.6958 29.3505 17.7956 29.2518C17.9951 29.0873 18.0617 28.857 17.9286 28.5937C17.7956 28.3963 17.596 28.3634 17.3299 28.4621Z" fill="#E36F1E"></path><path d="M14.0369 8.65382C15.8331 11.7139 17.6293 14.8069 19.4587 17.867C19.5585 18.0315 19.625 18.196 19.7913 18.2947C20.0907 18.4922 20.4566 18.2947 20.4898 17.9328C20.5231 17.7025 20.3568 17.5708 20.2903 17.4063C18.4941 14.3462 16.6979 11.2532 14.9017 8.19316C14.8352 8.09444 14.7687 7.99573 14.7021 7.89702C14.5691 7.7325 14.3695 7.63379 14.1367 7.7325C13.9038 7.86412 13.8373 8.06154 13.9038 8.29187C13.9038 8.39058 13.9704 8.5222 14.0369 8.65382Z" fill="#E36F1E"></path><path d="M39.5158 33.2661C36.755 31.6867 33.9942 30.1402 31.2334 28.5608C31.1004 28.495 31.0006 28.4292 30.8676 28.4292C30.6015 28.4292 30.4684 28.5279 30.4019 28.7253C30.3021 29.0544 30.5017 29.2189 30.7678 29.3834C33.5286 30.9628 36.2894 32.5422 39.0501 34.1216C39.3828 34.319 39.6821 34.319 39.8817 33.99C40.0813 33.628 39.8152 33.4306 39.5158 33.2661Z" fill="#E36F1E"></path><path d="M17.7955 36.063C17.4296 35.8326 17.1967 36.1288 17.0304 36.4249C16.9972 36.4578 16.9972 36.4907 16.9639 36.5565C15.4671 39.1231 13.9703 41.6896 12.4735 44.2561C12.3737 44.3877 12.3071 44.5522 12.2406 44.6839C12.1408 44.9471 12.3737 45.2432 12.6398 45.2432C12.9391 45.2103 13.0722 45.0129 13.2052 44.7826C14.7353 42.1502 16.2654 39.5179 17.7955 36.8856C18.0283 36.5894 18.1614 36.2604 17.7955 36.063Z" fill="#E36F1E"></path><path d="M31.5329 37.5765C31.8322 37.412 31.799 37.1159 31.6326 36.8526C30.0693 34.2203 28.5392 31.588 26.9759 28.9556C26.8761 28.7911 26.743 28.6266 26.5102 28.6595C26.1111 28.6595 25.9115 29.0215 26.1443 29.4163C26.5435 30.1073 26.9426 30.7983 27.375 31.4893C28.506 33.4306 29.6369 35.3391 30.7678 37.2804C30.9674 37.5436 31.2002 37.7411 31.5329 37.5765Z" fill="#E36F1E"></path><path d="M9.77919 25.5336C10.1118 25.5336 10.4444 25.4678 10.4444 25.073C10.4444 24.6781 10.1451 24.6123 9.81246 24.6123C6.7523 24.6123 3.72541 24.6123 0.665251 24.6123C0.332626 24.6123 0.0332626 24.6452 0 25.073C0 25.5007 0.299363 25.5336 0.631989 25.5336C2.16207 25.5336 3.65888 25.5336 5.18896 25.5336C6.71904 25.5336 8.24911 25.5336 9.77919 25.5336Z" fill="#E36F1E"></path><path d="M27.0091 20.5321C27.3417 20.598 27.508 20.4005 27.6743 20.1373C29.0714 17.7682 30.4684 15.3991 31.8321 12.9971C31.9985 12.701 32.065 12.3719 31.7324 12.1416C31.3665 11.9113 31.1669 12.2074 31.0006 12.5035C29.6368 14.8726 28.2398 17.2746 26.876 19.6437C26.8095 19.7753 26.7097 19.907 26.7097 20.0057C26.7097 20.3018 26.8095 20.4663 27.0091 20.5321Z" fill="#E36F1E"></path><path d="M44.5385 13.4906C44.3057 13.1287 44.0063 13.2603 43.707 13.4248C41.3786 14.741 39.0835 16.0571 36.7551 17.3733C36.5555 17.472 36.356 17.6036 36.356 17.8669C36.356 18.2288 36.6553 18.4262 37.0212 18.2617C37.3538 18.0972 37.6532 17.8998 37.9858 17.7352C40.0481 16.5507 42.1104 15.399 44.1727 14.2145C44.472 14.05 44.7714 13.8526 44.5385 13.4906Z" fill="#E36F1E"></path><path d="M24.2152 7.79828C24.6143 7.79828 24.6809 7.50215 24.6809 7.1731C24.6809 5.00143 24.6809 2.82976 24.6809 0.625179C24.6809 0.296137 24.6143 0 24.1819 0C23.7828 0 23.7495 0.296137 23.7495 0.625179C23.7495 1.71102 23.7495 2.79685 23.7495 3.88269C23.7495 4.96853 23.7495 6.05436 23.7495 7.1402C23.7495 7.46924 23.7828 7.79828 24.2152 7.79828Z" fill="#E36F1E"></path><path d="M24.2152 17.4064C24.5811 17.4064 24.6809 17.1432 24.6809 16.8141C24.6809 14.9057 24.6809 12.9973 24.6809 11.1217C24.6809 10.7927 24.5811 10.5294 24.1819 10.5624C23.816 10.5624 23.7495 10.8256 23.7495 11.1217C23.7495 12.0759 23.7495 13.0302 23.7495 13.9844C23.7495 14.9386 23.7495 15.8928 23.7495 16.847C23.7495 17.1432 23.8493 17.4064 24.2152 17.4064Z" fill="#E36F1E"></path><path d="M24.2152 41.0315C23.8826 41.0315 23.7495 41.2618 23.7495 41.5909C23.7495 42.1831 23.7495 42.7754 23.7495 43.3677C23.7495 43.96 23.7495 44.5522 23.7495 45.1445C23.7495 45.4407 23.8493 45.671 24.1819 45.671C24.5145 45.671 24.6809 45.4736 24.6809 45.1445C24.6809 43.96 24.6809 42.7754 24.6809 41.5909C24.6809 41.2618 24.5478 41.0315 24.2152 41.0315Z" fill="#E36F1E"></path><path d="M15.4339 25.5337C15.9994 25.5337 16.5981 25.5337 17.1636 25.5337C17.4629 25.5337 17.6958 25.4021 17.6958 25.1059C17.6958 24.7769 17.4629 24.6453 17.1636 24.6453C16.0326 24.6453 14.8684 24.6453 13.7375 24.6453C13.4382 24.6453 13.2386 24.744 13.2053 25.073C13.2053 25.435 13.4049 25.5337 13.7375 25.5337C14.303 25.5337 14.8685 25.5337 15.4339 25.5337Z" fill="#E36F1E"></path><path d="M34.2603 18.9199C34.1273 18.9199 34.0275 18.9528 33.8944 19.0186C33.0629 19.5122 32.1981 19.9729 31.3665 20.4664C31.1004 20.6309 30.9673 20.8613 31.1337 21.1574C31.3 21.4535 31.5993 21.4206 31.8654 21.2561C32.2313 21.0587 32.5972 20.8284 32.9631 20.6309C33.4288 20.3677 33.9277 20.1045 34.3934 19.8083C34.6262 19.6767 34.726 19.4793 34.6595 19.249C34.6262 19.0186 34.4599 18.9528 34.2603 18.9199Z" fill="#E36F1E"></path><path d="M21.9533 28.9558C21.6207 28.7583 21.3879 28.9229 21.2215 29.1861C20.7891 29.9429 20.3235 30.6997 19.891 31.4565C19.8245 31.5552 19.7913 31.6868 19.7913 31.7855C19.7913 31.9829 19.8578 32.1475 20.0574 32.2133C20.3235 32.312 20.5563 32.1804 20.6893 31.95C21.155 31.1603 21.6207 30.3706 22.0864 29.548C22.2527 29.3506 22.2194 29.1203 21.9533 28.9558Z" fill="#E36F1E"></path><path d="M24.1819 35.9971C23.9158 35.9971 23.7828 36.1616 23.7495 36.4248C23.7495 36.7539 23.7495 37.0829 23.7495 37.412C23.7495 37.7739 23.7495 38.103 23.7495 38.4649C23.7495 38.7281 23.8826 38.8927 24.1819 38.8927C24.448 38.8927 24.6476 38.761 24.6476 38.4978C24.6809 37.8068 24.6809 37.0829 24.6476 36.3919C24.6476 36.1287 24.448 35.9642 24.1819 35.9971Z" fill="#E36F1E"></path><path d="M12.7395 6.02138C13.1719 6.02138 13.4048 5.75815 13.2717 5.46201C13.1054 5.06716 12.8726 4.67231 12.6065 4.34327C12.4069 4.11294 12.0077 4.17875 11.9079 4.40908C11.7749 4.63941 11.8414 4.86974 12.0077 5.10007C12.2406 5.39621 12.2738 5.92267 12.7395 6.02138Z" fill="#E36F1E"></path><path d="M24.6475 32.7726C24.6143 32.5094 24.4147 32.4106 24.1486 32.4106C23.8825 32.4435 23.7827 32.5752 23.7827 32.8384C23.7827 33.0029 23.7827 33.1345 23.7827 33.2991C23.7827 33.4636 23.7827 33.6281 23.7827 33.7926C23.7827 34.0559 23.949 34.1875 24.1819 34.2204C24.448 34.2533 24.6475 34.1217 24.6808 33.8584C24.6808 33.4965 24.6808 33.1345 24.6475 32.7726Z" fill="#E36F1E"></path><path d="M41.8109 34.6151C41.5448 34.5822 41.3785 34.6809 41.2787 34.8784C41.1789 35.0758 41.2122 35.2403 41.3453 35.3719C41.5781 35.5693 41.8442 35.7339 42.1103 35.8326C42.3431 35.8984 42.5094 35.7997 42.6425 35.6681C42.7755 35.5364 42.7755 35.3719 42.6758 35.2074C42.4429 34.9113 42.077 34.7467 41.8109 34.6151Z" fill="#E36F1E"></path></g><defs><clipPath id="clip0_406_358"><rect width="47" height="46" fill="white"></rect></clipPath></defs></svg>