<svg xmlns="http://www.w3.org/2000/svg" id="Capa_1" data-name="Capa 1" viewBox="0 0 47 46"><defs><style>.cls-1{fill:none;}.cls-2{fill:#fff;}</style></defs><rect class="cls-1" width="47" height="46"></rect><path class="cls-2" d="M24.38,28.76l3.23-3.19a3.17,3.17,0,0,0,.46-.6v.14c0,.39.3.46.64.46H39.18c.44,0,.64-.2.57-.56s-.33-.33-.6-.33H28.71a.75.75,0,0,0-.5.13,2.18,2.18,0,0,0,.23-.59c0-.1,0-.2.07-.3s0-.1,0-.16V23l0-.1a2.6,2.6,0,0,0-.17-.65,3.14,3.14,0,0,0-4.59-1.62,3.33,3.33,0,0,0-1.36-.46,3,3,0,0,0-2.2.63,2.77,2.77,0,0,0-.83,1c-2.93-1.68-5.86-3.32-8.78-5a1.12,1.12,0,0,0-.43-.16.43.43,0,0,0-.44.33c-.1.32.14.46.37.59l9,5.1a3.34,3.34,0,0,0,0,1.18,2.84,2.84,0,0,0,.89,1.65l3.23,3.19a.93.93,0,0,0,.6.26A.59.59,0,0,0,24.38,28.76Zm-3.29-4.31a1.17,1.17,0,0,1-.43-.79,1.51,1.51,0,0,1,.46-1.42,1.4,1.4,0,0,1,1-.39,1.5,1.5,0,0,1,1,.39l.07.07a.82.82,0,0,0,1.13,0,1,1,0,0,1,.47-.3,1.51,1.51,0,0,1,1.53.17,1.35,1.35,0,0,1,.6.92,1.4,1.4,0,0,1-.37,1.28,2.29,2.29,0,0,1-.27.27l-.93.92-1.59,1.58Z"></path><path class="cls-2" d="M46.6,24.65H44.77a.39.39,0,0,0-.4.46.4.4,0,0,0,.43.42h1.47a1.2,1.2,0,0,0,.73-.19v-.46A.61.61,0,0,0,46.6,24.65Z"></path><path class="cls-2" d="M38.48,41.1l-1.39-.2a.87.87,0,0,1-.87-.63,8,8,0,0,0-.6-1.21.56.56,0,0,0-.49-.4c-.24,0-.37.2-.47.4-.23.49-.5,1-.73,1.48a.51.51,0,0,1-.43.33c-.54.06-1.1.16-1.63.23-.24,0-.47.06-.57.33s.07.46.27.62c.36.33.69.69,1.09,1a.65.65,0,0,1,.24.76,13.87,13.87,0,0,0-.27,1.61c0,.49.33.69.77.49s1-.49,1.46-.75a.65.65,0,0,1,.73,0c.43.26.9.49,1.36.72a.56.56,0,0,0,.64,0c.23-.13.2-.39.16-.62-.06-.46-.16-.89-.23-1.35a.85.85,0,0,1,.33-1c.34-.26.6-.59.93-.86a.5.5,0,0,0,.17-.59C38.92,41.23,38.75,41.13,38.48,41.1Zm-1.76,1.58a.74.74,0,0,0-.3.82,8.49,8.49,0,0,1,.2,1.18c-.4-.23-.76-.39-1.13-.59a.66.66,0,0,0-.76,0c-.37.2-.74.4-1.13.59a11.33,11.33,0,0,1,.19-1.21.66.66,0,0,0-.23-.76c-.26-.26-.53-.53-.8-.82.5-.2,1.1-.07,1.53-.37s.5-.92.84-1.34a3.4,3.4,0,0,1,.49.92.89.89,0,0,0,.84.56c.33,0,.69.1,1.13.16A11.46,11.46,0,0,1,36.72,42.68Z"></path><path class="cls-2" d="M2.33,13.59a.67.67,0,0,1,.23.72c-.1.53-.2,1.06-.26,1.48,0,.66.26.86.79.63l1.5-.79a.56.56,0,0,1,.6,0c.46.26.93.49,1.36.72.27.13.5.27.77.07s.16-.46.1-.72c-.1-.47-.2-1-.3-1.42a.61.61,0,0,1,.2-.69c.4-.36.76-.72,1.16-1.12.17-.16.3-.3.23-.56s-.29-.33-.53-.36c-.53-.07-1.06-.17-1.59-.23A.63.63,0,0,1,6.05,11c-.23-.5-.5-1-.76-1.48s-.67-.5-.93,0-.53,1-.77,1.48a.57.57,0,0,1-.53.36c-.57.06-1.13.13-1.66.23s-.64.46-.24.85A6.61,6.61,0,0,0,2.33,13.59Zm2.43-2.93a4.11,4.11,0,0,1,.63,1.05.71.71,0,0,0,.7.5c.4,0,.76.13,1.33.19a1.9,1.9,0,0,0-1,2.74l-.13,0-1.06-.56a.65.65,0,0,0-.77,0c-.33.2-.7.36-1.1.56a2.93,2.93,0,0,1,.14-1,1,1,0,0,0-.4-1.15,9,9,0,0,1-.77-.66v-.13C3.66,12.44,4.52,12,4.76,10.66Z"></path><path class="cls-2" d="M32.73,7.24a.49.49,0,0,1,.17.46c-.14.59-.2,1.18-.3,1.84,0,.46.3.69.76.46l1.5-.79a.61.61,0,0,1,.66,0c.47.27,1,.53,1.43.79a.56.56,0,0,0,.6,0,.45.45,0,0,0,.17-.56c-.13-.56-.23-1.12-.37-1.67a.47.47,0,0,1,.17-.53c.4-.36.77-.72,1.16-1.12.17-.16.37-.36.27-.62s-.33-.33-.6-.37c-.53-.06-1.06-.16-1.59-.23a.5.5,0,0,1-.47-.33c-.23-.49-.5-1-.73-1.51a.54.54,0,0,0-.47-.36c-.26,0-.36.16-.46.36-.27.49-.54,1-.77,1.48a.51.51,0,0,1-.5.33c-.56.07-1.13.13-1.66.23s-.67.46-.27.86S32.3,6.84,32.73,7.24Zm1.2-1.48a.88.88,0,0,0,.73-.53,6.21,6.21,0,0,1,.5-1,4.19,4.19,0,0,1,.56,1,.77.77,0,0,0,.7.5c.4,0,.77.13,1.23.2-.33.29-.6.59-.89.82a.72.72,0,0,0-.27.79,10.29,10.29,0,0,1,.2,1.18c-.3-.16-.57-.26-.77-.39a1.17,1.17,0,0,0-1.53,0,6.91,6.91,0,0,1-.73.39,9.7,9.7,0,0,1,.2-1.15.78.78,0,0,0-.26-.85c-.27-.27-.5-.56-.77-.83C33.13,5.89,33.53,5.79,33.93,5.76Z"></path><path class="cls-2" d="M17.33,28.46a2.29,2.29,0,0,0-.27.13L5.39,35.31a1.37,1.37,0,0,0-.37.26.39.39,0,0,0-.06.49.48.48,0,0,0,.33.23,1.18,1.18,0,0,0,.6-.19l11.57-6.62a1,1,0,0,0,.34-.23.5.5,0,0,0,.13-.66A.46.46,0,0,0,17.33,28.46Z"></path><path class="cls-2" d="M14,8.65c1.79,3.06,3.59,6.16,5.42,9.22.1.16.16.33.33.42a.45.45,0,0,0,.7-.36c0-.23-.13-.36-.2-.52-1.8-3.06-3.59-6.16-5.39-9.22-.06-.1-.13-.19-.2-.29a.45.45,0,0,0-.8.39A.92.92,0,0,0,14,8.65Z"></path><path class="cls-2" d="M39.52,33.27c-2.76-1.58-5.53-3.13-8.29-4.71a.75.75,0,0,0-.36-.13.43.43,0,0,0-.47.3c-.1.32.1.49.37.65l8.28,4.74c.33.2.63.2.83-.13S39.82,33.43,39.52,33.27Z"></path><path class="cls-2" d="M17.8,36.06c-.37-.23-.6.07-.77.36,0,0,0,.07-.07.14l-4.49,7.7a2.91,2.91,0,0,0-.23.42.43.43,0,0,0,.4.56c.3,0,.43-.23.57-.46l4.59-7.89C18,36.59,18.16,36.26,17.8,36.06Z"></path><path class="cls-2" d="M31.53,37.58c.3-.17.27-.46.1-.73C30.07,34.22,28.54,31.59,27,29a.48.48,0,0,0-.47-.3c-.4,0-.6.36-.37.76.4.69.8,1.38,1.24,2.07l3.39,5.79C31,37.54,31.2,37.74,31.53,37.58Z"></path><path class="cls-2" d="M9.78,25.53c.33,0,.66-.06.66-.46s-.29-.46-.63-.46H.67c-.34,0-.64,0-.67.46s.3.46.63.46H9.78Z"></path><path class="cls-2" d="M27,20.53c.33.07.5-.13.66-.39,1.4-2.37,2.8-4.74,4.16-7.14.17-.3.23-.63-.1-.86s-.56.07-.73.36c-1.36,2.37-2.76,4.77-4.12,7.14a1.17,1.17,0,0,0-.17.37C26.71,20.3,26.81,20.47,27,20.53Z"></path><path class="cls-2" d="M44.54,13.49c-.23-.36-.53-.23-.83-.07l-7,4c-.2.1-.4.23-.4.5a.43.43,0,0,0,.66.39c.33-.16.63-.36,1-.52,2.06-1.19,4.12-2.34,6.18-3.53C44.47,14.05,44.77,13.85,44.54,13.49Z"></path><path class="cls-2" d="M24.22,7.8c.39,0,.46-.3.46-.63V.63c0-.33-.07-.63-.5-.63s-.43.3-.43.63V7.14C23.75,7.47,23.78,7.8,24.22,7.8Z"></path><path class="cls-2" d="M24.22,17.41c.36,0,.46-.27.46-.6V11.12c0-.33-.1-.59-.5-.56s-.43.27-.43.56v5.73C23.75,17.14,23.85,17.41,24.22,17.41Z"></path><path class="cls-2" d="M24.22,41c-.34,0-.47.23-.47.56v3.55c0,.3.1.53.43.53a.47.47,0,0,0,.5-.53V41.59C24.68,41.26,24.55,41,24.22,41Z"></path><path class="cls-2" d="M15.43,25.53h1.73c.3,0,.54-.13.54-.42s-.24-.46-.54-.46H13.74c-.3,0-.5.09-.53.42s.19.46.53.46Z"></path><path class="cls-2" d="M34.26,18.92a.76.76,0,0,0-.37.1c-.83.49-1.69.95-2.52,1.45a.48.48,0,0,0-.24.69c.17.29.47.26.74.1L33,20.63c.47-.26,1-.53,1.43-.82a.46.46,0,0,0,.27-.56C34.63,19,34.46,19,34.26,18.92Z"></path><path class="cls-2" d="M22,29c-.33-.2-.56,0-.73.23-.43.75-.9,1.51-1.33,2.27a.6.6,0,0,0-.1.33.39.39,0,0,0,.27.42.5.5,0,0,0,.63-.26c.47-.79.93-1.58,1.4-2.4A.37.37,0,0,0,22,29Z"></path><path class="cls-2" d="M24.18,36a.41.41,0,0,0-.43.42v2a.38.38,0,0,0,.43.43c.27,0,.47-.13.47-.39,0-.69,0-1.42,0-2.11A.38.38,0,0,0,24.18,36Z"></path><path class="cls-2" d="M12.74,6c.43,0,.66-.26.53-.56a4.85,4.85,0,0,0-.66-1.12.44.44,0,0,0-.7.07.58.58,0,0,0,.1.69C12.24,5.4,12.27,5.92,12.74,6Z"></path><path class="cls-2" d="M24.65,32.77c0-.26-.24-.36-.5-.36a.37.37,0,0,0-.37.43v.95a.45.45,0,0,0,.9.07C24.68,33.5,24.68,33.13,24.65,32.77Z"></path><path class="cls-2" d="M41.81,34.62a.45.45,0,0,0-.53.26.38.38,0,0,0,.07.49,2.5,2.5,0,0,0,.76.46.5.5,0,0,0,.53-.16.34.34,0,0,0,0-.46A2.36,2.36,0,0,0,41.81,34.62Z"></path></svg>