<svg xmlns="http://www.w3.org/2000/svg" xmlns:xlink="http://www.w3.org/1999/xlink" id="Capa_1" x="0px" y="0px" viewBox="0 0 76 82" style="enable-background:new 0 0 76 82;" xml:space="preserve"><style type="text/css">	.st0{clip-path:url(#SVGID_2_);}	.st1{fill:#FFFFFF;}</style><g>	<defs>		<rect id="SVGID_1_" width="76" height="82"></rect>	</defs>	<clipPath id="SVGID_2_">		<use xlink:href="#SVGID_1_" style="overflow:visible;"></use>	</clipPath>	<g class="st0">		<path class="st1" d="M44.4,9.9c0,0.2,0,0.5-0.2,0.7c-0.2,0.7-0.5,1.2-1,1.7c-1.4,1.4-2.9,2.9-4.4,4.4c-0.2,0.2-0.3,0.2-0.5,0   c-1.5-1.5-3-3.1-4.6-4.4c-0.5-0.5-0.8-1.2-1-1.9c-0.2-1.4,0.2-2.7,1.4-3.6c0.7-0.5,1.5-0.9,2.5-0.7c0.7,0,1.4,0.3,1.9,0.7h0.2   c0.7-0.5,1.4-0.7,2.2-0.7c1.5,0,2.9,1,3.4,2.4c0,0.3,0.2,0.5,0.2,0.9C44.4,9.6,44.4,9.7,44.4,9.9z M36.3,6.7c-0.7,0-1.4,0.2-2,0.9   c-0.8,0.7-1,1.7-0.8,2.7c0.2,0.7,0.3,1.2,0.8,1.5c1.4,1.4,2.9,2.9,4.2,4.3h0.2c1.4-1.4,2.5-2.6,3.9-3.9c0.2-0.2,0.3-0.3,0.5-0.5   c0.7-0.7,0.8-1.5,0.7-2.6c-0.2-0.9-0.5-1.4-1.2-1.9c-0.8-0.7-1.9-0.7-2.9-0.3C39.4,7,39,7.2,38.8,7.3c-0.2,0.2-0.3,0.2-0.5,0h-0.2   C37.7,7,37,6.7,36.3,6.7z"></path>		<path class="st1" d="M38.5,17.8c-0.3,0-0.5-0.2-0.8-0.3l-4.6-4.6c-0.7-0.7-1-1.5-1.2-2.4c-0.3-1.7,0.3-3.2,1.7-4.3   c0.8-0.9,1.9-1,3-1c0.7,0,1.4,0.3,1.9,0.7c0.8-0.5,1.5-0.7,2.4-0.7c1.9,0,3.5,1.2,4.2,2.9c0.2,0.3,0.2,0.5,0.2,1v0.2v0.9v0.2   c0,0.2,0,0.3,0,0.5c-0.2,0.7-0.5,1.4-1.2,2.1l-4.6,4.6C39.2,17.6,38.8,17.8,38.5,17.8z M36.3,7.5c-0.5,0-1,0.2-1.5,0.5   c-0.5,0.5-0.8,1.2-0.7,2.1c0,0.5,0.3,0.9,0.7,1.2c1.2,1.2,2.5,2.6,3.7,3.8c0.7-0.7,1.5-1.5,2.2-2.2l1.4-1.4   c0.2-0.2,0.2-0.2,0.3-0.3c0.5-0.5,0.7-1.2,0.5-1.9c-0.2-0.5-0.3-1-0.8-1.4c-0.7-0.5-1.4-0.5-2.2-0.2c-0.2,0-0.3,0.2-0.7,0.5   s-1,0.3-1.4-0.2h-0.2C37.3,7.7,36.8,7.5,36.3,7.5z"></path>		<path class="st1" d="M18.6,82c-0.5-0.3-0.7-0.9-0.8-1.4c-1.9-5-3.7-9.9-5.6-14.7c-1-2.6-2-5-2.5-7.5C8.3,51.6,9.3,45.1,12.5,39   c0.7-1.4,1-2.7,1.2-4.1c0.5-5.1,1.2-10.2,1.9-15.5c0.2-1.4,1-1.7,2.2-1c3.9,1.9,7.6,3.8,11.5,5.8c0.5,0.2,0.8,0.3,1.5,0.2   c5.2-1.4,10.5-1.4,15.9,0c0.5,0.2,1,0.2,1.5-0.2c3.7-1.9,7.6-3.8,11.3-5.6c1.5-0.7,2.2-0.3,2.4,1.4c0.5,3.9,0.8,7.9,1.4,11.6   c0.2,1.9,0.5,3.6,0.7,5.5c0,0.5,0.2,0.9,0.5,1.2c1.2,2.1,2,4.3,2.7,6.5c0.2,0.5,0.2,1-0.2,1.5c-0.7,0.7-1.7,0.5-2-0.7   c-0.5-1.7-1.2-3.4-2-5c-0.5-1-1.2-1.9-1.4-3.1c-0.3-3.4-0.8-6.8-1.2-10.1c-0.2-1.9-0.5-3.8-0.7-5.6c0-0.7-0.5-0.3-0.7-0.2   c-3.4,1.7-6.8,3.4-10.1,5.1c-0.8,0.5-1.5,0.5-2.4,0.2c-5.1-1.5-10.1-1.5-15.4,0c-0.8,0.3-1.5,0.2-2.4-0.2   c-3.4-1.7-6.8-3.4-10.1-5.1c-0.5-0.3-0.7-0.2-0.8,0.5c-0.5,3.9-0.8,7.7-1.4,11.6c0,0.9-0.2,1.7-0.3,2.4c0,1.5-0.7,2.9-1.4,4.3   c-6.2,10.9-3.4,25.1,6.6,33.1c4.1,3.2,8.4,5.3,13.7,5.8c11.3,1.2,20.3-3.1,26.5-12.6c3-4.6,4.2-9.6,4.1-15c0-0.3,0-0.7,0-1.2   c0-0.9,0.5-1.4,1.2-1.4c0.7,0,1.2,0.5,1.2,1.4c0.3,4.3-0.2,8.5-1.9,12.6c-2.4,5.8-4.6,11.8-6.9,17.8c-0.2,0.5-0.5,1-0.8,1.4   c-1.5,0-3.2,0-4.7,0c-0.5-0.3-0.8-0.9-0.8-1.4c-0.2-0.3-0.3-0.9-0.3-1.2c-0.2-0.5-0.3-0.7-0.8-0.5c-2,1-4.2,1.9-6.4,2.2   c-1.4,0.3-2.7,0.5-4.1,0.7c-1.5,0-3.2,0-4.7,0c-0.5,0-0.7,0-0.8,0c-3.5-0.3-6.8-1.2-9.8-2.7c-0.7-0.3-0.8-0.2-1,0.5   c-0.2,0.9-0.3,1.9-1.2,2.4C21.8,82,20.3,82,18.6,82z M17.7,73.8c0.7,1.9,1.5,3.8,2.2,5.6c0,0.2,0.2,0.2,0.3,0.2   c1.4,0.3,1.9,0,2.2-1.4c0-0.2,0-0.3,0.2-0.5c0-0.2,0-0.3-0.2-0.5C20.8,76.2,19.4,75,17.7,73.8z M59.1,73.8c-1.5,1.2-3,2.4-4.6,3.4   c-0.2,0.2-0.2,0.3-0.2,0.5c0.2,1.5,0.5,1.9,2,1.9c1,0,0.8-0.7,1-1.2c0.2-0.2,0.2-0.5,0.3-0.7C58.1,76.4,58.6,75.2,59.1,73.8z"></path>		<path class="st1" d="M38.5,22.2c-6.1,0-11.1-5-11.1-11.1C27.2,5.1,32.3,0,38.3,0c6.2,0,11.3,5,11.1,11.1   C49.5,17.3,44.6,22.2,38.5,22.2z M29.7,11.1c0,4.8,3.9,8.7,8.6,8.7c4.7,0,8.6-3.9,8.6-8.7c0-4.8-3.9-8.7-8.6-8.7   C33.6,2.4,29.7,6.3,29.7,11.1z"></path>		<path class="st1" d="M38,57.6c-2.2,0-4.6-0.9-6.6-2.7c-2.5-2.4-2.5-6.2,0-8.5c2.2-2.2,4.9-2.9,7.9-2.7c2.4,0.2,4.4,1,6.1,2.6   c3,2.9,2.5,7.2-0.8,9.6C42.6,56.9,40.7,57.6,38,57.6z M37.8,46c-1,0-2.5,0.3-3.9,1.2c-2.5,1.7-2.7,4.4-0.5,6.3   c2.5,2.2,7.4,2.1,10-0.3c1.7-1.7,1.7-3.9,0-5.6C42.1,46.5,40.4,46,37.8,46z"></path>		<path class="st1" d="M39.4,62.7c-5.2,0-9.1-1.2-12.8-3.6c-0.8-0.5-1.2-1.2-0.7-1.9c0.5-0.7,1.2-0.7,2-0.2c2.4,1.5,4.7,2.4,7.4,2.9   c4.7,0.9,9.1-0.2,13.2-2.6c0.3-0.2,0.5-0.3,0.8-0.5c0.7-0.3,1.4-0.2,1.7,0.3c0.3,0.5,0.2,1.2-0.5,1.7c-1.4,1-2.9,1.7-4.4,2.2   C43.7,62.2,41,62.7,39.4,62.7z"></path>		<path class="st1" d="M27.9,28.4c0,0.5-0.3,0.9-0.7,1c-2.5,1.5-5.1,3.2-7.6,4.8c-0.5,0.3-1,0.3-1.5,0c-0.5-0.3-0.7-0.9-0.5-1.4   c0.3-2.7,0.7-5.3,1-8c0.2-1.2,1-1.7,2-1.2c2.2,1,4.4,2.2,6.6,3.2C27.5,27.3,27.9,27.7,27.9,28.4z M24.2,28.4   c-0.8-0.5-1.5-0.9-2.2-1.2c-1.2-0.5-1.2-0.5-1.4,0.7c-0.2,0.9-0.3,1.9-0.2,2.9C21.6,29.9,23,29.2,24.2,28.4z"></path>		<path class="st1" d="M59.3,33.1c0,1-1,1.5-1.9,1c-2.5-1.5-5.2-3.2-7.8-4.8c-1-0.5-0.8-1.7,0.2-2.2c2.2-1.2,4.4-2.2,6.6-3.2   c1-0.5,1.9,0,2,1C58.6,27.5,58.9,30.4,59.3,33.1z M56.6,30.8c-0.2-1.4-0.3-2.6-0.3-3.8c0-0.3-0.2-0.3-0.5-0.2c-1,0.5-2,1-3,1.5   C53.9,29.2,55.1,29.9,56.6,30.8z"></path>		<path class="st1" d="M76,75c-0.2,0.9-0.5,1.4-1.4,1.4c-0.3,0-0.7,0-1,0c-0.7,0-0.8,0.2-0.8,0.9c0,0.3,0,0.7,0,1   c-0.2,0.9-0.5,1.2-1.4,1.2c-0.8,0-1.4-0.5-1.5-1.2c-0.2-0.5,0.2-1.4-0.2-1.7c-0.3-0.3-1.2,0-1.7-0.2c-0.8-0.2-1.4-0.7-1.2-1.5   c0-0.9,0.5-1.4,1.4-1.4c0.5,0,1.2,0.2,1.5-0.2c0.3-0.3,0-1,0.2-1.5c0.2-0.9,0.5-1.4,1.5-1.4c0.8,0,1.4,0.5,1.5,1.4   c0.2,0.5-0.3,1.4,0.2,1.7c0.3,0.3,1,0,1.7,0.2C75.5,73.6,76,74.1,76,75z"></path>		<path class="st1" d="M60.1,10.2c0,0.5-0.3,0.9-0.8,1c-0.3,0-0.7,0-1,0c-0.3,0-0.5,0.2-0.5,0.5c0,0.3,0,0.5,0,0.9c0,0.7-0.5,1-1,1   c-0.7,0-1-0.3-1.2-1c0-0.5,0.2-1-0.2-1.2c-0.3-0.3-0.8,0-1.2-0.2c-0.7-0.2-1-0.5-1-1.2c0-0.7,0.5-1,1.2-1.2c0.3,0,1,0.2,1.2-0.2   c0.2-0.3,0-0.9,0-1.2c0-0.7,0.5-1,1-1c0.5,0,1,0.5,1.2,1c0,0.5-0.2,1,0.2,1.2c0.3,0.3,0.8,0,1.2,0.2C59.6,9.1,60,9.6,60.1,10.2z"></path>		<path class="st1" d="M7.6,30.4c0,0.7-0.3,1-1,1.2c-0.2,0-0.3,0-0.3,0c-1.2,0-1.2,0-1.2,1.2c0,0.9-0.5,1.4-1.2,1.4   c-0.8,0-1.2-0.5-1.2-1.4c0-0.2,0-0.3,0-0.5c0-0.5-0.2-0.7-0.5-0.5c-0.3,0-0.5,0-0.8,0c-0.7,0-1.2-0.5-1-1.2c0-0.7,0.3-1,1-1.2   c0.5,0,1,0.2,1.4-0.2c0.3-0.3,0-0.9,0.2-1.4c0.2-0.7,0.5-1,1.2-1c0.7,0,1,0.3,1.2,1c0,0.5-0.2,1,0.2,1.4c0.3,0.3,0.8,0,1.4,0.2   C7.1,29.4,7.6,29.9,7.6,30.4z"></path>		<path class="st1" d="M23.1,41.9c0-1.9,1.9-3.6,3.9-3.6c2,0,3.7,1.9,3.7,3.8c0,0.7-0.5,1.2-1,1.2c-0.7,0-1-0.3-1.4-1   c0-0.3-0.2-0.5-0.2-0.9c-0.2-0.5-0.7-0.7-1.2-0.7c-0.5,0-0.8,0.3-1.2,0.7c0,0.2-0.2,0.3-0.2,0.7c-0.2,0.9-0.7,1.2-1.4,1.2   C23.5,43.2,23.1,42.7,23.1,41.9z"></path>		<path class="st1" d="M53.7,41.9c0,0.9-0.3,1.2-1,1.4c-0.7,0-1.2-0.3-1.4-1.2c-0.2-1-0.7-1.4-1.4-1.4c-0.7,0-1.2,0.5-1.4,1.4   c-0.2,0.9-0.7,1.2-1.4,1c-0.7-0.2-1-0.5-1-1.4c0-1.9,1.9-3.6,3.7-3.6C52,38.3,53.7,40,53.7,41.9z"></path>		<path class="st1" d="M34.6,49.9c0.7,0,1.2,0.5,1.2,1.2c0,0.7-0.7,1.2-1.2,1.2c-0.7,0-1.2-0.7-1.2-1.2   C33.3,50.6,33.9,49.9,34.6,49.9z"></path>		<path class="st1" d="M42.2,52.3c-0.7,0-1.2-0.5-1.2-1.2c0-0.7,0.5-1.2,1.2-1.2c0.7,0,1.2,0.5,1.2,1.2   C43.6,51.8,42.9,52.3,42.2,52.3z"></path>	</g></g></svg>