<svg xmlns="http://www.w3.org/2000/svg" xmlns:xlink="http://www.w3.org/1999/xlink" id="Capa_1" x="0px" y="0px" viewBox="0 0 175 140" style="enable-background:new 0 0 175 140;" xml:space="preserve"><style type="text/css">	.st0{fill:#231F20;}	.st1{fill:#FFFFFF;}	.st2{fill:#261F64;}</style><path class="st1" d="M137.6,39.3H46.7c-3.4,0-3,2.8-3,6.2V49h40.5c2.9-1.4,6.1-2.2,9.5-2.2c3.4,0,6.6,0.8,9.5,2.2h25.8 c3.4,0,6.2,2.8,6.2,6.2v41.7h2.3c3.4,0,6.2-2.8,6.2-6.2V43.4C143.8,40,141,39.3,137.6,39.3z"></path><path class="st1" d="M131.3,59.3c0-3.4-2.8-6.2-6.2-6.2H35.6H34c-3.4,0-2.8,2.8-2.8,6.2v45.2c0,3.4,2.8,6.2,6.2,6.2h89.3 c2.8,0,4.1-1.9,4.4-4.5c0.1-0.5,0.1-1.1,0.1-1.6V59.3z M81.3,60.5c11.9,0,21.5,9.5,21.5,21.3c0,11.8-9.6,21.3-21.5,21.3 c-11.9,0-21.5-9.5-21.5-21.3C59.8,70.1,69.4,60.5,81.3,60.5z"></path><g>	<path class="st1" d="M88.1,83.8c3.8-3.8,3.8-9.9,0-13.7c-1.9-1.9-4.4-2.8-6.9-2.8c-2.5,0-5,0.9-6.9,2.8c-3.8,3.8-3.8,9.9,0,13.7  c1.3,1.3,2.9,2.2,4.6,2.6c0,0.5-0.1,1.1-0.1,1.7h-4v4.1h3.8v4.3h4.5v-4.3h4.3v-4.1h-4.3v-1.7C85.1,86,86.7,85.2,88.1,83.8z   M75.8,76.9c0-1.5,0.6-2.8,1.6-3.9c1-1,2.4-1.6,3.9-1.6c1.5,0,2.8,0.6,3.9,1.6c1,1,1.6,2.4,1.6,3.9c0,1.5-0.6,2.8-1.6,3.9  c-1,1-2.4,1.6-3.9,1.6c-1.5,0-2.8-0.6-3.9-1.6C76.4,79.8,75.8,78.4,75.8,76.9z"></path></g></svg>