<svg xmlns="http://www.w3.org/2000/svg" width="85" height="88" viewBox="0 0 85 88" fill="none"><g clip-path="url(#clip0_220_1491)"><path d="M71.9708 24.3404H68.8686L67.3175 25.9007C71.6606 31.5177 74.1423 38.3829 74.1423 45.8723C74.1423 63.6595 59.8723 78.0141 42.1898 78.0141C24.1971 78.0141 9.92701 63.6595 9.92701 45.8723C9.92701 28.0851 24.1971 13.7304 41.8796 13.7304C48.7044 13.7304 54.9088 15.9148 60.1825 19.3475L61.7336 17.4751L61.1131 14.6666C60.8029 13.7304 61.1131 12.7943 61.7336 12.1702L63.9051 9.98576C57.3905 5.92903 49.9453 3.74463 41.8796 3.74463C18.9234 3.74463 0 22.7801 0 45.8723C0 68.9645 18.9234 87.9999 41.8796 87.9999C65.146 87.9999 83.7591 68.9645 83.7591 45.8723C83.7591 36.8226 80.9672 28.3971 76.0036 21.2198L74.1423 23.4042C73.5219 24.0283 72.5912 24.3404 71.9708 24.3404Z" fill="#E36F1E"></path><path d="M17.9927 45.8724C17.9927 58.9787 28.5401 69.9007 41.8795 69.9007C54.9087 69.9007 65.7664 59.2908 65.7664 45.8724C65.7664 40.8795 64.2153 36.1986 61.4233 32.1419L54.5985 39.6312C55.5292 41.5036 55.8394 43.3759 55.8394 45.5603C55.8394 53.3617 49.635 59.6029 41.8795 59.6029C34.1241 59.6029 27.9197 53.6738 27.9197 45.8724C27.9197 38.0709 34.1241 31.8298 41.8795 31.8298C44.0511 31.8298 45.9124 32.1419 47.7737 33.078L54.5985 25.5887C50.8759 23.4043 46.5328 21.844 41.8795 21.844C28.8503 21.844 17.9927 32.766 17.9927 45.8724Z" fill="#E36F1E"></path><path d="M41.8795 39.9433C38.7773 39.9433 35.9854 42.4397 35.9854 45.8723C35.9854 49.305 38.4671 51.8014 41.8795 51.8014C45.2919 51.8014 47.7737 49.305 47.7737 45.8723C47.7737 45.2482 47.7737 44.3121 47.4635 43.6879L49.3248 41.5035L67.3175 21.844L72.281 22.156L81.8978 11.8582L85.3102 8.11347L78.1751 6.86525L76.3138 0L63.2846 14.0426L64.2153 18.4113L45.9124 38.383L44.051 40.5674C43.4306 40.2553 42.8102 39.9433 41.8795 39.9433Z" fill="#E36F1E"></path></g><defs><clipPath id="clip0_220_1491"><rect width="85" height="88" fill="white"></rect></clipPath></defs></svg>