<svg xmlns="http://www.w3.org/2000/svg" width="70" height="70" viewBox="0 0 70 70" fill="none"><path d="M66.7188 48.5762V9.63867C66.7188 7.3418 64.8457 5.46875 62.5488 5.46875H52.6367V4.10156C52.6367 1.8457 50.791 0 48.5352 0C46.2793 0 44.4336 1.8457 44.4336 4.10156V5.46875H22.2852V4.10156C22.2852 1.8457 20.4395 0 18.1836 0C15.9277 0 14.082 1.8457 14.082 4.10156V5.46875H4.16992C1.87305 5.46875 0 7.3418 0 9.63867V60.3613C0 62.6582 1.87305 64.5312 4.16992 64.5312H22.8047C23.5566 64.5312 24.1719 63.916 24.1719 63.1641C24.1719 62.4121 23.5566 61.7969 22.8047 61.7969H4.16992C3.37695 61.7969 2.73438 61.1543 2.73438 60.3613V9.63867C2.73438 8.8457 3.37695 8.20312 4.16992 8.20312H14.082V9.57031C14.082 11.8262 15.9277 13.6719 18.1836 13.6719C20.4395 13.6719 22.2852 11.8262 22.2852 9.57031V8.20312H44.4336V9.57031C44.4336 11.8262 46.2793 13.6719 48.5352 13.6719C50.791 13.6719 52.6367 11.8262 52.6367 9.57031V8.20312H62.5488C63.3418 8.20312 63.9844 8.8457 63.9844 9.63867V16.4062H12.3047C11.5527 16.4062 10.9375 17.0215 10.9375 17.7734C10.9375 18.5254 11.5527 19.1406 12.3047 19.1406H63.9844V46.2656C62.8223 45.5273 61.5371 44.9805 60.1562 44.6523V24.3359C60.1562 23.584 59.541 22.9688 58.7891 22.9688H7.92969C7.17773 22.9688 6.5625 23.584 6.5625 24.3359V56.6016C6.5625 57.3535 7.17773 57.9688 7.92969 57.9688H44.3242C44.4062 59.3086 44.707 60.5938 45.1719 61.7969H33.7422C32.9902 61.7969 32.375 62.4121 32.375 63.1641C32.375 63.916 32.9902 64.5312 33.7422 64.5312H46.6348C48.959 67.8398 52.8008 70 57.1484 70C64.2305 70 70 64.2305 70 57.1484C70 53.8535 68.7559 50.8594 66.7188 48.5762ZM19.5508 9.57031C19.5508 10.3223 18.9355 10.9375 18.1836 10.9375C17.4316 10.9375 16.8164 10.3223 16.8164 9.57031V4.10156C16.8164 3.34961 17.4316 2.73438 18.1836 2.73438C18.9355 2.73438 19.5508 3.34961 19.5508 4.10156V9.57031ZM49.9023 9.57031C49.9023 10.3223 49.2871 10.9375 48.5352 10.9375C47.7832 10.9375 47.168 10.3223 47.168 9.57031V4.10156C47.168 3.34961 47.7832 2.73438 48.5352 2.73438C49.2871 2.73438 49.9023 3.34961 49.9023 4.10156V9.57031ZM57.1484 44.2969C56.5195 44.2969 55.8906 44.3379 55.2754 44.4336H49.9844V36.5039H57.4219V44.2969C57.3262 44.2969 57.2441 44.2969 57.1484 44.2969ZM44.4336 55.2344H39.8125V47.168H47.25V48.959C45.7871 50.7227 44.7891 52.8691 44.4336 55.2344ZM9.29688 36.5039H16.7344V44.4336H9.29688V36.5039ZM19.4688 36.5039H26.9062V44.4336H19.4688V36.5039ZM39.8125 36.5039H47.25V44.4336H39.8125V36.5039ZM37.0781 44.4336H29.6406V36.5039H37.0781V44.4336ZM39.8125 33.7695V25.7031H47.25V33.7695H39.8125ZM37.0781 33.7695H29.6406V25.7031H37.0781V33.7695ZM26.9062 33.7695H19.4688V25.7031H26.9062V33.7695ZM26.9062 47.168V55.2344H19.4688V47.168H26.9062ZM29.6406 47.168H37.0781V55.2344H29.6406V47.168ZM57.4219 33.7695H49.9844V25.7031H57.4219V33.7695ZM16.7344 25.7031V33.7695H9.29688V25.7031H16.7344ZM9.29688 47.168H16.7344V55.2344H9.29688V47.168ZM57.1484 67.2656C51.5703 67.2656 47.0312 62.7266 47.0312 57.1484C47.0312 51.5703 51.5703 47.0312 57.1484 47.0312C62.7266 47.0312 67.2656 51.5703 67.2656 57.1484C67.2656 62.7266 62.7266 67.2656 57.1484 67.2656Z" fill="white"></path><path d="M61.0996 53.8399L56.875 58.0645L54.9883 56.1777C54.4551 55.6445 53.5937 55.6445 53.0605 56.1777C52.5273 56.711 52.5273 57.5723 53.0605 58.1055L55.9043 60.9492C56.1641 61.209 56.5059 61.3457 56.875 61.3457C57.2441 61.3457 57.5859 61.1953 57.8457 60.9492L63.041 55.7539C63.5742 55.2207 63.5742 54.3594 63.041 53.8262C62.5078 53.3067 61.6328 53.3067 61.0996 53.8399Z" fill="white"></path><path d="M28.2734 61.7969C27.918 61.7969 27.5625 61.9473 27.3027 62.1934C27.043 62.4531 26.9062 62.7949 26.9062 63.1641C26.9062 63.5332 27.0566 63.875 27.3027 64.1348C27.5625 64.3945 27.9043 64.5312 28.2734 64.5312C28.6426 64.5312 28.9844 64.3809 29.2441 64.1348C29.5039 63.875 29.6406 63.5332 29.6406 63.1641C29.6406 62.7949 29.4902 62.4531 29.2441 62.1934C28.9844 61.9473 28.6289 61.7969 28.2734 61.7969Z" fill="white"></path><path d="M7.80664 18.7441C8.06641 18.4844 8.20312 18.1426 8.20312 17.7734C8.20312 17.418 8.05273 17.0625 7.80664 16.8027C7.54687 16.543 7.20508 16.4062 6.83594 16.4062C6.48047 16.4062 6.125 16.5566 5.86523 16.8027C5.60547 17.0488 5.46875 17.418 5.46875 17.7734C5.46875 18.1289 5.61914 18.4844 5.86523 18.7441C6.11133 19.0039 6.4668 19.1406 6.83594 19.1406C7.19141 19.1406 7.54687 18.9902 7.80664 18.7441Z" fill="white"></path></svg>