<svg xmlns="http://www.w3.org/2000/svg" width="36" height="49" viewBox="0 0 36 49" fill="none"><g clip-path="url(#clip0_220_1456)"><path d="M17.8703 -6.76179e-05C26.8463 -6.76179e-05 34.4016 6.44694 35.8088 15.1293C36.3416 18.4005 35.6722 21.44 34.4426 24.425C32.5162 29.0728 29.9204 33.3526 27.1469 37.5507C24.7287 41.2172 22.1329 44.7473 19.4278 48.2094C18.6217 49.2452 17.4467 49.2861 16.668 48.2911C11.9955 42.2939 7.59625 36.1195 3.97576 29.4408C2.50024 26.7148 1.175 23.9206 0.423579 20.9084C-0.450804 17.4191 0.0820234 14.0389 1.53022 10.8222C4.05773 5.17935 8.41599 1.70369 14.4547 0.354313C14.9739 0.245273 15.493 0.177123 16.0122 0.108973C16.6816 0.0544525 17.3511 -0.0136977 17.8703 -6.76179e-05ZM18.0342 22.8575C21.6 22.8575 24.5511 19.927 24.5511 16.3696C24.5648 12.744 21.6274 9.7863 18.0069 9.79993C14.3864 9.81356 11.4627 12.7304 11.4763 16.356C11.4763 19.9407 14.4274 22.8575 18.0342 22.8575Z" fill="#E36F1E"></path></g><defs><clipPath id="clip0_220_1456"><rect width="36" height="49" fill="white"></rect></clipPath></defs></svg>