<svg xmlns="http://www.w3.org/2000/svg" width="76" height="82" viewBox="0 0 76 82" fill="none"><g clip-path="url(#clip0_220_1473)"><path d="M44.4177 9.90836C44.4177 10.0792 44.4177 10.4209 44.2489 10.5917C44.08 11.275 43.7422 11.7875 43.2355 12.3C41.8844 13.6667 40.3644 15.2042 38.8444 16.7417C38.6755 16.9125 38.5066 16.9125 38.3377 16.7417C36.8177 15.2042 35.2977 13.6667 33.7777 12.3C33.2711 11.7875 32.9333 11.1042 32.7644 10.4209C32.5955 9.0542 32.9333 7.68753 34.1155 6.83336C34.7911 6.32086 35.6355 5.9792 36.6489 6.15003C37.3244 6.15003 38 6.4917 38.5066 6.83336H38.6755C39.3511 6.32086 40.0266 6.15003 40.8711 6.15003C42.3911 6.15003 43.7422 7.17503 44.2489 8.5417C44.2489 8.88336 44.4177 9.0542 44.4177 9.39586C44.4177 9.5667 44.4177 9.73753 44.4177 9.90836ZM36.3111 6.66253C35.6355 6.66253 34.96 6.83336 34.2844 7.5167C33.44 8.20003 33.2711 9.22503 33.44 10.25C33.6089 10.9334 33.7777 11.4459 34.2844 11.7875C35.6355 13.1542 37.1555 14.6917 38.5066 16.0584H38.6755C40.0266 14.6917 41.2089 13.4959 42.56 12.1292C42.7289 11.9584 42.8977 11.7875 43.0666 11.6167C43.7422 10.9334 43.9111 10.0792 43.7422 9.0542C43.5733 8.20003 43.2355 7.68753 42.56 7.17503C41.7155 6.4917 40.7022 6.4917 39.6889 6.83336C39.3511 7.0042 39.0133 7.17503 38.8444 7.34586C38.6755 7.5167 38.5066 7.5167 38.3377 7.34586H38.1689C37.6622 7.0042 36.9866 6.66253 36.3111 6.66253Z" fill="#E36F1E"></path><path d="M38.5067 17.7667C38.169 17.7667 38.0001 17.5958 37.6623 17.425L33.1023 12.8125C32.4267 12.1292 32.089 11.275 31.9201 10.4208C31.5823 8.7125 32.2578 7.175 33.609 6.15C34.4534 5.29583 35.4667 5.125 36.649 5.125C37.3245 5.125 38.0001 5.46667 38.5067 5.80833C39.3512 5.29583 40.0267 5.125 40.8712 5.125C42.729 5.125 44.4178 6.32083 45.0934 8.02917C45.2623 8.37083 45.2623 8.54167 45.2623 9.05417V9.225V10.0792V10.25C45.2623 10.4208 45.2623 10.5917 45.2623 10.7625C45.0934 11.4458 44.7556 12.1292 44.0801 12.8125L39.5201 17.425C39.1823 17.5958 38.8445 17.7667 38.5067 17.7667ZM36.3112 7.51667C35.8045 7.51667 35.2978 7.6875 34.7912 8.02917C34.2845 8.54167 33.9467 9.225 34.1156 10.0792C34.1156 10.5917 34.4534 10.9333 34.7912 11.275C35.9734 12.4708 37.3245 13.8375 38.5067 15.0333C39.1823 14.35 40.0267 13.4958 40.7023 12.8125L42.0534 11.4458C42.2223 11.275 42.2223 11.275 42.3912 11.1042C42.8978 10.5917 43.0667 9.90833 42.8978 9.225C42.729 8.7125 42.5601 8.2 42.0534 7.85833C41.3778 7.34583 40.7023 7.34583 39.8578 7.6875C39.689 7.6875 39.5201 7.85833 39.1823 8.2C38.8445 8.54167 38.169 8.54167 37.8312 8.02917H37.6623C37.3245 7.6875 36.8178 7.51667 36.3112 7.51667Z" fill="#E36F1E"></path><path d="M18.5781 82C18.0714 81.6583 17.9025 81.1458 17.7337 80.6333C15.8759 75.6792 14.0181 70.725 12.1603 65.9417C11.147 63.3792 10.1337 60.9875 9.62699 58.425C8.27588 51.5917 9.28922 45.1 12.4981 38.95C13.1737 37.5833 13.5114 36.2167 13.6803 34.85C14.187 29.725 14.8625 24.6 15.5381 19.3042C15.707 17.9375 16.5514 17.5958 17.7337 18.2792C21.6181 20.1583 25.3337 22.0375 29.2181 24.0875C29.7248 24.2583 30.0626 24.4292 30.7381 24.2583C35.9737 22.8917 41.2092 22.8917 46.6137 24.2583C47.1203 24.4292 47.627 24.4292 48.1337 24.0875C51.8492 22.2083 55.7337 20.3292 59.4492 18.45C60.9692 17.7667 61.6448 18.1083 61.8137 19.8167C62.3203 23.7458 62.6581 27.675 63.1648 31.4333C63.3337 33.3125 63.6714 35.0208 63.8403 36.9C63.8403 37.4125 64.0092 37.7542 64.347 38.0958C65.5292 40.1458 66.3737 42.3667 67.0492 44.5875C67.2181 45.1 67.2181 45.6125 66.8803 46.125C66.2048 46.8083 65.1914 46.6375 64.8537 45.4417C64.347 43.7333 63.6714 42.025 62.827 40.4875C62.3203 39.4625 61.6448 38.6083 61.4759 37.4125C61.1381 33.9958 60.6314 30.5792 60.2937 27.3333C60.1248 25.4542 59.787 23.575 59.6181 21.6958C59.6181 21.0125 59.1114 21.3542 58.9426 21.525C55.5648 23.2333 52.187 24.9417 48.8092 26.65C47.9648 27.1625 47.2892 27.1625 46.4448 26.8208C41.3781 25.2833 36.3114 25.2833 31.0759 26.8208C30.2314 27.1625 29.5559 26.9917 28.7114 26.65C25.3337 24.9417 21.9559 23.2333 18.5781 21.525C18.0714 21.1833 17.9025 21.3542 17.7337 22.0375C17.227 25.9667 16.8892 29.725 16.3825 33.6542C16.3825 34.5083 16.2137 35.3625 16.0448 36.0458C16.0448 37.5833 15.3692 38.95 14.6937 40.3167C8.44477 51.25 11.3159 65.4292 21.2803 73.4583C25.3337 76.7042 29.7248 78.7542 34.9603 79.2667C46.2759 80.4625 55.227 76.1917 61.4759 66.625C64.5159 62.0125 65.6981 57.0583 65.5292 51.5917C65.5292 51.25 65.5292 50.9083 65.5292 50.3958C65.5292 49.5417 66.0359 49.0292 66.7114 49.0292C67.387 49.0292 67.8937 49.5417 67.8937 50.3958C68.2314 54.6667 67.7248 58.9375 66.0359 63.0375C63.6714 68.8458 61.4759 74.825 59.1114 80.8042C58.9426 81.3167 58.6048 81.8292 58.267 82.1708C56.747 82.1708 55.0581 82.1708 53.5381 82.1708C53.0314 81.8292 52.6937 81.3167 52.6937 80.8042C52.5248 80.4625 52.3559 79.95 52.3559 79.6083C52.187 79.0958 52.0181 78.925 51.5114 79.0958C49.4848 80.1208 47.2892 80.975 45.0937 81.3167C43.7425 81.6583 42.3914 81.8292 41.0403 82C39.5203 82 37.8314 82 36.3114 82C35.8048 82 35.6359 82 35.467 82C31.9203 81.6583 28.7114 80.8042 25.6714 79.2667C24.9959 78.925 24.827 79.0958 24.6581 79.7792C24.4892 80.6333 24.3203 81.6583 23.4759 82.1708C21.787 82 20.267 82 18.5781 82ZM17.7337 73.8C18.4092 75.6792 19.2537 77.5583 19.9292 79.4375C19.9292 79.6083 20.0981 79.6083 20.267 79.6083C21.6181 79.95 22.1248 79.6083 22.4626 78.2417C22.4626 78.0708 22.4625 77.9 22.6314 77.7292C22.6314 77.5583 22.6314 77.3875 22.4626 77.2167C20.7737 76.1917 19.4225 74.9958 17.7337 73.8ZM59.1114 73.8C57.5914 74.9958 56.0714 76.1917 54.5514 77.2167C54.3825 77.3875 54.3825 77.5583 54.3825 77.7292C54.5514 79.2667 54.8892 79.6083 56.4092 79.6083C57.4226 79.6083 57.2537 78.925 57.4226 78.4125C57.5914 78.2417 57.5914 77.9 57.7603 77.7292C58.0981 76.3625 58.6048 75.1667 59.1114 73.8Z" fill="#E36F1E"></path><path d="M38.5067 22.2083C32.4267 22.2083 27.3601 17.2542 27.3601 11.1042C27.1912 5.125 32.2578 0 38.3378 0C44.5867 0 49.6534 4.95417 49.4845 11.1042C49.4845 17.2542 44.5867 22.2083 38.5067 22.2083ZM29.7245 11.1042C29.7245 15.8875 33.609 19.8167 38.3378 19.8167C43.0667 19.8167 46.9512 15.8875 46.9512 11.1042C46.9512 6.32083 43.0667 2.39167 38.3378 2.39167C33.609 2.39167 29.7245 6.32083 29.7245 11.1042Z" fill="#E36F1E"></path><path d="M38.0003 57.5708C35.8048 57.5708 33.4403 56.7166 31.4137 54.8375C28.8803 52.4458 28.8803 48.6875 31.4137 46.2958C33.6092 44.075 36.3114 43.3916 39.3514 43.5625C41.7159 43.7333 43.7426 44.5875 45.4314 46.125C48.4714 49.0291 47.9648 53.3 44.587 55.6916C42.5603 56.8875 40.7026 57.5708 38.0003 57.5708ZM37.8314 45.9541C36.8181 45.9541 35.2981 46.2958 33.947 47.15C31.4137 48.8583 31.2448 51.5916 33.4403 53.4708C35.9737 55.6916 40.8715 55.5208 43.4048 53.1291C45.0937 51.4208 45.0937 49.2 43.4048 47.4916C42.0537 46.4666 40.3648 45.9541 37.8314 45.9541Z" fill="#E36F1E"></path><path d="M39.3512 62.6958C34.1157 62.6958 30.2312 61.5 26.5157 59.1083C25.6712 58.5958 25.3334 57.9125 25.8401 57.2291C26.3468 56.5458 27.0223 56.5458 27.8668 57.0583C30.2312 58.5958 32.5957 59.45 35.2979 59.9625C40.0268 60.8166 44.4179 59.7916 48.4712 57.4C48.809 57.2291 48.9779 57.0583 49.3157 56.8875C49.9912 56.5458 50.6668 56.7166 51.0046 57.2291C51.3423 57.7416 51.1734 58.425 50.4979 58.9375C49.1468 59.9625 47.6268 60.6458 46.1068 61.1583C43.7423 62.1833 41.0401 62.6958 39.3512 62.6958Z" fill="#E36F1E"></path><path d="M27.867 28.3583C27.867 28.8708 27.5292 29.2125 27.1915 29.3833C24.6581 30.9208 22.1248 32.6291 19.5915 34.1666C19.0848 34.5083 18.5781 34.5083 18.0715 34.1666C17.5648 33.825 17.3959 33.3125 17.5648 32.8C17.9026 30.0666 18.2404 27.5041 18.5781 24.7708C18.747 23.575 19.5915 23.0625 20.6048 23.575C22.8004 24.6 24.9959 25.7958 27.1915 26.8208C27.5292 27.3333 27.867 27.675 27.867 28.3583ZM24.1515 28.3583C23.307 27.8458 22.6315 27.5041 21.9559 27.1625C20.7737 26.65 20.7737 26.65 20.6048 27.8458C20.4359 28.7 20.267 29.725 20.4359 30.75C21.6181 29.8958 22.9692 29.2125 24.1515 28.3583Z" fill="#E36F1E"></path><path d="M59.2801 33.1416C59.2801 34.1666 58.2668 34.6791 57.4224 34.1666C54.889 32.6291 52.1868 30.9208 49.6535 29.3833C48.6401 28.8708 48.809 27.675 49.8224 27.1625C52.0179 25.9666 54.2135 24.9416 56.409 23.9166C57.4224 23.4041 58.2668 23.9166 58.4357 24.9416C58.6046 27.5041 58.9424 30.4083 59.2801 33.1416ZM56.5779 30.75C56.409 29.3833 56.2401 28.1875 56.2401 26.9916C56.2401 26.65 56.0712 26.65 55.7335 26.8208C54.7201 27.3333 53.7068 27.8458 52.6935 28.3583C53.8757 29.2125 55.0579 29.8958 56.5779 30.75Z" fill="#E36F1E"></path><path d="M76 74.9958C75.8311 75.85 75.4933 76.3625 74.6489 76.3625C74.3111 76.3625 73.9733 76.3625 73.6356 76.3625C72.96 76.3625 72.7911 76.5333 72.7911 77.2166C72.7911 77.5583 72.7911 77.9 72.7911 78.2416C72.6222 79.0958 72.2845 79.4375 71.44 79.4375C70.5956 79.4375 70.0889 78.925 69.92 78.2416C69.7511 77.7291 70.0889 76.875 69.7511 76.5333C69.4133 76.1916 68.5689 76.5333 68.0622 76.3625C67.2178 76.1916 66.7111 75.6791 66.88 74.825C66.88 73.9708 67.3867 73.4583 68.2311 73.4583C68.7378 73.4583 69.4133 73.6291 69.7511 73.2875C70.0889 72.9458 69.7511 72.2625 69.92 71.75C70.0889 70.8958 70.4267 70.3833 71.44 70.3833C72.2845 70.3833 72.7911 70.8958 72.96 71.75C73.1289 72.2625 72.6222 73.1166 73.1289 73.4583C73.4667 73.8 74.1422 73.4583 74.8178 73.6291C75.4933 73.6291 76 74.1416 76 74.9958Z" fill="#E36F1E"></path><path d="M60.1246 10.25C60.1246 10.7625 59.7869 11.1042 59.2802 11.275C58.9424 11.275 58.6046 11.275 58.2669 11.275C57.9291 11.275 57.7602 11.4459 57.7602 11.7875C57.7602 12.1292 57.7602 12.3 57.7602 12.6417C57.7602 13.325 57.2535 13.6667 56.7469 13.6667C56.0713 13.6667 55.7335 13.325 55.5646 12.6417C55.5646 12.1292 55.7335 11.6167 55.3957 11.4459C55.058 11.1042 54.5513 11.4459 54.2135 11.275C53.538 11.1042 53.2002 10.7625 53.2002 10.0792C53.2002 9.39587 53.7069 9.0542 54.3824 8.88337C54.7202 8.88337 55.3958 9.0542 55.5646 8.71253C55.7335 8.37087 55.5646 7.85837 55.5646 7.5167C55.5646 6.83337 56.0713 6.4917 56.578 6.4917C57.0846 6.4917 57.5913 7.0042 57.7602 7.5167C57.7602 8.0292 57.5913 8.5417 57.9291 8.71253C58.2669 9.0542 58.7735 8.71253 59.1113 8.88337C59.618 9.0542 59.9557 9.5667 60.1246 10.25Z" fill="#E36F1E"></path><path d="M7.60013 30.4083C7.60013 31.0916 7.26235 31.4333 6.5868 31.6041C6.41791 31.6041 6.24902 31.6041 6.24902 31.6041C5.0668 31.6041 5.0668 31.6041 5.0668 32.8C5.0668 33.6541 4.56013 34.1666 3.88458 34.1666C3.04013 34.1666 2.70235 33.6541 2.70235 32.8C2.70235 32.6291 2.70235 32.4583 2.70235 32.2875C2.70235 31.775 2.53346 31.6041 2.19569 31.775C1.85791 31.775 1.68902 31.775 1.35124 31.775C0.675687 31.775 0.16902 31.2625 0.337909 30.5791C0.337909 29.8958 0.675687 29.5541 1.35124 29.3833C1.85791 29.3833 2.36458 29.5541 2.70235 29.2125C3.04013 28.8708 2.70235 28.3583 2.87124 27.8458C3.04013 27.1625 3.37791 26.8208 4.05346 26.8208C4.72902 26.8208 5.0668 27.1625 5.23569 27.8458C5.23569 28.3583 5.0668 28.8708 5.40458 29.2125C5.74235 29.5541 6.24902 29.2125 6.75569 29.3833C7.09346 29.3833 7.60013 29.8958 7.60013 30.4083Z" fill="#E36F1E"></path><path d="M23.1377 41.8541C23.1377 39.9749 24.9955 38.2666 27.0221 38.2666C29.0488 38.2666 30.7377 40.1458 30.7377 42.0249C30.7377 42.7083 30.231 43.2208 29.7244 43.2208C29.0488 43.2208 28.711 42.8791 28.3732 42.1958C28.3732 41.8541 28.2044 41.6833 28.2044 41.3416C28.0355 40.8291 27.5288 40.6583 27.0221 40.6583C26.5155 40.6583 26.1777 40.9999 25.8399 41.3416C25.8399 41.5124 25.671 41.6833 25.671 42.0249C25.5021 42.8791 24.9955 43.2208 24.3199 43.2208C23.4755 43.2208 23.1377 42.7083 23.1377 41.8541Z" fill="#E36F1E"></path><path d="M53.707 41.8542C53.707 42.7083 53.3692 43.05 52.6937 43.2208C52.0181 43.2208 51.5114 42.8792 51.3425 42.025C51.1737 41 50.667 40.6583 49.9914 40.6583C49.3159 40.6583 48.8092 41.1708 48.6403 42.025C48.4714 42.8792 47.9648 43.2208 47.2892 43.05C46.6137 42.8792 46.2759 42.5375 46.2759 41.6833C46.2759 39.8042 48.1337 38.0958 49.9914 38.0958C52.0181 38.2667 53.707 39.975 53.707 41.8542Z" fill="#E36F1E"></path><path d="M34.6225 49.8833C35.2981 49.8833 35.8048 50.3958 35.8048 51.0791C35.8048 51.7625 35.1292 52.275 34.6225 52.275C33.947 52.275 33.4403 51.5916 33.4403 51.0791C33.2714 50.5666 33.947 49.8833 34.6225 49.8833Z" fill="#E36F1E"></path><path d="M42.2223 52.275C41.5467 52.275 41.04 51.7625 41.04 51.0791C41.04 50.3958 41.5467 49.8833 42.2223 49.8833C42.8978 49.8833 43.4045 50.3958 43.4045 51.0791C43.5734 51.7625 42.8978 52.275 42.2223 52.275Z" fill="#E36F1E"></path></g><defs><clipPath id="clip0_220_1473"><rect width="76" height="82" fill="white"></rect></clipPath></defs></svg>