<svg xmlns="http://www.w3.org/2000/svg" xmlns:xlink="http://www.w3.org/1999/xlink" id="Capa_1" x="0px" y="0px" viewBox="0 0 175 140" style="enable-background:new 0 0 175 140;" xml:space="preserve"><style type="text/css">	.st0{fill:#231F20;}	.st1{fill:#FFFFFF;}	.st2{fill:#261F64;}</style><g>	<path class="st1" d="M145.7,86.6L145.6,50l-34.3,0.2L97,42c-1.1-0.6-2.3-0.9-3.5-0.8l-21.9,8.2l-5.9,12.5c-1.4,2.9-0.1,6.3,2.7,7.7  c2.9,1.4,6.3,0.1,7.7-2.7l4.5-9.5l0,0c0.2-0.6,0.7-1,1.4-1l20.2-0.1c0,0,0,0,0,0c0.1,0,0.3,0,0.4,0.1c0.4,0,0.7,0.1,1,0.4  l21.3,19.5c0.3,0.3,0.5,0.6,0.5,1l0.1,12.8l4.8-3.4L145.7,86.6z"></path>	<path class="st1" d="M101.9,59.1l-19.2,0.1L78.5,68c-1.4,3-4.4,4.9-7.7,4.9c-1.3,0-2.5-0.3-3.6-0.8c-4.2-2-6.1-7.1-4.1-11.3l6-12.7  c0.1-0.2,0.2-0.4,0.4-0.5c0.1-0.3,0.4-0.5,0.7-0.6c0.3-0.2,0.6-0.3,1-0.4l12.3-4.6l-0.7-1.4L59,48.7l-35.5,0.3l0.2,35.2L37,84.3  l4.8,3.1l6.7-8.9c1.3-1.7,3.2-2.6,5.3-2.6c1.5,0,2.9,0.5,4.1,1.4c1.1,0.8,1.9,1.9,2.3,3.2l2-2.6c1.4-1.9,3.6-2.9,5.9-2.9  c1.6,0,3.2,0.5,4.5,1.5c1.6,1.2,2.6,2.9,2.8,4.9c0,0.4,0.1,0.7,0.1,1.1l0.3-0.4c1.4-1.8,3.5-2.8,5.8-2.8c1.6,0,3.2,0.5,4.5,1.5  c1.6,1.2,2.6,2.9,2.8,4.9c0.2,1.7-0.2,3.5-1.1,4.9c0.2,0,0.4,0,0.6,0c1.6,0,3.2,0.5,4.5,1.5c1.6,1.2,2.6,2.9,2.8,4.9  c0.3,2-0.3,3.9-1.5,5.5l-5,6.3c0.9,1.8,2.7,3,4.8,3c2.4,0,4.4-1.6,5-3.8L99,88.4L87.7,78c-0.6-0.5-0.6-1.4-0.1-2  c0.5-0.6,1.4-0.6,2-0.1l11.7,10.8c0.3,0.3,0.5,0.6,0.5,1l0.1,16.6c1,1,2.3,1.6,3.8,1.6c2.2,0,4.1-1.4,4.9-3.3c0-0.1,0-0.1,0-0.2  l-0.1-19.9L94.7,68.5c-0.6-0.5-0.6-1.4-0.1-2c0.5-0.6,1.4-0.6,2-0.1l16.2,14.5c0.3,0.3,0.5,0.7,0.5,1.1l0.1,15.7  c0.9,1.4,2.6,2.4,4.4,2.4c2.2,0,4-1.3,4.8-3.2l-0.2-18.9L101.9,59.1z"></path>	<path class="st1" d="M71,78.4c-2.1-1.6-5.1-1.2-6.7,0.9L52.5,95.2c-1.6,2.1-1.2,5.1,0.9,6.7c2.1,1.6,5.1,1.2,6.7-0.9l11.8-15.9  C73.4,83,73.1,80,71,78.4z"></path>	<path class="st1" d="M91.3,94c-2.1-1.6-5.1-1.2-6.7,0.9l-10.9,13.8c-1.6,2.1-1.2,5.1,0.9,6.7c2.1,1.6,5.1,1.2,6.7-0.9l10.9-13.8  C93.8,98.6,93.4,95.6,91.3,94z"></path>	<path class="st1" d="M84.5,82.7c-2.1-1.6-5.1-1.2-6.7,0.9L63,102.1c-1.6,2.1-1.2,5.1,0.9,6.7c2.1,1.6,5.1,1.2,6.7-0.9l14.8-18.6  C87,87.3,86.6,84.3,84.5,82.7z"></path>	<path class="st1" d="M56.4,79.2c-1.8-1.4-4.3-1-5.7,0.7l-6.9,9.2c-1.4,1.8-1,4.3,0.7,5.7c1.8,1.4,4.3,1,5.7-0.7l6.9-9.2  C58.4,83.1,58.1,80.6,56.4,79.2z"></path></g></svg>