<svg xmlns="http://www.w3.org/2000/svg" xmlns:xlink="http://www.w3.org/1999/xlink" id="Capa_1" x="0px" y="0px" viewBox="0 0 60 60" style="enable-background:new 0 0 60 60;" xml:space="preserve">
<style type="text/css">
	.st0{fill:#FCE5D6;}
	.st1{fill:#FFFFFF;}
	.st2{fill:#E36F1E;}
	.st3{fill:none;stroke:#231F20;stroke-width:0.5;stroke-miterlimit:10;}
	.st4{fill:#F9CDAF;}
	.st5{fill:none;stroke:#E36F1E;stroke-width:2;stroke-linecap:round;stroke-linejoin:round;stroke-miterlimit:10;}
	.st6{fill:#231F20;}
	.st7{fill:#F4B223;}
	.st8{fill:#E36F1E;stroke:#E36F1E;stroke-width:0.5;stroke-miterlimit:10;}
</style>
<circle class="st0" cx="30.1" cy="30.5" r="29"></circle>
<g>
	<path class="st1" d="M26,46.7c0,0,0-4.6,3.9-4.6c2.9,0,3.9,1.4,3.9,4.6H26z"></path>
</g>
<g>
	<path class="st2" d="M33.9,47.4h-7.7c-0.5,0-0.8-0.4-0.8-0.8c0-1.9,1-5.4,4.7-5.5c0,0,0,0,0,0c1.5,0,2.6,0.4,3.4,1.1   c0.9,0.9,1.3,2.2,1.3,4.3C34.7,47,34.3,47.4,33.9,47.4z M27.1,45.7h6c-0.1-1.1-0.3-1.9-0.8-2.3c-0.4-0.4-1.2-0.6-2.2-0.6   C27.9,42.8,27.2,44.6,27.1,45.7z"></path>
</g>
<g>
	<path class="st1" d="M39.1,46.7c0,0,0-4.6,3.9-4.6c2.9,0,3.6,1.3,4.1,4.6H39.1z"></path>
</g>
<g>
	<path class="st2" d="M47.1,47.4h-8c-0.5,0-0.8-0.4-0.8-0.8c0-1.9,1-5.4,4.7-5.5c0,0,0,0,0,0c3.5,0,4.4,1.9,4.9,5.3   c0,0.2,0,0.5-0.2,0.7C47.6,47.3,47.4,47.4,47.1,47.4z M40.1,45.7h6.1c-0.4-2.4-1.1-3-3.1-3c0,0,0,0,0,0   C40.9,42.8,40.3,44.6,40.1,45.7z"></path>
</g>
<g>
	<path class="st1" d="M20.1,46.8c0,0,0-3.8,3.2-3.9c2.4,0,3,1.1,3.4,3.9H20.1z"></path>
</g>
<g>
	<path class="st2" d="M26.8,47.5h-6.6c-0.5,0-0.8-0.4-0.8-0.8c0-1.6,0.8-4.7,4-4.7c0,0,0,0,0,0c3.3,0,3.9,2.2,4.2,4.6   c0,0.2,0,0.5-0.2,0.7C27.3,47.4,27.1,47.5,26.8,47.5z M21.1,45.9h4.7c-0.4-1.9-1-2.2-2.4-2.2C21.9,43.7,21.3,45,21.1,45.9z"></path>
</g>
<g>
	<path class="st1" d="M13,46.7c0,0,0-4.6,3.9-4.6c2.9,0,3.9,1.4,3.9,4.6H13z"></path>
</g>
<g>
	<path class="st2" d="M20.8,47.4h-7.7c-0.5,0-0.8-0.4-0.8-0.8c0-1.9,1-5.4,4.7-5.5c1.5,0,2.6,0.4,3.4,1.1c0.9,0.9,1.3,2.2,1.3,4.3   C21.7,47,21.3,47.4,20.8,47.4z M14,45.7h6c-0.1-1.1-0.3-1.9-0.8-2.3C18.8,43,18,42.7,17,42.8C14.8,42.8,14.2,44.6,14,45.7z"></path>
</g>
<g>
	<path class="st1" d="M12.1,36.1v-22c0-0.5,0.4-0.9,0.9-0.9c8.4,0,33.7,0,33.7,0c0.5,0,0.9,0.4,0.9,0.9v22c0,0.5-0.4,0.9-0.9,0.9   l-33.7,0C12.6,37,12.1,36.6,12.1,36.1z"></path>
</g>
<g>
	<path class="st2" d="M46.9,38.3l-33.9,0c-1,0-1.8-0.8-1.8-1.7V14.2c0-0.9,0.8-1.7,1.8-1.7h33.9c1,0,1.8,0.8,1.8,1.7v22.4   C48.7,37.5,47.9,38.3,46.9,38.3z M13.1,14.1C13,14.1,13,14.2,13.1,14.1L13,36.5c0,0,0,0.1,0.1,0.1l33.9,0c0.1,0,0.1,0,0.1-0.1V14.2   c0,0,0-0.1-0.1-0.1H13.1z"></path>
</g>
<g>
	<line class="st4" x1="14.8" y1="37" x2="45.5" y2="37"></line>
</g>
<g>
	<path class="st1" d="M25.9,29.5c0,0,0-4.6,3.9-4.6c2.9,0,3.6,1.3,4.1,4.6H25.9z"></path>
</g>
<g>
	<path class="st2" d="M34,30.2h-8c-0.5,0-0.8-0.4-0.8-0.8c0-1.9,1-5.4,4.7-5.5c0,0,0,0,0,0c3.5,0,4.4,1.9,4.9,5.3   c0,0.2,0,0.5-0.2,0.7C34.5,30.1,34.2,30.2,34,30.2z M26.9,28.5H33c-0.4-2.4-1.2-3-3.1-3C27.8,25.6,27.1,27.4,26.9,28.5z"></path>
</g>
<g>
	<path class="st2" d="M40.4,33.3h-21c-0.5,0-0.8-0.4-0.8-0.8V30c0-0.5,0.4-0.8,0.8-0.8h21c0.5,0,0.8,0.4,0.8,0.8v2.5   C41.3,32.9,40.9,33.3,40.4,33.3z M20.2,31.6h19.4v-0.9H20.2V31.6z"></path>
</g>
<g>
	<path class="st2" d="M39.5,38.7h-19c-0.5,0-0.8-0.4-0.8-0.8v-5.2c0-0.5,0.4-0.8,0.8-0.8h19c0.5,0,0.8,0.4,0.8,0.8v5.2   C40.3,38.4,39.9,38.7,39.5,38.7z M21.3,37.1h17.4v-3.6H21.3V37.1z"></path>
</g>
<g>
	<g>
		<circle class="st1" cx="29.9" cy="37.4" r="3.9"></circle>
	</g>
</g>
<g>
	<g>
		<path class="st2" d="M29.9,42.1c-2.6,0-4.7-2.1-4.7-4.7c0-2.6,2.1-4.7,4.7-4.7s4.7,2.1,4.7,4.7C34.6,40,32.5,42.1,29.9,42.1z     M29.9,34.4c-1.7,0-3,1.4-3,3c0,1.7,1.4,3,3,3s3-1.4,3-3C33,35.7,31.6,34.4,29.9,34.4z"></path>
	</g>
</g>
<g>
	<g>
		<circle class="st1" cx="43.2" cy="37.4" r="3.9"></circle>
	</g>
</g>
<g>
	<g>
		<path class="st2" d="M43.2,42.1c-2.6,0-4.7-2.1-4.7-4.7c0-2.6,2.1-4.7,4.7-4.7c2.6,0,4.7,2.1,4.7,4.7C47.9,40,45.7,42.1,43.2,42.1    z M43.2,34.4c-1.7,0-3,1.4-3,3c0,1.7,1.4,3,3,3c1.7,0,3-1.4,3-3C46.2,35.7,44.8,34.4,43.2,34.4z"></path>
	</g>
</g>
<g>
	<g>
		<circle class="st1" cx="23.5" cy="40.4" r="2.5"></circle>
	</g>
</g>
<g>
	<g>
		<path class="st2" d="M23.5,43.4c-1.7,0-3-1.4-3-3c0-1.7,1.4-3,3-3s3,1.4,3,3C26.5,42.1,25.1,43.4,23.5,43.4z M23.5,38.5    c-1.1,0-1.9,0.9-1.9,1.9c0,1.1,0.9,1.9,1.9,1.9c1.1,0,1.9-0.9,1.9-1.9C25.4,39.3,24.5,38.5,23.5,38.5z"></path>
	</g>
</g>
<g>
	<g>
		<circle class="st1" cx="16.8" cy="38.2" r="3.9"></circle>
	</g>
</g>
<g>
	<g>
		<path class="st2" d="M16.8,42.9c-2.6,0-4.7-2.1-4.7-4.7c0-2.6,2.1-4.7,4.7-4.7s4.7,2.1,4.7,4.7C21.6,40.8,19.4,42.9,16.8,42.9z     M16.8,35.2c-1.7,0-3,1.4-3,3c0,1.7,1.4,3,3,3s3-1.4,3-3C19.9,36.5,18.5,35.2,16.8,35.2z"></path>
	</g>
</g>
<g>
	<path class="st1" d="M33.4,46.8c0,0,0-3.8,3.2-3.9c2.4,0,3,1.1,3.4,3.9H33.4z"></path>
</g>
<g>
	<path class="st2" d="M40.2,47.5h-6.6c-0.5,0-0.8-0.4-0.8-0.8c0-1.6,0.8-4.7,4-4.7c0,0,0,0,0,0c3.3,0,3.9,2.2,4.2,4.6   c0,0.2,0,0.5-0.2,0.7C40.7,47.4,40.4,47.5,40.2,47.5z M34.5,45.8h4.7c-0.4-1.9-1-2.2-2.4-2.2C35.2,43.6,34.7,44.9,34.5,45.8z"></path>
</g>
<g>
	<g>
		<circle class="st1" cx="36.8" cy="40.4" r="2.5"></circle>
	</g>
</g>
<g>
	<g>
		<path class="st2" d="M36.8,43.4c-1.7,0-3-1.4-3-3c0-1.7,1.4-3,3-3s3,1.4,3,3C39.8,42.1,38.5,43.4,36.8,43.4z M36.8,38.5    c-1.1,0-1.9,0.9-1.9,1.9c0,1.1,0.9,1.9,1.9,1.9s1.9-0.9,1.9-1.9C38.7,39.3,37.9,38.5,36.8,38.5z"></path>
	</g>
</g>
<g>
	<rect x="39.5" y="18.9" class="st7" width="3.3" height="1.1"></rect>
</g>
<g>
	<rect x="39.5" y="21.3" class="st7" width="3.3" height="1.1"></rect>
</g>
<g>
	<rect x="39.5" y="23.7" class="st7" width="3.3" height="1.1"></rect>
</g>
<path class="st7" d="M27.5,22.4c0-0.2-0.1-0.3-0.1-0.5c-0.1-0.5-0.3-0.9-0.5-1.3c-0.1-0.2-0.2-0.3-0.3-0.5c-0.9-1.1-2.2-1.8-3.7-1.8  c-1.4,0-2.8,0.6-3.7,1.8c-0.1,0.2-0.2,0.3-0.3,0.5c-0.2,0.4-0.4,0.8-0.5,1.3c0,0.2-0.1,0.3-0.1,0.5c0,0.2,0,0.4,0,0.6  c0,0.2,0,0.4,0,0.6c0,0.2,0.1,0.3,0.1,0.5c0.1,0.4,0.3,0.9,0.5,1.3c0.1,0.2,0.2,0.3,0.3,0.5c0.9,1.1,2.2,1.8,3.7,1.8  c1.4,0,2.8-0.6,3.7-1.8c0.1-0.2,0.2-0.3,0.3-0.5c0.2-0.4,0.4-0.8,0.5-1.3c0-0.2,0.1-0.3,0.1-0.5c0-0.2,0-0.4,0-0.6  C27.6,22.8,27.5,22.6,27.5,22.4z M25.4,22.6h1.2c0,0.1,0,0.3,0,0.4s0,0.3,0,0.4h-1.2c0-0.1,0-0.3,0-0.4  C25.4,22.9,25.4,22.8,25.4,22.6z M23.9,26c-0.2,0.3-0.4,0.5-0.6,0.7V26H23.9z M23.3,25.1v-0.8h1.1c0,0.3-0.1,0.6-0.2,0.8H23.3z   M25.2,26c-0.2,0.1-0.3,0.2-0.5,0.3c0.1-0.1,0.1-0.2,0.2-0.3H25.2z M23.3,23.4v-0.8h1.2c0,0.1,0,0.3,0,0.4c0,0.1,0,0.3,0,0.4H23.3z   M24.9,20.1c-0.1-0.1-0.1-0.2-0.2-0.3c0.2,0.1,0.4,0.2,0.5,0.3H24.9z M23.3,20.1v-0.7c0.2,0.1,0.4,0.4,0.6,0.7H23.3z M23.3,21.8V21  h0.9c0.1,0.3,0.1,0.5,0.2,0.8H23.3z M25.2,21H26c0.2,0.3,0.3,0.5,0.4,0.8h-1.1C25.3,21.5,25.3,21.2,25.2,21z M26.4,24.3  c-0.1,0.3-0.2,0.6-0.4,0.8h-0.9c0.1-0.3,0.1-0.5,0.2-0.8H26.4z M22.5,22.6v0.8h-1.2c0-0.1,0-0.3,0-0.4c0-0.1,0-0.3,0-0.4H22.5z   M22.5,21v0.8h-1.1c0-0.3,0.1-0.6,0.2-0.8H22.5z M21.9,20.1c0.2-0.3,0.4-0.5,0.6-0.7v0.7H21.9z M20.6,20.1c0.2-0.1,0.3-0.2,0.5-0.3  C21,19.8,21,20,20.9,20.1H20.6z M19.3,21.8c0.1-0.3,0.2-0.6,0.4-0.8h0.9c-0.1,0.3-0.1,0.5-0.2,0.8H19.3z M20.6,25.1h-0.9  c-0.2-0.3-0.3-0.5-0.4-0.8h1.1C20.5,24.6,20.5,24.9,20.6,25.1z M21.3,24.3h1.1l0,0.8h-0.9C21.4,24.9,21.4,24.6,21.3,24.3z M22.5,26  v0.7c-0.2-0.1-0.4-0.4-0.6-0.7H22.5z M20.9,26c0.1,0.1,0.1,0.2,0.2,0.3c-0.2-0.1-0.4-0.2-0.5-0.3H20.9z M20.3,23.4h-1.2  c0-0.1,0-0.3,0-0.4s0-0.3,0-0.4h1.2c0,0.1,0,0.3,0,0.4C20.3,23.2,20.3,23.3,20.3,23.4z"></path>
<g>
	<g>
		<circle class="st1" cx="30" cy="20.2" r="3.9"></circle>
	</g>
</g>
<g>
	<g>
		<path class="st2" d="M30,24.9c-2.6,0-4.7-2.1-4.7-4.7s2.1-4.7,4.7-4.7s4.7,2.1,4.7,4.7S32.6,24.9,30,24.9z M30,17.2    c-1.7,0-3,1.4-3,3c0,1.7,1.4,3,3,3s3-1.4,3-3C33,18.5,31.7,17.2,30,17.2z"></path>
	</g>
</g>
</svg>