<svg xmlns="http://www.w3.org/2000/svg" xmlns:xlink="http://www.w3.org/1999/xlink" id="Capa_1" x="0px" y="0px" viewBox="0 0 60 60" style="enable-background:new 0 0 60 60;" xml:space="preserve">
<style type="text/css">
	.st0{fill:#E36F1E;}
	.st1{fill:#F9CDAF;}
	.st2{fill:#FFFFFF;}
</style>
<path class="st0" d="M30.4,46.6c-0.3,0-0.6,0-0.9,0c0,0-0.1,0-0.1-0.1c-2-0.4-3.3-2.2-3-4.2c0.1-0.4,0.2-0.7,0.3-1.1  c-0.1,0-0.3,0-0.4,0c-3.4,0-6.7,0-10.1,0c-0.9,0-1.2-0.3-1.2-1.2c0-8.2,0-16.3,0-24.5c0-0.1,0-0.3,0-0.4c-0.4,0-0.7,0-1-0.1  c-0.4-0.1-0.5-0.4-0.7-0.7c0-0.2,0-0.3,0-0.5c0.2-0.5,0.6-0.7,1.2-0.7c10.4,0,20.8,0,31.2,0c0,0,0.1,0,0.1,0c0.6,0,1,0.4,1,1  c0,0.5-0.4,1-1,1c-0.2,0-0.4,0-0.7,0c0,0.2,0,0.3,0,0.5c0,8.2,0,16.3,0,24.5c0,0.8-0.4,1.2-1.2,1.2c-3.4,0-6.8,0-10.2,0  c-0.1,0-0.2,0-0.4,0c0.1,0.2,0.1,0.3,0.2,0.4c0.7,2-0.3,4.2-2.3,4.8C30.8,46.5,30.6,46.6,30.4,46.6z M16.9,15.2c0,8.1,0,16.1,0,24.1  c8.7,0,17.4,0,26.1,0c0-8.1,0-16.1,0-24.1C34.3,15.2,25.6,15.2,16.9,15.2z M31.7,43c0-0.9-0.8-1.7-1.7-1.7c-0.9,0-1.7,0.8-1.7,1.7  c0,0.9,0.7,1.7,1.7,1.7C30.9,44.7,31.7,43.9,31.7,43z"></path>
<path class="st1" d="M16.9,15.2c8.7,0,17.4,0,26.1,0c0,8,0,16.1,0,24.1c-8.7,0-17.4,0-26.1,0C16.9,31.3,16.9,23.2,16.9,15.2z   M25.1,35.4c0.3,0,0.6,0,0.9,0c0.6,0,1.1-0.4,1.1-1c0-0.6-0.4-1-1.1-1c-0.3,0-0.6,0-0.9,0c0-0.7,0-1.4,0-2.1  c0.9-0.2,1.7-0.6,2.4-1.3c0.1-0.1,0.3-0.2,0.5-0.2c2.9-0.2,5.1-3,4.4-5.9c-0.1-0.6-0.4-1.2-0.6-1.8c0.2-0.2,0.6-0.5,0.9-0.8  c0.3-0.3,0.6-0.6,0.9-0.9c0.1,0.2,0.1,0.3,0.1,0.4c0,0.5,0.4,0.9,1,0.9c0.5,0,1-0.4,1-0.9c0-0.9,0-1.9,0-2.8c0-0.5-0.4-0.9-0.9-0.9  c-0.9,0-1.9,0-2.8,0c-0.5,0-0.9,0.4-0.9,0.9c0,0.5,0.4,1,0.9,1c0.1,0,0.3,0,0.4,0c-0.6,0.6-1.2,1.2-1.8,1.8c0,0-0.1-0.1-0.2-0.1  c-1.8-1-3.6-0.9-5.3,0.3c-0.5,0.4-0.9,0.6-1.5,0.7c-2.2,0.4-3.9,2.3-4,4.6c-0.1,2.3,1.4,4.3,3.6,5c0.1,0,0.2,0.1,0.3,0.1  c0,0.7,0,1.4,0,2c-0.3,0-0.6,0-0.9,0c-0.6,0-1,0.4-1,1c0,0.5,0.4,1,1,1c0.3,0,0.6,0,0.9,0c0,0.3,0,0.6,0,0.9c0,0.6,0.4,1.1,1,1.1  c0.6,0,1-0.4,1-1.1C25.1,36,25.1,35.7,25.1,35.4z M37.1,32.1c0.8,0,1.7,0,2.5,0c0.6,0,1.1-0.4,1.1-1c0-0.6-0.4-1-1.1-1  c-1.7,0-3.3,0-5,0c-0.7,0-1.1,0.4-1.1,1c0,0.6,0.5,1,1.1,1C35.5,32.1,36.3,32.1,37.1,32.1z M37.2,34.1c-0.8,0-1.7,0-2.5,0  c-0.7,0-1.1,0.4-1.1,1c0,0.6,0.4,1,1.1,1c1.7,0,3.3,0,5,0c0.7,0,1.1-0.4,1.1-1c0-0.6-0.4-1-1.1-1C38.8,34.1,38,34.1,37.2,34.1z"></path>
<path class="st2" d="M31.7,43c0,0.9-0.8,1.7-1.7,1.7c-0.9,0-1.7-0.8-1.7-1.7c0-0.9,0.8-1.7,1.7-1.7C30.9,41.3,31.7,42.1,31.7,43z"></path>
<path class="st0" d="M25.1,35.4c0,0.3,0,0.6,0,0.9c0,0.7-0.4,1.1-1,1.1c-0.6,0-1-0.4-1-1.1c0-0.3,0-0.6,0-0.9c-0.3,0-0.6,0-0.9,0  c-0.6,0-1-0.4-1-1c0-0.6,0.4-1,1-1c0.3,0,0.6,0,0.9,0c0-0.7,0-1.4,0-2c-0.1,0-0.2-0.1-0.3-0.1c-2.2-0.6-3.7-2.6-3.6-5  c0.1-2.2,1.7-4.2,4-4.6c0.6-0.1,1.1-0.3,1.5-0.7c1.7-1.2,3.5-1.3,5.3-0.3c0.1,0,0.2,0.1,0.2,0.1c0.6-0.6,1.2-1.2,1.8-1.8  c-0.1,0-0.2,0-0.4,0c-0.5,0-0.9-0.5-0.9-1c0-0.5,0.4-0.9,0.9-0.9c0.9,0,1.9,0,2.8,0c0.5,0,0.9,0.4,0.9,0.9c0,0.9,0,1.9,0,2.8  c0,0.5-0.4,0.9-1,0.9c-0.5,0-0.9-0.4-1-0.9c0-0.1,0-0.2-0.1-0.4c-0.3,0.3-0.6,0.6-0.9,0.9c-0.3,0.3-0.6,0.6-0.9,0.8  c0.2,0.6,0.5,1.2,0.6,1.8c0.6,2.9-1.5,5.7-4.4,5.9c-0.2,0-0.4,0.1-0.5,0.2c-0.7,0.6-1.5,1-2.4,1.3c0,0.7,0,1.3,0,2.1  c0.3,0,0.6,0,0.9,0c0.6,0,1.1,0.4,1.1,1c0,0.6-0.4,1-1.1,1C25.7,35.4,25.4,35.4,25.1,35.4z M28.9,27.6c1.4-0.6,2-2.4,1.4-3.8  c-0.7-1.4-2.4-2.1-3.7-1.5C28.4,23.6,29.3,25.3,28.9,27.6z M22.8,23.9c-1,0.5-1.5,1.3-1.6,2.3c-0.1,1.2,0.3,2.1,1.3,2.8  c0.8,0.6,2,0.6,2.7,0.2C23.2,28,22.5,26.3,22.8,23.9z M26.7,27.8c0.8-1.6-0.1-3.6-1.8-4C24.2,25.3,25,27.3,26.7,27.8z"></path>
<path class="st0" d="M37.1,32.1c-0.8,0-1.7,0-2.5,0c-0.6,0-1.1-0.4-1.1-1c0-0.6,0.4-1,1.1-1c1.7,0,3.3,0,5,0c0.6,0,1.1,0.4,1.1,1  c0,0.6-0.4,1-1.1,1C38.8,32.1,38,32.1,37.1,32.1z"></path>
<path class="st0" d="M37.2,34.1c0.8,0,1.7,0,2.5,0c0.6,0,1.1,0.4,1.1,1c0,0.6-0.4,1-1.1,1c-1.7,0-3.3,0-5,0c-0.7,0-1.1-0.4-1.1-1  c0-0.6,0.4-1,1.1-1C35.5,34.1,36.3,34.1,37.2,34.1z"></path>
<path class="st1" d="M28.9,27.6c0.4-2.3-0.5-4.1-2.4-5.3c1.3-0.7,3.1,0.1,3.7,1.5C30.9,25.2,30.3,27.1,28.9,27.6z"></path>
<path class="st1" d="M22.8,23.9c-0.4,2.3,0.4,4.1,2.3,5.3c-0.7,0.4-1.9,0.3-2.7-0.2c-1-0.7-1.4-1.6-1.3-2.8  C21.3,25.2,21.8,24.5,22.8,23.9z"></path>
<path class="st1" d="M26.7,27.8c-1.7-0.5-2.6-2.5-1.8-4C26.6,24.2,27.5,26.2,26.7,27.8z"></path>
</svg>