<svg xmlns="http://www.w3.org/2000/svg" xmlns:xlink="http://www.w3.org/1999/xlink" id="Capa_1" x="0px" y="0px" viewBox="0 0 60 60" style="enable-background:new 0 0 60 60;" xml:space="preserve">
<style type="text/css">
	.st0{fill:#F9CDAF;}
	.st1{fill:none;stroke:#E36F1E;stroke-width:2;stroke-linecap:round;stroke-miterlimit:10;}
	.st2{fill:none;stroke:#E36F1E;stroke-width:2;stroke-linecap:round;stroke-linejoin:round;stroke-miterlimit:10;}
	.st3{fill:#E36F1E;}
</style>
<polygon class="st0" points="42.1,28.5 50.6,26.7 48.3,34.1 "></polygon>
<path class="st1" d="M11.9,40.4c0,0,10.2,1.9,18.6-0.6S45,32,45,32"></path>
<polygon class="st2" points="41.7,28.4 48.7,35 50.9,26.4 "></polygon>
<path class="st3" d="M26.2,20.3c1.5,0,2.5,0.6,3.4,1.4c0.2,0.2,0.3,0.2,0.5,0c0.9-0.9,2-1.5,3.3-1.4c2,0.1,3.8,1.7,4.1,3.7  c0.2,1.7-0.3,3.1-1.5,4.3c-1.5,1.5-3.1,2.7-4.8,3.9c-0.3,0.2-0.6,0.4-0.9,0.6c-0.3,0.2-0.6,0.2-0.9,0c-2-1.4-4.1-2.8-5.8-4.6  c-1.6-1.6-1.9-3.8-0.9-5.6C23.5,21.2,24.7,20.4,26.2,20.3z M26.5,21.9c-2,0-3.3,2-2.7,4c0.3,0.8,0.9,1.4,1.5,2  c1.4,1.2,2.8,2.2,4.2,3.3c0.2,0.1,0.3,0.1,0.5,0c0.5-0.3,0.9-0.7,1.4-1c1.2-0.9,2.4-1.8,3.5-2.9c0.8-0.8,1.2-1.8,1-3  c-0.3-1.7-2.4-3.2-4.3-1.7c-0.4,0.3-0.8,0.7-1.1,1.1c-0.4,0.5-0.9,0.5-1.3,0c-0.3-0.4-0.6-0.7-1-1C27.7,22.2,27.1,21.9,26.5,21.9z"></path>
<path class="st3" d="M30.6,15.7c0,0.2,0,0.3,0,0.5c-0.1,0.4-0.4,0.7-0.8,0.7c-0.4,0-0.7-0.3-0.8-0.7c0-0.3,0-0.6,0-0.9  c0-0.4,0.4-0.7,0.8-0.7c0.4,0,0.7,0.3,0.8,0.7C30.6,15.3,30.6,15.5,30.6,15.7z"></path>
<path class="st3" d="M26.6,17.8c0,0,0,0.1,0,0.2c-0.1,0.3-0.4,0.5-0.7,0.5c-0.4,0-1-0.5-1.1-0.9c-0.1-0.4,0.1-0.6,0.4-0.8  c0.3-0.2,0.7-0.1,1,0.2C26.3,17.1,26.6,17.3,26.6,17.8z"></path>
<path class="st3" d="M33.8,18.5c0,0-0.1,0-0.2-0.1c-0.3-0.1-0.5-0.4-0.5-0.8c0-0.4,0.5-0.9,0.9-1c0.4-0.1,0.7,0.1,0.9,0.4  c0.2,0.3,0.1,0.7-0.2,1C34.4,18.2,34.2,18.5,33.8,18.5z"></path>
<path class="st0" d="M26.5,21.9c0.6,0,1.2,0.3,1.7,0.7c0.4,0.3,0.7,0.6,1,1c0.4,0.5,0.9,0.5,1.3,0c0.3-0.4,0.7-0.8,1.1-1.1  c1.8-1.4,4,0,4.3,1.7c0.2,1.2-0.2,2.2-1,3c-1,1.1-2.3,2-3.5,2.9c-0.5,0.3-0.9,0.7-1.4,1c-0.2,0.1-0.3,0.1-0.5,0  c-1.5-1-2.9-2.1-4.2-3.3c-0.6-0.6-1.2-1.2-1.5-2C23.2,24,24.5,21.9,26.5,21.9z"></path>
</svg>