<svg xmlns="http://www.w3.org/2000/svg" xmlns:xlink="http://www.w3.org/1999/xlink" width="133px" height="26px" viewBox="0 0 133 26"><title>envato</title><g id="HOME-3" stroke="none" stroke-width="1" fill="none" fill-rule="evenodd"><g id="Homelessness----V2" transform="translate(-771.000000, -8553.000000)" fill="#191919" fill-rule="nonzero"><g id="Group-9-Copy" transform="translate(-176.334724, 8159.935549)"><g id="Group-33" transform="translate(318.000000, 124.000000)"><g id="envato" transform="translate(630.000000, 270.000000)"><path d="M17.0479474,3.16935639 C16.3788674,2.81148491 14.4609157,3.03276117 12.1573784,3.71990327 C8.12585553,6.37545871 4.72334104,10.2877704 4.48590412,16.5702696 C4.44267329,16.7204843 4.04503294,16.5498404 3.96638611,16.503374 C2.8777178,14.4925801 2.4464073,12.3752339 3.35541832,9.32078831 C3.52484984,9.04895981 2.97091348,8.71432153 2.87131632,8.80989812 C2.67178948,9.00249339 1.840012,9.85635376 1.28757207,10.7797535 C-1.45076748,15.357336 0.339985873,21.2226791 5.1308746,23.7895478 C9.92076569,26.3604221 15.9693386,24.702052 18.6363473,20.0848929 C21.7217804,14.7558363 18.8568245,4.14290783 17.0480305,3.16951662 L17.0479474,3.16935639 Z" id="Path"></path><path d="M33.8587708,6 C28.1463699,6 24,10.0108654 24,15.5371186 C24,21.108704 28.135583,25 34.0577858,25 C37.0491158,25 39.4173948,24.1165766 41.3008465,22.2980007 C41.8633565,21.7243204 41.9238974,21.1714897 41.9238974,20.9601505 C41.9238974,20.0592734 41.2145508,19.4048799 40.2372029,19.4048799 C39.744599,19.4048799 39.3325208,19.580601 38.8599017,19.9933286 C37.7934153,20.9318771 36.3889377,21.8906434 34.0577858,21.8906434 C30.8161817,21.8906434 28.1799014,19.5920525 28.0138326,16.6402527 L40.9155266,16.6402527 C42.3184989,16.6402527 43,16.0207665 43,14.7468867 C43,14.3718306 43,14.1011805 42.9201432,13.567225 C42.2250958,8.82915039 38.8380771,6.00063181 33.8591052,6.00063181 L33.8587708,6 Z M33.8587708,8.95851276 C36.9562979,8.95851276 38.9439398,10.8228947 39.0665261,13.8319519 L28.0178462,13.8319519 C28.3079233,11.047107 30.8009631,8.95851276 33.8586034,8.95851276 L33.8587708,8.95851276 Z" id="Shape"></path><path d="M54.8717802,6 C52.2838319,6 49.7214857,7.42341456 48.7204309,9.40035266 L48.7204309,8.17859646 C48.7204309,6.28589543 47.1869091,6.19001197 46.8797713,6.19001197 C45.9711163,6.19001197 45,6.71234544 45,8.17859646 L45,22.9352352 C45,24.9006864 46.632343,25 46.959412,25 C47.286481,25 48.9195745,24.9006864 48.9195745,22.9352352 L48.9195745,15.0246111 C48.9195745,11.5826983 50.9586272,9.17867204 53.8778974,9.17867204 C56.7054348,9.17867204 58.0804255,10.9536327 58.0804255,14.6056595 L58.0804255,22.9352352 C58.0804255,24.9006864 59.713519,25 60.040588,25 C60.367657,25 62,24.9006864 62,22.9352352 L62,13.4282553 C62,9.83741209 60.1273171,6.00111678 54.8717802,6.00111678 L54.8717802,6 Z" id="Path"></path><path d="M80.0296747,6 C79.1000208,6 78.4257841,6.51045811 78.0243405,7.51477535 L72.5202005,20.5441479 L67.0580879,7.51477535 C66.6304521,6.49539013 65.9612657,6 65.0118392,6 C63.9026913,6 63,6.81471854 63,7.81637672 C63,8.06431352 63.0298728,8.38581752 63.252507,8.88797615 L69.5779371,22.9479342 C70.3317775,24.6440894 71.5715443,25 72.4792859,25 C73.3864282,25 74.6269654,24.6440894 75.382261,22.94874 L81.7488624,8.81062181 C81.9663608,8.31466764 82,7.95053817 82,7.77818303 C82,6.76492167 81.1520042,6.00024173 80.0296747,6.00024173 L80.0296747,6 Z" id="Path"></path><path d="M90.9815441,6.00094958 C88.4570069,6.00094958 86.1057214,6.66343754 84.3616989,7.86496852 C83.7702245,8.24946796 83.4824234,8.72916241 83.4824234,9.33230186 C83.4824234,10.1627858 84.1554429,10.8137997 85.0160749,10.8137997 C85.3883604,10.8137997 85.8050715,10.6741328 86.1873505,10.4217828 C87.6866541,9.48004015 89.0956784,9.04086095 90.62068,9.04086095 C93.5390015,9.04086095 95.2143281,10.43935 95.2143281,12.8781793 L95.2143281,13.2823033 C88.6631791,13.2890295 82,14.0345263 82,19.4046196 C82,23.2695548 85.505345,25 88.9791974,25 C91.7457664,25 93.9552926,23.967098 95.3728831,22.0112866 L95.3728831,22.9517632 C95.3728831,24.3523096 96.3709912,24.8489382 97.2273401,24.8489382 C97.4076462,24.8489382 99,24.7956036 99,22.9517632 L99,13.103862 C99,8.65533283 96.001645,6 90.9812082,6 L90.9815441,6.00094958 Z M94.383929,16.0205658 L95.2144121,16.0205658 L95.2144121,16.8773214 C95.2144121,20.0110034 93.0965923,22.03558 89.8203461,22.03558 C88.9310767,22.03558 86.0285435,21.8406002 86.0285435,19.32897 C86.0285435,16.3632839 90.7968709,16.0205658 94.383929,16.0205658 L94.383929,16.0205658 Z" id="Shape"></path><path d="M108.238884,8.94336119 C109.915221,8.94336119 110,7.61270879 110,7.34611264 C110,6.55488919 109.537141,5.70911583 108.238884,5.70911583 L104.791812,5.70911583 L104.791812,2.15239388 C104.791812,0.563627172 103.781314,0 102.915348,0 C102.595634,0 101,0.103528449 101,2.15239388 L101,19.0420833 C101,22.9398254 102.884779,25 106.451438,25 C107.374304,25 108.273692,24.8333566 108.861519,24.5540377 C109.535755,24.2109386 109.92215,23.6466462 109.92215,23.0064329 C109.92215,22.1032823 109.279951,21.4482674 108.394584,21.4482674 C108.223559,21.4482674 107.98039,21.4915082 107.712115,21.5701732 C107.384086,21.6539106 107.161705,21.6864244 106.918455,21.6864244 C105.467352,21.6864244 104.791812,20.7201588 104.791812,18.6450995 L104.791812,8.94169809 L108.238884,8.94169809 L108.238884,8.94336119 Z" id="Path"></path><path d="M121.98031,6 C116.196352,6 112,9.97940741 112,15.4616165 C112,18.1307717 113.016908,20.5634654 114.862118,22.3113371 C116.693414,24.0451507 119.221201,25 121.980635,25 C127.692422,25 132,20.8994397 132,15.4617744 C132,9.97948639 127.785179,6 121.980635,6 L121.98031,6 Z M121.98031,21.8525514 C118.013897,21.8525514 115.939724,18.6373393 115.939724,15.4612216 C115.939724,11.0967153 119.071,9.10906506 121.98031,9.10906506 C124.889619,9.10906506 128.020895,11.0967153 128.020895,15.4612216 C128.020895,19.8527385 124.889619,21.8525514 121.98031,21.8525514 L121.98031,21.8525514 Z" id="Shape"></path></g></g></g></g></g></svg>