<svg xmlns="http://www.w3.org/2000/svg" xmlns:xlink="http://www.w3.org/1999/xlink" id="Capa_1" x="0px" y="0px" viewBox="0 0 60 60" style="enable-background:new 0 0 60 60;" xml:space="preserve">
<style type="text/css">
	.st0{fill:#E36F1E;}
	.st1{fill:#F9CDAF;}
</style>
<path class="st0" d="M10,29.1c0.1-0.1,0.1-0.3,0.1-0.4c0.3-1.4,1.1-2.6,2.4-3.4c0.2-0.1,0.3-0.3,0.4-0.5c0.9-3.4,2.6-6.3,5.1-8.8  c0.9-0.9,2.3-1.2,3.4-0.6c1.2,0.5,1.9,1.7,1.8,3c0,0.8-0.4,1.5-1,2.1c-1.4,1.4-2.3,3-3,4.7c-0.1,0.3-0.1,0.5,0.2,0.8  c2.3,2.2,2.2,5.8,0,8c-0.2,0.2-0.3,0.4-0.2,0.6c0.7,1.8,1.7,3.5,3.1,4.9c0.6,0.6,0.9,1.3,1,2.1c0.1,1.3-0.6,2.5-1.8,3  c-1.2,0.5-2.5,0.3-3.4-0.6c-2-2-3.5-4.3-4.5-6.9c-0.3-0.7-0.5-1.3-0.6-2c0-0.1-0.1-0.3-0.2-0.4c-1.4-0.9-2.2-2.1-2.6-3.7  c0-0.1,0-0.1-0.1-0.1C10,30.3,10,29.7,10,29.1z M19.6,30c0-2.2-1.7-4-3.9-4c-2.2,0-4,1.8-4,3.9c0,2.2,1.8,4,4,4  C17.7,34,19.5,32.2,19.6,30z M14.6,24.5c1-0.2,2-0.1,2.9,0.3c0.2,0.1,0.2-0.1,0.3-0.2c0.8-2,1.9-3.8,3.4-5.4c0.6-0.7,0.6-1.6,0-2.2  c-0.6-0.6-1.5-0.6-2.2,0.1C17,19.3,15.5,21.7,14.6,24.5z M14.6,35.5c0.9,2.9,2.4,5.3,4.5,7.4c0.3,0.3,0.7,0.4,1.2,0.4  c0.6-0.1,1-0.4,1.3-1c0.2-0.6,0.1-1.1-0.3-1.6c-0.6-0.7-1.2-1.3-1.7-2.1c-0.7-1-1.3-2.1-1.7-3.3c0-0.1,0-0.3-0.3-0.2  C16.6,35.5,15.7,35.6,14.6,35.5z"></path>
<path class="st0" d="M50,30c-0.1,2-0.9,3.5-2.5,4.6c-0.2,0.1-0.3,0.3-0.4,0.5c-0.9,3.3-2.6,6.3-5,8.7c-1.3,1.3-3.2,1.3-4.4,0.1  c-1.2-1.2-1.2-3.1,0-4.4c1.4-1.4,2.5-3.1,3.2-5c0.1-0.2,0.1-0.4-0.1-0.5c-2.4-2.3-2.4-5.8,0-8.1c0.2-0.2,0.2-0.3,0.1-0.5  c-0.7-1.9-1.7-3.5-3.2-5c-1.1-1.1-1.2-2.7-0.4-3.9c1.1-1.6,3.4-1.8,4.8-0.4c2.4,2.5,4.1,5.4,5,8.7c0.1,0.3,0.2,0.4,0.4,0.6  C49.1,26.5,49.9,28.1,50,30z M40.4,30c0,2.2,1.8,4,3.9,4c2.2,0,4-1.8,4-4c0-2.2-1.8-4-3.9-4C42.2,26,40.4,27.8,40.4,30z M45.3,24.5  c0-0.1,0-0.1,0-0.2c-0.9-2.7-2.3-5.1-4.3-7.1c-0.7-0.7-1.6-0.7-2.2-0.1c-0.6,0.6-0.6,1.6,0,2.3c0.4,0.4,0.8,0.8,1.1,1.3  c0.9,1.2,1.7,2.5,2.2,3.9c0,0.1,0,0.3,0.3,0.2C43.4,24.5,44.3,24.4,45.3,24.5z M45.3,35.5c-0.8,0.1-1.5,0.1-2.2-0.1  c-0.3-0.1-0.6-0.3-0.9-0.2C42,35.3,42,35.7,41.9,36c-0.8,1.8-1.8,3.3-3.2,4.7c-0.6,0.6-0.6,1.6,0,2.2c0.6,0.6,1.5,0.6,2.2-0.1  c0.3-0.3,0.6-0.7,0.9-1C43.4,40,44.6,37.8,45.3,35.5z"></path>
<path class="st0" d="M26.4,23.7c1.5,0,2.5,0.6,3.4,1.4c0.2,0.2,0.3,0.2,0.5,0c0.9-0.9,2-1.5,3.3-1.4c2,0.1,3.8,1.7,4.1,3.7  c0.2,1.7-0.3,3.1-1.5,4.3c-1.5,1.5-3.1,2.7-4.8,3.9c-0.3,0.2-0.6,0.4-0.9,0.6c-0.3,0.2-0.6,0.2-0.9,0c-2-1.4-4.1-2.8-5.8-4.6  c-1.6-1.6-1.9-3.8-0.9-5.6C23.6,24.5,24.9,23.7,26.4,23.7z M26.7,25.2c-2,0-3.3,2-2.7,4c0.3,0.8,0.9,1.4,1.5,2  c1.4,1.2,2.8,2.2,4.2,3.3c0.2,0.1,0.3,0.1,0.5,0c0.5-0.3,0.9-0.7,1.4-1c1.2-0.9,2.4-1.8,3.5-2.9c0.8-0.8,1.2-1.8,1-3  c-0.3-1.7-2.4-3.2-4.3-1.7c-0.4,0.3-0.8,0.7-1.1,1.1c-0.4,0.5-0.9,0.5-1.3,0c-0.3-0.4-0.6-0.7-1-1C27.9,25.5,27.3,25.2,26.7,25.2z"></path>
<path class="st0" d="M30.8,13.1c0,0.2,0,0.3,0,0.5c-0.1,0.4-0.4,0.7-0.8,0.7c-0.4,0-0.7-0.3-0.8-0.7c0-0.3,0-0.6,0-0.9  c0-0.4,0.4-0.7,0.8-0.7c0.4,0,0.7,0.3,0.8,0.7C30.8,12.8,30.8,13,30.8,13.1z"></path>
<path class="st0" d="M29.2,46.8c0-0.1,0-0.3,0-0.4c0-0.4,0.4-0.7,0.8-0.7c0.4,0,0.7,0.3,0.8,0.7c0,0.3,0,0.6,0,1  c0,0.4-0.4,0.7-0.8,0.7c-0.4,0-0.7-0.3-0.8-0.7C29.2,47.2,29.2,47,29.2,46.8C29.2,46.8,29.2,46.8,29.2,46.8z"></path>
<path class="st0" d="M26.7,15.2c0,0,0,0.1,0,0.2c-0.1,0.3-0.4,0.5-0.7,0.5c-0.4,0-1-0.5-1.1-0.9c-0.1-0.4,0.1-0.6,0.4-0.8  c0.3-0.2,0.7-0.1,1,0.2C26.5,14.6,26.8,14.8,26.7,15.2z"></path>
<path class="st0" d="M34,44c0.5,0,1.1,0.7,1.1,1.1c0,0.4-0.3,0.8-0.8,0.8c-0.5,0-1.1-0.6-1.1-1.1C33.2,44.4,33.6,44,34,44z"></path>
<path class="st0" d="M34,16c0,0-0.1,0-0.2-0.1c-0.3-0.1-0.5-0.4-0.5-0.8c0-0.4,0.5-0.9,0.9-1c0.4-0.1,0.7,0.1,0.9,0.4  c0.2,0.3,0.1,0.7-0.2,1C34.6,15.7,34.4,16,34,16z"></path>
<path class="st0" d="M25.6,45.9c-0.4,0-0.8-0.3-0.8-0.8c0-0.5,0.6-1.1,1.1-1.1c0.4,0,0.8,0.3,0.8,0.8C26.8,45.3,26.1,45.9,25.6,45.9  z"></path>
<path class="st1" d="M19.6,30c0,2.2-1.8,3.9-4,3.9c-2.2,0-4-1.8-4-4c0-2.2,1.8-4,4-3.9C17.8,26,19.6,27.8,19.6,30z"></path>
<path class="st1" d="M14.6,24.5c0.9-2.8,2.4-5.3,4.4-7.4c0.6-0.6,1.5-0.7,2.2-0.1c0.6,0.6,0.7,1.5,0,2.2c-1.5,1.6-2.7,3.3-3.4,5.4  c0,0.1-0.1,0.3-0.3,0.2C16.6,24.5,15.7,24.4,14.6,24.5z"></path>
<path class="st1" d="M14.6,35.5c1,0.2,2,0.1,2.9-0.3c0.3-0.1,0.2,0.1,0.3,0.2c0.5,1.2,1,2.3,1.7,3.3c0.5,0.7,1.1,1.4,1.7,2.1  c0.4,0.5,0.5,1,0.3,1.6c-0.2,0.6-0.7,0.9-1.3,1c-0.4,0.1-0.9-0.1-1.2-0.4C17.1,40.8,15.6,38.3,14.6,35.5z"></path>
<path class="st1" d="M40.4,30c0-2.2,1.8-4,4-4c2.2,0,4,1.8,3.9,4c0,2.2-1.8,4-4,4C42.2,34,40.4,32.2,40.4,30z"></path>
<path class="st1" d="M45.3,24.5c-1-0.2-2-0.1-2.9,0.3c-0.3,0.1-0.2-0.1-0.3-0.2c-0.5-1.4-1.3-2.7-2.2-3.9c-0.4-0.5-0.7-0.9-1.1-1.3  c-0.7-0.7-0.7-1.6,0-2.3c0.6-0.6,1.6-0.6,2.2,0.1c2,2,3.5,4.4,4.3,7.1C45.3,24.4,45.3,24.5,45.3,24.5z"></path>
<path class="st1" d="M45.3,35.5c-0.8,2.4-1.9,4.5-3.5,6.4c-0.3,0.3-0.6,0.7-0.9,1c-0.6,0.6-1.5,0.6-2.2,0.1c-0.6-0.6-0.7-1.5,0-2.2  c1.3-1.4,2.4-2.9,3.2-4.7c0.1-0.3,0.2-0.7,0.4-0.8c0.2-0.1,0.6,0.1,0.9,0.2C43.8,35.6,44.6,35.6,45.3,35.5z"></path>
<path class="st1" d="M26.7,25.2c0.6,0,1.2,0.3,1.7,0.7c0.4,0.3,0.7,0.6,1,1c0.4,0.5,0.9,0.5,1.3,0c0.3-0.4,0.7-0.8,1.1-1.1  c1.8-1.4,4,0,4.3,1.7c0.2,1.2-0.2,2.2-1,3c-1,1.1-2.3,2-3.5,2.9c-0.5,0.3-0.9,0.7-1.4,1c-0.2,0.1-0.3,0.1-0.5,0  c-1.5-1-2.9-2.1-4.2-3.3c-0.6-0.6-1.2-1.2-1.5-2C23.4,27.3,24.7,25.2,26.7,25.2z"></path>
</svg>