<svg xmlns="http://www.w3.org/2000/svg" xmlns:xlink="http://www.w3.org/1999/xlink" id="Capa_1" x="0px" y="0px" viewBox="0 0 60 60" style="enable-background:new 0 0 60 60;" xml:space="preserve">
<style type="text/css">
	.st0{fill:#FCE5D6;}
	.st1{fill:#FFFFFF;}
	.st2{fill:#E36F1E;}
	.st3{fill:none;stroke:#231F20;stroke-width:0.5;stroke-miterlimit:10;}
	.st4{fill:#F9CDAF;}
	.st5{fill:none;stroke:#E36F1E;stroke-width:2;stroke-linecap:round;stroke-linejoin:round;stroke-miterlimit:10;}
	.st6{fill:#231F20;}
	.st7{fill:#F4B223;}
	.st8{fill:#E36F1E;stroke:#E36F1E;stroke-width:0.5;stroke-miterlimit:10;}
</style>
<circle class="st0" cx="30.3" cy="30.5" r="29"></circle>
<g>
	<g>
		<path class="st2" d="M56.4,27.9c0,0.4,0,0.8,0,1.1c-0.3,0-0.6,0-0.9,0c-0.2,0-0.2,0-0.2,0.2c0,3.7,0,7.3,0,11c0,0.2,0,0.2-0.2,0.2    c-5.6,0-11.1,0-16.7,0c-0.2,0-0.2,0-0.2-0.2c0-2.2,0-4.5,0-6.7c0-1.4,0-2.9,0-4.3c0-0.1,0-0.2-0.2-0.2c-0.3,0-0.6,0-0.8,0    c-0.1,0-0.1,0-0.1-0.1c0-0.3,0-0.6,0-0.9c0-0.1,0-0.1,0.1-0.1c0.3,0,0.6,0,0.8,0c0.1,0,0.2,0,0.2-0.1c0-1,0-2.1,0-3.1    c0-0.1,0-0.1-0.1-0.1c-0.3,0-0.6,0-0.9,0c-0.1,0-0.1,0-0.1-0.1c0-0.3,0-0.5,0-0.8c0-0.2,0.1-0.2,0.2-0.2c2.9,0,5.8,0,8.7,0    c0.2,0,0.2,0,0.2-0.2c0-0.7,0-1.4,0-2.1c0.8,0,1.5,0,2.3,0c0,0.3,0,0.7,0,1c0,0.1,0,0.1-0.1,0.1c-0.3,0-0.6,0-0.9,0    c-0.1,0-0.1,0-0.1,0.1c0,0.3,0,0.6,0,0.8c0,0.1,0,0.2,0.2,0.2c3,0,6,0,8.9,0c0,0.4,0,0.8,0,1.1c-0.3,0-0.7,0-1,0    c-0.1,0-0.1,0-0.1,0.1c0,1,0,2.1,0,3.1c0,0.1,0,0.1,0.1,0.1C55.8,27.9,56.1,27.9,56.4,27.9z M46.8,29.1c-2.4,0-4.8,0-7.2,0    c-0.1,0-0.2,0-0.2,0.2c0,3.3,0,6.6,0,9.9c0,0.1,0,0.2,0.2,0.2c1.4,0,2.8,0,4.2,0c0.1,0,0.2,0,0.2-0.2c0-0.7,0-1.3,0-2    c0-0.2,0-0.2,0.2-0.2c1.8,0,3.5,0,5.3,0c0.1,0,0.2,0,0.2,0.2c0,0.7,0,1.3,0,2c0,0.1,0,0.2,0.2,0.2c1.4,0,2.8,0,4.2,0    c0.1,0,0.2,0,0.2-0.2c0-3.3,0-6.6,0-9.9c0-0.2,0-0.2-0.2-0.2C51.6,29.1,49.2,29.1,46.8,29.1z M46.8,24.5c-2.4,0-4.8,0-7.2,0    c-0.1,0-0.2,0-0.2,0.1c0,1.1,0,2.1,0,3.2c0,0.1,0,0.1,0.1,0.1c0.3,0,0.6,0,0.9,0c0.1,0,0.2,0,0.2-0.2c0-0.6,0-1.3,0-1.9    c0-0.1,0-0.2,0.2-0.2c1,0,2,0,3.1,0c0.1,0,0.2,0,0.2,0.2c0,0.6,0,1.3,0,1.9c0,0.1,0,0.2,0.2,0.2c0.3,0,0.6,0,0.8,0    c0.1,0,0.2,0,0.2-0.2c0-0.6,0-1.3,0-1.9c0-0.1,0-0.2,0.2-0.2c1,0,2.1,0,3.1,0c0.1,0,0.2,0,0.2,0.2c0,0.6,0,1.3,0,1.9    c0,0.1,0,0.2,0.2,0.2c0.3,0,0.5,0,0.8,0c0.2,0,0.2,0,0.2-0.2c0-0.6,0-1.3,0-1.9c0-0.1,0-0.2,0.2-0.2c1,0,2,0,3,0    c0.1,0,0.2,0,0.2,0.2c0,0.6,0,1.3,0,1.9c0,0.1,0,0.2,0.1,0.1c0.3,0,0.6,0,0.9,0c0.1,0,0.2,0,0.2-0.2c0-1,0-2,0-3    c0-0.2,0-0.2-0.2-0.2C51.6,24.5,49.2,24.5,46.8,24.5z M46.2,38.8c0-0.2,0-0.4,0-0.5c0-0.1,0-0.1-0.1-0.1c-0.3,0-0.6,0-0.9,0    c-0.1,0-0.1,0-0.1,0.1c0,0.2,0,0.4,0,0.5c0,0.2-0.1,0.4,0,0.5c0.1,0.1,0.3,0,0.5,0c0.2,0,0.4,0.1,0.5,0    C46.3,39.2,46.2,39,46.2,38.8z M47.3,38.7c0,0.2,0,0.3,0,0.5c0,0.1,0,0.1,0.1,0.1c0.3,0,0.6,0,0.9,0c0.1,0,0.1,0,0.1-0.1    c0-0.2,0-0.4,0-0.6c0-0.2,0.1-0.4,0-0.5c-0.1-0.1-0.3,0-0.5,0c-0.2,0-0.5-0.1-0.6,0C47.2,38.3,47.3,38.6,47.3,38.7z M42.2,27.9    c0.2,0,0.4,0.1,0.5,0c0.1-0.1,0-0.4,0-0.6c0-0.2,0.1-0.4,0-0.5c-0.1-0.1-0.3,0-0.5,0c-0.2,0-0.4-0.1-0.5,0c-0.1,0.1,0,0.4,0,0.6    c0,0.2-0.1,0.4,0,0.5C41.8,28,42,27.9,42.2,27.9z M47.3,27.4c0-0.2,0.1-0.4,0-0.5c-0.1-0.1-0.3,0-0.5,0c-0.2,0-0.4-0.1-0.5,0    c-0.1,0.1,0,0.3,0,0.5c0,0.2-0.1,0.4,0,0.5c0.1,0.1,0.3,0,0.5,0c0.2,0,0.4,0.1,0.5,0C47.4,27.8,47.3,27.6,47.3,27.4z M51.3,26.8    c-0.2,0-0.4-0.1-0.5,0c-0.1,0.1,0,0.4,0,0.5c0,0.2-0.1,0.4,0,0.5c0.1,0.1,0.4,0,0.5,0c0.2,0,0.4,0.1,0.5,0c0.1-0.1,0-0.4,0-0.5    c0-0.2,0.1-0.4,0-0.5C51.7,26.7,51.5,26.8,51.3,26.8z"></path>
		<path class="st1" d="M46.8,29.1c2.4,0,4.8,0,7.2,0c0.2,0,0.2,0,0.2,0.2c0,3.3,0,6.6,0,9.9c0,0.1,0,0.2-0.2,0.2c-1.4,0-2.8,0-4.2,0    c-0.1,0-0.2,0-0.2-0.2c0-0.7,0-1.3,0-2c0-0.2,0-0.2-0.2-0.2c-1.8,0-3.5,0-5.3,0c-0.2,0-0.2,0-0.2,0.2c0,0.7,0,1.3,0,2    c0,0.1,0,0.2-0.2,0.2c-1.4,0-2.8,0-4.2,0c-0.1,0-0.2,0-0.2-0.2c0-3.3,0-6.6,0-9.9c0-0.2,0-0.2,0.2-0.2    C41.9,29.1,44.4,29.1,46.8,29.1z M41.6,30.8c0-0.2,0-0.3,0-0.5c0-0.1,0-0.2-0.1-0.2c-0.3,0-0.6,0-0.9,0c-0.1,0-0.1,0-0.1,0.1    c0,0.3,0,0.6,0,0.9c0,0.1,0,0.1,0.1,0.1c0.2,0,0.3,0,0.5,0c0.2,0,0.4,0.1,0.5,0C41.7,31.2,41.6,31,41.6,30.8z M43.9,30.8    c0-0.2,0-0.3,0-0.5c0-0.1,0-0.1-0.1-0.1c-0.3,0-0.6,0-0.9,0c-0.1,0-0.1,0-0.1,0.1c0,0.3,0,0.6,0,0.9c0,0.1,0,0.1,0.1,0.1    c0.3,0,0.6,0,0.9,0c0.1,0,0.1,0,0.1-0.1C43.9,31.1,43.9,30.9,43.9,30.8z M46.2,30.8c0-0.2,0-0.3,0-0.5c0-0.1,0-0.1-0.1-0.1    c-0.3,0-0.6,0-0.9,0c-0.1,0-0.1,0-0.1,0.1c0,0.3,0,0.6,0,0.9c0,0.1,0,0.1,0.1,0.1c0.3,0,0.6,0,0.9,0c0.1,0,0.1,0,0.1-0.1    C46.2,31.1,46.2,30.9,46.2,30.8z M47.9,31.3c0.2,0,0.3,0,0.5,0c0.1,0,0.1,0,0.1-0.1c0-0.3,0-0.6,0-0.9c0-0.1,0-0.1-0.1-0.1    c-0.3,0-0.6,0-0.9,0c-0.1,0-0.1,0-0.1,0.1c0,0.3,0,0.6,0,0.9c0,0.1,0,0.1,0.1,0.1C47.6,31.3,47.7,31.3,47.9,31.3z M50.1,31.3    c0.2,0,0.4,0.1,0.6,0c0.1-0.1,0-0.4,0-0.5c0-0.2,0.1-0.4,0-0.5c-0.1-0.1-0.3,0-0.5,0c-0.2,0-0.4-0.1-0.6,0c-0.1,0.1,0,0.4,0,0.5    c0,0.2-0.1,0.4,0,0.5C49.7,31.4,50,31.3,50.1,31.3z M53,30.8c0-0.2,0.1-0.4,0-0.5c-0.1-0.1-0.4,0-0.5,0c-0.2,0-0.4-0.1-0.5,0    c-0.1,0.1,0,0.4,0,0.5c0,0.2-0.1,0.4,0,0.5c0.1,0.1,0.4,0,0.5,0c0.2,0,0.4,0.1,0.5,0C53.1,31.2,53,31,53,30.8z M41.1,33.6    C41.1,33.6,41.1,33.6,41.1,33.6c0.1,0,0.3,0,0.4,0c0.1,0,0.1,0,0.1-0.1c0-0.3,0-0.6,0-0.8c0-0.1,0-0.2-0.2-0.2c-0.1,0-0.3,0-0.4,0    c-0.2,0-0.4-0.1-0.5,0c-0.1,0.1,0,0.3,0,0.5c0,0.2-0.1,0.4,0,0.5C40.6,33.7,40.9,33.6,41.1,33.6z M43.9,33.1c0-0.2,0-0.3,0-0.5    c0-0.1,0-0.1-0.1-0.1c-0.3,0-0.6,0-0.9,0c-0.1,0-0.1,0-0.1,0.1c0,0.3,0,0.6,0,0.9c0,0.1,0,0.1,0.1,0.1c0.3,0,0.6,0,0.9,0    c0.1,0,0.1,0,0.1-0.1C43.9,33.4,43.9,33.2,43.9,33.1z M45.6,32.5c-0.2,0-0.3,0-0.5,0c-0.1,0-0.1,0-0.1,0.1c0,0.3,0,0.6,0,0.9    c0,0.1,0,0.1,0.1,0.1c0.3,0,0.6,0,0.9,0c0.1,0,0.1,0,0.1-0.1c0-0.3,0-0.6,0-0.9c0-0.1,0-0.1-0.1-0.1    C45.9,32.5,45.8,32.5,45.6,32.5z M47.3,33c0,0.2,0,0.3,0,0.5c0,0.1,0,0.1,0.1,0.1c0.3,0,0.6,0,0.9,0c0.1,0,0.1,0,0.1-0.1    c0-0.3,0-0.6,0-0.9c0-0.1,0-0.1-0.1-0.1c-0.3,0-0.6,0-0.9,0c-0.1,0-0.1,0-0.1,0.1C47.3,32.8,47.3,32.9,47.3,33z M49.6,33    C49.6,33,49.6,33,49.6,33c0,0.2,0,0.3,0,0.5c0,0.1,0,0.1,0.1,0.1c0.3,0,0.6,0,0.9,0c0.1,0,0.1,0,0.1-0.1c0-0.3,0-0.6,0-0.9    c0-0.1,0-0.1-0.1-0.1c-0.1,0-0.3,0-0.4,0c-0.2,0-0.4-0.1-0.5,0C49.5,32.6,49.6,32.9,49.6,33z M51.9,33c0,0.2,0,0.3,0,0.5    c0,0.1,0,0.1,0.1,0.1c0.3,0,0.6,0,0.9,0c0.1,0,0.1,0,0.1-0.1c0-0.3,0-0.6,0-0.9c0-0.1,0-0.1-0.1-0.1c-0.3,0-0.6,0-0.9,0    c-0.1,0-0.1,0-0.1,0.1C51.9,32.8,51.9,32.9,51.9,33z M41.1,35.9c0.2,0,0.4,0.1,0.5,0c0.1-0.1,0-0.4,0-0.6c0-0.2,0.1-0.4,0-0.5    c-0.1-0.1-0.3,0-0.5,0c-0.2,0-0.4-0.1-0.5,0c-0.1,0.1,0,0.4,0,0.6c0,0.2-0.1,0.4,0,0.5C40.6,36,40.9,35.9,41.1,35.9z M43.3,35.9    c0.2,0,0.4,0.1,0.5,0c0.1-0.1,0-0.4,0-0.5c0-0.2,0.1-0.4,0-0.5c-0.1-0.1-0.4,0-0.5,0c-0.2,0-0.4-0.1-0.5,0c-0.1,0.1,0,0.4,0,0.5    c0,0.2-0.1,0.4,0,0.5C42.9,36,43.2,35.9,43.3,35.9z M45.6,35.9c0.2,0,0.4,0.1,0.5,0c0.1-0.1,0-0.3,0-0.5c0-0.2,0.1-0.4,0-0.5    c-0.1-0.1-0.3,0-0.5,0c-0.2,0-0.4-0.1-0.5,0c-0.1,0.1,0,0.3,0,0.5c0,0.2-0.1,0.4,0,0.5C45.2,35.9,45.4,35.9,45.6,35.9z M47.9,35.9    c0.2,0,0.4,0.1,0.5,0c0.1-0.1,0-0.3,0-0.5c0-0.2,0.1-0.4,0-0.5c-0.1-0.1-0.3,0-0.5,0c-0.2,0-0.4-0.1-0.5,0c-0.1,0.1,0,0.4,0,0.5    c0,0.2-0.1,0.4,0,0.5C47.4,36,47.7,35.9,47.9,35.9z M50.2,35.9C50.2,35.9,50.2,35.9,50.2,35.9c0.1,0,0.3,0,0.4,0    c0.1,0,0.1,0,0.1-0.1c0-0.3,0-0.6,0-0.9c0-0.1,0-0.1-0.1-0.1c-0.2,0-0.3,0-0.5,0c-0.2,0-0.4-0.1-0.5,0c-0.1,0.1,0,0.3,0,0.5    c0,0.2-0.1,0.5,0,0.6C49.7,35.9,50,35.9,50.2,35.9z M52.4,35.9c0.2,0,0.4,0.1,0.5,0c0.1-0.1,0-0.3,0-0.5c0-0.2,0.1-0.4,0-0.5    c-0.1-0.1-0.3,0-0.5,0c-0.2,0-0.4-0.1-0.5,0c-0.1,0.1,0,0.3,0,0.5c0,0.2-0.1,0.4,0,0.5C52,35.9,52.2,35.9,52.4,35.9z M42.2,38.1    c0.2,0,0.4,0.1,0.5,0c0.1-0.1,0-0.3,0-0.5c0-0.2,0.1-0.4,0-0.5c-0.1-0.1-0.3,0-0.5,0c-0.2,0-0.4-0.1-0.5,0c-0.1,0.1,0,0.3,0,0.5    c0,0.2-0.1,0.4,0,0.5C41.8,38.2,42,38.1,42.2,38.1z M51.3,37c-0.2,0-0.4-0.1-0.5,0c-0.1,0.1,0,0.4,0,0.5c0,0.2-0.1,0.4,0,0.5    c0.1,0.1,0.4,0,0.5,0c0.2,0,0.4,0.1,0.5,0c0.1-0.1,0-0.4,0-0.5c0-0.2,0.1-0.4,0-0.5C51.7,36.9,51.5,37,51.3,37z"></path>
		<path class="st1" d="M46.8,24.5c2.4,0,4.8,0,7.2,0c0.2,0,0.2,0,0.2,0.2c0,1,0,2,0,3c0,0.1,0,0.2-0.2,0.2c-0.3,0-0.6,0-0.9,0    c-0.1,0-0.1,0-0.1-0.1c0-0.6,0-1.3,0-1.9c0-0.2,0-0.2-0.2-0.2c-1,0-2,0-3,0c-0.2,0-0.2,0.1-0.2,0.2c0,0.6,0,1.3,0,1.9    c0,0.1,0,0.2-0.2,0.2c-0.3,0-0.5,0-0.8,0c-0.2,0-0.2-0.1-0.2-0.2c0-0.6,0-1.3,0-1.9c0-0.1,0-0.2-0.2-0.2c-1,0-2.1,0-3.1,0    c-0.1,0-0.2,0.1-0.2,0.2c0,0.6,0,1.3,0,1.9c0,0.1,0,0.2-0.2,0.2c-0.3,0-0.6,0-0.8,0c-0.1,0-0.2-0.1-0.2-0.2c0-0.6,0-1.3,0-1.9    c0-0.1,0-0.2-0.2-0.2c-1,0-2,0-3.1,0c-0.1,0-0.2,0-0.2,0.2c0,0.6,0,1.3,0,1.9c0,0.1,0,0.2-0.2,0.2c-0.3,0-0.6,0-0.9,0    c-0.1,0-0.1,0-0.1-0.1c0-1.1,0-2.1,0-3.2c0-0.2,0.1-0.1,0.2-0.1C41.9,24.5,44.3,24.5,46.8,24.5z"></path>
		<path class="st4" d="M46.2,38.8c0,0.2,0.1,0.4,0,0.5c-0.1,0.1-0.4,0-0.5,0c-0.2,0-0.4,0.1-0.5,0c-0.1-0.1,0-0.3,0-0.5    c0-0.2,0-0.4,0-0.5c0-0.1,0-0.1,0.1-0.1c0.3,0,0.6,0,0.9,0c0.1,0,0.1,0,0.1,0.1C46.2,38.4,46.2,38.6,46.2,38.8z"></path>
		<path class="st4" d="M47.3,38.7c0-0.2-0.1-0.4,0-0.5c0.1-0.1,0.4,0,0.6,0c0.2,0,0.4-0.1,0.5,0c0.1,0.1,0,0.3,0,0.5    c0,0.2,0,0.4,0,0.6c0,0.1,0,0.1-0.1,0.1c-0.3,0-0.6,0-0.9,0c-0.1,0-0.1,0-0.1-0.1C47.3,39.1,47.3,38.9,47.3,38.7z"></path>
		<path class="st4" d="M42.2,27.9c-0.2,0-0.4,0.1-0.5,0c-0.1-0.1,0-0.3,0-0.5c0-0.2-0.1-0.4,0-0.6c0.1-0.1,0.4,0,0.5,0    c0.2,0,0.4-0.1,0.5,0c0.1,0.1,0,0.3,0,0.5c0,0.2,0.1,0.5,0,0.6C42.6,28,42.4,27.9,42.2,27.9z"></path>
		<path class="st4" d="M47.3,27.4c0,0.2,0.1,0.4,0,0.5c-0.1,0.1-0.4,0-0.5,0c-0.2,0-0.4,0.1-0.5,0c-0.1-0.1,0-0.4,0-0.5    c0-0.2-0.1-0.4,0-0.5c0.1-0.1,0.4,0,0.5,0c0.2,0,0.4-0.1,0.5,0C47.4,26.9,47.3,27.2,47.3,27.4z"></path>
		<path class="st4" d="M51.3,26.8c0.2,0,0.4-0.1,0.5,0c0.1,0.1,0,0.4,0,0.5c0,0.2,0.1,0.4,0,0.5c-0.1,0.1-0.3,0-0.5,0    c-0.2,0-0.4,0.1-0.5,0c-0.1-0.1,0-0.3,0-0.5c0-0.2-0.1-0.4,0-0.5C50.9,26.7,51.1,26.8,51.3,26.8z"></path>
		<path class="st2" d="M41.6,30.9c0,0.1,0.1,0.4,0,0.5c-0.1,0.1-0.3,0-0.5,0c-0.2,0-0.3,0-0.5,0c-0.1,0-0.1,0-0.1-0.1    c0-0.3,0-0.6,0-0.9c0-0.1,0-0.1,0.1-0.1c0.3,0,0.6,0,0.9,0c0.1,0,0.1,0,0.1,0.2C41.6,30.5,41.6,30.7,41.6,30.9z"></path>
		<path class="st7" d="M43.9,30.8c0,0.1,0,0.3,0,0.4c0,0.1,0,0.1-0.1,0.1c-0.3,0-0.6,0-0.9,0c-0.1,0-0.1,0-0.1-0.1    c0-0.3,0-0.6,0-0.9c0-0.1,0-0.1,0.1-0.1c0.3,0,0.6,0,0.9,0c0.1,0,0.1,0,0.1,0.1C43.9,30.5,43.9,30.7,43.9,30.8z"></path>
		<path class="st7" d="M46.1,30.8c0,0.1,0,0.3,0,0.4c0,0.1,0,0.1-0.1,0.1c-0.3,0-0.6,0-0.9,0c-0.1,0-0.1,0-0.1-0.1    c0-0.3,0-0.6,0-0.9c0-0.1,0-0.1,0.1-0.1c0.3,0,0.6,0,0.9,0c0.1,0,0.1,0,0.1,0.1C46.1,30.5,46.1,30.7,46.1,30.8z"></path>
		<path class="st7" d="M47.8,31.4c-0.1,0-0.3,0-0.4,0c-0.1,0-0.1,0-0.1-0.1c0-0.3,0-0.6,0-0.9c0-0.1,0-0.1,0.1-0.1    c0.3,0,0.6,0,0.9,0c0.1,0,0.1,0,0.1,0.1c0,0.3,0,0.6,0,0.9c0,0.1,0,0.1-0.1,0.1C48.1,31.4,48,31.4,47.8,31.4z"></path>
		<path class="st7" d="M50.1,31.4c-0.2,0-0.4,0.1-0.5,0c-0.1-0.1,0-0.3,0-0.5c0-0.2-0.1-0.4,0-0.5c0.1-0.1,0.4,0,0.6,0    c0.2,0,0.4-0.1,0.5,0c0.1,0.1,0,0.3,0,0.5c0,0.2,0.1,0.4,0,0.5C50.5,31.5,50.3,31.4,50.1,31.4z"></path>
		<path class="st7" d="M52.9,30.8c0,0.2,0.1,0.4,0,0.5c-0.1,0.1-0.3,0-0.5,0c-0.2,0-0.4,0.1-0.5,0c-0.1-0.1,0-0.3,0-0.5    c0-0.2-0.1-0.4,0-0.5c0.1-0.1,0.3,0,0.5,0c0.2,0,0.4-0.1,0.5,0C53,30.4,52.9,30.6,52.9,30.8z"></path>
		<path class="st2" d="M41,33.6c-0.2,0-0.4,0.1-0.5,0c-0.1-0.1,0-0.4,0-0.5c0-0.2-0.1-0.4,0-0.5c0.1-0.1,0.4,0,0.5,0    c0.1,0,0.3,0,0.4,0c0.1,0,0.2,0,0.2,0.2c0,0.3,0,0.6,0,0.8c0,0.1,0,0.2-0.1,0.1C41.3,33.6,41.2,33.6,41,33.6    C41,33.6,41,33.6,41,33.6z"></path>
		<path class="st7" d="M43.9,33.1c0,0.2,0,0.3,0,0.5c0,0.1,0,0.1-0.1,0.1c-0.3,0-0.6,0-0.9,0c-0.1,0-0.1,0-0.1-0.1    c0-0.3,0-0.6,0-0.9c0-0.1,0-0.1,0.1-0.1c0.3,0,0.6,0,0.9,0c0.1,0,0.1,0,0.1,0.1C43.9,32.8,43.9,32.9,43.9,33.1z"></path>
		<path class="st7" d="M45.6,32.5c0.1,0,0.3,0,0.4,0c0.1,0,0.1,0,0.1,0.1c0,0.3,0,0.6,0,0.9c0,0.1,0,0.1-0.1,0.1c-0.3,0-0.6,0-0.9,0    c-0.1,0-0.1,0-0.1-0.1c0-0.3,0-0.6,0-0.9c0-0.1,0-0.1,0.1-0.1C45.3,32.5,45.4,32.5,45.6,32.5z"></path>
		<path class="st7" d="M47.3,33.1c0-0.1,0-0.3,0-0.4c0-0.1,0-0.1,0.1-0.1c0.3,0,0.6,0,0.9,0c0.1,0,0.1,0,0.1,0.1c0,0.3,0,0.6,0,0.9    c0,0.1,0,0.1-0.1,0.1c-0.3,0-0.6,0-0.9,0c-0.1,0-0.1,0-0.1-0.1C47.3,33.4,47.3,33.2,47.3,33.1z"></path>
		<path class="st7" d="M49.6,33.1c0-0.2-0.1-0.4,0-0.5c0.1-0.1,0.4,0,0.5,0c0.1,0,0.3,0,0.4,0c0.1,0,0.1,0,0.1,0.1    c0,0.3,0,0.6,0,0.9c0,0.1,0,0.1-0.1,0.1c-0.3,0-0.6,0-0.9,0c-0.1,0-0.1,0-0.1-0.1C49.6,33.4,49.6,33.2,49.6,33.1    C49.6,33.1,49.6,33.1,49.6,33.1z"></path>
		<path class="st7" d="M51.8,33.1c0-0.1,0-0.3,0-0.4c0-0.1,0-0.1,0.1-0.1c0.3,0,0.6,0,0.9,0c0.1,0,0.1,0,0.1,0.1c0,0.3,0,0.6,0,0.9    c0,0.1,0,0.1-0.1,0.1c-0.3,0-0.6,0-0.9,0c-0.1,0-0.1,0-0.1-0.1C51.8,33.4,51.8,33.2,51.8,33.1z"></path>
		<path class="st2" d="M41,35.9c-0.2,0-0.4,0.1-0.5,0c-0.1-0.1,0-0.3,0-0.5c0-0.2-0.1-0.4,0-0.6c0.1-0.1,0.4,0,0.5,0    c0.2,0,0.4-0.1,0.5,0c0.1,0.1,0,0.3,0,0.5c0,0.2,0.1,0.5,0,0.6C41.5,36,41.2,35.9,41,35.9z"></path>
		<path class="st7" d="M43.4,35.9c-0.2,0-0.4,0.1-0.5,0c-0.1-0.1,0-0.3,0-0.5c0-0.2-0.1-0.4,0-0.5c0.1-0.1,0.3,0,0.5,0    c0.2,0,0.4-0.1,0.5,0c0.1,0.1,0,0.3,0,0.5c0,0.2,0.1,0.4,0,0.5C43.8,35.9,43.5,35.9,43.4,35.9z"></path>
		<path class="st7" d="M45.6,35.9c-0.2,0-0.4,0.1-0.5,0c-0.1-0.1,0-0.4,0-0.5c0-0.2-0.1-0.4,0-0.5c0.1-0.1,0.4,0,0.5,0    c0.2,0,0.4-0.1,0.5,0c0.1,0.1,0,0.4,0,0.5c0,0.2,0.1,0.4,0,0.5C46,36,45.8,35.9,45.6,35.9z"></path>
		<path class="st7" d="M47.9,35.9c-0.2,0-0.4,0.1-0.5,0c-0.1-0.1,0-0.3,0-0.5c0-0.2-0.1-0.4,0-0.5c0.1-0.1,0.3,0,0.5,0    c0.2,0,0.4-0.1,0.5,0c0.1,0.1,0,0.4,0,0.5c0,0.2,0.1,0.4,0,0.5C48.3,36,48,35.9,47.9,35.9z"></path>
		<path class="st7" d="M50.1,35.9c-0.2,0-0.4,0.1-0.5,0c-0.1-0.1,0-0.4,0-0.6c0-0.2-0.1-0.4,0-0.5c0.1-0.1,0.3,0,0.5,0    c0.2,0,0.3,0,0.5,0c0.1,0,0.1,0,0.1,0.1c0,0.3,0,0.6,0,0.9c0,0.1,0,0.1-0.1,0.1C50.4,35.9,50.3,35.9,50.1,35.9    C50.1,35.9,50.1,35.9,50.1,35.9z"></path>
		<path class="st7" d="M52.4,35.9c-0.2,0-0.4,0.1-0.5,0c-0.1-0.1,0-0.4,0-0.5c0-0.2-0.1-0.4,0-0.5c0.1-0.1,0.4,0,0.5,0    c0.2,0,0.4-0.1,0.5,0c0.1,0.1,0,0.4,0,0.5c0,0.2,0.1,0.4,0,0.5C52.8,36,52.6,35.9,52.4,35.9z"></path>
		<path class="st2" d="M42.2,38.1c-0.2,0-0.4,0.1-0.5,0c-0.1-0.1,0-0.4,0-0.5c0-0.2-0.1-0.4,0-0.5c0.1-0.1,0.4,0,0.5,0    c0.2,0,0.4-0.1,0.5,0c0.1,0.1,0,0.4,0,0.5c0,0.2,0.1,0.4,0,0.5C42.6,38.2,42.4,38.1,42.2,38.1z"></path>
		<path class="st7" d="M51.2,37.1c0.2,0,0.4-0.1,0.5,0c0.1,0.1,0,0.3,0,0.5c0,0.2,0.1,0.4,0,0.5c-0.1,0.1-0.3,0-0.5,0    c-0.2,0-0.4,0.1-0.5,0c-0.1-0.1,0-0.3,0-0.5c0-0.2-0.1-0.4,0-0.5C50.8,37,51.1,37.1,51.2,37.1z"></path>
	</g>
	<g>
		<path class="st2" d="M22.9,27.9c0,0.4,0,0.8,0,1.1c-0.3,0-0.6,0-0.9,0c-0.2,0-0.2,0-0.2,0.2c0,3.7,0,7.3,0,11c0,0.2,0,0.2-0.2,0.2    c-5.6,0-11.1,0-16.7,0c-0.2,0-0.2,0-0.2-0.2c0-2.2,0-4.5,0-6.7c0-1.4,0-2.9,0-4.3c0-0.1,0-0.2-0.2-0.2c-0.3,0-0.6,0-0.8,0    c-0.1,0-0.1,0-0.1-0.1c0-0.3,0-0.6,0-0.9c0-0.1,0-0.1,0.1-0.1c0.3,0,0.6,0,0.8,0c0.1,0,0.2,0,0.2-0.1c0-1,0-2.1,0-3.1    c0-0.1,0-0.1-0.1-0.1c-0.3,0-0.6,0-0.9,0c-0.1,0-0.1,0-0.1-0.1c0-0.3,0-0.5,0-0.8c0-0.2,0.1-0.2,0.2-0.2c2.9,0,5.8,0,8.7,0    c0.2,0,0.2,0,0.2-0.2c0-0.7,0-1.4,0-2.1c0.8,0,1.5,0,2.3,0c0,0.3,0,0.7,0,1c0,0.1,0,0.1-0.1,0.1c-0.3,0-0.6,0-0.9,0    c-0.1,0-0.1,0-0.1,0.1c0,0.3,0,0.6,0,0.8c0,0.1,0,0.2,0.2,0.2c3,0,6,0,8.9,0c0,0.4,0,0.8,0,1.1c-0.3,0-0.7,0-1,0    c-0.1,0-0.1,0-0.1,0.1c0,1,0,2.1,0,3.1c0,0.1,0,0.1,0.1,0.1C22.3,27.9,22.6,27.9,22.9,27.9z M13.3,29.1c-2.4,0-4.8,0-7.2,0    c-0.1,0-0.2,0-0.2,0.2c0,3.3,0,6.6,0,9.9c0,0.1,0,0.2,0.2,0.2c1.4,0,2.8,0,4.2,0c0.1,0,0.2,0,0.2-0.2c0-0.7,0-1.3,0-2    c0-0.2,0-0.2,0.2-0.2c1.8,0,3.5,0,5.3,0c0.1,0,0.2,0,0.2,0.2c0,0.7,0,1.3,0,2c0,0.1,0,0.2,0.2,0.2c1.4,0,2.8,0,4.2,0    c0.1,0,0.2,0,0.2-0.2c0-3.3,0-6.6,0-9.9c0-0.2,0-0.2-0.2-0.2C18.1,29.1,15.7,29.1,13.3,29.1z M13.3,24.5c-2.4,0-4.8,0-7.2,0    c-0.1,0-0.2,0-0.2,0.1c0,1.1,0,2.1,0,3.2c0,0.1,0,0.1,0.1,0.1c0.3,0,0.6,0,0.9,0c0.1,0,0.2,0,0.2-0.2c0-0.6,0-1.3,0-1.9    c0-0.1,0-0.2,0.2-0.2c1,0,2,0,3.1,0c0.1,0,0.2,0,0.2,0.2c0,0.6,0,1.3,0,1.9c0,0.1,0,0.2,0.2,0.2c0.3,0,0.6,0,0.8,0    c0.1,0,0.2,0,0.2-0.2c0-0.6,0-1.3,0-1.9c0-0.1,0-0.2,0.2-0.2c1,0,2.1,0,3.1,0c0.1,0,0.2,0,0.2,0.2c0,0.6,0,1.3,0,1.9    c0,0.1,0,0.2,0.2,0.2c0.3,0,0.5,0,0.8,0c0.2,0,0.2,0,0.2-0.2c0-0.6,0-1.3,0-1.9c0-0.1,0-0.2,0.2-0.2c1,0,2,0,3,0    c0.1,0,0.2,0,0.2,0.2c0,0.6,0,1.3,0,1.9c0,0.1,0,0.2,0.1,0.1c0.3,0,0.6,0,0.9,0c0.1,0,0.2,0,0.2-0.2c0-1,0-2,0-3    c0-0.2,0-0.2-0.2-0.2C18.1,24.5,15.7,24.5,13.3,24.5z M12.7,38.8c0-0.2,0-0.4,0-0.5c0-0.1,0-0.1-0.1-0.1c-0.3,0-0.6,0-0.9,0    c-0.1,0-0.1,0-0.1,0.1c0,0.2,0,0.4,0,0.5c0,0.2-0.1,0.4,0,0.5c0.1,0.1,0.3,0,0.5,0c0.2,0,0.4,0.1,0.5,0    C12.8,39.2,12.7,39,12.7,38.8z M13.8,38.7c0,0.2,0,0.3,0,0.5c0,0.1,0,0.1,0.1,0.1c0.3,0,0.6,0,0.9,0c0.1,0,0.1,0,0.1-0.1    c0-0.2,0-0.4,0-0.6c0-0.2,0.1-0.4,0-0.5c-0.1-0.1-0.3,0-0.5,0c-0.2,0-0.5-0.1-0.6,0C13.7,38.3,13.8,38.6,13.8,38.7z M8.7,27.9    c0.2,0,0.4,0.1,0.5,0c0.1-0.1,0-0.4,0-0.6c0-0.2,0.1-0.4,0-0.5c-0.1-0.1-0.3,0-0.5,0c-0.2,0-0.4-0.1-0.5,0c-0.1,0.1,0,0.4,0,0.6    c0,0.2-0.1,0.4,0,0.5C8.3,28,8.5,27.9,8.7,27.9z M13.8,27.4c0-0.2,0.1-0.4,0-0.5c-0.1-0.1-0.3,0-0.5,0c-0.2,0-0.4-0.1-0.5,0    c-0.1,0.1,0,0.3,0,0.5c0,0.2-0.1,0.4,0,0.5c0.1,0.1,0.3,0,0.5,0c0.2,0,0.4,0.1,0.5,0C13.9,27.8,13.8,27.6,13.8,27.4z M17.8,26.8    c-0.2,0-0.4-0.1-0.5,0c-0.1,0.1,0,0.4,0,0.5c0,0.2-0.1,0.4,0,0.5c0.1,0.1,0.4,0,0.5,0c0.2,0,0.4,0.1,0.5,0c0.1-0.1,0-0.4,0-0.5    c0-0.2,0.1-0.4,0-0.5C18.2,26.7,18,26.8,17.8,26.8z"></path>
		<path class="st1" d="M13.3,29.1c2.4,0,4.8,0,7.2,0c0.2,0,0.2,0,0.2,0.2c0,3.3,0,6.6,0,9.9c0,0.1,0,0.2-0.2,0.2c-1.4,0-2.8,0-4.2,0    c-0.1,0-0.2,0-0.2-0.2c0-0.7,0-1.3,0-2c0-0.2,0-0.2-0.2-0.2c-1.8,0-3.5,0-5.3,0c-0.2,0-0.2,0-0.2,0.2c0,0.7,0,1.3,0,2    c0,0.1,0,0.2-0.2,0.2c-1.4,0-2.8,0-4.2,0c-0.1,0-0.2,0-0.2-0.2c0-3.3,0-6.6,0-9.9c0-0.2,0-0.2,0.2-0.2    C8.4,29.1,10.9,29.1,13.3,29.1z M8.1,30.8c0-0.2,0-0.3,0-0.5c0-0.1,0-0.2-0.1-0.2c-0.3,0-0.6,0-0.9,0c-0.1,0-0.1,0-0.1,0.1    c0,0.3,0,0.6,0,0.9c0,0.1,0,0.1,0.1,0.1c0.2,0,0.3,0,0.5,0c0.2,0,0.4,0.1,0.5,0C8.2,31.2,8.1,31,8.1,30.8z M10.4,30.8    c0-0.2,0-0.3,0-0.5c0-0.1,0-0.1-0.1-0.1c-0.3,0-0.6,0-0.9,0c-0.1,0-0.1,0-0.1,0.1c0,0.3,0,0.6,0,0.9c0,0.1,0,0.1,0.1,0.1    c0.3,0,0.6,0,0.9,0c0.1,0,0.1,0,0.1-0.1C10.4,31.1,10.4,30.9,10.4,30.8z M12.7,30.8c0-0.2,0-0.3,0-0.5c0-0.1,0-0.1-0.1-0.1    c-0.3,0-0.6,0-0.9,0c-0.1,0-0.1,0-0.1,0.1c0,0.3,0,0.6,0,0.9c0,0.1,0,0.1,0.1,0.1c0.3,0,0.6,0,0.9,0c0.1,0,0.1,0,0.1-0.1    C12.7,31.1,12.7,30.9,12.7,30.8z M14.4,31.3c0.2,0,0.3,0,0.5,0c0.1,0,0.1,0,0.1-0.1c0-0.3,0-0.6,0-0.9c0-0.1,0-0.1-0.1-0.1    c-0.3,0-0.6,0-0.9,0c-0.1,0-0.1,0-0.1,0.1c0,0.3,0,0.6,0,0.9c0,0.1,0,0.1,0.1,0.1C14.1,31.3,14.2,31.3,14.4,31.3z M16.6,31.3    c0.2,0,0.4,0.1,0.6,0c0.1-0.1,0-0.4,0-0.5c0-0.2,0.1-0.4,0-0.5c-0.1-0.1-0.3,0-0.5,0c-0.2,0-0.4-0.1-0.6,0c-0.1,0.1,0,0.4,0,0.5    c0,0.2-0.1,0.4,0,0.5C16.2,31.4,16.5,31.3,16.6,31.3z M19.5,30.8c0-0.2,0.1-0.4,0-0.5c-0.1-0.1-0.4,0-0.5,0c-0.2,0-0.4-0.1-0.5,0    c-0.1,0.1,0,0.4,0,0.5c0,0.2-0.1,0.4,0,0.5c0.1,0.1,0.4,0,0.5,0c0.2,0,0.4,0.1,0.5,0C19.6,31.2,19.5,31,19.5,30.8z M7.6,33.6    C7.6,33.6,7.6,33.6,7.6,33.6c0.1,0,0.3,0,0.4,0c0.1,0,0.1,0,0.1-0.1c0-0.3,0-0.6,0-0.8c0-0.1,0-0.2-0.2-0.2c-0.1,0-0.3,0-0.4,0    c-0.2,0-0.4-0.1-0.5,0C7,32.6,7,32.9,7,33c0,0.2-0.1,0.4,0,0.5C7.1,33.7,7.4,33.6,7.6,33.6z M10.4,33.1c0-0.2,0-0.3,0-0.5    c0-0.1,0-0.1-0.1-0.1c-0.3,0-0.6,0-0.9,0c-0.1,0-0.1,0-0.1,0.1c0,0.3,0,0.6,0,0.9c0,0.1,0,0.1,0.1,0.1c0.3,0,0.6,0,0.9,0    c0.1,0,0.1,0,0.1-0.1C10.4,33.4,10.4,33.2,10.4,33.1z M12.1,32.5c-0.2,0-0.3,0-0.5,0c-0.1,0-0.1,0-0.1,0.1c0,0.3,0,0.6,0,0.9    c0,0.1,0,0.1,0.1,0.1c0.3,0,0.6,0,0.9,0c0.1,0,0.1,0,0.1-0.1c0-0.3,0-0.6,0-0.9c0-0.1,0-0.1-0.1-0.1    C12.4,32.5,12.3,32.5,12.1,32.5z M13.8,33c0,0.2,0,0.3,0,0.5c0,0.1,0,0.1,0.1,0.1c0.3,0,0.6,0,0.9,0c0.1,0,0.1,0,0.1-0.1    c0-0.3,0-0.6,0-0.9c0-0.1,0-0.1-0.1-0.1c-0.3,0-0.6,0-0.9,0c-0.1,0-0.1,0-0.1,0.1C13.8,32.8,13.8,32.9,13.8,33z M16.1,33    C16.1,33,16.1,33,16.1,33c0,0.2,0,0.3,0,0.5c0,0.1,0,0.1,0.1,0.1c0.3,0,0.6,0,0.9,0c0.1,0,0.1,0,0.1-0.1c0-0.3,0-0.6,0-0.9    c0-0.1,0-0.1-0.1-0.1c-0.1,0-0.3,0-0.4,0c-0.2,0-0.4-0.1-0.5,0C16,32.6,16.1,32.9,16.1,33z M18.4,33c0,0.2,0,0.3,0,0.5    c0,0.1,0,0.1,0.1,0.1c0.3,0,0.6,0,0.9,0c0.1,0,0.1,0,0.1-0.1c0-0.3,0-0.6,0-0.9c0-0.1,0-0.1-0.1-0.1c-0.3,0-0.6,0-0.9,0    c-0.1,0-0.1,0-0.1,0.1C18.4,32.8,18.4,32.9,18.4,33z M7.6,35.9c0.2,0,0.4,0.1,0.5,0c0.1-0.1,0-0.4,0-0.6c0-0.2,0.1-0.4,0-0.5    c-0.1-0.1-0.3,0-0.5,0c-0.2,0-0.4-0.1-0.5,0c-0.1,0.1,0,0.4,0,0.6c0,0.2-0.1,0.4,0,0.5C7.1,36,7.4,35.9,7.6,35.9z M9.8,35.9    c0.2,0,0.4,0.1,0.5,0c0.1-0.1,0-0.4,0-0.5c0-0.2,0.1-0.4,0-0.5c-0.1-0.1-0.4,0-0.5,0c-0.2,0-0.4-0.1-0.5,0c-0.1,0.1,0,0.4,0,0.5    c0,0.2-0.1,0.4,0,0.5C9.4,36,9.7,35.9,9.8,35.9z M12.1,35.9c0.2,0,0.4,0.1,0.5,0c0.1-0.1,0-0.3,0-0.5c0-0.2,0.1-0.4,0-0.5    c-0.1-0.1-0.3,0-0.5,0c-0.2,0-0.4-0.1-0.5,0c-0.1,0.1,0,0.3,0,0.5c0,0.2-0.1,0.4,0,0.5C11.7,35.9,11.9,35.9,12.1,35.9z M14.4,35.9    c0.2,0,0.4,0.1,0.5,0c0.1-0.1,0-0.3,0-0.5c0-0.2,0.1-0.4,0-0.5c-0.1-0.1-0.3,0-0.5,0c-0.2,0-0.4-0.1-0.5,0c-0.1,0.1,0,0.4,0,0.5    c0,0.2-0.1,0.4,0,0.5C13.9,36,14.2,35.9,14.4,35.9z M16.7,35.9C16.7,35.9,16.7,35.9,16.7,35.9c0.1,0,0.3,0,0.4,0    c0.1,0,0.1,0,0.1-0.1c0-0.3,0-0.6,0-0.9c0-0.1,0-0.1-0.1-0.1c-0.2,0-0.3,0-0.5,0c-0.2,0-0.4-0.1-0.5,0c-0.1,0.1,0,0.3,0,0.5    c0,0.2-0.1,0.5,0,0.6C16.2,35.9,16.5,35.9,16.7,35.9z M18.9,35.9c0.2,0,0.4,0.1,0.5,0c0.1-0.1,0-0.3,0-0.5c0-0.2,0.1-0.4,0-0.5    c-0.1-0.1-0.3,0-0.5,0c-0.2,0-0.4-0.1-0.5,0c-0.1,0.1,0,0.3,0,0.5c0,0.2-0.1,0.4,0,0.5C18.5,35.9,18.7,35.9,18.9,35.9z M8.7,38.1    c0.2,0,0.4,0.1,0.5,0c0.1-0.1,0-0.3,0-0.5c0-0.2,0.1-0.4,0-0.5c-0.1-0.1-0.3,0-0.5,0c-0.2,0-0.4-0.1-0.5,0c-0.1,0.1,0,0.3,0,0.5    c0,0.2-0.1,0.4,0,0.5C8.3,38.2,8.5,38.1,8.7,38.1z M17.8,37c-0.2,0-0.4-0.1-0.5,0c-0.1,0.1,0,0.4,0,0.5c0,0.2-0.1,0.4,0,0.5    c0.1,0.1,0.4,0,0.5,0c0.2,0,0.4,0.1,0.5,0c0.1-0.1,0-0.4,0-0.5c0-0.2,0.1-0.4,0-0.5C18.2,36.9,18,37,17.8,37z"></path>
		<path class="st1" d="M13.3,24.5c2.4,0,4.8,0,7.2,0c0.2,0,0.2,0,0.2,0.2c0,1,0,2,0,3c0,0.1,0,0.2-0.2,0.2c-0.3,0-0.6,0-0.9,0    c-0.1,0-0.1,0-0.1-0.1c0-0.6,0-1.3,0-1.9c0-0.2,0-0.2-0.2-0.2c-1,0-2,0-3,0c-0.2,0-0.2,0.1-0.2,0.2c0,0.6,0,1.3,0,1.9    c0,0.1,0,0.2-0.2,0.2c-0.3,0-0.5,0-0.8,0c-0.2,0-0.2-0.1-0.2-0.2c0-0.6,0-1.3,0-1.9c0-0.1,0-0.2-0.2-0.2c-1,0-2.1,0-3.1,0    c-0.1,0-0.2,0.1-0.2,0.2c0,0.6,0,1.3,0,1.9c0,0.1,0,0.2-0.2,0.2c-0.3,0-0.6,0-0.8,0c-0.1,0-0.2-0.1-0.2-0.2c0-0.6,0-1.3,0-1.9    c0-0.1,0-0.2-0.2-0.2c-1,0-2,0-3.1,0c-0.1,0-0.2,0-0.2,0.2c0,0.6,0,1.3,0,1.9c0,0.1,0,0.2-0.2,0.2c-0.3,0-0.6,0-0.9,0    c-0.1,0-0.1,0-0.1-0.1c0-1.1,0-2.1,0-3.2c0-0.2,0.1-0.1,0.2-0.1C8.4,24.5,10.8,24.5,13.3,24.5z"></path>
		<path class="st4" d="M12.7,38.8c0,0.2,0.1,0.4,0,0.5c-0.1,0.1-0.4,0-0.5,0c-0.2,0-0.4,0.1-0.5,0c-0.1-0.1,0-0.3,0-0.5    c0-0.2,0-0.4,0-0.5c0-0.1,0-0.1,0.1-0.1c0.3,0,0.6,0,0.9,0c0.1,0,0.1,0,0.1,0.1C12.7,38.4,12.7,38.6,12.7,38.8z"></path>
		<path class="st4" d="M13.8,38.7c0-0.2-0.1-0.4,0-0.5c0.1-0.1,0.4,0,0.6,0c0.2,0,0.4-0.1,0.5,0c0.1,0.1,0,0.3,0,0.5    c0,0.2,0,0.4,0,0.6c0,0.1,0,0.1-0.1,0.1c-0.3,0-0.6,0-0.9,0c-0.1,0-0.1,0-0.1-0.1C13.8,39.1,13.8,38.9,13.8,38.7z"></path>
		<path class="st4" d="M8.7,27.9c-0.2,0-0.4,0.1-0.5,0c-0.1-0.1,0-0.3,0-0.5c0-0.2-0.1-0.4,0-0.6c0.1-0.1,0.4,0,0.5,0    c0.2,0,0.4-0.1,0.5,0c0.1,0.1,0,0.3,0,0.5c0,0.2,0.1,0.5,0,0.6C9.1,28,8.9,27.9,8.7,27.9z"></path>
		<path class="st4" d="M13.8,27.4c0,0.2,0.1,0.4,0,0.5c-0.1,0.1-0.4,0-0.5,0c-0.2,0-0.4,0.1-0.5,0c-0.1-0.1,0-0.4,0-0.5    c0-0.2-0.1-0.4,0-0.5c0.1-0.1,0.4,0,0.5,0c0.2,0,0.4-0.1,0.5,0C13.9,26.9,13.8,27.2,13.8,27.4z"></path>
		<path class="st4" d="M17.8,26.8c0.2,0,0.4-0.1,0.5,0c0.1,0.1,0,0.4,0,0.5c0,0.2,0.1,0.4,0,0.5c-0.1,0.1-0.3,0-0.5,0    c-0.2,0-0.4,0.1-0.5,0c-0.1-0.1,0-0.3,0-0.5c0-0.2-0.1-0.4,0-0.5C17.4,26.7,17.6,26.8,17.8,26.8z"></path>
		<path class="st7" d="M8.1,30.9c0,0.1,0.1,0.4,0,0.5c-0.1,0.1-0.3,0-0.5,0c-0.2,0-0.3,0-0.5,0c-0.1,0-0.1,0-0.1-0.1    c0-0.3,0-0.6,0-0.9c0-0.1,0-0.1,0.1-0.1c0.3,0,0.6,0,0.9,0c0.1,0,0.1,0,0.1,0.2C8.1,30.5,8.1,30.7,8.1,30.9z"></path>
		<path class="st7" d="M10.4,30.8c0,0.1,0,0.3,0,0.4c0,0.1,0,0.1-0.1,0.1c-0.3,0-0.6,0-0.9,0c-0.1,0-0.1,0-0.1-0.1    c0-0.3,0-0.6,0-0.9c0-0.1,0-0.1,0.1-0.1c0.3,0,0.6,0,0.9,0c0.1,0,0.1,0,0.1,0.1C10.4,30.5,10.4,30.7,10.4,30.8z"></path>
		<path class="st7" d="M12.6,30.8c0,0.1,0,0.3,0,0.4c0,0.1,0,0.1-0.1,0.1c-0.3,0-0.6,0-0.9,0c-0.1,0-0.1,0-0.1-0.1    c0-0.3,0-0.6,0-0.9c0-0.1,0-0.1,0.1-0.1c0.3,0,0.6,0,0.9,0c0.1,0,0.1,0,0.1,0.1C12.6,30.5,12.6,30.7,12.6,30.8z"></path>
		<path class="st7" d="M14.3,31.4c-0.1,0-0.3,0-0.4,0c-0.1,0-0.1,0-0.1-0.1c0-0.3,0-0.6,0-0.9c0-0.1,0-0.1,0.1-0.1    c0.3,0,0.6,0,0.9,0c0.1,0,0.1,0,0.1,0.1c0,0.3,0,0.6,0,0.9c0,0.1,0,0.1-0.1,0.1C14.6,31.4,14.5,31.4,14.3,31.4z"></path>
		<path class="st7" d="M16.6,31.4c-0.2,0-0.4,0.1-0.5,0c-0.1-0.1,0-0.3,0-0.5c0-0.2-0.1-0.4,0-0.5c0.1-0.1,0.4,0,0.6,0    c0.2,0,0.4-0.1,0.5,0c0.1,0.1,0,0.3,0,0.5c0,0.2,0.1,0.4,0,0.5C17,31.5,16.8,31.4,16.6,31.4z"></path>
		<path class="st2" d="M19.4,30.8c0,0.2,0.1,0.4,0,0.5c-0.1,0.1-0.3,0-0.5,0c-0.2,0-0.4,0.1-0.5,0c-0.1-0.1,0-0.3,0-0.5    c0-0.2-0.1-0.4,0-0.5c0.1-0.1,0.3,0,0.5,0c0.2,0,0.4-0.1,0.5,0C19.5,30.4,19.4,30.6,19.4,30.8z"></path>
		<path class="st7" d="M7.5,33.6c-0.2,0-0.4,0.1-0.5,0c-0.1-0.1,0-0.4,0-0.5c0-0.2-0.1-0.4,0-0.5c0.1-0.1,0.4,0,0.5,0    c0.1,0,0.3,0,0.4,0c0.1,0,0.2,0,0.2,0.2c0,0.3,0,0.6,0,0.8c0,0.1,0,0.2-0.1,0.1C7.8,33.6,7.7,33.6,7.5,33.6    C7.5,33.6,7.5,33.6,7.5,33.6z"></path>
		<path class="st7" d="M10.4,33.1c0,0.2,0,0.3,0,0.5c0,0.1,0,0.1-0.1,0.1c-0.3,0-0.6,0-0.9,0c-0.1,0-0.1,0-0.1-0.1    c0-0.3,0-0.6,0-0.9c0-0.1,0-0.1,0.1-0.1c0.3,0,0.6,0,0.9,0c0.1,0,0.1,0,0.1,0.1C10.4,32.8,10.4,32.9,10.4,33.1z"></path>
		<path class="st7" d="M12.1,32.5c0.1,0,0.3,0,0.4,0c0.1,0,0.1,0,0.1,0.1c0,0.3,0,0.6,0,0.9c0,0.1,0,0.1-0.1,0.1c-0.3,0-0.6,0-0.9,0    c-0.1,0-0.1,0-0.1-0.1c0-0.3,0-0.6,0-0.9c0-0.1,0-0.1,0.1-0.1C11.8,32.5,11.9,32.5,12.1,32.5z"></path>
		<path class="st7" d="M13.8,33.1c0-0.1,0-0.3,0-0.4c0-0.1,0-0.1,0.1-0.1c0.3,0,0.6,0,0.9,0c0.1,0,0.1,0,0.1,0.1c0,0.3,0,0.6,0,0.9    c0,0.1,0,0.1-0.1,0.1c-0.3,0-0.6,0-0.9,0c-0.1,0-0.1,0-0.1-0.1C13.8,33.4,13.8,33.2,13.8,33.1z"></path>
		<path class="st7" d="M16.1,33.1c0-0.2-0.1-0.4,0-0.5c0.1-0.1,0.4,0,0.5,0c0.1,0,0.3,0,0.4,0c0.1,0,0.1,0,0.1,0.1    c0,0.3,0,0.6,0,0.9c0,0.1,0,0.1-0.1,0.1c-0.3,0-0.6,0-0.9,0c-0.1,0-0.1,0-0.1-0.1C16.1,33.4,16,33.2,16.1,33.1    C16.1,33.1,16.1,33.1,16.1,33.1z"></path>
		<path class="st2" d="M18.3,33.1c0-0.1,0-0.3,0-0.4c0-0.1,0-0.1,0.1-0.1c0.3,0,0.6,0,0.9,0c0.1,0,0.1,0,0.1,0.1c0,0.3,0,0.6,0,0.9    c0,0.1,0,0.1-0.1,0.1c-0.3,0-0.6,0-0.9,0c-0.1,0-0.1,0-0.1-0.1C18.3,33.4,18.3,33.2,18.3,33.1z"></path>
		<path class="st7" d="M7.5,35.9c-0.2,0-0.4,0.1-0.5,0c-0.1-0.1,0-0.3,0-0.5c0-0.2-0.1-0.4,0-0.6c0.1-0.1,0.4,0,0.5,0    c0.2,0,0.4-0.1,0.5,0c0.1,0.1,0,0.3,0,0.5c0,0.2,0.1,0.5,0,0.6C8,36,7.7,35.9,7.5,35.9z"></path>
		<path class="st7" d="M9.9,35.9c-0.2,0-0.4,0.1-0.5,0c-0.1-0.1,0-0.3,0-0.5c0-0.2-0.1-0.4,0-0.5c0.1-0.1,0.3,0,0.5,0    c0.2,0,0.4-0.1,0.5,0c0.1,0.1,0,0.3,0,0.5c0,0.2,0.1,0.4,0,0.5C10.3,35.9,10,35.9,9.9,35.9z"></path>
		<path class="st7" d="M12.1,35.9c-0.2,0-0.4,0.1-0.5,0c-0.1-0.1,0-0.4,0-0.5c0-0.2-0.1-0.4,0-0.5c0.1-0.1,0.4,0,0.5,0    c0.2,0,0.4-0.1,0.5,0c0.1,0.1,0,0.4,0,0.5c0,0.2,0.1,0.4,0,0.5C12.5,36,12.3,35.9,12.1,35.9z"></path>
		<path class="st7" d="M14.4,35.9c-0.2,0-0.4,0.1-0.5,0c-0.1-0.1,0-0.3,0-0.5c0-0.2-0.1-0.4,0-0.5c0.1-0.1,0.3,0,0.5,0    c0.2,0,0.4-0.1,0.5,0c0.1,0.1,0,0.4,0,0.5c0,0.2,0.1,0.4,0,0.5C14.8,36,14.5,35.9,14.4,35.9z"></path>
		<path class="st7" d="M16.6,35.9c-0.2,0-0.4,0.1-0.5,0c-0.1-0.1,0-0.4,0-0.6c0-0.2-0.1-0.4,0-0.5c0.1-0.1,0.3,0,0.5,0    c0.2,0,0.3,0,0.5,0c0.1,0,0.1,0,0.1,0.1c0,0.3,0,0.6,0,0.9c0,0.1,0,0.1-0.1,0.1C16.9,35.9,16.8,35.9,16.6,35.9    C16.6,35.9,16.6,35.9,16.6,35.9z"></path>
		<path class="st2" d="M18.9,35.9c-0.2,0-0.4,0.1-0.5,0c-0.1-0.1,0-0.4,0-0.5c0-0.2-0.1-0.4,0-0.5c0.1-0.1,0.4,0,0.5,0    c0.2,0,0.4-0.1,0.5,0c0.1,0.1,0,0.4,0,0.5c0,0.2,0.1,0.4,0,0.5C19.3,36,19.1,35.9,18.9,35.9z"></path>
		<path class="st7" d="M8.7,38.1c-0.2,0-0.4,0.1-0.5,0c-0.1-0.1,0-0.4,0-0.5c0-0.2-0.1-0.4,0-0.5c0.1-0.1,0.4,0,0.5,0    c0.2,0,0.4-0.1,0.5,0c0.1,0.1,0,0.4,0,0.5c0,0.2,0.1,0.4,0,0.5C9.1,38.2,8.9,38.1,8.7,38.1z"></path>
		<path class="st2" d="M17.7,37.1c0.2,0,0.4-0.1,0.5,0c0.1,0.1,0,0.3,0,0.5c0,0.2,0.1,0.4,0,0.5c-0.1,0.1-0.3,0-0.5,0    c-0.2,0-0.4,0.1-0.5,0c-0.1-0.1,0-0.3,0-0.5c0-0.2-0.1-0.4,0-0.5C17.3,37,17.6,37.1,17.7,37.1z"></path>
	</g>
	<g>
		<path class="st2" d="M44.9,25.6c0,0.6,0,1.2,0,1.8c-0.5,0-1,0-1.4,0c-0.3,0-0.3,0.1-0.3,0.3c0,5.7,0,11.3,0,17    c0,0.2-0.1,0.3-0.3,0.3c-8.6,0-17.2,0-25.8,0c-0.2,0-0.3-0.1-0.3-0.3c0-3.5,0-6.9,0-10.4c0-2.2,0-4.5,0-6.7c0-0.2-0.1-0.3-0.3-0.3    c-0.4,0-0.9,0-1.3,0c-0.2,0-0.2,0-0.2-0.2c0-0.4,0-0.9,0-1.3c0-0.2,0.1-0.2,0.2-0.2c0.4,0,0.9,0,1.3,0c0.2,0,0.2,0,0.2-0.2    c0-1.6,0-3.2,0-4.8c0-0.2-0.1-0.2-0.2-0.2c-0.4,0-0.9,0-1.3,0c-0.2,0-0.2-0.1-0.2-0.2c0-0.4,0-0.8,0-1.2c0-0.3,0.1-0.3,0.3-0.3    c4.5,0,9,0,13.5,0c0.2,0,0.3-0.1,0.3-0.3c0-1.1,0-2.1,0-3.2c1.2,0,2.3,0,3.5,0c0,0.5,0,1,0,1.5c0,0.2,0,0.2-0.2,0.2    c-0.5,0-0.9,0-1.4,0c-0.1,0-0.2,0-0.2,0.2c0,0.4,0,0.9,0,1.3c0,0.2,0.1,0.3,0.3,0.3c4.6,0,9.2,0,13.8,0c0,0.6,0,1.2,0,1.8    c-0.5,0-1,0-1.5,0c-0.2,0-0.2,0-0.2,0.2c0,1.6,0,3.2,0,4.9c0,0.2,0.1,0.2,0.2,0.2C43.9,25.6,44.4,25.6,44.9,25.6z M30,27.3    c-3.7,0-7.5,0-11.2,0c-0.2,0-0.3,0-0.3,0.3c0,5.1,0,10.2,0,15.3c0,0.2,0,0.3,0.3,0.3c2.2,0,4.4,0,6.6,0c0.2,0,0.3-0.1,0.3-0.3    c0-1,0-2,0-3.1c0-0.3,0.1-0.3,0.3-0.3c2.7,0,5.4,0,8.2,0c0.2,0,0.3,0,0.3,0.3c0,1,0,2,0,3.1c0,0.2,0,0.3,0.3,0.3    c2.2,0,4.4,0,6.5,0c0.2,0,0.3-0.1,0.3-0.3c0-5.1,0-10.2,0-15.3c0-0.3-0.1-0.3-0.3-0.3C37.4,27.3,33.7,27.3,30,27.3z M29.9,20.3    c-3.7,0-7.5,0-11.2,0c-0.1,0-0.3-0.1-0.3,0.2c0,1.6,0,3.2,0,4.9c0,0.2,0.1,0.2,0.2,0.2c0.5,0,0.9,0,1.4,0c0.2,0,0.2,0,0.2-0.2    c0-1,0-2,0-3c0-0.2,0.1-0.3,0.3-0.3c1.6,0,3.2,0,4.7,0c0.2,0,0.3,0.1,0.3,0.3c0,1,0,2,0,3c0,0.2,0,0.3,0.2,0.3c0.4,0,0.9,0,1.3,0    c0.2,0,0.2-0.1,0.2-0.2c0-1,0-2,0-3c0-0.2,0-0.3,0.2-0.3c1.6,0,3.2,0,4.8,0c0.2,0,0.2,0.1,0.2,0.2c0,1,0,2,0,3    c0,0.2,0,0.3,0.3,0.3c0.4,0,0.8,0,1.2,0c0.2,0,0.3-0.1,0.3-0.3c0-1,0-2,0-2.9c0-0.2,0-0.3,0.3-0.3c1.6,0,3.1,0,4.7,0    c0.2,0,0.3,0,0.3,0.3c0,1,0,2,0,3c0,0.2,0,0.2,0.2,0.2c0.4,0,0.9,0,1.3,0c0.2,0,0.2-0.1,0.2-0.3c0-1.6,0-3.1,0-4.7    c0-0.3-0.1-0.3-0.3-0.3C37.4,20.3,33.7,20.3,29.9,20.3z M29.1,42.3c0-0.3,0-0.6,0-0.8c0-0.1,0-0.2-0.2-0.2c-0.5,0-0.9,0-1.4,0    c-0.2,0-0.2,0.1-0.2,0.2c0,0.3,0,0.5,0,0.8c0,0.3-0.1,0.6,0,0.8c0.2,0.2,0.5,0,0.8,0.1c0.3,0,0.7,0.1,0.8,0    C29.2,43,29,42.6,29.1,42.3z M30.8,42.2c0,0.3,0,0.5,0,0.8c0,0.1,0,0.2,0.2,0.2c0.5,0,1,0,1.4,0c0.1,0,0.2,0,0.2-0.2    c0-0.3,0-0.6,0-0.9c0-0.3,0.1-0.6,0-0.8c-0.2-0.2-0.5,0-0.8-0.1c-0.3,0-0.7-0.1-0.9,0C30.7,41.6,30.8,42,30.8,42.2z M22.9,25.5    c0.3,0,0.7,0.1,0.8,0c0.2-0.2,0-0.6,0.1-0.9c0-0.3,0.1-0.6,0-0.8c-0.2-0.2-0.5,0-0.8-0.1c-0.3,0-0.7-0.1-0.8,0    c-0.2,0.2,0,0.6-0.1,0.9c0,0.3-0.1,0.6,0,0.8C22.3,25.7,22.6,25.5,22.9,25.5z M30.8,24.7c0-0.3,0.1-0.7,0-0.8    c-0.2-0.1-0.5,0-0.8,0c-0.3,0-0.7-0.1-0.8,0.1c-0.1,0.2,0,0.5,0,0.8c0,0.3-0.1,0.7,0.1,0.8c0.2,0.1,0.5,0,0.8,0    c0.3,0,0.7,0.1,0.8-0.1C30.9,25.4,30.8,25,30.8,24.7z M36.9,23.8c-0.3,0-0.7-0.1-0.8,0c-0.2,0.2,0,0.5-0.1,0.8    c0,0.3-0.1,0.7,0,0.8c0.2,0.2,0.5,0,0.8,0.1c0.3,0,0.7,0.1,0.8,0c0.2-0.2,0.1-0.5,0.1-0.8c0-0.3,0.1-0.7-0.1-0.8    C37.6,23.7,37.2,23.8,36.9,23.8z"></path>
		<path class="st1" d="M30,27.3c3.7,0,7.4,0,11.1,0c0.2,0,0.3,0,0.3,0.3c0,5.1,0,10.2,0,15.3c0,0.2,0,0.3-0.3,0.3    c-2.2,0-4.4,0-6.5,0c-0.2,0-0.3-0.1-0.3-0.3c0-1,0-2,0-3.1c0-0.2-0.1-0.3-0.3-0.3c-2.7,0-5.4,0-8.2,0c-0.2,0-0.3,0-0.3,0.3    c0,1,0,2,0,3.1c0,0.2,0,0.3-0.3,0.3c-2.2,0-4.4,0-6.6,0c-0.2,0-0.3-0.1-0.3-0.3c0-5.1,0-10.2,0-15.3c0-0.2,0.1-0.3,0.3-0.3    C22.5,27.3,26.2,27.3,30,27.3z M22,30c0-0.3,0-0.5,0-0.7c0-0.2,0-0.2-0.2-0.2c-0.4,0-0.9,0-1.3,0c-0.1,0-0.2,0-0.2,0.2    c0,0.5,0,0.9,0,1.4c0,0.2,0.1,0.2,0.2,0.2c0.2,0,0.5,0,0.7,0c0.3,0,0.6,0.1,0.8,0C22.2,30.6,22,30.2,22,30z M25.6,30    c0-0.2,0-0.5,0-0.7c0-0.1,0-0.2-0.2-0.2c-0.5,0-0.9,0-1.4,0c-0.1,0-0.2,0-0.2,0.2c0,0.5,0,0.9,0,1.4c0,0.1,0,0.2,0.2,0.2    c0.5,0,0.9,0,1.4,0c0.2,0,0.2-0.1,0.2-0.2C25.5,30.4,25.6,30.2,25.6,30z M29.1,30c0-0.2,0-0.5,0-0.7c0-0.2-0.1-0.2-0.2-0.2    c-0.5,0-0.9,0-1.4,0c-0.2,0-0.2,0.1-0.2,0.2c0,0.5,0,0.9,0,1.4c0,0.2,0.1,0.2,0.2,0.2c0.5,0,0.9,0,1.4,0c0.2,0,0.2-0.1,0.2-0.2    C29,30.4,29.1,30.2,29.1,30z M31.7,30.8c0.2,0,0.5,0,0.7,0c0.1,0,0.2,0,0.2-0.2c0-0.5,0-1,0-1.4c0-0.1,0-0.2-0.2-0.2    c-0.5,0-0.9,0-1.4,0c-0.2,0-0.2,0.1-0.2,0.2c0,0.5,0,0.9,0,1.4c0,0.2,0.1,0.2,0.2,0.2C31.2,30.8,31.4,30.8,31.7,30.8z M35.2,30.8    c0.3,0,0.7,0.1,0.9,0c0.1-0.2,0.1-0.6,0-0.8c0-0.3,0.1-0.6-0.1-0.8c-0.2-0.1-0.5,0-0.8,0c-0.3,0-0.7-0.1-0.9,0.1    c-0.1,0.2-0.1,0.6,0,0.8c0,0.3-0.1,0.6,0.1,0.8C34.5,30.9,34.9,30.8,35.2,30.8z M39.5,29.9c0-0.3,0.1-0.7,0-0.8    c-0.2-0.2-0.5,0-0.8-0.1c-0.3,0-0.7-0.1-0.8,0c-0.2,0.2,0,0.5-0.1,0.8c0,0.3-0.1,0.7,0,0.8c0.2,0.2,0.5,0,0.8,0.1    c0.3,0,0.7,0.1,0.8,0C39.7,30.6,39.5,30.2,39.5,29.9z M21.2,34.3C21.2,34.3,21.2,34.3,21.2,34.3c0.2,0,0.4,0,0.7,0    c0.2,0,0.2-0.1,0.2-0.2c0-0.4,0-0.9,0-1.3c0-0.2-0.1-0.3-0.3-0.2c-0.2,0-0.4,0-0.6,0c-0.3,0-0.7-0.1-0.8,0.1    c-0.1,0.2-0.1,0.5,0,0.8c0,0.3-0.1,0.7,0.1,0.8C20.5,34.4,20.9,34.3,21.2,34.3z M25.6,33.5c0-0.2,0-0.5,0-0.7c0-0.2,0-0.2-0.2-0.2    c-0.5,0-0.9,0-1.4,0c-0.2,0-0.2,0.1-0.2,0.2c0,0.5,0,0.9,0,1.4c0,0.1,0,0.2,0.2,0.2c0.5,0,1,0,1.4,0c0.1,0,0.2,0,0.2-0.2    C25.5,33.9,25.6,33.7,25.6,33.5z M28.2,32.6c-0.2,0-0.5,0-0.7,0c-0.2,0-0.2,0-0.2,0.2c0,0.5,0,0.9,0,1.4c0,0.2,0,0.2,0.2,0.2    c0.5,0,0.9,0,1.4,0c0.1,0,0.2,0,0.2-0.2c0-0.5,0-0.9,0-1.4c0-0.1,0-0.2-0.2-0.2C28.6,32.6,28.4,32.6,28.2,32.6z M30.8,33.4    c0,0.2,0,0.5,0,0.7c0,0.1,0,0.2,0.2,0.2c0.5,0,1,0,1.4,0c0.1,0,0.2,0,0.2-0.2c0-0.5,0-1,0-1.4c0-0.1,0-0.2-0.2-0.2    c-0.5,0-0.9,0-1.4,0c-0.2,0-0.2,0.1-0.2,0.2C30.8,33,30.8,33.2,30.8,33.4z M34.3,33.4C34.3,33.4,34.3,33.4,34.3,33.4    c0,0.2,0,0.5,0,0.7c0,0.1,0,0.2,0.2,0.2c0.5,0,1,0,1.4,0c0.1,0,0.2-0.1,0.2-0.2c0-0.5,0-0.9,0-1.4c0-0.2-0.1-0.2-0.2-0.2    c-0.2,0-0.4,0-0.7,0c-0.3,0-0.7-0.1-0.8,0.1C34.2,32.8,34.3,33.2,34.3,33.4z M37.8,33.4c0,0.2,0,0.5,0,0.7c0,0.1,0,0.2,0.2,0.2    c0.5,0,1,0,1.4,0c0.1,0,0.2,0,0.2-0.2c0-0.5,0-1,0-1.4c0-0.1,0-0.2-0.2-0.2c-0.5,0-0.9,0-1.4,0c-0.2,0-0.2,0.1-0.2,0.2    C37.8,33,37.8,33.2,37.8,33.4z M21.1,37.8c0.3,0,0.7,0.1,0.8,0c0.2-0.2,0.1-0.6,0.1-0.9c0-0.3,0.1-0.6,0-0.8    c-0.2-0.2-0.5,0-0.8-0.1c-0.3,0-0.7-0.1-0.8,0c-0.2,0.2-0.1,0.6-0.1,0.9c0,0.3-0.1,0.6,0,0.8C20.5,38,20.9,37.8,21.1,37.8z     M24.7,37.8c0.3,0,0.7,0.1,0.8,0c0.2-0.2,0-0.5,0.1-0.8c0-0.3,0.1-0.7,0-0.8c-0.2-0.2-0.5-0.1-0.8-0.1c-0.3,0-0.7-0.1-0.8,0    c-0.2,0.2,0,0.5-0.1,0.8c0,0.3-0.1,0.7,0,0.8C24,38,24.4,37.8,24.7,37.8z M28.2,37.8c0.3,0,0.7,0.1,0.8,0c0.1-0.2,0.1-0.5,0-0.8    c0-0.3,0.1-0.7-0.1-0.8c-0.2-0.1-0.5-0.1-0.8,0c-0.3,0-0.7-0.1-0.8,0.1c-0.1,0.2-0.1,0.5,0,0.8c0,0.3-0.1,0.7,0.1,0.8    C27.5,37.9,27.9,37.8,28.2,37.8z M31.7,37.8c0.3,0,0.7,0.1,0.8-0.1c0.1-0.2,0-0.5,0-0.8c0-0.3,0.1-0.7-0.1-0.8    c-0.2-0.1-0.5,0-0.8,0c-0.3,0-0.7-0.1-0.8,0c-0.2,0.2-0.1,0.5-0.1,0.8c0,0.3-0.1,0.7,0,0.8C31,38,31.4,37.8,31.7,37.8z M35.2,37.8    C35.2,37.8,35.2,37.8,35.2,37.8c0.2,0,0.4,0,0.7,0c0.1,0,0.2,0,0.2-0.2c0-0.5,0-0.9,0-1.4c0-0.2-0.1-0.2-0.2-0.2    c-0.2,0-0.5,0-0.7,0c-0.3,0-0.6-0.1-0.8,0.1c-0.1,0.2,0,0.5,0,0.8c0,0.3-0.1,0.7,0.1,0.9C34.5,37.9,34.9,37.8,35.2,37.8z     M38.7,37.8c0.3,0,0.7,0.1,0.8,0c0.1-0.2,0.1-0.5,0-0.8c0-0.3,0.1-0.7-0.1-0.8c-0.2-0.1-0.5-0.1-0.8,0c-0.3,0-0.7-0.1-0.8,0.1    c-0.1,0.2-0.1,0.5,0,0.8c0,0.3-0.1,0.7,0.1,0.8C38,37.9,38.4,37.8,38.7,37.8z M22.9,41.3c0.3,0,0.7,0.1,0.8,0    c0.1-0.2,0.1-0.5,0-0.8c0-0.3,0.1-0.7-0.1-0.8c-0.2-0.1-0.5-0.1-0.8,0c-0.3,0-0.7-0.1-0.8,0.1c-0.1,0.2,0,0.5,0,0.8    c0,0.3-0.1,0.7,0.1,0.8C22.3,41.4,22.6,41.3,22.9,41.3z M36.9,39.6c-0.3,0-0.7-0.1-0.8,0c-0.2,0.2-0.1,0.5-0.1,0.8    c0,0.3-0.1,0.7,0,0.8c0.2,0.2,0.5,0,0.8,0.1c0.3,0,0.7,0.1,0.8,0c0.2-0.2,0-0.5,0.1-0.8c0-0.3,0.1-0.7,0-0.8    C37.6,39.5,37.2,39.6,36.9,39.6z"></path>
		<path class="st1" d="M29.9,20.3c3.7,0,7.4,0,11.1,0c0.2,0,0.3,0,0.3,0.3c0,1.6,0,3.1,0,4.7c0,0.2,0,0.3-0.2,0.3    c-0.4,0-0.9,0-1.3,0c-0.2,0-0.2-0.1-0.2-0.2c0-1,0-2,0-3c0-0.2-0.1-0.3-0.3-0.3c-1.6,0-3.1,0-4.7,0c-0.2,0-0.3,0.1-0.3,0.3    c0,1,0,2,0,2.9c0,0.2,0,0.3-0.3,0.3c-0.4,0-0.8,0-1.2,0c-0.2,0-0.3-0.1-0.3-0.3c0-1,0-2,0-3c0-0.2,0-0.2-0.2-0.2    c-1.6,0-3.2,0-4.8,0c-0.2,0-0.2,0.1-0.2,0.3c0,1,0,2,0,3c0,0.2,0,0.3-0.2,0.2c-0.4,0-0.9,0-1.3,0c-0.2,0-0.2-0.1-0.2-0.3    c0-1,0-2,0-3c0-0.2,0-0.3-0.3-0.3c-1.6,0-3.2,0-4.7,0c-0.2,0-0.3,0.1-0.3,0.3c0,1,0,2,0,3c0,0.2-0.1,0.2-0.2,0.2    c-0.5,0-0.9,0-1.4,0c-0.1,0-0.2,0-0.2-0.2c0-1.6,0-3.2,0-4.9c0-0.2,0.1-0.2,0.3-0.2C22.5,20.3,26.2,20.3,29.9,20.3z"></path>
		<path class="st4" d="M29.1,42.3c0,0.2,0.1,0.6-0.1,0.8c-0.2,0.1-0.6,0-0.8,0c-0.3,0-0.6,0.1-0.8-0.1c-0.1-0.2,0-0.5,0-0.8    c0-0.3,0-0.5,0-0.8c0-0.1,0-0.2,0.2-0.2c0.5,0,0.9,0,1.4,0c0.1,0,0.2,0,0.2,0.2C29.1,41.8,29.1,42,29.1,42.3z"></path>
		<path class="st4" d="M30.8,42.2c0-0.3-0.1-0.7,0.1-0.8c0.2-0.2,0.6-0.1,0.9,0c0.3,0,0.6-0.1,0.8,0.1c0.1,0.1,0,0.5,0,0.8    c0,0.3,0,0.6,0,0.9c0,0.1,0,0.2-0.2,0.2c-0.5,0-1,0-1.4,0c-0.2,0-0.2-0.1-0.2-0.2C30.8,42.8,30.8,42.5,30.8,42.2z"></path>
		<path class="st4" d="M22.9,25.5c-0.3,0-0.6,0.1-0.8,0c-0.1-0.2,0-0.5,0-0.8c0-0.3-0.1-0.7,0.1-0.9c0.2-0.1,0.6-0.1,0.8,0    c0.3,0,0.6-0.1,0.8,0.1c0.1,0.2,0,0.5,0,0.8c0,0.3,0.1,0.7-0.1,0.9C23.6,25.7,23.2,25.5,22.9,25.5z"></path>
		<path class="st4" d="M30.8,24.7c0,0.3,0.1,0.7,0,0.8c-0.2,0.2-0.5,0-0.8,0.1c-0.3,0-0.7,0.1-0.8,0c-0.2-0.2,0-0.5-0.1-0.8    c0-0.3-0.1-0.7,0-0.8c0.2-0.2,0.5,0,0.8-0.1c0.3,0,0.7-0.1,0.8,0C30.9,24,30.8,24.4,30.8,24.7z"></path>
		<path class="st4" d="M36.9,23.8c0.3,0,0.7-0.1,0.8,0c0.2,0.2,0.1,0.5,0.1,0.8c0,0.3,0.1,0.7-0.1,0.8c-0.2,0.1-0.5,0-0.8,0    c-0.3,0-0.7,0.1-0.8-0.1c-0.1-0.2,0-0.5,0-0.8c0-0.3-0.1-0.7,0.1-0.8C36.3,23.7,36.7,23.8,36.9,23.8z"></path>
		<path class="st7" d="M22,30.1c0,0.2,0.1,0.6-0.1,0.8c-0.2,0.1-0.5,0-0.8,0c-0.2,0-0.5,0-0.7,0c-0.2,0-0.2,0-0.2-0.2    c0-0.5,0-0.9,0-1.4c0-0.2,0.1-0.2,0.2-0.2c0.4,0,0.9,0,1.3,0c0.2,0,0.2,0.1,0.2,0.2C22,29.6,22,29.8,22,30.1z"></path>
		<path class="st7" d="M25.5,30c0,0.2,0,0.4,0,0.6c0,0.2,0,0.2-0.2,0.2c-0.5,0-0.9,0-1.4,0c-0.2,0-0.2-0.1-0.2-0.2    c0-0.5,0-0.9,0-1.4c0-0.2,0.1-0.2,0.2-0.2c0.5,0,0.9,0,1.4,0c0.2,0,0.2,0.1,0.2,0.2C25.5,29.6,25.5,29.8,25.5,30z"></path>
		<path class="st7" d="M29,30c0,0.2,0,0.4,0,0.7c0,0.1,0,0.2-0.2,0.2c-0.5,0-0.9,0-1.4,0c-0.1,0-0.2,0-0.2-0.2c0-0.5,0-0.9,0-1.4    c0-0.1,0-0.2,0.2-0.2c0.5,0,0.9,0,1.4,0c0.1,0,0.2,0,0.2,0.2C29,29.5,29,29.8,29,30z"></path>
		<path class="st7" d="M31.6,30.9c-0.2,0-0.4,0-0.7,0c-0.1,0-0.2,0-0.2-0.2c0-0.5,0-0.9,0-1.4c0-0.1,0-0.2,0.2-0.2    c0.5,0,0.9,0,1.4,0c0.1,0,0.2,0,0.2,0.2c0,0.5,0,1,0,1.4c0,0.2-0.1,0.2-0.2,0.2C32.1,30.9,31.9,30.9,31.6,30.9z"></path>
		<path class="st7" d="M35.1,30.9c-0.3,0-0.6,0.1-0.8,0c-0.2-0.2,0-0.5-0.1-0.8c0-0.3-0.1-0.7,0-0.8c0.2-0.2,0.6-0.1,0.9-0.1    c0.3,0,0.6-0.1,0.8,0c0.2,0.2,0,0.5,0.1,0.8c0,0.3,0.1,0.7,0,0.8C35.8,31,35.4,30.9,35.1,30.9z"></path>
		<path class="st7" d="M39.5,30c0,0.3,0.1,0.7,0,0.8c-0.2,0.1-0.5,0-0.8,0c-0.3,0-0.7,0.1-0.8-0.1c-0.1-0.2-0.1-0.5,0-0.8    c0-0.3-0.1-0.7,0.1-0.8c0.2-0.1,0.5-0.1,0.8,0c0.3,0,0.7-0.1,0.8,0.1C39.6,29.3,39.5,29.7,39.5,30z"></path>
		<path class="st7" d="M21.1,34.4c-0.3,0-0.7,0.1-0.8,0c-0.2-0.2,0-0.5-0.1-0.8c0-0.3-0.1-0.7,0-0.8c0.2-0.2,0.5,0,0.8-0.1    c0.2,0,0.4,0,0.6,0c0.2,0,0.3,0,0.3,0.2c0,0.4,0,0.9,0,1.3c0,0.2,0,0.2-0.2,0.2C21.6,34.4,21.3,34.4,21.1,34.4    C21.1,34.4,21.1,34.4,21.1,34.4z"></path>
		<path class="st7" d="M25.5,33.5c0,0.2,0,0.5,0,0.7c0,0.1,0,0.2-0.2,0.2c-0.5,0-1,0-1.4,0c-0.2,0-0.2-0.1-0.2-0.2    c0-0.5,0-0.9,0-1.4c0-0.1,0-0.2,0.2-0.2c0.5,0,0.9,0,1.4,0c0.1,0,0.2,0,0.2,0.2C25.5,33.1,25.5,33.3,25.5,33.5z"></path>
		<path class="st7" d="M28.1,32.6c0.2,0,0.4,0,0.7,0c0.2,0,0.2,0.1,0.2,0.2c0,0.5,0,0.9,0,1.4c0,0.2-0.1,0.2-0.2,0.2    c-0.5,0-0.9,0-1.4,0c-0.2,0-0.2,0-0.2-0.2c0-0.5,0-0.9,0-1.4c0-0.2,0-0.2,0.2-0.2C27.7,32.6,27.9,32.6,28.1,32.6z"></path>
		<path class="st7" d="M30.8,33.5c0-0.2,0-0.4,0-0.7c0-0.1,0-0.2,0.2-0.2c0.5,0,0.9,0,1.4,0c0.1,0,0.2,0,0.2,0.2c0,0.5,0,1,0,1.4    c0,0.1,0,0.2-0.2,0.2c-0.5,0-1,0-1.4,0c-0.2,0-0.2-0.1-0.2-0.2C30.8,34,30.8,33.7,30.8,33.5z"></path>
		<path class="st7" d="M34.3,33.5c0-0.3-0.1-0.7,0-0.8c0.2-0.2,0.5,0,0.8-0.1c0.2,0,0.4,0,0.7,0c0.1,0,0.2,0,0.2,0.2    c0,0.5,0,0.9,0,1.4c0,0.1,0,0.2-0.2,0.2c-0.5,0-1,0-1.4,0c-0.1,0-0.2-0.1-0.2-0.2C34.3,34,34.3,33.7,34.3,33.5    C34.3,33.5,34.3,33.5,34.3,33.5z"></path>
		<path class="st7" d="M37.8,33.5c0-0.2,0-0.4,0-0.7c0-0.1,0-0.2,0.2-0.2c0.5,0,0.9,0,1.4,0c0.1,0,0.2,0,0.2,0.2c0,0.5,0,1,0,1.4    c0,0.1,0,0.2-0.2,0.2c-0.5,0-1,0-1.4,0c-0.2,0-0.2-0.1-0.2-0.2C37.8,34,37.8,33.7,37.8,33.5z"></path>
		<path class="st7" d="M21.1,37.9c-0.3,0-0.6,0.1-0.8,0c-0.1-0.2,0-0.5,0-0.8c0-0.3-0.1-0.7,0.1-0.9c0.2-0.1,0.6-0.1,0.8,0    c0.3,0,0.6-0.1,0.8,0.1c0.1,0.2,0,0.5,0,0.8c0,0.3,0.1,0.7-0.1,0.9C21.8,38,21.4,37.9,21.1,37.9z"></path>
		<path class="st7" d="M24.7,37.8c-0.3,0-0.7,0.1-0.8,0c-0.1-0.2-0.1-0.5,0-0.8c0-0.3-0.1-0.7,0.1-0.8c0.2-0.1,0.5-0.1,0.8,0    c0.3,0,0.7-0.1,0.8,0.1c0.1,0.2,0,0.5,0,0.8c0,0.3,0.1,0.7-0.1,0.8C25.3,37.9,25,37.8,24.7,37.8z"></path>
		<path class="st7" d="M28.1,37.9c-0.3,0-0.7,0.1-0.8,0c-0.2-0.2,0-0.5-0.1-0.8c0-0.3-0.1-0.7,0-0.8c0.2-0.2,0.5,0,0.8-0.1    c0.3,0,0.7-0.1,0.8,0c0.2,0.2,0,0.5,0.1,0.8c0,0.3,0.1,0.7,0,0.8C28.8,38,28.4,37.9,28.1,37.9z"></path>
		<path class="st7" d="M31.6,37.9c-0.3,0-0.7,0.1-0.8-0.1c-0.1-0.2,0-0.5,0-0.8c0-0.3-0.1-0.7,0.1-0.8c0.2-0.1,0.5,0,0.8,0    c0.3,0,0.7-0.1,0.8,0c0.2,0.2,0.1,0.5,0.1,0.8c0,0.3,0.1,0.7,0,0.8C32.3,38,31.9,37.9,31.6,37.9z"></path>
		<path class="st7" d="M35.2,37.9c-0.3,0-0.7,0.1-0.8,0c-0.2-0.2-0.1-0.6-0.1-0.9c0-0.3-0.1-0.6,0-0.8c0.2-0.2,0.5,0,0.8-0.1    c0.2,0,0.5,0,0.7,0c0.1,0,0.2,0,0.2,0.2c0,0.5,0,0.9,0,1.4c0,0.1-0.1,0.2-0.2,0.2C35.6,37.9,35.4,37.9,35.2,37.9    C35.2,37.9,35.2,37.9,35.2,37.9z"></path>
		<path class="st7" d="M38.6,37.9c-0.3,0-0.7,0.1-0.8,0c-0.2-0.2,0-0.5-0.1-0.8c0-0.3-0.1-0.7,0-0.8c0.2-0.2,0.5-0.1,0.8-0.1    c0.3,0,0.7-0.1,0.8,0c0.2,0.2,0,0.5,0.1,0.8c0,0.3,0.1,0.7,0,0.8C39.3,38,38.9,37.9,38.6,37.9z"></path>
		<path class="st7" d="M22.9,41.3c-0.3,0-0.7,0.1-0.8,0c-0.2-0.2,0-0.5-0.1-0.8c0-0.3-0.1-0.7,0-0.8c0.2-0.2,0.5-0.1,0.8-0.1    c0.3,0,0.7-0.1,0.8,0c0.2,0.2,0.1,0.5,0.1,0.8c0,0.3,0.1,0.7,0,0.8C23.6,41.5,23.2,41.3,22.9,41.3z"></path>
		<path class="st7" d="M36.9,39.7c0.3,0,0.7-0.1,0.8,0c0.1,0.2,0,0.5,0,0.8c0,0.3,0.1,0.7-0.1,0.8c-0.2,0.1-0.5,0-0.8,0    c-0.3,0-0.7,0.1-0.8-0.1c-0.1-0.2-0.1-0.5,0-0.8c0-0.3-0.1-0.7,0.1-0.8C36.2,39.6,36.6,39.7,36.9,39.7z"></path>
	</g>
</g>
</svg>