<svg xmlns="http://www.w3.org/2000/svg" xmlns:xlink="http://www.w3.org/1999/xlink" id="Capa_1" x="0px" y="0px" viewBox="0 0 60 60" style="enable-background:new 0 0 60 60;" xml:space="preserve">
<style type="text/css">
	.st0{fill:#F9CDAF;}
	.st1{fill:none;stroke:#E36F1E;stroke-width:2;stroke-linecap:round;stroke-linejoin:round;stroke-miterlimit:10;}
	.st2{fill:#FFFFFF;}
	.st3{fill:#1D1D1B;}
	.st4{fill:none;stroke:#231F20;stroke-width:0.5;stroke-miterlimit:10;}
	.st5{fill:none;stroke:#E36F1E;stroke-width:2;stroke-linecap:round;stroke-miterlimit:10;}
	.st6{fill:#E36F1E;}
</style>
<path class="st2" d="M44.2,27h-8.1v-8.4c0-0.6-0.4-1-1-1h-8.6c-0.6,0-1,0.4-1,1V27h-8.1c-0.6,0-1,0.4-1,1v8.1c0,0.6,0.4,1,1,1h8.1  v8.3c0,0.6,0.4,1,1,1h8.6c0.6,0,1-0.4,1-1v-8.3h8.1c0.6,0,1-0.4,1-1V28C45.2,27.5,44.7,27,44.2,27z"></path>
</svg>