<svg xmlns="http://www.w3.org/2000/svg" xmlns:xlink="http://www.w3.org/1999/xlink" id="Capa_1" x="0px" y="0px" viewBox="0 0 60 60" style="enable-background:new 0 0 60 60;" xml:space="preserve">
<style type="text/css">
	.st0{fill:#FCE5D6;}
	.st1{fill:#FFFFFF;}
	.st2{fill:#E36F1E;}
	.st3{fill:none;stroke:#231F20;stroke-width:0.5;stroke-miterlimit:10;}
	.st4{fill:#F9CDAF;}
	.st5{fill:none;stroke:#E36F1E;stroke-width:2;stroke-linecap:round;stroke-linejoin:round;stroke-miterlimit:10;}
	.st6{fill:#231F20;}
	.st7{fill:#F4B223;}
	.st8{fill:#E36F1E;stroke:#E36F1E;stroke-width:0.5;stroke-miterlimit:10;}
</style>
<circle class="st0" cx="30" cy="30.5" r="29"></circle>
<g>
	<path class="st1" d="M6.9,26.7l5,9.3L11,46l10.2-0.2L20,35.9l2-6.6l1.4-5c0,0,0.1-1.2-1.2-1.2c-1.3,0-4.6,9.3-4.6,9.3l-4.5-0.7   l-4.4-6.3c0,0-0.8-1.2-1.6-0.5C6.3,25.6,6.9,26.7,6.9,26.7z"></path>
</g>
<g>
	<path class="st2" d="M11,46.8c-0.2,0-0.5-0.1-0.6-0.3c-0.2-0.2-0.2-0.4-0.2-0.6l0.9-9.8l-4.9-9.1c-0.1-0.2-0.7-1.5-0.4-2.4   c0.1-0.4,0.4-0.7,0.8-0.9c1.3-0.5,2.3,0.5,2.8,1.2l4.2,6l3.4,0.5c3.3-9.3,4.7-9.3,5.2-9.3c0.8,0,1.3,0.3,1.5,0.6   c0.6,0.6,0.5,1.5,0.5,1.6c0,0,0,0.1,0,0.1l-1.4,5l-2,6.4l1.2,9.7c0,0.2,0,0.5-0.2,0.6c-0.2,0.2-0.4,0.3-0.6,0.3L11,46.8   C11,46.8,11,46.8,11,46.8z M7.3,25.3c0,0.2,0.1,0.7,0.3,1c0,0,0,0,0,0l5,9.3c0.1,0.1,0.1,0.3,0.1,0.5l-0.8,9.1l8.3-0.2l-1.1-9   c0-0.1,0-0.2,0-0.3l2-6.6l1.3-4.9c0-0.1,0-0.2-0.1-0.2c0,0-0.1,0-0.1,0c-0.8,0.7-2.6,5-4,8.8c-0.1,0.4-0.5,0.6-0.9,0.5l-4.5-0.7   c-0.2,0-0.4-0.2-0.6-0.3L8,25.9C7.8,25.7,7.5,25.4,7.3,25.3z"></path>
</g>
<g>
	<circle class="st1" cx="15.7" cy="29.9" r="3.8"></circle>
</g>
<g>
	<path class="st2" d="M15.7,34.5c-2.6,0-4.7-2.1-4.7-4.7s2.1-4.7,4.7-4.7s4.7,2.1,4.7,4.7S18.3,34.5,15.7,34.5z M15.7,26.9   c-1.6,0-3,1.3-3,3c0,1.6,1.3,3,3,3s3-1.3,3-3C18.7,28.2,17.4,26.9,15.7,26.9z"></path>
</g>
<g>
	<path class="st1" d="M38.6,26.7l-5,9.3l0.9,10l-10.2-0.2l1.2-9.9l-2-6.6l-1.4-5c0,0-0.1-1.2,1.2-1.2s4.6,9.3,4.6,9.3l4.5-0.7   l4.4-6.3c0,0,0.8-1.3,1.7-0.9C39.6,24.9,38.6,26.7,38.6,26.7z"></path>
</g>
<g>
	<path class="st2" d="M34.5,46.8C34.5,46.8,34.5,46.8,34.5,46.8l-10.2-0.2c-0.2,0-0.5-0.1-0.6-0.3c-0.2-0.2-0.2-0.4-0.2-0.6l1.2-9.7   l-2-6.4l-1.4-5c0,0,0-0.1,0-0.1c0-0.1-0.1-0.9,0.5-1.6c0.3-0.3,0.7-0.6,1.5-0.6l0,0c0.5,0,1.8,0,5.2,9.3L32,31l4.2-6   c0.4-0.7,1.5-1.7,2.8-1.2c0.4,0.2,0.7,0.5,0.8,0.9c0.3,0.9-0.3,2.2-0.4,2.4l-4.9,9.1l0.9,9.8c0,0.2-0.1,0.5-0.2,0.6   C35,46.7,34.8,46.8,34.5,46.8z M25.3,44.9l8.3,0.2L32.8,36c0-0.2,0-0.3,0.1-0.5l5-9.3c0,0,0,0,0,0c0.2-0.3,0.3-0.7,0.3-1   c-0.2,0-0.5,0.3-0.6,0.6l-4.4,6.3c-0.1,0.2-0.3,0.3-0.6,0.3l-4.5,0.7c-0.4,0.1-0.8-0.2-0.9-0.5c-1.3-3.7-3.2-8-4-8.8   c-0.1,0-0.1,0-0.1,0c0,0.1-0.1,0.2-0.1,0.2l1.3,4.9l2,6.6c0,0.1,0,0.2,0,0.3L25.3,44.9z"></path>
</g>
<g>
	<circle class="st1" cx="29.8" cy="29.9" r="3.8"></circle>
</g>
<g>
	<path class="st2" d="M29.8,34.5c-2.6,0-4.7-2.1-4.7-4.7s2.1-4.7,4.7-4.7s4.7,2.1,4.7,4.7S32.4,34.5,29.8,34.5z M29.8,26.9   c-1.6,0-3,1.3-3,3c0,1.6,1.3,3,3,3c1.6,0,3-1.3,3-3C32.8,28.2,31.4,26.9,29.8,26.9z"></path>
</g>
<g>
	<path class="st1" d="M36.5,26.7l5,9.3l-0.9,10l10.2-0.2l-1.2-9.9l2-6.6l1.4-5c0,0,0.1-1.2-1.2-1.2s-4.6,9.3-4.6,9.3l-4.5-0.7   l-4.4-6.3c0,0-0.8-1.3-1.7-0.9S36.5,26.7,36.5,26.7z"></path>
</g>
<g>
	<path class="st2" d="M40.6,46.8c-0.2,0-0.5-0.1-0.6-0.3c-0.2-0.2-0.2-0.4-0.2-0.6l0.9-9.8l-4.9-9.1c-0.1-0.2-0.7-1.5-0.4-2.4   c0.1-0.4,0.4-0.7,0.8-0.9c1.3-0.5,2.3,0.5,2.8,1.2l4.2,6l3.4,0.5c3.3-9.3,4.7-9.3,5.2-9.3c0.8,0,1.3,0.3,1.5,0.6   c0.6,0.6,0.5,1.5,0.5,1.6c0,0,0,0.1,0,0.1l-1.4,5l-2,6.4l1.2,9.7c0,0.2,0,0.5-0.2,0.6c-0.2,0.2-0.4,0.3-0.6,0.3L40.6,46.8   C40.6,46.8,40.6,46.8,40.6,46.8z M36.9,25.3c0,0.2,0.1,0.7,0.3,1c0,0,0,0,0,0l5,9.3c0.1,0.1,0.1,0.3,0.1,0.5l-0.8,9.1l8.3-0.2   l-1.1-9c0-0.1,0-0.2,0-0.3l2-6.6l1.3-4.9c0-0.1,0-0.2-0.1-0.2c0,0-0.1,0-0.1,0c-0.8,0.7-2.6,5-4,8.8c-0.1,0.4-0.5,0.6-0.9,0.5   l-4.5-0.7c-0.2,0-0.4-0.2-0.6-0.3l-4.4-6.3C37.4,25.7,37.1,25.4,36.9,25.3z"></path>
</g>
<g>
	<circle class="st1" cx="45.3" cy="29.9" r="3.8"></circle>
</g>
<g>
	<path class="st2" d="M45.3,34.5c-2.6,0-4.7-2.1-4.7-4.7s2.1-4.7,4.7-4.7s4.7,2.1,4.7,4.7S47.9,34.5,45.3,34.5z M45.3,26.9   c-1.6,0-3,1.3-3,3c0,1.6,1.3,3,3,3c1.6,0,3-1.3,3-3C48.3,28.2,47,26.9,45.3,26.9z"></path>
</g>
<path class="st7" d="M23.6,15.2c0.1-0.3,0.3-0.6,0.5-0.8c0.1-0.1,0.2-0.2,0.3-0.3c0.5-0.5,1.1-0.5,1.6,0c0.8,0.8,1.6,1.6,2.4,2.4  c0,0,0.1,0.1,0.1,0.1c0,0,0.1-0.1,0.1-0.1c2.2-2.2,4.4-4.4,6.7-6.7c0.4-0.4,0.9-0.5,1.3-0.2c0.1,0.1,0.2,0.1,0.3,0.2  c0.1,0.1,0.3,0.3,0.4,0.4c0.5,0.5,0.5,1.1,0,1.6c-0.7,0.7-1.4,1.4-2.1,2.1c-2,2-4.1,4.1-6.1,6.1c-0.4,0.4-0.8,0.4-1.2,0  c-1.3-1.3-2.5-2.5-3.8-3.8c-0.2-0.2-0.4-0.5-0.5-0.8C23.6,15.4,23.6,15.3,23.6,15.2z"></path>
</svg>