<svg xmlns="http://www.w3.org/2000/svg" xmlns:xlink="http://www.w3.org/1999/xlink" width="121px" height="27px" viewBox="0 0 121 27"><title>scuola</title><g id="HOME-3" stroke="none" stroke-width="1" fill="none" fill-rule="evenodd"><g id="Homelessness----V2" transform="translate(-400.000000, -8552.000000)" fill="#191919"><g id="Group-9-Copy" transform="translate(-176.334724, 8159.935549)"><g id="Group-33" transform="translate(318.000000, 124.000000)"><path d="M267.587786,295 C269.51145,295 271.229008,294.734219 272.671756,294.202658 C274.114504,293.671096 275.145038,292.940199 275.900763,292.009967 C276.656489,291.079734 277,290.016611 277,288.820598 C277,287.425249 276.587786,286.295681 275.832061,285.498339 C275.076336,284.700997 274.183206,284.169435 273.152672,283.837209 C272.122137,283.504983 270.748092,283.239203 269.167939,282.973422 C267.725191,282.774086 266.625954,282.508306 266.007634,282.30897 C265.389313,282.109635 264.977099,281.644518 264.977099,281.046512 C264.977099,280.51495 265.251908,280.116279 265.938931,279.784053 C266.557252,279.451827 267.519084,279.252492 268.755725,279.252492 C270.816794,279.252492 272.740458,279.717608 274.526718,280.714286 L276.450382,276.727575 C275.557252,276.196013 274.389313,275.797342 273.015267,275.465116 C271.641221,275.199336 270.198473,275 268.824427,275 C266.900763,275 265.251908,275.265781 263.877863,275.797342 C262.503817,276.328904 261.267176,277.192691 260.51145,278.122924 C259.755725,279.053156 259.412214,280.182724 259.412214,281.378738 C259.412214,282.840532 259.824427,283.9701 260.580153,284.767442 C261.335878,285.564784 262.29771,286.096346 263.328244,286.428571 C264.358779,286.760797 265.732824,287.026578 267.381679,287.225914 C268.755725,287.425249 269.78626,287.624585 270.473282,287.82392 C271.160305,288.089701 271.503817,288.488372 271.503817,289.019934 C271.503817,290.215947 270.267176,290.747508 267.862595,290.747508 C266.625954,290.747508 265.389313,290.548173 264.152672,290.215947 C262.916031,289.883721 261.816794,289.418605 260.923664,288.887043 L259,292.873754 C259.961832,293.471761 261.198473,293.936877 262.778626,294.335548 C264.358779,294.734219 265.938931,295 267.587786,295 Z M289.541096,295 C291.558219,295 293.25,294.6 294.746575,293.733333 C296.243151,292.866667 297.349315,291.666667 298,290.133333 L293.770548,287.733333 C292.794521,289.533333 291.363014,290.4 289.541096,290.4 C288.109589,290.4 286.938356,289.933333 285.962329,288.933333 C284.986301,287.933333 284.530822,286.666667 284.530822,285 C284.530822,283.333333 284.986301,282.066667 285.962329,281.066667 C286.873288,280.133333 288.109589,279.6 289.541096,279.6 C291.363014,279.6 292.794521,280.466667 293.770548,282.266667 L298,279.933333 C297.349315,278.333333 296.243151,277.133333 294.746575,276.266667 C293.25,275.4 291.493151,275 289.541096,275 C287.523973,275 285.702055,275.4 284.140411,276.266667 C282.578767,277.133333 281.277397,278.333333 280.366438,279.8 C279.455479,281.266667 279,283 279,284.933333 C279,286.866667 279.455479,288.6 280.366438,290.066667 C281.277397,291.533333 282.513699,292.733333 284.140411,293.6 C285.767123,294.466667 287.523973,295 289.541096,295 Z M309.013605,295 C310.176871,295 311.27551,294.79661 312.244898,294.322034 C313.214286,293.847458 314.119048,293.237288 314.829932,292.355932 L314.829932,294.728814 L320,294.728814 L320,275 L314.571429,275 L314.571429,284.762712 C314.571429,286.525424 314.183673,287.813559 313.408163,288.762712 C312.632653,289.644068 311.598639,290.118644 310.241497,290.118644 C307.721088,290.118644 306.428571,288.559322 306.428571,285.372881 L306.428571,275 L301,275 L301,286.118644 C301,289.033898 301.710884,291.271186 303.132653,292.762712 C304.554422,294.254237 306.493197,295 309.013605,295 Z M333.5,295 C335.534375,295 337.30625,294.597315 338.88125,293.724832 C340.45625,292.852349 341.703125,291.644295 342.621875,290.167785 C343.540625,288.624161 344,286.946309 344,285 C344,283.053691 343.540625,281.308725 342.621875,279.832215 C341.703125,278.355705 340.45625,277.147651 338.88125,276.275168 C337.30625,275.402685 335.534375,275 333.5,275 C331.465625,275 329.69375,275.402685 328.11875,276.275168 C326.54375,277.147651 325.296875,278.355705 324.378125,279.832215 C323.459375,281.308725 323,283.053691 323,285 C323,286.946309 323.459375,288.691275 324.378125,290.167785 C325.296875,291.711409 326.54375,292.852349 328.11875,293.724832 C329.69375,294.597315 331.53125,295 333.5,295 Z M333,290 C331.513514,290 330.364865,289.524691 329.418919,288.506173 C328.472973,287.487654 328,286.197531 328,284.5 C328,282.802469 328.472973,281.512346 329.418919,280.493827 C330.364865,279.475309 331.581081,279 333,279 C334.418919,279 335.635135,279.475309 336.581081,280.493827 C337.527027,281.512346 338,282.802469 338,284.5 C338,286.197531 337.527027,287.487654 336.581081,288.506173 C335.635135,289.524691 334.486486,290 333,290 Z M368.043478,295 C370.847826,295 372.804348,294.130435 373.847826,292.324415 L373.847826,294.732441 L379,294.732441 L379,283.628763 C379,280.752508 378.217391,278.545151 376.652174,277.140468 C375.086957,275.735786 372.804348,275 369.869565,275 C368.369565,275 366.869565,275.200669 365.434783,275.602007 C364,276.003344 362.76087,276.605351 361.717391,277.341137 L363.673913,281.287625 C364.326087,280.752508 365.173913,280.284281 366.152174,279.949833 C367.130435,279.615385 368.108696,279.481605 369.152174,279.481605 C370.586957,279.481605 371.695652,279.816054 372.413043,280.48495 C373.130435,281.153846 373.521739,282.090301 373.521739,283.294314 L369.152174,283.294314 C366.413043,283.294314 364.326087,283.829431 363.021739,284.832776 C361.717391,285.83612 361,287.307692 361,289.113712 C361,290.250836 361.26087,291.254181 361.847826,292.123746 C362.434783,292.993311 363.217391,293.729097 364.326087,294.197324 C365.434783,294.665552 366.608696,295 368.043478,295 L368.043478,295 Z M369.054545,291 C368.1,291 367.4,290.782609 366.827273,290.347826 C366.318182,289.913043 366,289.26087 366,288.463768 C366,286.797101 367.081818,286 369.309091,286 L373,286 L373,288.173913 C372.681818,289.115942 372.172727,289.84058 371.472727,290.275362 C370.772727,290.710145 369.945455,291 369.054545,291 Z M351.2,269 L357.05,269 L351.85,289.666667 L359,289.666667 L359,295 L346,295 L346,289.666667 L351.2,269 Z" id="scuola"></path></g></g></g></g></svg>