<svg xmlns="http://www.w3.org/2000/svg" width="638" height="491"><path d="M544.221 43.602c.205-3.413 1.605-6.547 3.683-9.177 2.082-2.638 5.026-3.954 7.812-4.34 2.682-.369 5.634 1.016 7.368 3.04 1.81 2.12 2.802 5.411 2.608 8.638l-.325 5.393c-.205 3.409-1.6 6.542-3.679 9.176-2.082 2.638-5.03 3.954-7.812 4.336-2.685.37-5.637-1.015-7.368-3.036-1.813-2.12-2.805-5.411-2.611-8.638l.324-5.392zm-561.583 230.74c30.233 51.15-80.94 186.325-63.726 222.45 133.99 17.317 148.032-90.883 290.135-56.699 53.656 12.908 113.824-102.363 162.27-125.21 30.256-14.27 60.587-29.618 91.213-44.386l26.163-18.49c-1.129-1.274-1.567-2.95-1.529-4.614.047-1.973 1.5-4.323 3.296-5.813 1.883-1.558 4.577-2.618 7.072-2.782l4.173-.274c1.814-.119 3.448.205 4.882.836l22.797-16.113a527.726 527.726 0 01-9.047 5.175l-3.27 1.826-4.319-4.73a73.29 73.29 0 01-4.013.88c-1.198.238-2.233.442-3.067.697l-.357.095c-2.935.671-6.714 2.191-11.55 4.648-4.213 2.037-9.056 4.687-15.33 8.387l-17.749 10.048-3.242 1.71c-4.984 2.632-10.139 5.356-15.289 7.666-1.826.897-5.58 2.263-8.737.402-3.057 1.715-5.766 3.099-8.357 4.274-3.415 1.501-6.963 2.925-11.226 4.506a319.771 319.771 0 01-5.582 2.01l-5.79 1.83c-3.451 1.092-7.494 2.381-11.72 3.852l-2.35-4.895c-9.435-1.582-7.425-15.023 4.076-15.778 6.89-.452 9.61 4.128 8.601 8.495 11.076-5.349 22.422-10.86 33.495-16.61 2.38-1.17 4.605-2.374 6.955-3.643a334.547 334.547 0 014.627-2.47l1.818-.957c3.153-1.665 6.418-3.388 9.534-5.186l11.556-6.455 11.26-6.666c16.783-10.097 31.149-19.567 43.883-28.922 7.038-5.017 13.93-10.499 20.59-15.796l.333-.265c7.13-5.95 13.601-11.4 19.754-17.171l.341-.29c2.215-1.705 2.262-2.149 2.35-2.958.237-2.138.815-4.344 5.29-7.828l6.08-4.792c.503-4.735 1.772-7.93 3.805-9.587 3.507-3.192 7.057-6.446 10.653-9.736 10.748-9.85 66.164-25.114 33.763-30.348C306.396 1.548 107.89-22.581 31.634 22.279-114.794 108.421-113.11 87.062-96.982 141.096" fill="#F8F5EF" fill-rule="evenodd"></path></svg>