<svg xmlns="http://www.w3.org/2000/svg" width="120" height="120" viewBox="0 0 120 120"><g transform="translate(-189 -3090)"><g transform="translate(225.364 3114)"><circle cx="2.235" cy="2.235" r="2.235" transform="translate(12.667 22.989) rotate(-13.283)" fill="#434343"/><circle cx="2.235" cy="2.235" r="2.235" transform="translate(29.307 22.415)" fill="#434343"/><path d="M591.674,60.682a15.393,15.393,0,0,0-.649-3.718,14.142,14.142,0,0,0-4.377-6.518V32.508a6.669,6.669,0,0,0,0-12.938V17.4a18.4,18.4,0,1,0-36.8,0v2.171a6.669,6.669,0,0,0,0,12.939V50.445c0,.164-.923.842-1.071,1a14.067,14.067,0,0,0-2.691,3.933c-1.211,2.642-1.288,5.362-1.288,8.207v7.011a1.135,1.135,0,0,0,1.135,1.135h44.627a1.135,1.135,0,0,0,1.135-1.135V66.078C591.7,64.293,591.789,62.474,591.674,60.682Zm-5.027-34.324h0V21.95a4.4,4.4,0,0,1,0,8.176ZM552.12,17.4h0a16.128,16.128,0,1,1,32.256,0v1.718c-.145-.032-.288-.065-.431-.1A25.14,25.14,0,0,1,573.567,14a12.13,12.13,0,0,1-1.06-.976,14.1,14.1,0,0,1-3.186-4.567,1.133,1.133,0,0,0-2.124-.047c-.006.014-.014.028-.019.043a11.751,11.751,0,0,1-1.526,2.64l-.006.008-.077.1a18.882,18.882,0,0,1-5.047,4.575l-.082.052-.151.093a26.939,26.939,0,0,1-8.168,3.195Zm0,6.251V21.439l.224-.048c5.923-1.261,11.909-4.289,15.431-9.364.175-.252.332-.492.473-.719a18.709,18.709,0,0,0,2.544,3.211,24.835,24.835,0,0,0,9.839,5.936,33.115,33.115,0,0,0,3.524.937l.221.048v4.352a17.123,17.123,0,0,1-1.969,8.28,16.287,16.287,0,0,1-4.752,5.377,16.084,16.084,0,0,1-18.818,0,16.287,16.287,0,0,1-4.252-4.53,16.107,16.107,0,0,1-2.348-6.624A38.938,38.938,0,0,1,552.121,23.65Zm16.586,29h-.916l-1.079-1.886,1-1.362h1.081l1,1.362Zm1.007,7.61-1.465,2.056-1.465-2.056,1.249-5.339h.431Zm-.349-13.129h-4.752v-2.74a15.864,15.864,0,0,0,3.248.355,18.523,18.523,0,0,0,4.023-.355v2.74Zm-4.99,4.121,1.551,2.709-.9,3.834-5.981-8.394h5.847l-.451.616A1.135,1.135,0,0,0,564.375,51.256Zm7.679-1.234-.451-.616h5.848l-5.982,8.4-.9-3.836,1.551-2.709A1.136,1.136,0,0,0,572.054,50.022ZM547.071,26.037a4.435,4.435,0,0,1,2.779-4.088v8.176A4.406,4.406,0,0,1,547.071,26.037Zm5.806,43.419h-5.806v-8.17c0-.183.005-.365.014-.546q0-.06.006-.12c.01-.182.023-.364.042-.544v-.009c.019-.187.043-.373.071-.558l.007-.049a11.891,11.891,0,0,1,4.62-7.678l.037-.027q.214-.159.435-.309l.017-.012c.182-.122.367-.239.555-.351Zm-.756-20.566V35.2c.015.027.031.054.046.081a18.655,18.655,0,0,0,10.176,8.5v3.353a38.846,38.846,0,0,0-5.4.142,13.94,13.94,0,0,0-2.532.6C554.141,47.969,552.121,48.617,552.121,48.891Zm3.026,1.143a11.833,11.833,0,0,1,1.3-.361l10.875,15.263a1.116,1.116,0,0,0,.086.106,1.135,1.135,0,0,0,.839.37c.033,0,.066,0,.1-.006l.038,0c.027,0,.053-.009.079-.014s.037-.006.054-.01l.037-.012c.031-.009.061-.017.091-.028l.006,0a1.134,1.134,0,0,0,.521-.4l10.875-15.262a11.733,11.733,0,0,1,1.3.361V69.457h-26.2Zm25.841-2.479a13.09,13.09,0,0,0-1.809-.311,25.061,25.061,0,0,0-2.606-.11h-2.419V43.782l.184-.065.149-.053a18.632,18.632,0,0,0,9.552-7.878l.075-.127q.113-.191.22-.385l.041-.071V48.891c0-.173-1.381-.671-1.564-.745A13.908,13.908,0,0,0,580.988,47.555Zm2.632,21.9V51.082c.188.112.373.228.555.35l.02.014q.219.149.431.307l.04.03a11.891,11.891,0,0,1,4.619,7.677c0,.016.005.033.007.05.028.185.052.37.071.558v.009c.018.18.031.362.042.544,0,.04,0,.08.006.12.008.181.014.363.014.546v8.17Z" transform="translate(-544.8 1)" fill="#434343"/><path d="M661.567,226.342a1.135,1.135,0,0,0,.261,1.584,13.223,13.223,0,0,0,12.837,0,1.135,1.135,0,0,0-1.322-1.846,11.112,11.112,0,0,1-10.191,0A1.135,1.135,0,0,0,661.567,226.342Z" transform="translate(-644.798 -193.642)" fill="#434343"/></g><g transform="translate(189 3090)" fill="none" stroke="#f4b223" stroke-width="4"><circle cx="60" cy="60" r="60" stroke="none"/><circle cx="60" cy="60" r="58" fill="none"/></g></g></svg>