<svg xmlns="http://www.w3.org/2000/svg" width="120" height="120" viewBox="0 0 120 120"><g transform="translate(-1077 -3090)"><g transform="translate(1101 3114.727)"><path d="M390.285,357h8.191A1.526,1.526,0,0,0,400,355.473V341.506a1.526,1.526,0,0,0-1.526-1.526h-8.191a1.526,1.526,0,0,0-1.526,1.526v13.967A1.526,1.526,0,0,0,390.285,357Zm5.163-14.885h2.42v12.75h-2.42Zm-4.554,0h2.419v12.75h-2.419Z" transform="translate(-333.538 -292.826)" fill="#434343"/><path d="M71.574,49.005H51.094V44.679l1.262,1.262a1.536,1.536,0,0,0,2.173,0l2.753-2.753a1.536,1.536,0,0,0,0-2.173l-19.85-19.85V16.982h8.017a1.091,1.091,0,0,0,1.091-1.091V9.107a1.091,1.091,0,0,0-1.091-1.091H36.388A1.091,1.091,0,0,0,35.3,9.107V21.166l-19.85,19.85a1.536,1.536,0,0,0,0,2.173L18.2,45.941a1.536,1.536,0,0,0,2.173,0l1.262-1.262v4.326H1.242A1.242,1.242,0,0,0,0,50.247V77.312a1.154,1.154,0,0,0,1.154,1.154h70.42a1.154,1.154,0,0,0,1.154-1.154V50.159A1.154,1.154,0,0,0,71.574,49.005ZM37.431,10.151H44.4v4.7H37.431ZM19.285,44.009,17.379,42.1,36.364,23.117,55.349,42.1l-1.906,1.906L36.364,26.93ZM2.135,76.331V51.14h19.5V76.331Zm33.161,0H30.6V67.08h4.7ZM28.322,64.945V62.526H44.4v2.419ZM42.128,76.331h-4.7V67.08h4.7Zm6.832,0h-4.7V67.08H46.54V61.509a1.118,1.118,0,0,0-1.118-1.118H27.305a1.118,1.118,0,0,0-1.118,1.118V67.08h2.277v9.251h-4.7V42.544l12.6-12.6,12.6,12.6V76.331Zm21.633,0h-19.5V51.14h19.5Z" transform="translate(0 -8.016)" fill="#434343"/><path d="M222.045,216.423a5.622,5.622,0,1,0,5.622,5.622A5.628,5.628,0,0,0,222.045,216.423Zm0,9.109a3.487,3.487,0,1,1,3.487-3.487A3.491,3.491,0,0,1,222.045,225.532Z" transform="translate(-185.681 -186.82)" fill="#434343"/><path d="M53.8,339.98H45.612a1.526,1.526,0,0,0-1.526,1.526v13.967A1.526,1.526,0,0,0,45.612,357H53.8a1.526,1.526,0,0,0,1.526-1.526V341.506A1.526,1.526,0,0,0,53.8,339.98ZM48.64,354.865h-2.42v-12.75h2.42Zm4.554,0H50.775v-12.75h2.419Z" transform="translate(-37.824 -292.826)" fill="#434343"/></g><g transform="translate(1077 3090)" fill="none" stroke="#f4b223" stroke-width="4"><circle cx="60" cy="60" r="60" stroke="none"/><circle cx="60" cy="60" r="58" fill="none"/></g></g></svg>