<svg xmlns="http://www.w3.org/2000/svg" width="120" height="120" viewBox="0 0 120 120"><g transform="translate(-634 -3090)"><g transform="translate(658 3114)"><path d="M-491.338,42.514a12.263,12.263,0,0,0-2.626-2.838V16.843A14.293,14.293,0,0,0-508.242,2.566a9.116,9.116,0,0,0-6.143,2.357,10.559,10.559,0,0,0-8.488,4.995A11.927,11.927,0,0,0-525.632,5.6l-1.2-1.2a6.98,6.98,0,0,0-6.956-6.529h-6.122a13.324,13.324,0,0,0-11.152,6.091l-.237.1a9.514,9.514,0,0,0-6.008,8.875,9.57,9.57,0,0,0,.49,3.023l1.884,5.649a4.684,4.684,0,0,0,4.664,4.419h.069a10.566,10.566,0,0,0,4.623,7.6v4.364l-6.3,1.4a12.916,12.916,0,0,0-6.339,3.479A12.843,12.843,0,0,0-562,52.011V70.6h72.727V49.336A12.259,12.259,0,0,0-491.338,42.514Zm-30.779-27.045a8.22,8.22,0,0,1,8.211-8.211h.486l.344-.344a6.8,6.8,0,0,1,4.749-2,11.945,11.945,0,0,1,12.017,11.93V38.222a12.314,12.314,0,0,0-3.734-1.089l-3.493-.438L-504.277,33a10.558,10.558,0,0,0,5.62-9.323V20.161a4.692,4.692,0,0,0-4.692-4.692h-3.519a5.9,5.9,0,0,1-3.519-1.173,5.9,5.9,0,0,1-2.265-3.725,1.167,1.167,0,0,0-1.154-.967,1.171,1.171,0,0,0-1.159,1.359q.054.316.132.626a9.336,9.336,0,0,0-4.938,8.266V23.68A10.561,10.561,0,0,0-514.151,33l-.389,1.946a14.263,14.263,0,0,0-7.577-3.989Zm8.211,36.364h.464a4.685,4.685,0,0,1,4.452,3.208l.495,1.484h-2.294a3.542,3.542,0,0,1-2.488-1.03l-.956-.956a11.7,11.7,0,0,0,.327-2.706Zm1.3-14.434c-.009-.014-.018-.029-.026-.043l.7-3.487a10.445,10.445,0,0,0,2.718.369h0a10.5,10.5,0,0,0,2.718-.368l.7,3.5-.243.243a4.6,4.6,0,0,1-6.351,0Zm3.39-5.507h0a8.22,8.22,0,0,1-8.211-8.211V19.855a7,7,0,0,1,3.491-6.077,8.19,8.19,0,0,0,2.14,2.4,8.261,8.261,0,0,0,4.927,1.642h3.519A2.348,2.348,0,0,1-501,20.161V23.68A8.22,8.22,0,0,1-509.214,31.892ZM-512.748,44.4a11.946,11.946,0,0,1-.6,4.384l-.233.7h-.327v-.374a5.865,5.865,0,0,0-5.379-5.845l-6.5-.541a2.418,2.418,0,0,1-2.2-2.394,2.4,2.4,0,0,1,1.642-2.278h0a1.132,1.132,0,0,0,.716-1.433l-.025-.076a1.133,1.133,0,0,0-1.433-.716,4.74,4.74,0,0,0-3.247,4.5c0,.13.006.26.016.388l-1.95.557a7.069,7.069,0,0,0-5.1,6.767v1.442h-.327l-.232-.7a11.923,11.923,0,0,1-.611-4.027,12.054,12.054,0,0,1,12.108-11.7h1.591A12.051,12.051,0,0,1-512.748,44.4Zm-3.5,4.708v2.72a9.4,9.4,0,0,1-9.384,9.384,9.4,9.4,0,0,1-9.384-9.384V48.045a4.712,4.712,0,0,1,3.4-4.511l2.079-.594a4.765,4.765,0,0,0,3.563,2.124l6.5.541A3.539,3.539,0,0,1-516.252,49.113Zm-20.787,5.426L-538,55.5a3.542,3.542,0,0,1-2.488,1.03h-2.294l.5-1.484a4.685,4.685,0,0,1,4.452-3.208h.464A11.7,11.7,0,0,0-537.039,54.539ZM-540.378,41.3l-2.854-2.853V34.795a10.483,10.483,0,0,0,3.519.616,10.5,10.5,0,0,0,2.953-.428A14.278,14.278,0,0,0-540.378,41.3ZM-524.5,21.682l.035-.07v9.118c-.073,0-.144-.011-.217-.011h-1.912a14.2,14.2,0,0,0-5.066.944,10.5,10.5,0,0,0,2.434-5.636h.069A4.683,4.683,0,0,0-524.5,21.682Zm-4.657,2V18.988a2.348,2.348,0,0,1,2.346,2.346A2.348,2.348,0,0,1-529.155,23.68Zm1.9-16.38a9.591,9.591,0,0,1,2.793,6.787,9.684,9.684,0,0,1-1.019,4.316l-.015.029a4.666,4.666,0,0,0-3.657-1.79h-.947l-3.375-1.35a2.443,2.443,0,0,1-1.544-2.278,2.21,2.21,0,0,1,1.783-2.192,2.236,2.236,0,0,1,2.573,1.483l.025.076a1.173,1.173,0,0,0,1.484.741,1.173,1.173,0,0,0,.741-1.484l-.025-.076a4.6,4.6,0,0,0-.779-1.411l.364-.364A6.956,6.956,0,0,0-527.256,7.3ZM-550.27,23.68a2.348,2.348,0,0,1-2.346-2.346,2.348,2.348,0,0,1,2.346-2.346Zm0-10.479A1.175,1.175,0,0,1-549.1,11.95h.079a1.094,1.094,0,0,0,1.094-1.094V10.7A1.094,1.094,0,0,0-549.018,9.6a3.571,3.571,0,0,0-3.591,3.3,3.512,3.512,0,0,0,2.339,3.522v.216a4.673,4.673,0,0,0-3.368,1.438l-.955-2.863a7.227,7.227,0,0,1-.369-2.282,7.178,7.178,0,0,1,4.534-6.7h0l.961-.385.2-.339a10.964,10.964,0,0,1,9.354-5.3h6.03a4.693,4.693,0,0,1,4.725,4.545,4.6,4.6,0,0,1-1.356,3.365l-.622.622a4.552,4.552,0,0,0-1.651-.32,4.581,4.581,0,0,0-4.5,3.784l-2.929.836a32.31,32.31,0,0,1-8.827,1.245A1.206,1.206,0,0,1-550.267,13.2Zm2.344,11.652h0V16.6a34.663,34.663,0,0,0,8.353-1.294l2.481-.709a4.77,4.77,0,0,0,2.741,2.872l2.847,1.139v6.244a8.22,8.22,0,0,1-8.211,8.211A8.22,8.22,0,0,1-547.924,24.853Zm3.145,15.361,3.937,3.937c-.016.286-.043.57-.043.861,0,.053.006.106.006.16l-3.886,1.554-1.543-6.171Zm-10.183,28.041h-4.692V58.871h4.692Zm11.033,0h-8.687V53.006a1.173,1.173,0,0,0-1.173-1.173,1.173,1.173,0,0,0-1.173,1.173v3.519h-4.692V52.011a10.515,10.515,0,0,1,3.1-7.485h0a10.566,10.566,0,0,1,5.188-2.848l2.765-.615,1.843,7.369a1.322,1.322,0,0,0,1.774.907l4.344-1.738a14.162,14.162,0,0,0,.488,1.93l.1.314a7.029,7.029,0,0,0-4.461,4.454l-1.145,3.438a.862.862,0,0,0,.817,1.134h4.353a5.865,5.865,0,0,0,4.147-1.718l.174-.174a11.794,11.794,0,0,0,3.552,4.265A13.8,13.8,0,0,0-543.928,68.255Zm2.807,0a11.472,11.472,0,0,1,9.277-4.692h12.415a11.472,11.472,0,0,1,9.277,4.692Zm49.5,0h-4.692V57.7h4.692Zm0-12.9h-4.692V51.833a1.173,1.173,0,0,0-1.173-1.173,1.173,1.173,0,0,0-1.173,1.173V68.255h-8.687a13.8,13.8,0,0,0-11.318-7.011,11.783,11.783,0,0,0,3.552-4.265l.175.175a5.863,5.863,0,0,0,4.146,1.717h4.354a.861.861,0,0,0,.817-1.134l-1.146-3.437a7.029,7.029,0,0,0-4.461-4.454l.1-.314a14.233,14.233,0,0,0,.734-4.52,14.2,14.2,0,0,0-.572-3.967,6.872,6.872,0,0,0,1.745.231,6.788,6.788,0,0,0,4.834-2l.282-.282,3.763.47a9.94,9.94,0,0,1,7.045,4.354,9.919,9.919,0,0,1,1.672,5.519Z" transform="translate(562 2.126)" fill="#434343"/><path d="M-230.161,176.85a1.026,1.026,0,0,0-1.4.374,4.43,4.43,0,0,1-3.821,2.207,4.43,4.43,0,0,1-3.821-2.207,1.026,1.026,0,0,0-1.4-.374,1.027,1.027,0,0,0-.374,1.4,6.489,6.489,0,0,0,5.6,3.232,6.489,6.489,0,0,0,5.6-3.232A1.026,1.026,0,0,0-230.161,176.85Z" transform="translate(288.171 -150.489)" fill="#434343"/><path d="M-342.161,372.464a1.026,1.026,0,0,0-1.4.374,4.43,4.43,0,0,1-3.821,2.207,4.43,4.43,0,0,1-3.821-2.207,1.026,1.026,0,0,0-1.4-.374,1.026,1.026,0,0,0-.374,1.4,6.489,6.489,0,0,0,5.6,3.232,6.489,6.489,0,0,0,5.6-3.232A1.026,1.026,0,0,0-342.161,372.464Z" transform="translate(383.749 -317.421)" fill="#434343"/><path d="M-444.158,189.988a6.489,6.489,0,0,0,5.6-3.232,1.026,1.026,0,0,0-.374-1.4,1.026,1.026,0,0,0-1.4.374,4.43,4.43,0,0,1-3.821,2.207,4.43,4.43,0,0,1-3.821-2.207,1.026,1.026,0,0,0-1.4-.374,1.026,1.026,0,0,0-.374,1.4A6.489,6.489,0,0,0-444.158,189.988Z" transform="translate(466.332 -157.746)" fill="#434343"/></g><g transform="translate(634 3090)" fill="none" stroke="#f4b223" stroke-width="4"><circle cx="60" cy="60" r="60" stroke="none"/><circle cx="60" cy="60" r="58" fill="none"/></g></g></svg>