<svg xmlns="http://www.w3.org/2000/svg" width="620" height="221.23" viewBox="0 0 620 221.23"><g transform="translate(-398.547 -134.903)"><path d="M647.929,179.84a70.9,70.9,0,0,1,4.164-6.712q5.09-7.52,10.3-10.991,7.29-4.86,13.653-1.043,4.166,2.431,6.6,10.53a82.965,82.965,0,0,1,2.893,15.042,206.761,206.761,0,0,1,1.273,26.728,3.478,3.478,0,0,1-1.157,2.6,3.82,3.82,0,0,1-2.72,1.1,3.542,3.542,0,0,1-2.661-1.157,3.883,3.883,0,0,1-1.1-2.777,194.1,194.1,0,0,0-1.273-25.571,70.166,70.166,0,0,0-2.545-13.653q-1.623-5.321-3.24-6.365-2.2-1.271-5.554.926-3.818,2.547-8.215,9.025a85.943,85.943,0,0,0-6.712,11.918q-2.894,6.364-3.239,9.372a46.6,46.6,0,0,0-.462,5.9q-.234,4.744-.347,6.6a1.047,1.047,0,0,1-.116.463v.232a2.054,2.054,0,0,1-.232.926,5.294,5.294,0,0,1-.809,1.041,3.35,3.35,0,0,1-3.587,1.041,3.537,3.537,0,0,1-2.43-1.735,4.357,4.357,0,0,1-.347-.925l-.116-.81a.663.663,0,0,1-.116-.462c0-.232.038-.771.116-1.621q.113-3.818.116-4.165,0-1.5.173-6.422t.174-7.694V186.2q0-3.933-.057-5.324t-.174-4.743q-.117-3.355-.289-5.264t-.463-4.572q-.291-2.661-.752-4.975a3.719,3.719,0,0,1,2.95-4.454,3.843,3.843,0,0,1,2.892.577,3.42,3.42,0,0,1,1.563,2.488,112.432,112.432,0,0,1,1.851,19.9" transform="translate(-34.225 -3.122)" fill="#fff"/><path d="M707.03,137.4a3.91,3.91,0,1,1-2.718-1.1,3.7,3.7,0,0,1,2.718,1.1m1.563,22.156q.808,10.414.462,26.034-.58,24.3-.579,25.455a3.819,3.819,0,1,1-7.637,0q0-.459.579-25.686.349-14.115-.462-25.108a3.785,3.785,0,0,1,.925-2.835,3.785,3.785,0,0,1,5.381-.406,3.629,3.629,0,0,1,1.331,2.546" transform="translate(-43.054 -0.2)" fill="#fff"/><path d="M725.52,176.717a70.064,70.064,0,0,1,4.167-6.712q5.088-7.52,10.3-10.992,7.287-4.859,13.652-1.042,4.168,2.431,6.6,10.53a83.115,83.115,0,0,1,2.892,15.042A206.436,206.436,0,0,1,764.4,210.27a3.476,3.476,0,0,1-1.157,2.6,3.824,3.824,0,0,1-2.72,1.1,3.538,3.538,0,0,1-2.661-1.158,3.889,3.889,0,0,1-1.1-2.776,193.932,193.932,0,0,0-1.273-25.571,70.19,70.19,0,0,0-2.545-13.654q-1.623-5.319-3.241-6.364-2.2-1.271-5.553.926-3.818,2.546-8.216,9.025a85.887,85.887,0,0,0-6.711,11.918q-2.891,6.364-3.238,9.372a46.206,46.206,0,0,0-.464,5.9q-.233,4.744-.346,6.6a1.047,1.047,0,0,1-.116.463v.231a2.064,2.064,0,0,1-.231.927,5.333,5.333,0,0,1-.81,1.04,3.351,3.351,0,0,1-3.587,1.042,3.545,3.545,0,0,1-2.43-1.735,4.346,4.346,0,0,1-.346-.925l-.116-.811a.66.66,0,0,1-.116-.462q0-.347.116-1.62.113-3.82.116-4.165,0-1.5.174-6.423t.172-7.694v-4.974q0-3.934-.057-5.324t-.175-4.743q-.116-3.355-.289-5.264t-.462-4.571q-.291-2.661-.752-4.975a3.718,3.718,0,0,1,2.95-4.454,3.839,3.839,0,0,1,2.892.577,3.418,3.418,0,0,1,1.563,2.487,112.207,112.207,0,0,1,1.85,19.9m-2.082-30.664q5.2-9.371,10.875-10.876,4.4-1.155,9.835,2.546a24.8,24.8,0,0,0,4.86,3.009q1.621.233,4.165-2.892a3.462,3.462,0,0,1,2.546-1.447,3.845,3.845,0,0,1,2.836.752,3.54,3.54,0,0,1,1.387,2.546,3.65,3.65,0,0,1-.752,2.777q-5.325,6.829-11.455,5.786-.93-.23-1.909-.579a14.338,14.338,0,0,1-1.969-.868,10.211,10.211,0,0,1-1.562-.983l-1.5-1.042a5.08,5.08,0,0,0-1.042-.695q-2.545-1.734-3.586-1.5-2.432.694-6.016,7.173a3.714,3.714,0,0,1-2.315,1.794,3.788,3.788,0,0,1-2.892-.346,3.51,3.51,0,0,1-1.794-2.257,3.955,3.955,0,0,1,.29-2.894" transform="translate(-45.288)" fill="#fff"/><path d="M790.323,162.682q9.948-9.256,17.934-6.133,6.361,2.431,9.836,12.727.922,3.127,1.735,6.769t1.332,7.58q.518,3.934.808,6.71t.52,6.479q.23,3.7.348,4.4,0,.233.809,6.364.231,2.318.347,3.587a14.387,14.387,0,0,1,.115,3.009,4.2,4.2,0,0,1-.346,1.041,3.52,3.52,0,0,1-1.967,2.084,3.569,3.569,0,0,1-4.281-.579,4.36,4.36,0,0,1-.809-1.158,10.827,10.827,0,0,1-.695-1.967l-.462-1.62a7.961,7.961,0,0,0-.35-1.041l-.809-2.314q-7.524,5.555-14.116,6.712a22.731,22.731,0,0,1-11.454-.579,16.731,16.731,0,0,1-8.447-5.9,14.92,14.92,0,0,1-3.3-9.835,20.345,20.345,0,0,1,3.644-11.109,19.911,19.911,0,0,1,9.6-7.81,18.755,18.755,0,0,1,11.975-.579,19.557,19.557,0,0,1,10.238,6.885c.465.618.965,1.35,1.507,2.2a84.038,84.038,0,0,0-3.242-16.778q-2.314-6.942-5.322-8.216-3.471-1.388-10.067,4.629a3.343,3.343,0,0,1-2.72,1.04A3.946,3.946,0,0,1,790.033,168a3.42,3.42,0,0,1-.983-2.719,3.737,3.737,0,0,1,1.273-2.6m21.175,38.53q-3.242-7.867-4.976-10.182a11.815,11.815,0,0,0-19.324,1.041q-4.744,7.06-.809,12.15a10.369,10.369,0,0,0,5.032,3.3,15.363,15.363,0,0,0,7.464.406q5.088-1.042,12.613-6.712" transform="translate(-53.973 -2.974)" fill="#fff"/><path d="M865.15,170.182c-.387-.306-.966-.809-1.735-1.5s-1.273-1.158-1.506-1.388a9.86,9.86,0,0,0-1.158-.926,7.046,7.046,0,0,0-1.388-.809q-.579-.23-1.388-.463-4.282-.926-6.826,1.62-2.545,2.429-1.158,6.249a11.665,11.665,0,0,0,2.777,4.107q2.082,2.143,6.594,5.958.926.812,1.388,1.272,3.238,2.778,5.209,4.687a30.519,30.519,0,0,1,4.165,5.322,16.778,16.778,0,0,1,2.661,6.654,14.378,14.378,0,0,1-1.678,9.372,14.588,14.588,0,0,1-6.654,6.017,19.148,19.148,0,0,1-17.122-.579,22.745,22.745,0,0,1-6.943-5.9,41.478,41.478,0,0,1-4.742-8.331,3.572,3.572,0,0,1-.116-2.951,3.912,3.912,0,0,1,2.024-2.14,3.457,3.457,0,0,1,2.892-.117,3.965,3.965,0,0,1,2.14,1.967,35.143,35.143,0,0,0,3.7,6.654,14.829,14.829,0,0,0,4.744,4.108,11.365,11.365,0,0,0,5.091,1.389,10.236,10.236,0,0,0,5.091-1.042q4.741-2.2,3.934-7.29a10.849,10.849,0,0,0-2.661-5.438,61.155,61.155,0,0,0-6.71-6.6q-.35-.349-1.968-1.678c-1.082-.887-1.851-1.523-2.315-1.909l-2.082-1.967a16.889,16.889,0,0,1-2.083-2.2l-1.853-2.082q-.926-1.272-1.619-2.43a10.267,10.267,0,0,1-1.042-2.314,14.677,14.677,0,0,1-.578-7.868,12.61,12.61,0,0,1,3.472-6.364,14.383,14.383,0,0,1,6.364-3.528,15.068,15.068,0,0,1,7.52-.057,15.559,15.559,0,0,1,5.439,2.371q1.272.868,1.966,1.447l1.852,1.735,1.388,1.389a3.759,3.759,0,0,1,1.273,2.6,3.435,3.435,0,0,1-.983,2.718,3.959,3.959,0,0,1-2.661,1.273,3.342,3.342,0,0,1-2.72-1.042" transform="translate(-62.27 -3.185)" fill="#fff"/><path d="M771.12,245.969a14.4,14.4,0,0,0-.606-3.25,5.484,5.484,0,0,0-.994-1.965,4.338,4.338,0,0,0-1.021-.866,1.465,1.465,0,0,0-.893-.208,4.266,4.266,0,0,0-2.673,1.6,10.715,10.715,0,0,0-2.306,4.586,16.247,16.247,0,0,0-.707,5.975,13.813,13.813,0,0,0,1.179,4.772,7.858,7.858,0,0,0,2.36,3.04,4.442,4.442,0,0,0,4.56.418q3.2-1.363,6.185-6.5a1.682,1.682,0,0,1,1.049-.813,1.721,1.721,0,0,1,1.31.158,1.587,1.587,0,0,1,.811,1.021,1.783,1.783,0,0,1-.129,1.311q-3.514,6.134-7.864,8.019a7.534,7.534,0,0,1-7.913-.838,12.2,12.2,0,0,1-4.508-7.182,20.039,20.039,0,0,1,.315-10.328,15.4,15.4,0,0,1,3.3-6.185,6.912,6.912,0,0,1,4.874-2.516,5.335,5.335,0,0,1,4.85,2.438,14.177,14.177,0,0,1,2.282,7,1.772,1.772,0,0,1-.393,1.284,1.6,1.6,0,0,1-1.181.6,1.757,1.757,0,0,1-1.284-.393,1.58,1.58,0,0,1-.6-1.179" transform="translate(-51.314 -14.445)" fill="#fff"/><path d="M797.251,237.2a1.44,1.44,0,0,1,.628.367,11.6,11.6,0,0,1,3.644,3.224,12.389,12.389,0,0,1,2.018,4.14,20.254,20.254,0,0,1,.654,4.535,16.669,16.669,0,0,1-5.217,12.319,7.5,7.5,0,0,1-8.754.838,8.559,8.559,0,0,1-3.118-2.594,9.883,9.883,0,0,1-1.756-3.671,23.912,23.912,0,0,1-.6-4.167,13.966,13.966,0,0,1,.34-4.141,17.9,17.9,0,0,1,3.041-7.549,8.547,8.547,0,0,1,6.4-3.827h.052a1.683,1.683,0,0,1,1.362-.051q.682.261,1.311.576m-1.258,3.25-.787-.209a1.669,1.669,0,0,0-.472-.1,5.137,5.137,0,0,0-3.773,2.463,14.146,14.146,0,0,0-2.517,6.08,14.828,14.828,0,0,0,.264,6.737,6.457,6.457,0,0,0,3.09,4.167,4.316,4.316,0,0,0,5.033-.524,10.5,10.5,0,0,0,3.46-5.975,13.739,13.739,0,0,0-.131-7.392,8.683,8.683,0,0,0-4.166-5.242" transform="translate(-55.063 -14.488)" fill="#fff"/><path d="M813.058,246.955a32.634,32.634,0,0,1,1.885-3.04,18.015,18.015,0,0,1,4.669-4.981q3.3-2.2,6.184-.471,1.888,1.1,2.988,4.77a37.512,37.512,0,0,1,1.309,6.814,93.587,93.587,0,0,1,.578,12.109,1.574,1.574,0,0,1-.525,1.179,1.731,1.731,0,0,1-1.231.5,1.6,1.6,0,0,1-1.2-.525,1.747,1.747,0,0,1-.5-1.259,87.97,87.97,0,0,0-.578-11.584,31.54,31.54,0,0,0-1.153-6.186q-.734-2.41-1.468-2.883a2.363,2.363,0,0,0-2.516.419,15.079,15.079,0,0,0-3.723,4.089,39.091,39.091,0,0,0-3.04,5.4,16.409,16.409,0,0,0-1.466,4.246,20.822,20.822,0,0,0-.21,2.673q-.107,2.149-.158,2.988a.481.481,0,0,1-.052.209v.105a.943.943,0,0,1-.1.419,2.453,2.453,0,0,1-.369.472,1.515,1.515,0,0,1-1.623.472,1.607,1.607,0,0,1-1.1-.786,1.957,1.957,0,0,1-.154-.419l-.053-.367a.3.3,0,0,1-.052-.209c0-.105.016-.349.052-.734.033-1.153.053-1.783.053-1.887q0-.682.078-2.909t.076-3.486v-2.254q0-1.781-.025-2.412t-.078-2.149q-.053-1.52-.132-2.384t-.21-2.071c-.086-.8-.2-1.554-.34-2.255a1.685,1.685,0,0,1,1.338-2.018,1.74,1.74,0,0,1,1.31.262,1.548,1.548,0,0,1,.706,1.127,50.874,50.874,0,0,1,.839,9.017" transform="translate(-58.5 -14.489)" fill="#fff"/><path d="M431.576,244.6a38.59,38.59,0,0,1,13.882,2.818A38.515,38.515,0,0,1,464.223,263.8a53.9,53.9,0,0,1,5.036,11.506,75.71,75.71,0,0,1,1.677,8.458,61.257,61.257,0,0,1,.611,8.536A67.625,67.625,0,0,1,470.4,304.64a65.478,65.478,0,0,1-3.319,11.772,55.03,55.03,0,0,1-5.34,10.4,42.421,42.421,0,0,1-7.131,8.344,31.481,31.481,0,0,1-8.734,5.561,26.876,26.876,0,0,1-10.182,2.1,32.925,32.925,0,0,1-9.8-1.754,28.39,28.39,0,0,1-7.324-3.81,24.037,24.037,0,0,1-5.11-5.029,38.226,38.226,0,0,1-3.318-5.3,34.277,34.277,0,0,1-1.982-4.61q-.686-2.057-.915-3.047a55.328,55.328,0,0,1-1.222-6.668,54.428,54.428,0,0,1-.381-6.362,4.874,4.874,0,0,1,.038-.61,4.874,4.874,0,0,0,.038-.611,59.4,59.4,0,0,1-3.661-6.932,47.664,47.664,0,0,1-2.593-8.725,46.333,46.333,0,0,1-.916-9.029,44.74,44.74,0,0,1,2.06-13.488,33.978,33.978,0,0,1,6.217-11.583,29.779,29.779,0,0,1,10.335-7.962,31.2,31.2,0,0,1,14.417-2.705m-7.26,75.513a20.5,20.5,0,0,1-5.066-1.943,30.12,30.12,0,0,1-6.515-4.685q.229,1.6.495,2.818t.42,2.059l.153,1.142v-.229q.228.992.722,2.705a23.243,23.243,0,0,0,1.486,3.734,26.753,26.753,0,0,0,2.475,4.039,17.862,17.862,0,0,0,3.657,3.656A17.333,17.333,0,0,0,427.208,336a18.737,18.737,0,0,0,6.629.8,24.513,24.513,0,0,0,9.179-2.172,27.453,27.453,0,0,0,7.655-5.259,37.841,37.841,0,0,0,6.057-7.658,51.216,51.216,0,0,0,4.417-9.373A61.872,61.872,0,0,0,463.85,301.9a64.893,64.893,0,0,0,.915-10.821,54.707,54.707,0,0,0-2.058-15.315,37.087,37.087,0,0,0-3.7-8.573,29.645,29.645,0,0,0-14.516-12.5,32.993,32.993,0,0,0-11.049-2.325,17.977,17.977,0,0,0-3.352.267,28.676,28.676,0,0,0-5.372,1.411,33.789,33.789,0,0,0-6.211,3.01,24.32,24.32,0,0,0-5.866,5.066,25.637,25.637,0,0,0-4.382,7.66,30.478,30.478,0,0,0-1.714,10.78,53.682,53.682,0,0,0,1.371,11.43,43.447,43.447,0,0,1,5.067-10.63,60.521,60.521,0,0,1,6.1-7.808,40.081,40.081,0,0,1,5.373-4.917q2.361-1.713,2.9-2.018a1.626,1.626,0,0,1,1.715.305,7.457,7.457,0,0,1,1.828,1.753,5.931,5.931,0,0,1,1.067,2.21,1.454,1.454,0,0,1-.5,1.675,45.96,45.96,0,0,0-8.953,7.544,41.292,41.292,0,0,0-5.716,8.038,35.206,35.206,0,0,0-3.161,8.078,42.91,42.91,0,0,0-1.219,7.582,22.087,22.087,0,0,0,4.129,4.648,28.035,28.035,0,0,0,4.191,2.934,16.184,16.184,0,0,0,3.505,1.525,9.956,9.956,0,0,0,1.981.418,2.371,2.371,0,0,1,1.905,1.143,4.054,4.054,0,0,1,.838,2.438,3.41,3.41,0,0,1-1.066,2.554q-1.069,1.026-3.582.646" transform="translate(0 -15.638)" fill="#fff"/><path d="M486.263,282.009a3.285,3.285,0,0,1,2.629.913,11.845,11.845,0,0,1,2.134,2.631,21.959,21.959,0,0,1,1.638,3.276q.685,1.714,1.068,2.781,1.447,4.117,2.552,8.078t2.019,7.924a29.391,29.391,0,0,1,7.392-6.591,19.652,19.652,0,0,1,8.84-2.856,10.092,10.092,0,0,1,4.647.76,14.034,14.034,0,0,1,3.773,2.364,19.132,19.132,0,0,1,2.781,3.01,12.959,12.959,0,0,1,1.6,2.705,19.475,19.475,0,0,1,1.258,3.963,21.38,21.38,0,0,1,.419,4.266c0,.256-.014.533-.039.84s-.038.584-.038.838q2.59-.687,5.066-1.562a23.993,23.993,0,0,0,4.535-2.134,18.682,18.682,0,0,0,3.658-2.9,11.973,11.973,0,0,0,2.514-3.847,2.388,2.388,0,0,1,1.524-1.485,3.285,3.285,0,0,1,2.1,0,3.76,3.76,0,0,1,1.79,1.333,3.422,3.422,0,0,1,.611,2.514,8.681,8.681,0,0,1-2.516,5.258,21.942,21.942,0,0,1-5.486,4.038,48.845,48.845,0,0,1-7.315,3.125q-4.04,1.37-8,2.36a25.44,25.44,0,0,1-2.211,4.306,17.016,17.016,0,0,1-2.895,3.467,12.352,12.352,0,0,1-3.505,2.247,10.136,10.136,0,0,1-3.962.8,11.064,11.064,0,0,1-5.372-1.523,8.142,8.142,0,0,1-3.545-4.877,4.786,4.786,0,0,1,.344-3.85,7.375,7.375,0,0,1,3.01-2.628,20.48,20.48,0,0,1,4.953-1.716q2.894-.646,6.172-1.256a2.469,2.469,0,0,0,.382-.038,2.324,2.324,0,0,1,.381-.038q.381-1.3.648-2.592a12.892,12.892,0,0,0,.266-2.592,9.362,9.362,0,0,0-.457-2.972,8.4,8.4,0,0,0-.953-1.676A10.34,10.34,0,0,0,519.181,307a9.372,9.372,0,0,0-1.828-1.3,4.032,4.032,0,0,0-1.905-.534,17.139,17.139,0,0,0-8.535,3.81,32.956,32.956,0,0,0-6.858,7.926q1.218,7.24,1.715,13.83t.495,12.535q0,6.016-.418,11.087t-.99,8.953a58.347,58.347,0,0,1-1.257,6.437,16.216,16.216,0,0,1-1.22,3.467,9.247,9.247,0,0,1-2.553,2.972,4.845,4.845,0,0,1-2.781.914,5.49,5.49,0,0,1-3.963-1.865,12.458,12.458,0,0,1-2.819-4.764,45.653,45.653,0,0,1-1.676-7.811,68.446,68.446,0,0,1-.534-8.724,84.174,84.174,0,0,1,.61-9.983,96.6,96.6,0,0,1,1.753-10.1,84.125,84.125,0,0,1,2.858-9.753,63.815,63.815,0,0,1,4-8.954q-.761-4.038-1.829-7.849a64.646,64.646,0,0,0-2.59-7.466l-.533-1.3q-.382-.914-.877-2.059t-1.028-2.285q-.532-1.143-1.067-2.172a15.523,15.523,0,0,0-1.067-1.791,7.877,7.877,0,0,1-1.219-4.191,4.882,4.882,0,0,1,.724-2.667,3.235,3.235,0,0,1,2.477-1.372m8.839,54.94q0-4.5-.229-9.067a78.73,78.73,0,0,0-3.162,11.125,84.59,84.59,0,0,0-1.562,11.049q-.228,3.121-.228,5.639,0,3.352.266,6.171t.61,4.877q.343,2.057.647,3.163a3.727,3.727,0,0,0,.382,1.1q.153-.687.686-3.7t1.1-7.582q.572-4.571,1.028-10.438t.458-12.345m18.9-8.534a4.291,4.291,0,0,0,1.524-.875,16.323,16.323,0,0,0,1.524-1.488c-.558.1-1.1.229-1.638.382s-1.028.28-1.486.38q-1.6.458-1.6.992c0,.254.165.455.495.609a1.564,1.564,0,0,0,1.181,0" transform="translate(-12.051 -20.973)" fill="#fff"/><path d="M555.048,307.256l.381-1.067q.382-.837,1.105-2.4a12.381,12.381,0,0,1,1.79-2.821,5.147,5.147,0,0,1,2.476-1.676q1.41-.415,3.087,1.182a7.032,7.032,0,0,1,1.3,1.827,9.01,9.01,0,0,1,2.9-2.705,10.762,10.762,0,0,1,4.267-1.41,11.2,11.2,0,0,1,3.886.763,14.814,14.814,0,0,1,3.924,2.21,15.2,15.2,0,0,1,3.314,3.618,14.432,14.432,0,0,1,2.059,4.993,15.153,15.153,0,0,1,.227,2.894v1.525a8.9,8.9,0,0,1-.152,1.6,36.37,36.37,0,0,0,4.648-1.22,28.1,28.1,0,0,0,4.305-1.827,24.063,24.063,0,0,0,3.62-2.324,13.294,13.294,0,0,0,2.591-2.628l-.077.075a1.822,1.822,0,0,1,1.563-.916,2.99,2.99,0,0,1,1.79.611,4.809,4.809,0,0,1,1.371,1.56,2.4,2.4,0,0,1,.23,1.945,7.673,7.673,0,0,1-2.629,3.39,25.951,25.951,0,0,1-5.068,3.163,41.088,41.088,0,0,1-6.515,2.476,41.512,41.512,0,0,1-6.972,1.409,24.58,24.58,0,0,1-2.019,4.687,16.033,16.033,0,0,1-3.162,4,15.092,15.092,0,0,1-4.458,2.818,16,16,0,0,1-5.83,1.145,18.1,18.1,0,0,1-5.258-.762,14.819,14.819,0,0,1-4.573-2.288,14.307,14.307,0,0,1-3.543-3.847,16.658,16.658,0,0,1-2.172-5.448v.075a19.628,19.628,0,0,1-.533-4.877,25.293,25.293,0,0,1,.533-5.1,22.552,22.552,0,0,1,1.677-5.03Zm8.763,1.143-.685.684q-.306.306-.61.611a1.285,1.285,0,0,0-.382.38,1.162,1.162,0,0,1-.227.3,16.485,16.485,0,0,0-1.792,4.23,15.845,15.845,0,0,0-.571,4,13.6,13.6,0,0,0,.229,2.516,8.573,8.573,0,0,0,2.705,5.144,7.81,7.81,0,0,0,5.3,2.172,10.242,10.242,0,0,0,5.6-2.363,14.633,14.633,0,0,0,3.7-4.8,17.338,17.338,0,0,1-5.257-2.1,17.932,17.932,0,0,1-3.887-3.161,17.6,17.6,0,0,1-2.59-3.621,14.724,14.724,0,0,1-1.372-3.465Zm6.553,1.751a8.415,8.415,0,0,0,3.238,4.077,12.03,12.03,0,0,0,5.067,1.791,13.15,13.15,0,0,0,.229-3.734,13.418,13.418,0,0,0-1.334-5.562q-1.182-2.287-3.086-2.211a4.587,4.587,0,0,0-2.287.84,5.258,5.258,0,0,0-1.409,1.523,4.05,4.05,0,0,0-.571,1.753,3.511,3.511,0,0,0,.152,1.523" transform="translate(-22.011 -23.282)" fill="#fff"/><path d="M609.616,304.342a7.546,7.546,0,0,0,.839,1.639,1.3,1.3,0,0,0,1.066.647,5.633,5.633,0,0,0,2.591-1.027,31.917,31.917,0,0,0,4.419-3.545,3.776,3.776,0,0,1,2.934-1.105,4.029,4.029,0,0,1,2.476,1.371,8.921,8.921,0,0,1,1.715,2.972,10.843,10.843,0,0,1,.647,3.7,12.214,12.214,0,0,1-.153,1.943,4.691,4.691,0,0,1-.685,1.791v-.077a46.434,46.434,0,0,0-3.925,8.535,22.575,22.575,0,0,0-1.332,6.858,7.141,7.141,0,0,0,.266,2.134,1.8,1.8,0,0,0,.877,1.143q1.372.687,3.62-.38a18.722,18.722,0,0,0,4.99-3.849,60.49,60.49,0,0,0,5.906-7.2,96.417,96.417,0,0,0,6.363-10.364,1.674,1.674,0,0,1,1.447-.533,6.355,6.355,0,0,1,2.133.38,3.472,3.472,0,0,1,1.677,1.221,1.97,1.97,0,0,1,.076,2.056q-1.069,2.363-2.553,5.143a62.479,62.479,0,0,1-3.391,5.6,65.234,65.234,0,0,1-4.076,5.41,28.834,28.834,0,0,1-4.686,4.5,23.215,23.215,0,0,1-5.221,3.01,12.125,12.125,0,0,1-5.6.875,9.887,9.887,0,0,1-5.981-2.363q-2.478-2.132-2.476-6.857a24.007,24.007,0,0,1,1.295-7.011,63.2,63.2,0,0,1,4.268-9.829,2.56,2.56,0,0,0-.076-.953c-.052-.026-.128.015-.23.115a11.813,11.813,0,0,1-1.675,1.219,14.259,14.259,0,0,1-2.248,1.1,11.325,11.325,0,0,1-2.781.686,11,11,0,0,1-3.276-.116,11.727,11.727,0,0,1-3.81-1.6,10.3,10.3,0,0,1-2.59-2.4,9.321,9.321,0,0,1-1.448-2.822,9.71,9.71,0,0,1-.457-2.856,7.615,7.615,0,0,1,.495-2.743,4.644,4.644,0,0,1,1.333-1.982,2.653,2.653,0,0,1,3.506-.114q1.982,1.257,3.733,5.752Z" transform="translate(-28.803 -23.265)" fill="#fff"/><path d="M701.76,246.848a19.473,19.473,0,0,1,4.382.761,18.428,18.428,0,0,1,3.543,1.449,9.411,9.411,0,0,1,2.4,1.789,2.761,2.761,0,0,1,.876,1.791,2.533,2.533,0,0,1-1.487,2.172,10.407,10.407,0,0,1-4.991.875c-.406,0-.864-.012-1.371-.037s-1.042-.063-1.6-.114a16.926,16.926,0,0,1-3.085-.687q-1.716-.532-3.316-1.067c-.712-.255-1.372-.468-1.981-.647a11.389,11.389,0,0,0-1.448-.344q-3.885-.378-7.734-.534t-7.278-.151q-6.477,0-12.078.458t-10.629,1.216q-1.219,4.644-2.134,9.63t-1.486,10.123q-.571,5.139-.876,10.277t-.3,9.932q0,6.166.495,11.571a68.806,68.806,0,0,0,1.448,9.438,24.1,24.1,0,0,0,2.286,6.355q1.332,2.321,3.01,2.323a12.031,12.031,0,0,0,5.716-3.163,42.287,42.287,0,0,0,5.41-5.981,68.013,68.013,0,0,0,4.458-6.706q1.942-3.353,3.01-5.181l1.068-1.83a2.312,2.312,0,0,1,1.448-1.027,2.393,2.393,0,0,1,1.409.189,3.634,3.634,0,0,1,1.182.916,4.526,4.526,0,0,1,.761,1.142,9.186,9.186,0,0,1-.8,2.4,57.434,57.434,0,0,1-2.515,5.257q-1.638,3.088-3.962,6.669a47.92,47.92,0,0,1-5.144,6.6,31.865,31.865,0,0,1-6.058,5.106,12.192,12.192,0,0,1-6.667,2.082,7.792,7.792,0,0,1-6.286-3.354,26.479,26.479,0,0,1-4.267-8.992,76.61,76.61,0,0,1-2.438-13.068,144.864,144.864,0,0,1-.8-15.506q0-8.689.838-17.374a159.585,159.585,0,0,1,2.363-16.231,105.954,105.954,0,0,0-12.383,3.315q-4.914,1.713-7.125,2.553c-.507.2-.915.368-1.219.494a2.066,2.066,0,0,1-.609.191,4.251,4.251,0,0,1-3.887-1.067,4.373,4.373,0,0,1-1.448-3.124,3.338,3.338,0,0,1,.5-1.791,2.9,2.9,0,0,1,1.562-1.181q.3-.076,2.172-.725t5.181-1.525q3.314-.872,8-1.865t10.782-1.9q.532-1.906,1.1-3.621t1.182-3.239a2.721,2.721,0,0,1,1.219-1.446,3.859,3.859,0,0,1,1.753-.381,4.8,4.8,0,0,1,1.943.456,6.254,6.254,0,0,1,1.79,1.182,4.465,4.465,0,0,1,1.106,1.6,2.36,2.36,0,0,1,.038,1.716l-.914,2.514q5.637-.607,12-.952t13.6-.344q4.343,0,8.878.116t9.41.5" transform="translate(-31.641 -14.995)" fill="#fff"/><path d="M712.255,292.394a4.6,4.6,0,0,1,2.934.3,5.222,5.222,0,0,1,1.905,1.639,5.7,5.7,0,0,1,.953,2.21,6.98,6.98,0,0,1,.152,1.943,12.093,12.093,0,0,1-.571,2.172,17.66,17.66,0,0,1-1.067,2.4c-.432.813-.876,1.628-1.334,2.439s-.913,1.55-1.371,2.21c-.406.713-.775,1.333-1.105,1.867a5.524,5.524,0,0,0-.5.876q-.686,3.124-.99,5.409a30.41,30.41,0,0,0-.3,3.964,8.109,8.109,0,0,0,.571,3.581,1.652,1.652,0,0,0,1.41,1.067,5.6,5.6,0,0,0,2.818-1.067,27.607,27.607,0,0,0,3.582-2.781,51.931,51.931,0,0,0,3.886-3.925q1.981-2.21,3.734-4.5t3.162-4.418a24.652,24.652,0,0,0,2.1-3.734c.153-.305.534-.393,1.143-.267a7.317,7.317,0,0,1,1.867.684,6.652,6.652,0,0,1,1.638,1.182q.684.684.456,1.142a58.8,58.8,0,0,1-12,16.116,37.633,37.633,0,0,1-6.667,5.068,11.8,11.8,0,0,1-5.715,1.905,7.173,7.173,0,0,1-4.649-1.6,8.95,8.95,0,0,1-2.819-5.028q-1.069,1.752-2.209,3.352a30.9,30.9,0,0,1-2.287,2.856,13.033,13.033,0,0,1-2.324,2.059,6.424,6.424,0,0,1-2.324,1.029,8.9,8.9,0,0,1-4.861-.648,7.9,7.9,0,0,1-3.17-2.744,12.126,12.126,0,0,1-1.73-4.189,23.678,23.678,0,0,1-.526-5.068,47.244,47.244,0,0,1,.61-7.62q.611-3.734,1.068-6.1c.1-.508.178-.953.227-1.333a8.824,8.824,0,0,1,.153-.876v.152a35.3,35.3,0,0,1,.572-4.344,14.009,14.009,0,0,1,1.219-3.694,6.186,6.186,0,0,1,2.058-2.4,4.146,4.146,0,0,1,3.086-.534,3.69,3.69,0,0,1,2.514,1.905,7.152,7.152,0,0,1,.839,3.505,9.551,9.551,0,0,1-.348,2.553,7.335,7.335,0,0,1-.963,2.171,18.025,18.025,0,0,0-2.044,4.152,49.556,49.556,0,0,0-1.657,5.526q-.693,2.9-1.079,5.715a35.922,35.922,0,0,0-.386,4.724v1.3a1.024,1.024,0,0,0,.153.684q.836,1.906,2.057,1.905a2.671,2.671,0,0,0,1.295-.381,7.484,7.484,0,0,0,1.3-.913,11.491,11.491,0,0,0,1.105-1.105q.494-.574.876-.953a12.86,12.86,0,0,0,1.866-2.856q.954-1.869,1.83-4t1.639-4.343q.76-2.208,1.371-3.964a32.812,32.812,0,0,1,1.219-3.276,14.727,14.727,0,0,1,.382-1.6q.229-.758.457-1.6h-.076l.686-2.743v.077a29.264,29.264,0,0,1,1.41-4.876,3.632,3.632,0,0,1,2.858-2.363Z" transform="translate(-40.993 -22.442)" fill="#fff"/><path d="M745.118,295.521a5.261,5.261,0,0,1,3.618,1.256,3.924,3.924,0,0,1,1.03,2.782,7.275,7.275,0,0,1-1.03,3.581,13.311,13.311,0,0,1-2.095,2.895,7.509,7.509,0,0,0-1.144,2.211q-.684,1.752-1.409,4.037t-1.372,4.688q-.648,2.4-1.029,4.266a12.77,12.77,0,0,0-.342,2.782q.038.913.647.152l-.076.153c.1-.2.393-.735.876-1.6s1.079-1.918,1.791-3.163,1.5-2.577,2.361-4,1.727-2.793,2.591-4.116,1.7-2.487,2.515-3.506a15.318,15.318,0,0,1,2.058-2.21,5.887,5.887,0,0,1,3.505-1.217,7.249,7.249,0,0,1,4.686,1.867,14.364,14.364,0,0,1,3.618,4.532,9.547,9.547,0,0,1,.534,1.945c.1.634.254,1.434.458,2.4q.381,2.442.991,5.526a47.086,47.086,0,0,0,1.524,5.828,20,20,0,0,0,2.133,4.61,3.513,3.513,0,0,0,2.971,1.867q1.3-.076,3.507-2.514a57.327,57.327,0,0,0,4.685-6.058q2.476-3.62,4.763-7.81a83.912,83.912,0,0,0,3.81-7.85q1.445-1.9,2.63-2.058a2.112,2.112,0,0,1,1.942.687,4.5,4.5,0,0,1,1.031,2.21,3.835,3.835,0,0,1-.192,2.362l.152-.154q-.077.077-1.105,2.1t-2.78,5.029q-1.757,3.011-4,6.515t-4.687,6.593a39.413,39.413,0,0,1-4.877,5.219,9.228,9.228,0,0,1-4.495,2.438,8.909,8.909,0,0,1-5.41-1.981,14.849,14.849,0,0,1-3.659-4.572,30.571,30.571,0,0,1-2.362-5.982q-.914-3.238-1.522-6.287-.764-3.428-1.486-5.905t-1.792-2.553a7.127,7.127,0,0,0-2.972,2.02,32.742,32.742,0,0,0-3.2,3.886q-1.6,2.249-3.047,4.723t-2.516,4.383q-.839,1.525-1.448,2.59a7.445,7.445,0,0,1-.99,1.449,2.709,2.709,0,0,1-1.828.876,4.19,4.19,0,0,1-1.867-.345,5.567,5.567,0,0,1-1.639-1.105,6.063,6.063,0,0,1-1.144-1.409,7.535,7.535,0,0,1-.838-2.706,26.244,26.244,0,0,1-.228-3.618,56.394,56.394,0,0,1,.532-7.469q.534-3.96.991-7.008.306-1.754.495-2.9a5.237,5.237,0,0,0,.115-1.525,9.191,9.191,0,0,1,.267-2.552,12.008,12.008,0,0,1,1.1-3.01,7.877,7.877,0,0,1,1.905-2.4,3.852,3.852,0,0,1,2.744-.875" transform="translate(-48.254 -22.901)" fill="#fff"/><path d="M807.329,291.93A4.951,4.951,0,0,1,810.223,293a6.444,6.444,0,0,1,1.639,2.094,6.931,6.931,0,0,1,.687,2.363,6.262,6.262,0,0,1-.039,1.867,8.375,8.375,0,0,1-1.142,2.21q-.917,1.37-1.83,2.667c-.561.713-1.079,1.422-1.561,2.134a5.433,5.433,0,0,0-.8,1.447q-.76,3.506-1.179,6.707a41.568,41.568,0,0,0-.421,5.181,17.247,17.247,0,0,0,.458,4.456A7.791,7.791,0,0,0,807.1,326.6a2.552,2.552,0,0,0,1.217,1.03,2.077,2.077,0,0,0,.991.115q1.6-.3,4.381-2.782a66.578,66.578,0,0,0,5.868-6.02q3.084-3.545,5.981-7.544t4.877-7.275a1.385,1.385,0,0,1,1.295-.649,3.221,3.221,0,0,1,1.639.572,4.785,4.785,0,0,1,1.332,1.333,2.067,2.067,0,0,1,.307,1.714,15.7,15.7,0,0,1-1.678,3.316q-1.371,2.246-3.428,5.028t-4.573,5.793q-2.513,3.008-5.144,5.637a44.859,44.859,0,0,1-5.181,4.5,12.748,12.748,0,0,1-4.686,2.323,7.221,7.221,0,0,1-4.687-1.218,10.06,10.06,0,0,1-3.619-4.5l.077.077a21.388,21.388,0,0,1-1.828-5.9,41.054,41.054,0,0,1-.534-6.669,63.552,63.552,0,0,1,.494-8.3q.5-3.732.8-5.409a5.819,5.819,0,0,0,.153-.688q.077-.912.381-2.552a13.883,13.883,0,0,1,.992-3.163,7.535,7.535,0,0,1,1.828-2.552,3.763,3.763,0,0,1,2.972-.875m4.116-13.259a9.489,9.489,0,0,1,1.371-1.259,6.3,6.3,0,0,1,1.867-.991,4.364,4.364,0,0,1,2.135-.151,3.771,3.771,0,0,1,2.093,1.258,5.175,5.175,0,0,1,.839,3.124,9.334,9.334,0,0,1-.839,3.2,16.062,16.062,0,0,1-1.943,3.315,15.478,15.478,0,0,1-2.589,2.705,6.809,6.809,0,0,1-2.784,1.447h.079a3.7,3.7,0,0,1-1.945.078,2.924,2.924,0,0,1-1.294-.725,3.687,3.687,0,0,1-.761-1.067,4.291,4.291,0,0,1-.344-.951,5.4,5.4,0,0,1,.114-2.059,15.627,15.627,0,0,1,.839-2.705,19.142,19.142,0,0,1,1.409-2.781,15.141,15.141,0,0,1,1.829-2.438Z" transform="translate(-57.201 -20.148)" fill="#fff"/><path d="M847.983,284.426q5.179-.378,8.3,1.6a14.471,14.471,0,0,1,4.8,4.8q-.232-5.56-.23-11.5t.268-11.849q.264-5.9.875-11.279t1.488-9.943a47.326,47.326,0,0,1,2.134-7.886,16.357,16.357,0,0,1,2.857-5.106,4.256,4.256,0,0,1,3.581-1.638,6.109,6.109,0,0,1,2.553,1.029,11.583,11.583,0,0,1,2.552,2.36,21.71,21.71,0,0,1,2.285,3.467,22.78,22.78,0,0,1,1.753,4.268,33.985,33.985,0,0,1,1.3,5.829,46.93,46.93,0,0,1,.38,5.981,56.414,56.414,0,0,1-1.448,12.536,98.518,98.518,0,0,1-3.58,12.152q-2.136,5.794-4.459,10.707t-4,8.266l-1.522,3.048q.3,4.423.876,8.115a47.769,47.769,0,0,0,1.37,6.364,15.5,15.5,0,0,0,1.831,4.19,3.094,3.094,0,0,0,2.323,1.6,5.9,5.9,0,0,0,2.553-1.447,24.227,24.227,0,0,0,2.894-3.047q1.488-1.831,2.934-4t2.744-4.267q1.294-2.1,2.324-3.961t1.714-3.012q.152-.3.383-.685t.379-.686a4.345,4.345,0,0,1,1.868-1.905,2.228,2.228,0,0,1,1.829-.114,2.258,2.258,0,0,1,1.181,1.447,5.666,5.666,0,0,1,0,2.934,16.1,16.1,0,0,1-1.03,2.514q-.952,2.058-2.476,4.877t-3.543,5.982a58.206,58.206,0,0,1-4.23,5.83,26.6,26.6,0,0,1-4.57,4.419,7.742,7.742,0,0,1-4.573,1.754,7.208,7.208,0,0,1-3.467-.8,10.328,10.328,0,0,1-2.552-1.905,11.436,11.436,0,0,1-1.753-2.325q-.687-1.219-1.142-2.058a37.1,37.1,0,0,1-2.438-8.838,35.811,35.811,0,0,1-2.743,3.581,18.7,18.7,0,0,1-3.43,3.085,15.312,15.312,0,0,1-4.191,2.059,13.4,13.4,0,0,1-4.875.572,17.291,17.291,0,0,1-4.115-.763,10.71,10.71,0,0,1-3.543-1.942,13.1,13.1,0,0,1-2.9-3.39,21.569,21.569,0,0,1-2.172-5.181,9.333,9.333,0,0,1-.5-2.288c-.076-.81-.114-1.651-.114-2.514a32.45,32.45,0,0,1,.761-6.706,27.1,27.1,0,0,1,2.362-6.707,16.962,16.962,0,0,1,4.115-5.257,10.069,10.069,0,0,1,6.022-2.362M860.1,302.411a2.31,2.31,0,0,1-.684.075,3.96,3.96,0,0,1-2.668-1.067,5.9,5.9,0,0,1-1.676-3.43l-.153-1.675c-.051-.61-.141-1.281-.268-2.018a6.556,6.556,0,0,0-.684-2.021,3.267,3.267,0,0,0-1.371-1.371,3.466,3.466,0,0,0-2.324-.152,7.607,7.607,0,0,0-4.19,2.744,16.476,16.476,0,0,0-2.517,4.609,24.832,24.832,0,0,0-1.256,5.144,34.313,34.313,0,0,0-.345,4.419q0,.839.037,1.372a7.568,7.568,0,0,0,.117.913,7.2,7.2,0,0,0,1.867,4.23,4.657,4.657,0,0,0,3.314,1.333,9.236,9.236,0,0,0,5.3-1.981,15.014,15.014,0,0,0,4.532-5.259Zm7.24-15.393q1.676-4.114,3.275-8.534t2.819-8.8A84.8,84.8,0,0,0,875.376,261a50.267,50.267,0,0,0,.724-8.344,37.332,37.332,0,0,0-.343-5.144,21.574,21.574,0,0,0-1.18-4.686,22.751,22.751,0,0,0-1.107-2.781c-.28-.533-.494-.8-.647-.8s-.355.3-.609.913a17.968,17.968,0,0,0-.686,1.983v-.078q-.99,4.345-1.789,9.564T868.4,262.482q-.535,5.64-.8,11.506t-.267,11.584Z" transform="translate(-62.193 -13.789)" fill="#fff"/><path d="M916.477,294.892a13.014,13.014,0,0,1,5.564.647,11.376,11.376,0,0,1,3.809,2.324,12.24,12.24,0,0,1,2.4,3.086,21.972,21.972,0,0,1,1.332,2.934,4.488,4.488,0,0,1,.04,2.514,2.512,2.512,0,0,1-1.183,1.447,3.7,3.7,0,0,1,1.676,2.324,4.153,4.153,0,0,1,0,2.247,1.383,1.383,0,0,0-.152.382l.152-.153-.227.305q-.61,1.448-1.22,2.742t-1.217,2.517a4.629,4.629,0,0,0-.154,1.142v.992a8.744,8.744,0,0,0,.341,2.514,7.26,7.26,0,0,0,1.944,3.238,2.023,2.023,0,0,0,.991.571,6.789,6.789,0,0,0,4.8-1.449,28.485,28.485,0,0,0,4.876-4.381,53.327,53.327,0,0,0,4.344-5.523q1.979-2.9,3.277-4.877.687-1.065,1.18-1.829a7.82,7.82,0,0,1,.649-.914v.075a3.963,3.963,0,0,1,1.676-1.142,2.546,2.546,0,0,1,1.675-.038,2.4,2.4,0,0,1,1.259,1.1,3.883,3.883,0,0,1,.418,2.21,10.919,10.919,0,0,1-1.03,2.667,40.408,40.408,0,0,1-2.59,4.495,60.35,60.35,0,0,1-3.887,5.259,44.855,44.855,0,0,1-4.8,5.028,27.733,27.733,0,0,1-5.3,3.772,11.41,11.41,0,0,1-5.487,1.488,8.8,8.8,0,0,1-3.506-.687,9.9,9.9,0,0,1-3.238-2.172,13.409,13.409,0,0,1-2.781-3.924,16.114,16.114,0,0,1-12.039,4.877,14.327,14.327,0,0,1-4.5-.611,10.631,10.631,0,0,1-3.086-1.561,8.686,8.686,0,0,1-2.02-2.1,21.216,21.216,0,0,1-1.3-2.21,15.359,15.359,0,0,1-1.1-3.467,19.236,19.236,0,0,1-.343-3.618,20.741,20.741,0,0,1,1.6-7.887,25.607,25.607,0,0,1,4.23-7.011,24.206,24.206,0,0,1,5.982-5.106,15.162,15.162,0,0,1,6.933-2.247m6.173,14.706a1.6,1.6,0,0,0,.417,1.791,5.81,5.81,0,0,0,2.06,1.41,7.769,7.769,0,0,0,2.63.609,3.1,3.1,0,0,0,2.209-.609.215.215,0,0,0-.075.152,12.623,12.623,0,0,0-1.6,2.782,21.329,21.329,0,0,0-.838,2.476,33.27,33.27,0,0,1-2.479,4.19,25.6,25.6,0,0,1-2.856,3.43,18.106,18.106,0,0,1-1.105-3.314,16.926,16.926,0,0,1-.419-3.85,21.443,21.443,0,0,1,.533-4.724c0-.558.011-1.167.038-1.829a9.266,9.266,0,0,1,.267-1.905,7.031,7.031,0,0,1,.649-1.676,3.386,3.386,0,0,1,1.1-1.218,4.1,4.1,0,0,1-1.6-1.907l.154.154q-.612-.76-.533-.8c.048-.025.048-.113,0-.267q-.23-.608-.535-1.3a6.7,6.7,0,0,0-.724-1.256,2.52,2.52,0,0,0-1.029-.839,2.149,2.149,0,0,0-1.447-.039,21.018,21.018,0,0,0-5.831,3.163,20.011,20.011,0,0,0-4.115,4.305,18.531,18.531,0,0,0-2.438,4.839,15.479,15.479,0,0,0-.8,4.762,9.835,9.835,0,0,0,1.143,4.915,3.977,3.977,0,0,0,3.354,2.171,8.224,8.224,0,0,0,4.648-.952,18.635,18.635,0,0,0,4.038-2.781,15.882,15.882,0,0,0,2.78-3.238,4.591,4.591,0,0,0,.955-2.4v-.459c0-.2-.015-.43-.04-.684a7.314,7.314,0,0,1-.038-.763q.3-1.065.649-2.133a18.934,18.934,0,0,1,.875-2.21" transform="translate(-71.177 -22.806)" fill="#fff"/><path d="M971.246,284.426q5.179-.378,8.3,1.6a14.457,14.457,0,0,1,4.8,4.8q-.229-5.56-.229-11.5t.267-11.849q.265-5.9.876-11.279t1.487-9.943a47.415,47.415,0,0,1,2.134-7.886,16.375,16.375,0,0,1,2.856-5.106,4.26,4.26,0,0,1,3.581-1.638,6.112,6.112,0,0,1,2.554,1.029,11.563,11.563,0,0,1,2.552,2.36,21.714,21.714,0,0,1,2.285,3.467,22.78,22.78,0,0,1,1.753,4.268,34.144,34.144,0,0,1,1.3,5.829,47.076,47.076,0,0,1,.379,5.981,56.463,56.463,0,0,1-1.447,12.536,98.816,98.816,0,0,1-3.581,12.152q-2.136,5.794-4.459,10.707t-4,8.266l-1.523,3.048q.3,4.423.877,8.115a47.643,47.643,0,0,0,1.37,6.364,15.523,15.523,0,0,0,1.83,4.19,3.094,3.094,0,0,0,2.323,1.6,5.9,5.9,0,0,0,2.553-1.447,24.225,24.225,0,0,0,2.895-3.047q1.487-1.831,2.934-4t2.744-4.267q1.294-2.1,2.324-3.961t1.714-3.012q.153-.3.382-.685c.153-.254.278-.483.381-.686a4.338,4.338,0,0,1,1.867-1.905,2.23,2.23,0,0,1,1.83-.114,2.258,2.258,0,0,1,1.181,1.447,5.648,5.648,0,0,1,0,2.934,16.211,16.211,0,0,1-1.03,2.514q-.951,2.058-2.476,4.877t-3.543,5.982a57.937,57.937,0,0,1-4.23,5.83,26.54,26.54,0,0,1-4.57,4.419,7.74,7.74,0,0,1-4.572,1.754,7.215,7.215,0,0,1-3.468-.8,10.328,10.328,0,0,1-2.552-1.905,11.436,11.436,0,0,1-1.753-2.325q-.686-1.219-1.143-2.058a37.225,37.225,0,0,1-2.438-8.838,35.831,35.831,0,0,1-2.744,3.581,18.642,18.642,0,0,1-3.43,3.085,15.305,15.305,0,0,1-4.19,2.059,13.407,13.407,0,0,1-4.877.572,17.292,17.292,0,0,1-4.114-.763,10.73,10.73,0,0,1-3.544-1.942,13.144,13.144,0,0,1-2.9-3.39,21.6,21.6,0,0,1-2.173-5.181,9.409,9.409,0,0,1-.495-2.288c-.076-.81-.114-1.651-.114-2.514a32.4,32.4,0,0,1,.761-6.706,27.06,27.06,0,0,1,2.361-6.707,16.988,16.988,0,0,1,4.115-5.257,10.071,10.071,0,0,1,6.022-2.362m12.114,17.984a2.307,2.307,0,0,1-.684.075,3.956,3.956,0,0,1-2.667-1.067,5.891,5.891,0,0,1-1.676-3.43l-.154-1.675c-.05-.61-.14-1.281-.267-2.018a6.578,6.578,0,0,0-.685-2.021,3.263,3.263,0,0,0-1.371-1.371,3.467,3.467,0,0,0-2.325-.152,7.612,7.612,0,0,0-4.189,2.744,16.5,16.5,0,0,0-2.517,4.609,24.942,24.942,0,0,0-1.256,5.144,34.457,34.457,0,0,0-.345,4.419q0,.839.038,1.372a7.6,7.6,0,0,0,.116.913,7.205,7.205,0,0,0,1.867,4.23,4.657,4.657,0,0,0,3.314,1.333,9.234,9.234,0,0,0,5.3-1.981,15.023,15.023,0,0,0,4.532-5.259Zm7.24-15.393q1.676-4.114,3.276-8.534t2.818-8.8A84.568,84.568,0,0,0,998.638,261a50.173,50.173,0,0,0,.724-8.344,37.468,37.468,0,0,0-.342-5.144,21.62,21.62,0,0,0-1.181-4.686,22.917,22.917,0,0,0-1.106-2.781c-.28-.533-.494-.8-.647-.8s-.355.3-.609.913a17.966,17.966,0,0,0-.687,1.983v-.078Q993.8,246.4,993,251.624t-1.334,10.858q-.535,5.64-.8,11.506t-.268,11.584Z" transform="translate(-79.769 -13.789)" fill="#fff"/><path d="M1038.521,295.688a10.117,10.117,0,0,1,3.923.3,11.892,11.892,0,0,1,3.392,1.562,11,11,0,0,1,4.269,5.678,10.9,10.9,0,0,1,.454,2.971,9.525,9.525,0,0,1-1.181,4.764,12.39,12.39,0,0,1-3.087,3.619,16.042,16.042,0,0,1-8.687,3.43,17.3,17.3,0,0,1-4.837-.345,16.909,16.909,0,0,1-3.849-1.334,11.552,11.552,0,0,0,.915,3.277,6.641,6.641,0,0,0,1.562,2.288,9.966,9.966,0,0,0,2.361,1.675,13.607,13.607,0,0,0,2.782,1.067,11.025,11.025,0,0,0,2.819.381,23.751,23.751,0,0,0,6.628-1.561,34.206,34.206,0,0,0,5.945-3.009,43.405,43.405,0,0,0,4.992-3.7,50.8,50.8,0,0,0,3.886-3.7q1.638-1.752,2.63-2.972a13.375,13.375,0,0,0,1.142-1.523,3.5,3.5,0,0,1,2.973-1.982,2.547,2.547,0,0,1,1.409.42,3.089,3.089,0,0,1,1.029,1.1,2.971,2.971,0,0,1,.343,1.6,4.411,4.411,0,0,1-.572,1.9,50.583,50.583,0,0,1-4.305,5.868,43.465,43.465,0,0,1-6.666,6.4,39.165,39.165,0,0,1-8.765,5.144,25.444,25.444,0,0,1-10.516,2.021,18.233,18.233,0,0,1-7.2-1.374,16.454,16.454,0,0,1-4.648-3.01,14.244,14.244,0,0,1-2.705-3.389q-.913-1.676-1.3-2.592a14.491,14.491,0,0,1-1.066-5.944,23.8,23.8,0,0,1,.837-6.019,18.681,18.681,0,0,1,2.743-5.944,17.194,17.194,0,0,1,4.954-4.685,16.812,16.812,0,0,1,7.391-2.4m1.6,6.173a13.158,13.158,0,0,0-10.67,8.762l.916.229q1.3.382,2.781.725a9.878,9.878,0,0,0,2.781.267,8.286,8.286,0,0,0,5.677-2.288,6.909,6.909,0,0,0,1.791-5.944,1.711,1.711,0,0,0-.875-1.371,3.27,3.27,0,0,0-2.4-.38" transform="translate(-88.982 -22.916)" fill="#fff"/><path d="M1074.218,293.288a5.176,5.176,0,0,1,4.573-2.743,5.1,5.1,0,0,1,3.505,1.371,3.988,3.988,0,0,1,1.522,2.973,3.578,3.578,0,0,1-1.83,3.047,17.262,17.262,0,0,0-4.381,3.621,5.1,5.1,0,0,0-1.255,3.01,6.129,6.129,0,0,0,2.095,4.19,52.576,52.576,0,0,0,4.992,4.419q2.21,1.83,4.381,3.887a33.846,33.846,0,0,1,3.923,4.419,47.077,47.077,0,0,0,4.765-1.676,27.572,27.572,0,0,0,4.609-2.438,26.052,26.052,0,0,0,4.152-3.392,21.67,21.67,0,0,0,3.467-4.61,2.6,2.6,0,0,1,1.752-1.256,3.047,3.047,0,0,1,3.392,1.752,2.765,2.765,0,0,1-.038,2.325,19.962,19.962,0,0,1-3.392,5.523,27.159,27.159,0,0,1-4.648,4.23,33.268,33.268,0,0,1-5.449,3.16,56.713,56.713,0,0,1-5.866,2.325.145.145,0,0,0,.039.113.169.169,0,0,1,.038.116,13.393,13.393,0,0,1,.23,2.589,10.433,10.433,0,0,1-.991,4.764,9.812,9.812,0,0,1-2.476,3.161,11.082,11.082,0,0,1-3.277,1.867,21.919,21.919,0,0,1-3.43.953,19.569,19.569,0,0,1-2.9.343q-1.258.037-1.638.037a9.979,9.979,0,0,1-3.657-.684,15.149,15.149,0,0,1-3.125-1.639,13.233,13.233,0,0,1-2.323-2.02,7.554,7.554,0,0,1-1.258-1.752,8.946,8.946,0,0,1-.723-2.21,11.268,11.268,0,0,1-.192-1.983,4.837,4.837,0,0,1,1.067-3.238,8.3,8.3,0,0,1,2.858-2.094,18.866,18.866,0,0,1,4.191-1.333q2.4-.5,5.066-.953.84-.152,1.754-.305t1.829-.3a40.553,40.553,0,0,0-3.924-4.115q-2.019-1.829-3.772-3.276-1.6-1.3-2.972-2.513a18.784,18.784,0,0,1-2.4-2.554,12.217,12.217,0,0,1-1.638-2.819,8.689,8.689,0,0,1-.609-3.314,15.277,15.277,0,0,1,.915-4.839,30.345,30.345,0,0,1,3.048-6.135m3.961,41.758a8.541,8.541,0,0,0,3.621-.153,10.092,10.092,0,0,0,2.894-1.294,7.966,7.966,0,0,0,2.1-2.02,8.642,8.642,0,0,0,1.22-2.4c-.814.2-1.6.4-2.363.571s-1.5.319-2.21.42q-1.754.381-3.353.725a24.843,24.843,0,0,0-2.819.761,8.721,8.721,0,0,0-1.867.84c-.433.277-.6.571-.5.875a1.814,1.814,0,0,0,1.1,1.142,7.766,7.766,0,0,0,2.172.534" transform="translate(-95.571 -22.193)" fill="#fff"/><path d="M430.3,174.2h.932a7.81,7.81,0,0,0,6.13,2.565c.619,0,1.589-.528,2.9-1.6h1.6l1.6,1.6h.959a7.609,7.609,0,0,1,4.836-1.3q6.771,0,6.771,9.034.63,0,.63,2.229a24.321,24.321,0,0,0-.34,3.533q2.278,1.747,2.273,5.8l-.334.629a12.422,12.422,0,0,1,.964,5.17q0,10.294-3.862,10.3c-.425,0-.636-.227-.636-.668v-.3a5.063,5.063,0,0,0,2.225-3.861l-2.86-3.238v-.97c0-.517.426-.839,1.272-.964a3.369,3.369,0,0,0,1.589.668c.081-.447.3-.668.673-.668q0-3.53-1.594-3.533c-2.058,0-3.345-.641-3.868-1.934v-.629c0-.3.318-.621.965-.965h3.533v-.636q0-2.973-5.8-4.2l-.641-.968v-.631c.081-.42.291-.63.641-.63h3.226c.426,0,.635-.22.635-.668V186.1c0-.249-1.292-.893-3.861-1.933V183.2c0-.6,1.071-1.13,3.226-1.6v-.334q-1.3-3.87-4.5-3.873h-1.3c-1.707.151-2.569.474-2.569.97q3.2.34,3.2,1.639L447,185.763q0,9.745-8.37,13.53l-1.6.3q0,1.26,3.237,7.4h.3a21.317,21.317,0,0,0,8.365-6.1h.97a3.2,3.2,0,0,1,1.927,1.6v.334q0,2.455-3.861,3.2-5.761,2.562-5.764,3.534.857,2.972,6.1,14.159a2.507,2.507,0,0,1,.334,1.3v2.86a2.672,2.672,0,0,1-2.6,2.9,17.172,17.172,0,0,0-2.859-.3q-2.723,0-3.238,3.195,0,1.929,5.8,3.533a4.607,4.607,0,0,1,1.6,2.9,5.5,5.5,0,0,1-4.5,1.933q-4.832,0-4.832-5.462V231.12a.559.559,0,0,0-.635-.631H436.4l-3.867-.34-.334,2.235v4.832q-.817,4.5-3.829,4.5h-2.607a3.292,3.292,0,0,1-2.86-1.935q0-3.046,6.727-4.5l.34-2.229v-.669q-.331-2.567-3.533-2.569a3.765,3.765,0,0,1-1.933.673q-2.157,0-3.533-2.607v-.3a154.3,154.3,0,0,1,7.067-17.358q-7.844-4.2-11.9-4.2l-.334-.63v-1.933a2.167,2.167,0,0,1,2.268-1.3q9.259,5.462,11.267,5.468,2.86-6.7,3.195-8.031-9-4.387-9-12.232a2.111,2.111,0,0,1,.334-.931q-1.3-7.174-2.6-8.7,0-.97-1.6-.969l-1.3,1.3c0,.55.97,1.078,2.9,1.6a2.374,2.374,0,0,0,.328.969c0,.567-.533,1.1-1.594,1.594l-3.232-.964a9.37,9.37,0,0,0-1.939,4.5c1.665.646,2.629,1.288,2.9,1.933v.334c0,.646-1.282,1.066-3.867,1.261l-.631.968V191.9q4.209.412,4.207,1.26v.971c0,.295-.55.828-1.638,1.6h-.63l-2.267-.3a3.637,3.637,0,0,0-.97,1.928q3.87,1.23,3.867,1.933,0,1.156-4.5,2.231a8.535,8.535,0,0,0-1.6,3.871v.63a8.761,8.761,0,0,1,1.3,1.6l-.668.334h-1.26c-.5,0-.932-.743-1.3-2.231a14.493,14.493,0,0,1,2.559-6.436,3.534,3.534,0,0,0-.3-1.632l1.266-5.133v-2.564q1.785-2.3,2.559-7.735a28.51,28.51,0,0,0,3.867-6.431l2.273-.635h4.8a21.062,21.062,0,0,0,2.6.635h.965Zm-7.1,53.683.97.673h.328c.3,0,.619-.322.97-.97v-.333h-1.6c-.447.075-.668.286-.668.629m1.3-46.617c.3,1.509.717,2.268,1.26,2.268l.34-.669v-1.6a.557.557,0,0,0-.63-.63h-.34q-.63.1-.63.63m.97-3.873v.673c.049.426.258.636.63.636l.334-.636v-.673Zm0,10.3q0,6.473,6.431,9.33a21.675,21.675,0,0,1,3.528.634q6.212,0,9-7.7v-3.237q-1.253-5.129-4.158-5.127t-2.9-2.57c0-.442-.21-.668-.63-.668h-.964q-.824,0-4.536,2.564-3.2,0-5.763,6.77m4.158-10.3v.673c0,.3.328.62.97.965h.635a.589.589,0,0,0,.668-.668,4.885,4.885,0,0,1-.668-1.933H430.6c-.3,0-.619.323-.97.964m4.837,51.163h1.6v-.673h-1.6Zm5.133,0c0,.421.318.631.964.631a2.36,2.36,0,0,1,.965-.335v-.3c0-.447-.21-.673-.63-.673h-.63c-.447.075-.668.3-.668.673m.334-49.525v.3h.63a2.054,2.054,0,0,0,1.3-1.939l-.629-.3h-.34c-.641.2-.965.846-.965,1.934m4.832,2.866c.318.867.646,1.3.965,1.3h.3a2.907,2.907,0,0,1,.97-1.6v-.965h-.97c-.322,0-.749.42-1.266,1.261m.63,46.659.635.3.334-.629v-.34h-.334c-.425.075-.635.3-.635.673" transform="translate(-1.316 -5.603)" fill="#fff"/></g></svg>