<svg xmlns="http://www.w3.org/2000/svg" width="72" height="61" viewBox="0 0 72 61" fill="none"><path d="M35.469 26.2343H4.88496C2.12389 26.2343 0 28.3671 0 31.1398V45.4301C0 48.2028 2.12389 50.3356 4.88496 50.3356H22.9381V61L30.7965 50.3356H35.2566C38.0177 50.3356 40.1416 48.2028 40.1416 45.4301V31.1398C40.354 28.3671 38.2301 26.2343 35.469 26.2343Z" fill="#E36F1E"></path><path d="M67.115 0H36.531C33.7699 0 31.646 2.13287 31.646 4.90559V19.1958C31.646 21.9685 33.7699 24.1014 36.531 24.1014H43.9646V31.5664L52.0354 24.1014H67.115C69.8761 24.1014 72 21.9685 72 19.1958V4.90559C72 2.13287 69.6637 0 67.115 0Z" fill="#E36F1E"></path><path d="M13.3807 19.6224H22.0887L25.4869 23.4616V19.6224H26.9736C28.4603 19.6224 29.5223 18.3427 29.5223 17.063V11.0909C29.5223 9.59793 28.248 8.53149 26.9736 8.53149H13.3807C12.1064 8.53149 10.832 9.59793 10.832 11.0909V16.8497C10.832 18.3427 12.1064 19.6224 13.3807 19.6224Z" fill="#E36F1E"></path></svg>