<svg xmlns="http://www.w3.org/2000/svg" width="66" height="71" viewBox="0 0 66 71" fill="none"><g clip-path="url(#clip0_658_20)"><path d="M19.8337 71C19.8337 59.1032 19.8337 47.2063 19.8125 35.3095C19.8125 34.9284 19.9395 34.6744 20.2147 34.4416C24.2577 31.0334 28.2795 27.6041 32.3013 24.1536C32.6823 23.8148 32.894 23.8572 33.2538 24.1747C37.2121 27.5829 41.1916 30.9699 45.1711 34.3569C45.5097 34.6533 45.6791 34.9496 45.6791 35.4153C45.6579 47.0793 45.6791 58.7433 45.6579 70.4073C45.6579 70.619 45.6156 70.8095 45.6156 71.0212C43.7105 71.0212 41.8266 71.0212 39.9215 71.0212C39.9215 66.4699 39.9215 61.9186 39.9215 57.3885C39.9215 56.0549 39.5194 55.6526 38.1858 55.6526C34.6297 55.6526 31.0736 55.6526 27.5174 55.6526C26.0992 55.6526 25.7182 56.0337 25.7182 57.4732C25.7182 61.7704 25.7182 66.0677 25.7182 70.3438C25.7182 70.5766 25.7394 70.8095 25.7605 71.0212C23.792 71 21.8234 71 19.8337 71ZM32.8516 45.3223C30.8831 45.3223 28.9357 45.3223 26.9671 45.3435C26.1627 45.3646 25.6547 45.915 25.6335 46.6559C25.6335 47.3968 26.1416 47.9261 26.9248 48.0107C27.1153 48.0319 27.2846 48.0107 27.4751 48.0107C31.0312 48.0107 34.5874 48.0107 38.1435 48.0107C38.3975 48.0107 38.6515 48.0107 38.9055 47.9684C39.5617 47.8626 40.0062 47.291 39.985 46.6348C39.985 45.9785 39.5194 45.4493 38.8632 45.3435C38.6303 45.3011 38.3975 45.3223 38.1646 45.3223C36.3866 45.3223 34.6085 45.3223 32.8516 45.3223Z" fill="#1C1D30"></path><path d="M48.3884 71C48.3884 61.7493 48.3884 52.5197 48.3672 43.2689C48.3672 42.7397 48.4942 42.5704 49.0445 42.5704C53.8707 42.5915 58.6969 42.5915 63.5231 42.5915C65.1741 42.5915 65.9573 43.3536 65.9573 45.0048C65.9573 53.3664 65.9573 61.7281 65.9573 70.1109C65.9573 70.4073 65.9785 70.7036 65.9785 71C60.1363 71 54.2517 71 48.3884 71ZM55.3101 62.1726C55.3101 61.6858 55.3313 61.1989 55.3101 60.712C55.2678 59.8652 54.7386 59.336 53.9766 59.336C53.2357 59.336 52.6853 59.8017 52.643 60.6273C52.5795 61.6222 52.5795 62.6172 52.643 63.5909C52.6853 64.3953 53.278 64.9034 53.9977 64.8822C54.7386 64.8611 55.2678 64.3107 55.3313 63.4639C55.3313 63.0617 55.3101 62.6172 55.3101 62.1726ZM62.0837 50.9532C62.0837 50.3181 62.0837 49.8524 62.0837 49.3867C62.0837 49.2809 62.0413 49.1538 62.0202 49.048C61.872 48.4129 61.3428 47.9896 60.7501 47.9896C60.1363 47.9896 59.5647 48.3918 59.4589 49.0268C59.2896 50.1911 59.2896 51.3766 59.4589 52.5408C59.5647 53.1971 60.1151 53.5569 60.7501 53.5569C61.3851 53.5358 61.8508 53.1547 62.0202 52.4985C62.1472 51.927 62.0413 51.3554 62.0837 50.9532ZM59.3531 62.0668C59.3531 62.5537 59.3319 63.0406 59.3531 63.5274C59.4166 64.353 59.9881 64.9034 60.729 64.9034C61.4275 64.9034 61.999 64.3742 62.0413 63.5698C62.1048 62.596 62.1048 61.6222 62.0413 60.6697C61.999 59.8229 61.4063 59.3148 60.6443 59.336C59.9246 59.3572 59.4166 59.8652 59.3531 60.6908C59.3319 61.1565 59.3531 61.6222 59.3531 62.0668ZM55.3101 50.8262C55.3101 50.3605 55.3313 49.8948 55.3101 49.4502C55.2678 48.6035 54.7386 48.0319 53.9977 48.0107C53.278 47.9896 52.6642 48.5188 52.6218 49.3655C52.5583 50.3393 52.5583 51.3131 52.6218 52.2657C52.6642 53.1124 53.2569 53.6205 54.0189 53.5781C54.7597 53.5569 55.2678 53.0066 55.3101 52.1386C55.3313 51.6941 55.3101 51.2496 55.3101 50.8262Z" fill="#1C1D30"></path><path d="M0 71C0 70.3438 0.0211674 69.7087 0.0211674 69.0525C0.0211674 61.1142 0.0211674 53.1547 0.0211674 45.2165C0.0211674 43.2689 0.719692 42.5704 2.64593 42.5704C7.21809 42.5704 11.7903 42.5704 16.3624 42.5492C16.9128 42.5492 17.1244 42.655 17.1033 43.2689C17.0821 52.3292 17.0821 61.3682 17.0821 70.4284C17.0821 70.619 17.0609 70.7883 17.0398 70.9788C11.3669 71 5.69403 71 0 71ZM3.74663 62.088C3.74663 62.5537 3.72547 63.0194 3.74663 63.4639C3.78897 64.3107 4.31815 64.8822 5.05901 64.9034C5.7787 64.9246 6.39256 64.3953 6.43489 63.5698C6.4984 62.596 6.4984 61.6222 6.43489 60.6697C6.39256 59.8229 5.82104 59.3148 5.03784 59.3572C4.29699 59.3784 3.78897 59.9287 3.74663 60.7755C3.72547 61.1989 3.74663 61.6434 3.74663 62.088ZM13.399 62.088C13.3566 61.5376 13.4413 60.9872 13.3355 60.4368C13.1873 59.7594 12.7428 59.3572 12.1078 59.336C11.4304 59.3148 10.8589 59.6747 10.753 60.3733C10.5837 61.5376 10.5837 62.723 10.753 63.8873C10.8377 64.5224 11.4516 64.9246 12.0443 64.9034C12.6581 64.8822 13.1661 64.4589 13.3143 63.8238C13.4625 63.2522 13.3778 62.6807 13.399 62.088ZM3.74663 50.7415C3.74663 51.2072 3.74663 51.6729 3.74663 52.1175C3.74663 52.1598 3.74663 52.2021 3.74663 52.2657C3.85247 53.0277 4.33932 53.5358 5.03784 53.5569C5.7787 53.5781 6.35022 53.1336 6.41373 52.308C6.47723 51.2919 6.47723 50.2758 6.41373 49.2597C6.37139 48.4764 5.73637 47.9472 5.03784 47.9896C4.33932 48.0107 3.78897 48.5611 3.74663 49.3655C3.72547 49.8312 3.74663 50.297 3.74663 50.7415ZM10.6895 50.7627C10.6895 51.2284 10.6684 51.6941 10.6895 52.1386C10.7319 52.9854 11.2399 53.5358 12.0019 53.5569C12.764 53.5781 13.3355 53.0701 13.3778 52.2233C13.4413 51.2496 13.4201 50.2758 13.3778 49.3232C13.3355 48.4976 12.7004 47.9472 12.0019 47.9896C11.2611 48.0319 10.753 48.5823 10.7107 49.429C10.6684 49.8736 10.6895 50.3181 10.6895 50.7627Z" fill="#1C1D30"></path><path d="M37.1699 71C34.2488 71 31.3488 71 28.4277 71C28.4277 66.9991 28.4489 62.9982 28.4277 58.9973C28.4277 58.4469 28.5971 58.2987 29.1263 58.2987C31.6029 58.3199 34.0794 58.3199 36.5349 58.2987C37.0852 58.2987 37.2334 58.4469 37.2334 58.9973C37.2122 62.8077 37.2122 66.6181 37.2122 70.4284C37.2122 70.6401 37.1699 70.8307 37.1699 71Z" fill="#1C1D30"></path><path d="M16.0231 34.5262C15.8115 34.5262 15.748 34.3781 15.6633 34.2934C15.0494 33.5736 14.4356 32.8327 13.8006 32.1342C13.5254 31.8166 13.5889 31.6685 13.8852 31.4144C20.0661 26.1222 26.247 20.8512 32.4067 15.5379C32.7877 15.2203 32.9782 15.2838 33.3169 15.5802C38.3124 19.8775 43.3079 24.1535 48.3246 28.4296C49.4677 29.4034 50.5895 30.3983 51.7537 31.3509C52.1348 31.6685 52.1347 31.859 51.7961 32.1977C51.1822 32.8327 50.6107 33.489 50.0603 34.1875C49.7852 34.5474 49.5947 34.5474 49.256 34.251C45.7845 31.2662 42.3131 28.3026 38.8416 25.3178C37.2541 23.9419 35.6453 22.5871 34.0578 21.2111C33.1476 20.4278 32.5972 20.4278 31.687 21.2111C26.6492 25.4872 21.6325 29.7844 16.5947 34.0605C16.383 34.2299 16.1925 34.3781 16.0231 34.5262Z" fill="#1C1D30"></path><path d="M31.6445 7.19738C31.6445 5.4192 31.6445 3.64103 31.6445 1.86285C31.6445 0.486881 32.1314 0 33.4649 0C36.7459 0 40.0268 0 43.3078 0C43.9851 0 44.5567 0.127013 44.8742 0.762075C45.1917 1.41831 44.9165 1.96869 44.5143 2.47674C43.9851 3.15414 43.4983 3.85271 42.9479 4.50894C42.7151 4.80531 42.7151 4.99583 42.9479 5.27102C43.4771 5.92725 43.9851 6.62582 44.5143 7.30322C44.9165 7.83244 45.1917 8.36166 44.8742 9.01789C44.5567 9.67412 43.964 9.80113 43.3078 9.80113C40.556 9.80113 37.8042 9.8223 35.0737 9.77996C34.5445 9.77996 34.3328 9.88581 34.3751 10.4574C34.4175 11.2406 34.3751 12.0239 34.3963 12.8071C34.4175 13.2093 34.2481 13.3363 33.8671 13.3151C33.3379 13.294 32.8087 13.2728 32.2796 13.3151C31.7927 13.3575 31.6445 13.1881 31.6445 12.7013C31.6445 10.9019 31.6445 9.03906 31.6445 7.19738Z" fill="#1C1D30"></path></g><defs><clipPath id="clip0_658_20"><rect width="66" height="71" fill="white"></rect></clipPath></defs></svg>