<svg xmlns="http://www.w3.org/2000/svg" width="70" height="45" viewBox="0 0 70 45" fill="none"><path d="M24.2907 1.42L23.2707 8.26H10.3707V18.52H21.6507V25.24H10.3707V36.04H24.1707V43H0.770703V1.42H24.2907ZM41.0227 0.399998C43.8227 0.399998 46.2827 0.859998 48.4027 1.78C50.5627 2.66 52.5227 3.98 54.2827 5.74L49.9027 10.78C47.3027 8.54 44.6427 7.42 41.9227 7.42C40.4027 7.42 39.2027 7.8 38.3227 8.56C37.4427 9.32 37.0027 10.36 37.0027 11.68C37.0027 12.56 37.2027 13.3 37.6027 13.9C38.0027 14.5 38.7027 15.08 39.7027 15.64C40.7027 16.2 42.1827 16.84 44.1427 17.56C46.7027 18.52 48.7627 19.56 50.3227 20.68C51.9227 21.76 53.1427 23.12 53.9827 24.76C54.8227 26.4 55.2427 28.44 55.2427 30.88C55.2427 33.44 54.6227 35.72 53.3827 37.72C52.1827 39.68 50.4227 41.22 48.1027 42.34C45.8227 43.46 43.1427 44.02 40.0627 44.02C34.2627 44.02 29.4427 42.06 25.6027 38.14L30.2827 32.92C31.7627 34.2 33.2427 35.18 34.7227 35.86C36.2427 36.54 37.8427 36.88 39.5227 36.88C41.3627 36.88 42.7827 36.4 43.7827 35.44C44.7827 34.48 45.2827 33.2 45.2827 31.6C45.2827 30.08 44.8227 28.86 43.9027 27.94C42.9827 27.02 41.2427 26.1 38.6827 25.18C34.5227 23.62 31.5627 21.86 29.8027 19.9C28.0427 17.94 27.1627 15.44 27.1627 12.4C27.1627 10.04 27.7627 7.96 28.9627 6.16C30.1627 4.32 31.8027 2.9 33.8827 1.9C36.0027 0.899997 38.3827 0.399998 41.0227 0.399998ZM69.316 1.42V43H59.716V1.42H69.316Z" fill="#E36F1E"></path></svg>