<svg width="45" height="45" viewBox="0 0 45 45" fill="none" xmlns="http://www.w3.org/2000/svg">
<g clip-path="url(#clip0_551_5332)">
<path d="M45.0005 23.393C44.9183 24.1567 44.8478 24.9321 44.7421 25.6958C43.9551 31.0888 41.5236 35.624 37.4829 39.2663C34.2057 42.2272 30.3529 44.0836 25.9832 44.718C19.2409 45.705 13.1915 44.0366 7.96445 39.654C3.865 36.2115 1.29256 31.8172 0.376353 26.5418C-0.821768 19.6097 0.822712 13.359 5.35678 7.96606C8.78669 3.88903 13.1915 1.38642 18.4304 0.399478C19.2761 0.234987 20.1336 0.129243 21.0028 0.0822454C21.2025 0.0704961 21.4139 0.0939948 21.6019 0C22.1892 0 22.7765 0 23.3638 0C24.0216 0.0704961 24.6794 0.117493 25.3255 0.199739C29.9417 0.810705 34.006 2.63185 37.4711 5.75718C41.5236 9.41123 43.9786 13.9582 44.7421 19.3747C44.8478 20.1266 44.9065 20.8786 45.0005 21.6305C45.0005 22.218 45.0005 22.8055 45.0005 23.393ZM22.4829 43.6136C34.0882 43.6136 43.5792 34.1201 43.5792 22.5235C43.5792 10.9151 34.0882 1.42167 22.4946 1.42167C10.8893 1.42167 1.41003 10.9034 1.39828 22.5117C1.39828 34.1201 10.8775 43.6136 22.4829 43.6136Z" fill="#E36F1E"/>
<path d="M5.09863 22.4882C5.15736 14.2285 10.8896 7.15535 18.9475 5.48694C23.8927 4.46475 28.462 5.46345 32.5967 8.36553C33.1488 8.75326 33.184 9.18799 32.7024 9.66971C31.469 10.9034 30.2357 12.1371 29.0023 13.3708C28.9201 13.453 28.7909 13.5352 28.7791 13.6292C28.7556 13.7585 28.7791 13.9347 28.8379 14.0522C28.9318 14.2285 29.0728 14.064 29.1785 14.0405C30.3179 13.735 31.3868 14.1227 31.9859 15.1332C32.1738 15.4504 32.256 15.3446 32.444 15.1684C33.3954 14.205 34.3469 13.2533 35.2983 12.3016C35.8152 11.7846 36.2145 11.8198 36.6374 12.4073C43.8731 22.4765 38.4228 36.7989 26.3124 39.4778C21.3085 40.5822 16.657 39.6423 12.4401 36.705C11.7823 36.2467 11.7588 35.8707 12.3343 35.2833C13.8614 33.7441 15.4001 32.205 16.9389 30.6893C17.1738 30.4543 17.1856 30.3016 17.0094 30.0431C16.4808 29.2324 15.9522 28.4217 15.4589 27.5875C15.2357 27.1997 15.1065 27.2702 14.848 27.5405C13.1448 29.2559 11.4299 30.9713 9.72667 32.6749C9.13935 33.2624 8.76347 33.2271 8.28188 32.5339C6.1558 29.5261 5.12213 26.1658 5.09863 22.4882ZM30.9405 23.0052C30.9405 22.4882 30.9405 21.983 30.9405 21.4661C30.9405 19.7859 30.9522 18.094 30.9405 16.4138C30.9405 15.7089 30.4589 15.3094 29.7658 15.3799C29.202 15.4386 28.8849 15.8146 28.8849 16.4843C28.8731 18.3877 28.8849 20.2911 28.8731 22.2063C28.8731 22.7232 28.5912 23.0287 28.1566 23.0287C27.722 23.0287 27.4636 22.735 27.4518 22.2063C27.4401 21.5131 27.4518 20.8316 27.4518 20.1384C27.4518 18.2585 27.4636 16.3903 27.4401 14.5104C27.4401 13.8172 27.0172 13.4178 26.3946 13.4178C25.7721 13.4178 25.3845 13.8407 25.3845 14.5339C25.3845 15.3681 25.3845 16.2023 25.3845 17.0365C25.3845 18.7402 25.3845 20.4321 25.3845 22.1358C25.3845 22.4765 25.3257 22.782 24.9851 22.9465C24.4448 23.1932 23.9867 22.829 23.9867 22.1593C23.9867 18.8225 23.9867 15.4739 23.9867 12.1371C23.9867 11.9961 23.9984 11.8433 23.9749 11.7023C23.9044 11.0091 23.2819 10.5979 22.6123 10.8094C22.0955 10.9739 21.8958 11.3146 21.8958 12.0196C21.8958 15.3211 21.8958 18.611 21.8958 21.9125C21.8958 22.077 21.9076 22.2415 21.8841 22.3943C21.8371 22.8525 21.4495 23.111 21.0031 22.9935C20.5567 22.876 20.4863 22.5352 20.4863 22.1358C20.4863 20.5731 20.4863 18.9987 20.4863 17.436C20.4863 16.3786 20.498 15.3211 20.4745 14.2755C20.4628 13.6292 20.0282 13.2533 19.3821 13.2885C18.7713 13.312 18.4189 13.7115 18.4189 14.4047C18.4189 17.0718 18.4307 19.7389 18.4072 22.406C18.4072 22.9817 18.5129 23.4869 18.83 23.9687C19.0297 24.2741 19.1824 24.3681 19.5466 24.2741C21.0853 23.8747 22.7533 24.5796 23.5286 25.9073C23.787 26.342 23.693 26.7415 23.2936 26.953C22.9177 27.1527 22.6123 27.0352 22.2952 26.6005C21.6022 25.6136 20.4745 25.2963 19.3939 25.7898C18.6421 26.1305 18.4542 26.06 18.043 25.3786C17.3618 24.2389 16.6805 23.0875 15.9757 21.9595C15.5881 21.3368 14.989 21.2076 14.4487 21.607C13.9553 21.9595 13.8731 22.4882 14.249 23.0757C16.0227 25.8838 17.7964 28.6919 19.5818 31.5C19.6993 31.688 19.8285 31.8642 19.9694 32.0287C21.4964 33.7794 23.4816 34.4138 25.7251 34.2846C28.6382 34.1083 31.0462 32.2989 30.9405 28.7741C30.8935 26.8473 30.9405 24.9204 30.9405 23.0052ZM25.408 12.1958C26.2302 11.9138 26.9937 11.9373 27.7102 12.3956C27.9217 12.5366 28.0039 12.3838 28.1096 12.2781C29.0493 11.3381 29.989 10.3864 30.9405 9.45822C31.2341 9.17624 31.1284 9.0705 30.8582 8.906C25.5019 5.81593 20.0399 5.60444 14.6484 8.62402C9.75016 11.3616 7.06026 15.6854 6.55517 21.3016C6.24977 24.7676 7.07201 27.9869 8.89268 30.9478C9.01014 31.1475 9.08062 31.3355 9.35079 31.0535C10.96 29.4321 12.581 27.8107 14.202 26.201C14.3665 26.0365 14.3782 25.9191 14.249 25.7311C13.7909 25.0379 13.3328 24.3329 12.9099 23.6162C12.2756 22.5117 12.5458 21.2663 13.5794 20.4909C14.6131 19.7154 15.87 19.7859 16.7627 20.6788C16.8214 20.7376 16.8449 20.8433 16.9976 20.8081C16.9976 20.6788 16.9976 20.5379 16.9976 20.3969C16.9976 18.376 16.9859 16.3551 16.9976 14.3342C17.0094 13.124 17.7611 12.1958 18.9123 11.9256C19.4174 11.8081 19.9224 11.8903 20.4158 12.0548C20.7329 10.1279 21.4847 9.36423 23 9.39948C24.4917 9.43472 25.1965 10.2454 25.408 12.1958ZM32.3383 23.5927C32.3383 25.5313 32.3735 27.4582 32.3265 29.3969C32.2678 31.5705 31.3516 33.3211 29.4839 34.5078C26.0305 36.7167 20.4863 35.8003 18.2662 32.0405C18.0078 31.594 17.9961 31.6057 17.6202 31.97C16.4338 33.1567 15.2474 34.3668 14.0376 35.5418C13.7556 35.8238 13.7791 35.9295 14.108 36.1292C18.3249 38.6318 22.8003 39.2076 27.4518 37.6919C33.7008 35.6475 37.906 30.1958 38.4111 23.6279C38.6695 20.2089 37.859 17.0365 36.0853 14.0992C35.8974 13.782 35.7799 13.782 35.5333 14.0405C34.5583 15.0392 33.5716 16.0144 32.5849 17.0013C32.397 17.1775 32.3383 17.3655 32.3383 17.6123C32.3383 19.5979 32.3383 21.5953 32.3383 23.5927Z" fill="#E36F1E"/>
</g>
<defs>
<clipPath id="clip0_551_5332">
<rect width="45" height="45" fill="white"/>
</clipPath>
</defs>
</svg>
