<svg xmlns="http://www.w3.org/2000/svg" width="74" height="74" viewBox="0 0 74 74" fill="none"><g clip-path="url(#clip0_537_2158)"><path d="M74.0002 18.6495C73.6452 19.4344 73.3089 20.2192 72.5803 20.7611C71.4781 21.546 70.2637 21.7142 69.0307 21.1909C67.8164 20.6677 67.0878 19.7333 66.9196 18.3879C66.7702 17.1732 66.8823 15.9399 66.8449 14.7066C66.8449 14.4263 66.901 14.1273 66.7328 13.7722C66.5086 13.9965 66.3031 14.1833 66.1163 14.3702C59.4655 21.0227 52.7959 27.694 46.1638 34.3652C45.7341 34.795 45.4539 34.8697 44.8934 34.552C41.7174 32.7394 38.5041 31.0015 35.3281 29.1889C34.8984 28.946 34.6556 28.9647 34.2632 29.2823C24.8661 36.7945 15.4877 44.2879 6.10925 51.8187C5.64219 52.1924 5.41801 52.1738 5.06305 51.7066C4.05421 50.3985 4.03553 50.4172 5.28723 49.4081C14.7964 41.8025 24.3057 34.197 33.8149 26.5541C34.3193 26.1429 34.6743 26.1056 35.2347 26.4232C38.2986 28.1798 41.4185 29.8616 44.4824 31.5995C45.0055 31.8985 45.2857 31.8238 45.678 31.4126C53.263 23.8071 60.8479 16.2202 68.4516 8.61466C68.6571 8.4091 68.8065 8.16618 68.9934 7.92325C69.311 8.24092 69.1989 8.48385 69.1989 8.70809C69.1989 11.6232 69.1989 14.5384 69.1989 17.4536C69.1989 17.7712 69.1802 18.0889 69.311 18.3692C69.5538 18.8924 69.9648 19.1354 70.5253 19.0606C71.0484 18.9859 71.4034 18.6869 71.5154 18.145C71.5528 17.8833 71.5715 17.6217 71.5715 17.3601C71.5715 12.6323 71.5715 7.92325 71.5902 3.19547C71.5902 2.5788 71.4594 2.37325 70.8055 2.37325C66.0603 2.41062 61.315 2.39193 56.5697 2.39193C56.3455 2.39193 56.14 2.39193 55.9159 2.42931C55.262 2.52274 54.9257 2.91516 54.907 3.55052C54.8883 4.18587 55.2433 4.59698 55.8598 4.72779C56.084 4.78385 56.3455 4.76517 56.5697 4.76517C59.8391 4.76517 63.1272 4.76517 66.3965 4.76517C66.6207 4.76517 66.8636 4.76517 67.1251 4.76517C67.0504 5.12022 66.8076 5.25102 66.6207 5.41921C59.3907 12.7071 52.1234 19.9763 44.856 27.2642C44.4077 27.7126 44.1461 27.6753 43.6791 27.3763C40.9141 25.6197 38.1305 23.9192 35.3655 22.144C34.8424 21.8076 34.5248 21.845 34.0577 22.2187C23.5584 30.4783 13.0403 38.7379 2.55964 46.9975C2.0739 47.3899 1.84972 47.4086 1.45739 46.8854C0.485918 45.5773 0.467236 45.596 1.7563 44.5869C6.81917 40.6066 11.8633 36.645 16.9262 32.6647C17.113 32.5152 17.2999 32.3657 17.6175 32.1041C12.4612 32.6086 8.05219 31.1884 4.52126 27.5818C0.952972 23.9753 -0.522918 19.5465 0.187004 14.501C1.38266 6.12931 9.22916 0.149508 17.4867 1.34547C22.4001 2.05557 26.2112 4.50355 28.7894 8.76416C31.3675 13.0248 31.6291 17.547 29.985 22.4243C31.3862 21.3217 32.6566 20.3687 33.8709 19.3596C34.3567 18.9485 34.7116 18.9298 35.2347 19.2849C37.9623 21.0414 40.7273 22.7419 43.4922 24.4611C43.7911 24.648 43.9966 24.7788 44.3329 24.4424C49.9563 18.799 55.5983 13.1556 61.2216 7.53082C61.2776 7.47476 61.315 7.4187 61.3524 7.34395C61.1469 7.10102 60.8666 7.21314 60.6238 7.21314C59.0171 7.17577 57.3918 7.25052 55.7851 7.1384C53.8235 7.00759 52.4223 5.36314 52.497 3.51314C52.5904 1.56971 54.085 0.0747603 56.0653 0.0560734C59.4281 0.0186997 62.8096 0.0373866 66.1724 0.0373866C68.7692 0.0373866 71.366 0.0373866 73.9628 0.0373866C74.0002 6.22274 74.0002 12.4455 74.0002 18.6495ZM2.41018 16.7061C2.3915 23.9192 8.20165 29.7682 15.469 29.8243C22.6803 29.8803 28.6212 23.994 28.6399 16.7248C28.6586 9.49294 22.8111 3.64395 15.5811 3.58789C8.33242 3.56921 2.42886 9.43688 2.41018 16.7061Z" fill="#E36F1E"></path><path d="M47.6953 74.0001C47.714 70.9355 47.7327 67.8895 47.7327 64.8249C47.7327 60.9006 47.714 56.9764 47.714 53.0521C47.714 48.3804 47.7514 43.7087 47.714 39.037C47.714 38.3456 47.8821 38.1587 48.5921 38.1587C55.2055 38.1961 61.8377 38.1774 68.4512 38.1587C69.0864 38.1587 69.2545 38.3082 69.2545 38.9435C69.2358 50.6228 69.2358 62.3021 69.2358 73.9814C62.0432 74.0001 54.8693 74.0001 47.6953 74.0001ZM58.3815 52.4728C60.642 52.4728 62.9026 52.4728 65.1631 52.4728C66.8258 52.4728 66.8072 52.4728 66.8258 50.8284C66.8445 50.2304 66.6203 50.1183 66.0786 50.1183C64.4158 50.137 64.4532 50.1183 64.4158 48.4178C64.3972 47.8198 64.6027 47.7077 65.1444 47.7077C66.8072 47.7264 66.7885 47.7077 66.8072 46.0819C66.8072 45.5026 66.639 45.3718 66.0786 45.3718C61.3146 45.3905 56.5507 45.3905 51.7867 45.3905C50.0866 45.3905 50.124 45.3905 50.1053 47.0723C50.1053 47.6142 50.2548 47.7637 50.7965 47.7451C53.9725 47.7264 57.1485 47.7264 60.3244 47.7264C62.0619 47.7264 62.0432 47.7264 62.0432 49.4829C62.0432 50.0435 61.8564 50.1557 61.3333 50.1557C58.1386 50.137 54.9253 50.137 51.7307 50.137C50.1053 50.137 50.124 50.137 50.1053 51.8001C50.1053 52.342 50.2361 52.4915 50.7779 52.4728C53.3373 52.4541 55.8594 52.4728 58.3815 52.4728ZM58.4562 42.9425C60.7168 42.9425 62.9773 42.9425 65.2379 42.9425C66.8445 42.9425 66.8072 42.9425 66.8258 41.2981C66.8258 40.7188 66.6577 40.588 66.0972 40.588C61.3333 40.6067 56.5693 40.6067 51.8054 40.6067C50.0866 40.6067 50.1053 40.6067 50.1053 42.3632C50.1053 42.8304 50.2361 42.9612 50.7218 42.9612C53.3 42.9238 55.8781 42.9425 58.4562 42.9425ZM58.531 54.9208C56.2704 54.9208 54.0099 54.9208 51.7493 54.9208C50.124 54.9208 50.1614 54.9208 50.124 56.5092C50.1053 57.1259 50.2921 57.2567 50.89 57.2567C55.6539 57.238 60.4179 57.238 65.1631 57.238C66.8632 57.238 66.8445 57.238 66.8445 55.5375C66.8445 55.0142 66.6764 54.9021 66.1906 54.9021C63.6312 54.9395 61.0717 54.9208 58.531 54.9208ZM58.4562 62.0218C60.7168 62.0218 62.9773 62.0218 65.2379 62.0218C66.8445 62.0218 66.8072 62.0218 66.8445 60.3961C66.8445 59.8168 66.6764 59.686 66.1159 59.686C61.3333 59.7046 56.5507 59.7046 51.768 59.7046C50.1427 59.7046 50.1614 59.7046 50.1427 61.3678C50.1427 61.9097 50.2921 62.0592 50.8339 62.0405C53.356 62.0031 55.8968 62.0218 58.4562 62.0218ZM58.531 64.4698C56.2704 64.4698 54.0099 64.4698 51.7493 64.4698C50.124 64.4698 50.1614 64.4698 50.124 66.0582C50.1053 66.6562 50.2921 66.8057 50.8713 66.8057C55.6352 66.787 60.3992 66.787 65.1631 66.787C66.8632 66.787 66.8258 66.787 66.8258 65.0865C66.8258 64.5632 66.6577 64.4511 66.172 64.4511C63.6312 64.4698 61.0717 64.4698 58.531 64.4698ZM58.4562 69.235C56.2144 69.235 53.9912 69.235 51.7493 69.235C50.1427 69.235 50.1614 69.235 50.124 70.8233C50.1053 71.4587 50.2921 71.6269 50.9273 71.6269C55.6726 71.6082 60.3992 71.6082 65.1444 71.6082C66.8819 71.6082 66.8445 71.6082 66.8445 69.8516C66.8445 69.3284 66.6764 69.2163 66.1906 69.2163C63.5938 69.2536 61.0344 69.235 58.4562 69.235Z" fill="#E36F1E"></path><path d="M23.8569 73.9999C23.8569 67.6464 23.8569 61.2929 23.8569 54.9393C23.8569 52.7156 23.8756 50.5105 23.8569 48.2868C23.8569 47.8383 24.0064 47.7075 24.4361 47.7075C31.2177 47.7262 38.018 47.7262 44.7996 47.7075C45.2293 47.7075 45.3788 47.8383 45.3788 48.2868C45.3601 53.6873 45.3788 59.0691 45.3788 64.4696C45.3788 67.6464 45.3788 70.8232 45.3974 73.9999C38.2048 73.9999 31.0309 73.9999 23.8569 73.9999ZM34.6179 71.608C36.841 71.608 39.0455 71.608 41.2687 71.608C42.9874 71.608 42.9688 71.608 42.9688 69.8515C42.9688 69.3469 42.8193 69.2161 42.3149 69.2161C39.1202 69.2348 35.9069 69.2348 32.7123 69.2348C31.0309 69.2348 31.0496 69.2348 31.0309 67.553C31.0309 66.9737 31.199 66.8242 31.7595 66.8242C34.9354 66.8429 38.1114 66.8429 41.2874 66.8429C42.9501 66.8429 42.9314 66.8429 42.9688 65.1984C42.9874 64.5818 42.7819 64.4509 42.2028 64.4509C37.4389 64.4696 32.6749 64.4696 27.911 64.4696C26.2669 64.4696 26.2856 64.4696 26.2669 66.1141C26.2669 66.6747 26.4164 66.8429 26.9769 66.8429C28.6396 66.8242 28.6209 66.8429 28.6396 68.5434C28.6582 69.1414 28.4341 69.2535 27.911 69.2348C26.2669 69.2161 26.2856 69.2348 26.2482 70.8605C26.2296 71.4772 26.4538 71.608 27.0329 71.608C29.5737 71.5893 32.0958 71.608 34.6179 71.608ZM34.6179 52.4727C36.8784 52.4727 39.1389 52.4727 41.3995 52.4727C42.9688 52.4727 42.9127 52.4727 42.9688 50.8843C42.9874 50.1929 42.7259 50.1181 42.1468 50.1181C37.4015 50.1368 32.6749 50.1368 27.9296 50.1368C26.2482 50.1368 26.2669 50.1368 26.2482 51.8373C26.2482 52.4166 26.4538 52.4914 26.9582 52.4914C29.5176 52.4727 32.0771 52.4727 34.6179 52.4727ZM34.5431 57.2565C36.8223 57.2565 39.1016 57.2565 41.3995 57.2565C42.9688 57.2565 42.9314 57.2565 42.9688 55.6868C42.9874 55.1075 42.838 54.9206 42.2215 54.9206C37.4575 54.9393 32.7123 54.9393 27.9483 54.9393C26.2482 54.9393 26.2856 54.9393 26.2669 56.6212C26.2669 57.2004 26.4724 57.2752 26.9769 57.2752C29.4989 57.2378 32.021 57.2565 34.5431 57.2565ZM34.5805 62.0217C36.841 62.0217 39.1016 62.0217 41.3621 62.0217C42.9688 62.0217 42.9501 62.0217 42.9875 60.4146C43.0061 59.7792 42.7819 59.6858 42.2215 59.6858C37.4575 59.7045 32.6936 59.7045 27.9483 59.7045C26.2856 59.7045 26.323 59.7045 26.2856 61.3489C26.2669 61.9469 26.4911 62.059 27.0329 62.0403C29.5176 62.003 32.0397 62.0217 34.5805 62.0217Z" fill="#E36F1E"></path><path d="M0.0186822 74C0.0186822 68.6743 0.0186822 63.3485 0 58.0228C0 57.4435 0.130775 57.2566 0.747286 57.2566C7.41681 57.2753 14.0863 57.2753 20.7559 57.2566C21.3724 57.2566 21.5218 57.4435 21.5218 58.0228C21.5032 63.0495 21.5032 68.095 21.5032 73.1217C21.5032 73.402 21.5218 73.701 21.5405 73.9813C14.3666 74 7.19263 74 0.0186822 74ZM10.7609 62.0217C13.0215 62.0217 15.282 62.0217 17.5425 62.0217C19.0932 62.0217 19.0558 62.0217 19.1118 60.4334C19.1305 59.7419 18.8877 59.6672 18.2898 59.6672C13.5446 59.6859 8.81798 59.6859 4.07271 59.6859C2.37263 59.6859 2.39132 59.6859 2.37263 61.3677C2.37263 61.947 2.59682 62.0217 3.08255 62.0217C5.66069 62.0031 8.20146 62.0217 10.7609 62.0217ZM10.7422 66.7869C12.9841 66.7869 15.2073 66.7869 17.4491 66.7869C19.1118 66.7869 19.0745 66.7869 19.1118 65.1424C19.1305 64.5632 18.9437 64.4323 18.3832 64.4323C13.6006 64.4697 8.81798 64.4697 4.03534 64.4697C2.39132 64.4697 2.41 64.4697 2.39132 66.1328C2.39132 66.6935 2.55945 66.8056 3.08255 66.8056C5.64201 66.7869 8.18278 66.7869 10.7422 66.7869ZM10.7796 71.6081C12.9841 71.6081 15.2073 71.6081 17.4118 71.6081C19.0932 71.6081 19.0745 71.6081 19.0932 69.9076C19.1118 69.3096 18.8877 69.2162 18.3646 69.2162C13.6006 69.2349 8.83666 69.2349 4.07271 69.2349C2.33527 69.2349 2.35395 69.2349 2.37263 70.9727C2.37263 71.496 2.55945 71.6081 3.04519 71.6081C5.64201 71.6081 8.22015 71.6081 10.7796 71.6081Z" fill="#E36F1E"></path><path d="M11.9939 20.2752C12.2181 20.2752 12.4236 20.2939 12.6477 20.2752C13.0027 20.2379 13.1148 20.3873 13.2082 20.7424C13.5071 22.0505 14.6467 22.854 15.8611 22.6485C17.0567 22.4616 17.9535 21.4151 17.9161 20.2379C17.8787 18.9858 16.9446 18.0328 15.5995 17.9207C12.7972 17.6778 11.1158 16.1267 10.7982 13.548C10.5553 11.5111 11.8257 9.45553 13.8247 8.70805C14.2544 8.53987 14.3852 8.33432 14.3291 7.92321C14.3291 7.84846 14.3291 7.77371 14.3291 7.69896C14.3291 5.83028 14.3291 5.84896 16.2347 5.9424C16.6084 5.96108 16.7578 6.07321 16.7391 6.44694C16.7205 6.95149 16.7578 7.45603 16.7205 7.96058C16.7018 8.353 16.8139 8.53987 17.2062 8.68937C18.9249 9.38078 19.9338 10.6702 20.2327 12.5015C20.3074 12.9313 20.214 13.2116 19.6909 13.1368C19.5788 13.1182 19.448 13.1368 19.336 13.1368C18.5513 13.1742 17.8787 13.2863 17.6172 12.1278C17.3556 11.0252 16.0292 10.5394 14.9083 10.8197C13.806 11.1 13.0774 12.1464 13.1708 13.3237C13.2456 14.4262 14.1236 15.3606 15.2632 15.454C17.1501 15.5848 18.7194 16.2389 19.6909 17.9767C21.0921 20.4995 19.9711 23.6389 17.2996 24.6853C16.8512 24.8535 16.7018 25.0591 16.7391 25.5076C16.7765 26.0121 16.7391 26.5166 16.7578 27.0212C16.7578 27.3389 16.6457 27.4697 16.3281 27.4323C16.3094 27.4323 16.2721 27.4323 16.2534 27.4323C14.3478 27.5444 14.3291 27.5444 14.3478 25.6197C14.3478 25.0964 14.2544 24.8535 13.7126 24.6293C12.106 23.9752 11.1719 22.7232 10.8543 21.004C10.7422 20.4247 10.8729 20.1257 11.5268 20.2379C11.6576 20.3126 11.8257 20.2752 11.9939 20.2752Z" fill="#E36F1E"></path><path d="M25.0339 17.9208C23.8569 17.9208 23.8569 17.9208 23.8569 16.7435C23.8569 15.5101 23.8569 15.5101 25.1273 15.5101C25.2955 15.5101 25.4636 15.5288 25.6317 15.5101C26.1362 15.4354 26.3417 15.6596 26.2669 16.1642C26.2482 16.3324 26.2669 16.5005 26.2669 16.6687C26.2856 17.9208 26.2856 17.9208 25.0339 17.9208Z" fill="#E36F1E"></path><path d="M5.94101 17.9207C4.78271 17.9207 4.78271 17.9207 4.78271 16.7435C4.78271 15.5101 4.78271 15.5101 5.97837 15.5101C6.16519 15.5101 6.3707 15.5288 6.55752 15.5101C7.08062 15.4354 7.24876 15.6783 7.19271 16.1642C7.17403 16.3324 7.19271 16.5005 7.19271 16.6687C7.17403 17.9207 7.17403 17.9207 5.94101 17.9207Z" fill="#E36F1E"></path></g><defs><clipPath id="clip0_537_2158"><rect width="74" height="74" fill="white"></rect></clipPath></defs></svg>