<svg xmlns="http://www.w3.org/2000/svg" width="73" height="73" viewBox="0 0 73 73" fill="none"><g clip-path="url(#clip0_537_2134)"><path d="M36.3762 12.1255C36.1287 12.1255 36.1287 12.1255 36.1287 12.3729C36.1287 12.3729 36.1287 12.6204 35.8813 12.6204L29.6948 36.3763V36.6238L36.1287 60.6272C36.1287 60.8746 36.3762 60.8746 36.6236 60.8746C36.8711 60.8746 36.8711 60.8746 36.8711 60.6272C36.8711 60.6272 36.8711 60.3797 37.1186 60.3797L43.5525 36.3763V36.1289L36.8711 12.3729C36.8711 12.1255 36.6236 12.1255 36.3762 12.1255ZM36.3762 22.0238L39.5931 33.9018H33.1592L36.3762 22.0238Z" fill="#E36F1E"></path><path d="M9.15593 36.3762C9.15593 28.9525 12.1254 22.2711 17.0746 17.0745C22.2712 11.8779 29.2 9.15588 36.3763 9.15588C43.8 9.15588 50.4814 12.1254 55.678 17.0745C60.8746 22.2711 63.5966 29.1999 63.5966 36.3762C63.5966 43.7999 60.6271 50.4813 55.678 55.6779C50.4814 60.8745 43.5525 63.5966 36.3763 63.5966C28.9525 63.5966 22.2712 60.6271 17.0746 55.6779C11.878 50.7288 9.15593 43.7999 9.15593 36.3762ZM0 36.3762C0 45.7796 3.46441 54.9355 10.6407 62.1118C24.9932 76.4644 48.0068 76.4644 62.1119 62.1118C69.2881 54.9355 72.7525 45.7796 72.7525 36.3762C72.7525 26.9728 69.2881 17.8169 62.1119 10.6406C47.7593 -3.71191 24.7458 -3.71191 10.6407 10.6406C3.46441 17.8169 0 27.2203 0 36.3762Z" fill="#E36F1E"></path><path d="M36.3762 12.1255C36.1287 12.1255 36.1287 12.1255 36.1287 12.3729C36.1287 12.3729 36.1287 12.6204 35.8813 12.6204L29.6948 36.3763V36.6238L36.1287 60.6272C36.1287 60.8746 36.3762 60.8746 36.6236 60.8746C36.8711 60.8746 36.8711 60.8746 36.8711 60.6272C36.8711 60.6272 36.8711 60.3797 37.1186 60.3797L43.5525 36.3763V36.1289L36.8711 12.3729C36.8711 12.1255 36.6236 12.1255 36.3762 12.1255ZM36.3762 22.0238L39.5931 33.9018H33.1592L36.3762 22.0238Z" fill="#E36F1E"></path><path d="M9.15593 36.3762C9.15593 28.9525 12.1254 22.2711 17.0746 17.0745C22.2712 11.8779 29.2 9.15588 36.3763 9.15588C43.8 9.15588 50.4814 12.1254 55.678 17.0745C60.8746 22.2711 63.5966 29.1999 63.5966 36.3762C63.5966 43.7999 60.6271 50.4813 55.678 55.6779C50.4814 60.8745 43.5525 63.5966 36.3763 63.5966C28.9525 63.5966 22.2712 60.6271 17.0746 55.6779C11.878 50.7288 9.15593 43.7999 9.15593 36.3762ZM0 36.3762C0 45.7796 3.46441 54.9355 10.6407 62.1118C24.9932 76.4644 48.0068 76.4644 62.1119 62.1118C69.2881 54.9355 72.7525 45.7796 72.7525 36.3762C72.7525 26.9728 69.2881 17.8169 62.1119 10.6406C47.7593 -3.71191 24.7458 -3.71191 10.6407 10.6406C3.46441 17.8169 0 27.2203 0 36.3762Z" fill="#E36F1E"></path><path d="M56.9151 37.8611H50.4812C49.4914 37.8611 48.749 37.1188 48.749 36.1289C48.749 35.1391 49.4914 34.3967 50.4812 34.3967H56.9151C57.905 34.3967 58.6473 35.1391 58.6473 36.1289C58.6473 37.1188 57.905 37.8611 56.9151 37.8611Z" fill="#E36F1E"></path><path d="M21.5286 37.8611H15.5896C14.5998 37.8611 13.8574 37.1188 13.8574 36.1289C13.8574 35.1391 14.5998 34.3967 15.5896 34.3967H21.5286C22.5184 34.3967 23.2608 35.1391 23.2608 36.1289C23.0134 37.1188 22.271 37.8611 21.5286 37.8611Z" fill="#E36F1E"></path><path d="M50.9763 52.461C50.4813 52.461 50.2339 52.2135 49.739 51.9661L46.2746 48.5017C45.5322 47.7593 45.5322 46.7695 46.2746 46.2746C47.0169 45.5322 48.0068 45.5322 48.5017 46.2746L51.9661 49.739C52.7085 50.4813 52.7085 51.4712 51.9661 51.9661C51.7186 52.461 51.2237 52.461 50.9763 52.461Z" fill="#E36F1E"></path><path d="M24.746 26.2305C24.2511 26.2305 24.0036 25.983 23.5087 25.7356L20.5392 22.7661C19.7968 22.0237 19.7968 21.0339 20.5392 20.539C21.0341 19.7966 22.0239 19.7966 22.7663 20.539L25.7358 23.5084C26.4782 24.2508 26.4782 25.2407 25.7358 25.7356C25.4884 26.2305 25.2409 26.2305 24.746 26.2305Z" fill="#E36F1E"></path><path d="M21.5289 52.461C21.034 52.461 20.7866 52.2135 20.2916 51.966C19.5493 51.2237 19.5493 50.2338 20.2916 49.7389L23.2611 46.7694C24.0035 46.0271 24.9933 46.0271 25.4883 46.7694C26.2306 47.5118 26.2306 48.5016 25.4883 48.9965L22.7662 51.966C22.5188 52.461 22.0238 52.461 21.5289 52.461Z" fill="#E36F1E"></path><path d="M47.5118 26.7254C47.0169 26.7254 46.7695 26.4779 46.2746 26.2305C45.5322 25.4881 45.5322 24.4983 46.2746 24.0034L49.739 20.539C50.4813 19.7966 51.4712 19.7966 51.9661 20.539C52.7085 21.2813 52.7085 22.2712 51.9661 22.7661L48.5017 26.2305C48.2542 26.4779 47.7593 26.7254 47.5118 26.7254Z" fill="#E36F1E"></path></g><defs><clipPath id="clip0_537_2134"><rect width="73" height="73" fill="white"></rect></clipPath></defs></svg>