<svg width="42" height="29" viewBox="0 0 42 29" fill="none" xmlns="http://www.w3.org/2000/svg">
<g clip-path="url(#clip0_550_5328)">
<path d="M39.3502 1.55357C39.3502 1.4241 39.3502 1.4241 39.3502 1.4241C39.3502 1.29464 38.9527 1.16518 38.4227 1.03571C38.0252 0.906247 30.2082 -0.776789 25.4385 0.647318C23.4511 1.16518 21.9937 1.94196 20.9338 2.84821C20.0063 1.94196 18.4164 1.29464 16.429 0.647318C11.6593 -0.776789 5.82965 0.517854 5.82965 0.517854C4.63722 0.776783 2.64984 1.16518 2.64984 1.16518V1.29464L0 1.55357C0 1.55357 0 2.58928 0 3.88393V26.4107C0 27.7054 0 28.6116 0 28.6116C4.23975 27.8348 15.5016 25.1161 16.959 27.317C17.6214 27.7054 17.7539 28.7411 17.7539 28.8705C17.7539 29 17.8864 28.8705 18.1514 28.8705C18.2839 28.8705 19.4763 28.8705 20.8013 28.8705H21.8612C23.1861 28.8705 24.3785 28.8705 24.3785 28.8705C24.3785 28.8705 24.511 27.7054 25.1735 27.317C26.8959 24.7277 42.1325 28.7411 42.1325 28.7411V26.4107V1.55357H39.3502ZM19.6088 26.0223C19.3438 26.1518 19.0789 26.1518 18.8139 26.0223C18.8139 26.0223 17.224 24.3393 13.1167 24.4687C10.2019 24.4687 4.90221 26.0223 4.90221 26.0223C3.70978 26.4107 2.11987 26.6696 1.98738 26.7991C1.85489 26.7991 1.98738 25.8929 1.98738 24.5982V4.01339C1.98738 3.75446 2.25237 3.49553 2.51735 3.49553C2.91483 3.49553 3.04732 3.88393 3.04732 3.88393C3.04732 3.88393 3.04732 4.91964 3.04732 6.21428V25.375C4.90221 24.8571 10.4669 23.433 13.1167 23.3036C17.7539 23.1741 19.6088 25.1161 19.6088 25.2455C19.7413 25.5045 19.7413 25.8929 19.6088 26.0223ZM20.5363 21.6205V23.8214C20.5363 23.8214 18.0189 21.8795 14.7066 21.8795C11.3943 21.6205 6.6246 22.7857 4.76972 23.3036C4.76972 22.0089 4.63722 3.36607 4.63722 2.58928C6.22713 2.20089 12.4543 1.16518 16.164 2.20089C19.8738 3.2366 20.4038 4.53125 20.5363 4.79018V21.6205ZM21.5962 23.9509V21.75C21.8612 21.2321 23.5836 19.1607 27.6908 19.1607C31.9306 19.1607 35.1104 20.067 35.1104 20.067C35.3754 20.1964 35.6404 19.9375 35.7729 19.6786C35.9054 19.4196 35.6404 19.1607 35.3754 19.0312C35.2429 19.0312 32.1956 18.125 27.6908 18.125C24.776 18.125 22.7886 19.1607 21.7287 20.1964V18.3839C21.8612 17.9955 23.8486 15.6652 27.9558 15.6652C32.0631 15.6652 35.2429 16.442 35.2429 16.442C35.5079 16.5714 35.7729 16.3125 35.9054 16.0536C36.0379 15.7946 35.7729 15.5357 35.5079 15.4062C35.3754 15.4062 32.1956 14.5 27.9558 14.6295C25.041 14.6295 22.9211 15.7946 21.7287 16.8304V15.0179C21.9937 14.6295 23.9811 12.2991 27.9558 12.1696C31.9306 12.0402 35.1104 12.817 35.1104 12.817C35.3754 12.9464 35.6404 12.6875 35.7729 12.4286C35.9054 12.1696 35.6404 11.9107 35.3754 11.7812C35.2429 11.7812 32.0631 11.0045 27.9558 11.0045C24.9085 11.1339 22.7886 12.2991 21.7287 13.3348V11.6518C21.8612 11.5223 23.9811 8.93303 28.0883 8.6741C31.9306 8.54464 35.1104 9.32142 35.1104 9.32142C35.3754 9.32142 35.6404 9.19196 35.7729 8.93303C35.7729 8.6741 35.6404 8.41518 35.3754 8.28571C35.2429 8.28571 31.9306 7.50893 28.0883 7.63839C25.041 7.76785 22.9211 9.0625 21.7287 10.0982V8.28571C21.7287 8.28571 24.1136 5.4375 28.2208 5.17857C31.7981 5.0491 35.1104 5.69643 35.2429 5.69643C35.5079 5.69643 35.7729 5.56696 35.9054 5.30803C35.9054 5.0491 35.7729 4.79018 35.5079 4.66071C35.3754 4.66071 32.0631 3.88393 28.2208 4.14285C25.041 4.27232 22.7886 5.82589 21.7287 6.8616V4.79018C21.7287 4.79018 22.3912 3.36607 26.1009 2.20089C29.8107 1.16518 36.0379 2.20089 37.6278 2.58928C37.6278 3.36607 37.4953 22.0089 37.4953 23.3036C35.5079 22.7857 30.0757 21.6205 26.7634 21.75C24.1136 22.0089 21.5962 23.9509 21.5962 23.9509ZM40.1451 24.4687V26.5402C40.1451 26.5402 31.9306 24.3393 29.0158 24.3393C24.9085 24.2098 23.3186 25.8929 23.3186 25.8929C23.1861 26.1518 22.7886 26.1518 22.5237 25.8929C22.2587 25.7634 22.2587 25.375 22.5237 25.1161C22.6561 24.9866 24.3785 23.0446 29.0158 23.1741C31.6656 23.1741 39.0852 24.9866 39.0852 24.9866V4.01339C39.0852 3.75446 39.3502 3.49553 39.6151 3.49553C39.8801 3.49553 40.1451 3.75446 40.1451 4.01339V24.4687V24.4687Z" fill="#E36F1E"/>
</g>
<defs>
<clipPath id="clip0_550_5328">
<rect width="42" height="29" fill="white"/>
</clipPath>
</defs>
</svg>
