<svg xmlns="http://www.w3.org/2000/svg" width="64" height="64" viewBox="0 0 64 64" fill="none"><g clip-path="url(#clip0_658_27)"><path d="M37.9923 43.7895L35.7308 39.7474C34.3739 40.6456 32.7909 41.5439 31.6602 42.4421C34.1478 44.014 36.4093 44.4632 37.9923 43.7895Z" fill="#1C1D30"></path><path d="M41.1582 37.2772C39.8013 37.7263 38.2182 38.4 36.8613 39.2982L39.1228 43.1158C40.4797 42.2175 41.1582 39.9719 41.1582 37.2772Z" fill="#1C1D30"></path><path d="M29.8503 41.3193C30.0764 41.5439 30.5287 41.7684 30.7549 41.993C32.1118 40.8702 33.6948 39.9719 35.2778 39.0737L31.6595 32.3368C29.398 33.6842 26.9103 35.0316 24.875 36.3789C26.458 38.4 28.0411 39.9719 29.8503 41.3193Z" fill="#1C1D30"></path><path d="M32.5645 31.8877L36.1828 38.4C37.7659 37.5017 39.3489 36.8281 41.1581 36.1544C41.1581 33.6842 40.4796 30.9895 39.5751 28.0702C37.3136 29.4175 34.8259 30.5403 32.5645 31.8877Z" fill="#1C1D30"></path><path d="M25.3281 6.06315C27.3635 7.41052 29.3988 9.43157 31.4341 11.6772C33.6956 10.3298 35.731 8.75789 37.5401 7.63508C35.731 6.28771 33.6956 5.16491 31.4341 4.26666C30.3034 3.81754 29.3988 3.59298 28.2681 3.36842C27.3635 4.26666 26.4589 5.16491 25.3281 6.06315Z" fill="#1C1D30"></path><path d="M29.3996 1.79649C29.3996 2.02105 29.3996 2.02105 29.3996 1.79649C29.1734 2.24561 29.1734 2.24561 28.9473 2.47017C29.8519 2.69473 30.7565 2.91929 31.661 3.36842C33.9225 4.26666 36.184 5.38947 38.2193 6.9614C38.8978 6.51228 39.5762 6.06315 40.0285 5.61403C36.8625 3.36842 33.2441 2.24561 29.3996 1.79649Z" fill="#1C1D30"></path><path d="M38.2189 8.30877C36.4097 9.65613 34.1482 11.0035 31.8867 12.5754C33.4698 14.3719 34.8266 16.6175 36.1835 18.8632L43.6464 14.821C42.2895 12.3509 40.4804 10.1053 38.2189 8.30877Z" fill="#1C1D30"></path><path d="M44.3242 15.7193L36.8613 19.7614C38.2182 22.2316 39.349 24.4772 40.0274 26.7228C42.515 25.6 44.7765 24.4772 46.8119 23.5789C46.5857 20.8842 45.6811 18.1895 44.3242 15.7193Z" fill="#1C1D30"></path><path d="M30.9812 31.4386L27.3629 25.1509L19.6738 29.4175C21.0307 31.6632 22.3876 33.9088 23.9706 35.7053C26.2321 34.1333 28.7198 32.786 30.9812 31.4386Z" fill="#1C1D30"></path><path d="M26.9118 24.2526L23.2934 17.9649C20.8058 19.0877 18.5443 20.4351 16.0566 21.5579C16.9612 23.8035 17.8658 26.0491 19.2227 28.5193L26.9118 24.2526Z" fill="#1C1D30"></path><path d="M39.1227 27.1719C38.2181 24.9263 37.3135 22.6807 35.9566 20.2105L28.2676 24.4772L31.886 30.9895C34.3736 29.6421 36.8612 28.2947 39.1227 27.1719Z" fill="#1C1D30"></path><path d="M24.4234 6.73684C23.0665 7.85965 21.4834 8.75789 19.9004 9.65614L23.7449 16.1684C26.0064 14.821 28.494 13.4737 30.5294 12.1263C28.494 10.1053 26.4587 8.08421 24.4234 6.73684Z" fill="#1C1D30"></path><path d="M7.23609 25.6C6.55765 25.8246 5.65305 26.2737 4.97461 26.4982C5.20076 29.4175 6.10535 32.3368 7.46224 35.0316L10.176 33.6842C8.81913 30.9895 7.68839 28.2947 7.23609 25.6Z" fill="#1C1D30"></path><path d="M24.1973 17.2912L27.8156 23.5789L35.5047 19.3123C34.1478 17.0667 32.7909 14.821 31.2079 13.0246C28.9464 14.5965 26.6849 15.9439 24.1973 17.2912Z" fill="#1C1D30"></path><path d="M15.8291 20.6596C18.0906 19.5368 20.3521 18.1895 22.8397 17.0667L18.9952 10.3298C17.4122 11.0035 15.8291 11.9017 14.2461 12.3509C14.2461 12.8 14.2461 13.2491 14.2461 13.6982C14.4722 15.9439 14.9245 18.1895 15.8291 20.6596Z" fill="#1C1D30"></path><path d="M17.1875 4.94034L19.449 8.98245C20.8059 8.0842 22.3889 7.18596 23.5197 6.28771C21.032 4.71578 18.7705 4.26666 17.1875 4.94034Z" fill="#1C1D30"></path><path d="M14.0215 11.4526C15.3784 11.0035 16.9614 10.3298 18.3183 9.43157L16.0568 5.61403C14.9261 6.51227 14.2476 8.53333 14.0215 11.4526Z" fill="#1C1D30"></path><path d="M15.1504 43.1158C18.3165 45.1368 21.9348 46.4842 25.7794 46.7088C26.0055 46.4842 26.0055 46.2596 26.2317 46.0351C23.0656 45.3614 19.6734 43.7895 16.9596 41.5439C16.2811 42.2175 15.6027 42.6667 15.1504 43.1158Z" fill="#1C1D30"></path><path d="M40.9322 6.28771C40.4799 6.73683 39.8015 7.18596 39.123 7.63508C41.1584 9.43157 43.1937 11.6772 44.5506 14.1474L47.0382 12.8C45.4552 10.1053 43.4199 7.85964 40.9322 6.28771Z" fill="#1C1D30"></path><path d="M50.2038 22.4561C50.2038 19.5368 49.2992 16.393 47.7161 13.6982L45.2285 15.0456C46.5854 17.7403 47.49 20.4351 48.1684 23.1298C48.6207 22.9053 49.5253 22.6807 50.2038 22.4561Z" fill="#1C1D30"></path><path d="M47.0384 24.7017C45.003 25.6 42.7415 26.4982 40.2539 27.621C41.1585 30.5403 41.8369 33.2351 42.0631 35.7053C43.42 35.2561 44.5507 35.0316 45.6815 34.807C46.1338 33.6842 46.3599 32.5614 46.5861 31.4386C47.2645 29.193 47.4907 26.9474 47.0384 24.7017Z" fill="#1C1D30"></path><path d="M27.8149 2.24561C28.0411 2.02105 28.0411 2.02105 28.2672 1.79649C27.1365 1.79649 26.0057 1.79649 24.875 2.02105C25.7796 2.02105 26.6842 2.02105 27.8149 2.24561Z" fill="#1C1D30"></path><path d="M46.5861 35.7053C46.1338 37.0526 45.4554 38.1754 44.5508 39.2982C45.4554 38.1754 46.36 37.0526 47.2646 35.7053C47.0384 35.7053 46.8123 35.7053 46.5861 35.7053Z" fill="#1C1D30"></path><path d="M30.5285 46.7088C29.3978 46.7088 28.4932 46.7088 27.3625 46.4842C27.1363 46.7088 27.1363 46.9333 26.9102 46.9333C28.267 46.9333 29.8501 46.9333 31.207 46.7088C30.9808 46.7088 30.7547 46.7088 30.5285 46.7088Z" fill="#1C1D30"></path><path d="M48.1698 24.2526C48.396 26.7228 48.396 29.193 47.9437 31.6632C47.7175 32.786 47.4914 33.6842 47.0391 34.807C47.2652 34.807 47.2652 34.807 47.4914 34.807H47.7175C49.5267 31.4386 50.4313 27.3965 50.2051 23.5789C49.7528 23.8035 48.8483 24.0281 48.1698 24.2526Z" fill="#1C1D30"></path><path d="M14.2466 42.4421C14.9251 41.993 15.3774 41.5439 16.0558 41.0947C14.0205 39.2982 11.9851 37.0526 10.6283 34.5825L8.14062 35.9298C9.72366 38.6246 11.759 40.8702 14.2466 42.4421Z" fill="#1C1D30"></path><path d="M7.2355 24.4772C6.78321 22.007 7.00936 19.5368 7.46165 17.0667C7.6878 15.9439 7.91395 15.0456 8.36625 13.9228C8.1401 13.9228 8.1401 13.9228 7.91395 13.9228H7.6878C5.87861 17.2912 4.97402 21.3333 5.20017 25.1509C5.65246 25.1509 6.33091 24.7017 7.2355 24.4772Z" fill="#1C1D30"></path><path d="M20.127 3.59298C21.4838 3.81754 22.8407 4.49122 24.4238 5.38947C25.3284 4.71578 26.233 3.81754 26.9114 3.14385C24.6499 2.91929 22.3884 3.14385 20.127 3.59298Z" fill="#1C1D30"></path><path d="M8.59251 12.8C9.0448 11.6772 9.72325 10.7789 10.1755 9.8807C9.27095 10.7789 8.59251 11.9017 7.91406 13.0246C8.36636 12.8 8.36636 12.8 8.59251 12.8Z" fill="#1C1D30"></path><path d="M18.3173 28.9684C16.9604 26.7228 16.0558 24.2526 15.1512 22.007C12.6636 23.1298 10.4021 24.2526 8.14062 25.1509C8.59292 27.8456 9.49752 30.5403 10.8544 33.0105L18.3173 28.9684Z" fill="#1C1D30"></path><path d="M8.14073 24.0281C10.1761 23.1298 12.4376 22.2316 14.9252 20.8842C14.0206 18.6386 13.3421 16.1684 13.116 13.9228C13.116 13.4737 13.116 13.2491 13.116 12.8C11.7591 13.2491 10.6284 13.4737 9.49762 13.6982C9.04533 14.821 8.59303 15.9439 8.36688 17.2912C7.91459 19.5368 7.91459 21.7825 8.14073 24.0281Z" fill="#1C1D30"></path><path d="M42.2898 36.8281C42.2898 38.6246 42.0636 39.9719 41.6113 41.3193C43.1944 39.7474 44.5513 37.9509 45.4559 35.9298C44.3251 36.1544 43.4205 36.6035 42.2898 36.8281Z" fill="#1C1D30"></path><path d="M13.1153 11.6772C13.1153 9.8807 13.3414 8.53333 13.7937 7.18596C12.2107 8.75789 10.8538 10.5544 9.94922 12.5754C10.8538 12.3509 11.9846 12.1263 13.1153 11.6772Z" fill="#1C1D30"></path><path d="M16.9608 40.421C18.77 39.0737 21.0314 37.7263 23.2929 36.1544C21.7099 34.3579 20.353 32.1123 18.9961 29.8667L11.5332 33.9088C13.1162 36.3789 14.9254 38.6246 16.9608 40.421Z" fill="#1C1D30"></path><path d="M35.2786 44.9123C33.9217 44.6877 32.5648 44.014 30.9818 43.1158C30.0772 43.7895 29.1726 44.6877 28.4941 45.3614C30.5295 45.8105 33.0171 45.586 35.2786 44.9123Z" fill="#1C1D30"></path><path d="M29.8511 42.6667C29.625 42.4421 29.3988 42.4421 29.1727 42.2175C27.3635 40.8702 25.5543 39.0737 23.9712 37.0526C21.7098 38.4 19.6744 39.7474 17.8652 41.0947C20.579 43.3403 23.9712 44.6877 27.1373 45.3614C27.8158 44.4632 28.9465 43.5649 29.8511 42.6667Z" fill="#1C1D30"></path><path d="M45.682 45.1368C46.1343 44.6877 46.1343 44.014 45.682 43.5649C45.2297 43.1158 44.5512 43.1158 44.0989 43.5649C39.576 47.607 33.47 49.8526 27.364 49.8526C13.5689 49.6281 2.26148 38.4 2.26148 24.4772C2.26148 15.0456 7.4629 6.51228 15.8304 2.24561C16.2827 2.02105 16.5088 1.34737 16.2827 0.673681C15.8304 -3.01097e-06 15.1519 -0.224564 14.6996 0.224558C5.65371 4.94035 0 14.1474 0 24.4772C0 39.0737 11.3074 50.9754 25.7809 51.8737V58.6105H15.1519C13.5689 58.6105 12.4382 59.7333 12.4382 61.3053C12.4382 62.8772 13.5689 64 15.1519 64H40.0283C41.6113 64 42.7421 62.8772 42.7421 61.3053C42.7421 59.7333 41.6113 58.6105 40.0283 58.6105H29.8516V51.8737C35.5053 51.4246 41.159 48.9544 45.682 45.1368Z" fill="#1C1D30"></path><path d="M56.0537 21.6644L55.7305 23.2032L62.1504 24.533L62.4737 22.9942L56.0537 21.6644Z" fill="#1C1D30"></path><path d="M56.5632 19.2523L56.2402 20.7912L62.6608 22.1197L62.9838 20.5808L56.5632 19.2523Z" fill="#1C1D30"></path><path d="M61.7393 13.0246L60.8348 12.8C59.4779 12.5754 57.8948 13.4737 57.6687 14.821L56.9902 18.1895L63.5485 19.5368L64.227 16.1684C64.0008 14.5965 63.0962 13.2491 61.7393 13.0246Z" fill="#1C1D30"></path><path d="M50.6574 62.6526L52.6927 59.2842L50.2051 58.8351L50.6574 62.6526Z" fill="#1C1D30"></path><path d="M49.9796 57.7123L53.3719 58.386L55.8595 54.3439L49.5273 52.9965L49.9796 57.7123Z" fill="#1C1D30"></path><path d="M55.44 24.1921L49.7109 51.4501L52.3675 52.0007L58.0965 24.7426L55.44 24.1921Z" fill="#1C1D30"></path><path d="M59.2868 25.1343L53.5605 52.3924L56.2171 52.9427L61.9433 25.6846L59.2868 25.1343Z" fill="#1C1D30"></path></g><defs><clipPath id="clip0_658_27"><rect width="64" height="64" fill="white"></rect></clipPath></defs></svg>