<svg xmlns="http://www.w3.org/2000/svg" width="61" height="61" viewBox="0 0 61 61" fill="none"><g clip-path="url(#clip0_657_15)"><path d="M0 29.2907C0.193935 28.3204 0.343116 27.335 0.611641 26.3945C0.880166 25.4988 1.25312 24.6478 1.64099 23.7969C1.9841 23.0355 2.6405 22.7966 3.29689 23.0952C3.90854 23.3938 4.14722 24.0656 3.78919 24.7822C2.99853 26.4094 2.49132 28.1113 2.41673 29.9178C2.32722 32.1422 2.8046 34.2472 3.8787 36.2925C4.93788 33.7545 6.83248 32.3213 9.51773 31.769C9.35363 31.4853 9.20445 31.2614 9.08511 31.0225C8.0856 29.1713 7.95133 24.9912 9.98019 22.7668C12.7251 19.766 17.8868 20.2288 19.7963 23.8118C21.1389 26.3348 21.0494 28.9175 19.7217 31.4405C19.6769 31.5301 19.6322 31.6197 19.5725 31.754C22.1981 32.3064 24.1076 33.7097 25.1817 36.2925C25.9574 34.9041 26.405 33.5157 26.5691 32.0377C27.315 25.2748 23.0932 19.6466 16.38 18.4672C13.9932 18.0492 11.6809 18.4224 9.47298 19.4227C9.21937 19.5421 8.98068 19.6764 8.71216 19.766C8.04084 20.0198 7.4292 19.781 7.16068 19.1987C6.89215 18.6016 7.08608 17.9298 7.72756 17.6461C8.75691 17.1833 9.80118 16.7056 10.8753 16.4219C16.8425 14.8842 22.7351 17.0639 26.3752 22.0502C26.4945 22.2144 26.6138 22.3637 26.7481 22.5428C26.9122 22.4682 27.0763 22.4085 27.2255 22.3189C30.5075 20.5573 33.7894 18.7956 37.0863 17.0489C37.4891 16.825 37.5935 16.6608 37.4294 16.1831C36.4299 13.4361 36.4598 10.6593 37.4444 7.91238C37.7726 6.97185 38.5931 6.64341 39.3091 7.12114C39.8014 7.46451 39.9506 7.94224 39.7119 8.65883C39.2793 9.9278 39.0257 11.2266 39.1152 12.5702C39.2047 14.093 39.5926 15.5262 40.4131 16.9444C41.2186 15.0335 42.606 13.8691 44.5454 13.3764C43.695 11.6596 43.6354 9.91287 44.1873 8.15124C44.8288 6.10597 47.0964 4.62799 49.17 4.837C51.6315 5.09079 53.4962 6.80763 53.7797 9.07684C53.9587 10.5399 53.9438 11.9731 53.168 13.3465C55.1074 13.8541 56.4947 14.9887 57.4346 16.8847C57.718 16.1383 58.0761 15.4217 58.27 14.6603C59.7171 9.18135 56.4798 3.8069 50.9601 2.55286C49.3192 2.17963 47.6931 2.23935 46.0819 2.74694C45.7537 2.85144 45.4405 2.95594 45.1123 3.03059C44.4111 3.17988 43.8442 2.85144 43.6652 2.22442C43.5011 1.64219 43.7845 1.01517 44.426 0.791235C45.3062 0.492654 46.2013 0.194074 47.1262 0.0746416C52.3177 -0.597165 56.8975 1.70191 59.4933 6.21047C63.1035 12.4956 60.0005 20.9753 53.2128 23.4386C47.887 25.3644 42.4419 23.7521 39.0555 19.2286C38.966 19.1241 38.8914 19.0046 38.7572 18.8554C35.147 20.7961 31.5219 22.722 27.8968 24.6627C29.4632 28.5144 29.4781 32.3512 27.8968 36.2327C31.5219 38.1735 35.1321 40.0994 38.7721 42.0551C39.7119 40.6965 40.8009 39.5619 42.1585 38.696C45.5896 36.5015 49.2446 36.0685 53.0934 37.4121C53.8841 37.6809 54.2123 38.2929 54.0034 38.9647C53.8095 39.6216 53.1531 39.9202 52.3475 39.6664C50.796 39.1738 49.2446 38.9349 47.6036 39.129C43.3668 39.6366 39.7567 43.1897 39.2047 47.4295C38.9213 49.6091 39.2942 51.6395 40.3981 53.6848C41.2186 51.7738 42.5762 50.5945 44.5603 50.1018C43.7845 48.7134 43.7547 47.2504 43.9486 45.7575C44.247 43.533 46.1267 41.8013 48.5434 41.5773C50.6021 41.3683 52.8547 42.8314 53.5111 44.8319C54.078 46.5935 54.0333 48.3402 53.1829 50.1018C55.0775 50.6094 56.4798 51.7291 57.2854 53.6549C57.4047 53.4907 57.4943 53.3713 57.5539 53.2518C58.7325 50.893 58.9413 48.4447 58.1656 45.9067C58.0761 45.6231 57.9716 45.3394 57.912 45.0558C57.7777 44.3691 58.091 43.8316 58.6877 43.6375C59.2695 43.4435 59.911 43.7122 60.1348 44.3541C60.4331 45.2349 60.7315 46.1307 60.8657 47.0413C61.6266 52.6397 58.8369 57.6559 53.6901 59.94C52.6906 60.3879 51.5718 60.5521 50.4977 60.8507C50.3485 60.8955 50.1993 60.9403 50.0501 60.9701C49.2595 60.9701 48.4688 60.9701 47.6632 60.9701C47.5588 60.9253 47.4544 60.8806 47.335 60.8656C39.5329 59.7907 34.8337 52.1172 37.4294 44.6975C37.5786 44.2645 37.4891 44.0854 37.1012 43.8764C33.8044 42.1297 30.5224 40.3681 27.2404 38.6064C27.0912 38.5169 26.9271 38.4572 26.7481 38.3676C26.6138 38.5467 26.4796 38.696 26.3752 38.8602C23.9733 42.1745 20.766 44.1451 16.7232 44.8169C10.0697 45.9217 3.19247 41.9207 0.954757 35.5609C0.507215 34.3069 0.31328 32.9633 0 31.6495C0 30.8881 0 30.0969 0 29.2907Z" fill="#1C1D30"></path><path d="M6.28009 21.0798C6.26517 21.7068 5.69828 22.2443 5.08664 22.2443C4.44516 22.2293 3.89319 21.6471 3.92303 20.9902C3.95287 20.3483 4.48992 19.8556 5.13139 19.8705C5.75795 19.9004 6.295 20.4528 6.28009 21.0798Z" fill="#1C1D30"></path><path d="M42.2773 4.40406C42.2624 5.03108 41.6805 5.58345 41.0689 5.56853C40.4424 5.5536 39.9053 4.98629 39.9202 4.35927C39.9351 3.73225 40.502 3.19481 41.1286 3.20974C41.7402 3.20974 42.2922 3.77704 42.2773 4.40406Z" fill="#1C1D30"></path><path d="M57.7774 41.0996C57.7774 41.7266 57.2254 42.279 56.5988 42.279C55.9574 42.279 55.3756 41.6968 55.4054 41.0548C55.4203 40.4278 55.9872 39.9053 56.6138 39.9053C57.2552 39.9202 57.7923 40.4726 57.7774 41.0996Z" fill="#1C1D30"></path></g><defs><clipPath id="clip0_657_15"><rect width="61" height="61" fill="white"></rect></clipPath></defs></svg>