<svg width="19" height="39" viewBox="0 0 19 39" fill="none" xmlns="http://www.w3.org/2000/svg">
<g clip-path="url(#clip0_552_5336)">
<path d="M13.6231 9.04091C13.4439 8.86364 13.0854 8.86364 12.9061 8.86364C12.7269 8.86364 10.5759 8.68636 10.5759 8.68636V7.97727C10.5759 7.97727 11.2929 7.8 11.8306 7.26818C12.1891 6.91364 12.5476 6.55909 12.7269 6.20455C13.2646 5.31818 13.4439 4.25455 13.2646 3.36818C12.9061 1.41818 11.1137 0 9.14197 0C7.88725 0 6.27404 0.709091 5.55706 1.95C5.19857 2.65909 5.01933 3.36818 5.01933 4.07727C5.01933 6.02727 6.27405 7.44545 8.0665 7.97727V8.50909C8.0665 8.33182 6.27405 8.68636 5.91555 8.68636C5.19857 8.86364 4.48159 9.21818 4.1231 9.92727L0.896687 17.7273L0.000460649 20.3864C0.000460649 20.3864 -0.178785 21.6273 0.896687 21.9818C2.1514 22.3364 2.68914 21.2727 2.68914 21.2727L5.73631 12.5864L2.33065 31.7318H5.55706V33.8591V37.2273C5.55706 37.2273 5.55706 38.6455 6.99103 38.8227C8.24574 38.8227 8.78348 37.2273 8.78348 37.2273V31.7318H10.3967V33.8591V37.2273C10.3967 37.2273 10.3967 38.8227 11.8306 38.8227C13.4439 38.8227 13.4439 37.2273 13.4439 37.2273V31.7318H16.491L13.2646 12.7636L16.3118 21.6273C16.3118 21.6273 16.6703 23.2227 18.1042 22.6909C19.5382 22.1591 18.642 20.7409 18.642 20.7409L15.0571 10.4591C14.8778 9.75 14.3401 9.39545 13.6231 9.04091Z" fill="#E36F1E"/>
</g>
<defs>
<clipPath id="clip0_552_5336">
<rect width="19" height="39" fill="white"/>
</clipPath>
</defs>
</svg>
