<svg width="42" height="37" viewBox="0 0 42 37" fill="none" xmlns="http://www.w3.org/2000/svg">
<g clip-path="url(#clip0_518_876)">
<path d="M17.4117 20.4821H11.6965H11.5636L8.10789 21.5393H7.44333L6.91169 19.1607C6.77878 18.3679 6.64587 17.575 6.38004 16.7821C6.11422 16.1214 5.58257 15.9893 4.91802 15.9893C4.65219 15.9893 4.38637 16.1214 3.98764 16.1214C3.19017 16.2536 2.25979 16.3857 1.46232 16.3857C1.06359 16.3857 0.531941 16.3857 0.266118 16.7821C-0.132616 17.3107 0.133207 17.8393 0.266118 18.3679C0.399029 18.8964 0.531941 19.2929 0.531941 19.8214C0.531941 19.9536 0.531941 20.0857 0.664852 20.0857L1.06359 21.8036H0.266118C0.000295267 21.8036 -0.265528 22.0679 -0.132616 22.3321C-0.132616 22.5964 0.133207 22.8607 0.399029 22.8607H1.32941L2.3927 27.3536L0.531941 35.9429C0.531941 36.2071 0.664852 36.4714 0.930675 36.6036H1.06359C1.32941 36.6036 1.46232 36.4714 1.59523 36.2071L2.92435 30.1286L6.51295 30.2607L6.11422 34.225C6.11422 34.4893 6.24713 34.7536 6.51295 34.7536C6.77878 34.7536 7.0446 34.6214 7.0446 34.3571L7.44333 30.2607H9.437L10.3674 36.4714C10.3674 36.7357 10.6332 36.8679 10.899 36.8679C10.899 36.8679 10.899 36.8679 11.0319 36.8679C11.2978 36.8679 11.4307 36.6036 11.4307 36.3393L10.5003 30.1286L13.4243 29.2036L15.0193 35.15C15.0193 35.4143 15.2851 35.5464 15.5509 35.5464H15.6838C15.9497 35.4143 16.0826 35.15 16.0826 34.8857L13.956 26.5607L14.4876 26.4286H14.6205L14.8864 26.2964L14.6205 25.3714V25.2393L10.5003 25.3714L10.6332 22.9929H11.6965H11.8294L17.4117 21.5393C17.6775 21.5393 17.8104 21.275 17.8104 21.0107C17.8104 20.7464 17.6775 20.4821 17.4117 20.4821ZM2.3927 21.9357L1.99397 20.0857L5.71549 19.425L6.11422 21.6714L3.98764 21.8036L2.3927 21.9357ZM6.64587 29.2036L3.19017 29.0714L3.45599 27.75L4.38637 27.4857L6.77878 27.6179L6.64587 29.2036ZM3.5889 26.5607L2.65852 23.125H6.51295L7.0446 25.6357L3.5889 26.5607ZM7.57624 29.3357V28.9393H9.17118L9.30409 29.3357H7.57624ZM7.70916 28.2786L7.84207 27.6179H9.17118L9.30409 28.1464L7.70916 28.2786ZM9.30409 25.3714H8.2408L7.70916 22.9929H9.56992L9.30409 25.3714ZM10.3674 29.2036V28.8071H11.6965L10.3674 29.2036ZM12.7598 26.9571L13.0256 28.1464H10.1016V27.75H10.2345L12.7598 26.9571Z" fill="#E36F1E"/>
<path d="M26.184 7.26786C25.3865 7.53215 24.722 8.06072 24.3232 8.72143H26.8486L26.184 7.26786Z" fill="#E36F1E"/>
<path d="M11.8298 1.32143L12.0956 1.45357L12.6273 1.85V15.8571H38.4121V1.98214L38.9437 1.45357L39.2095 1.18929V15.9893H40.1399V0H10.8994V15.9893H11.8298V1.32143ZM38.8108 0.925L38.545 1.18929L37.8804 1.71786H13.1589L12.3614 1.18929L12.0956 0.925H38.8108Z" fill="#E36F1E"/>
<path d="M8.77246 16.5179L9.96866 19.2929H40.6712L42.0003 16.5179H8.77246Z" fill="#E36F1E"/>
</g>
<defs>
<clipPath id="clip0_518_876">
<rect width="42" height="37" fill="white"/>
</clipPath>
</defs>
</svg>
