<svg xmlns="http://www.w3.org/2000/svg" width="205" height="88" viewBox="0 0 205 88" fill="none"><path d="M113.48 13.96V18.16L104.56 41.64L99.04 39.8L107.2 18.6H97.36V13.96H113.48ZM127.917 14V41H121.877V20L116.757 23.48L114.037 19.48L122.397 14H127.917ZM141.631 13.4C144.671 13.4 146.991 14.6 148.591 17C150.218 19.4 151.031 22.9067 151.031 27.52C151.031 32.1867 150.231 35.72 148.631 38.12C147.031 40.4933 144.698 41.68 141.631 41.68C138.564 41.68 136.231 40.4933 134.631 38.12C133.031 35.72 132.231 32.1867 132.231 27.52C132.231 22.8533 133.031 19.3333 134.631 16.96C136.231 14.5867 138.564 13.4 141.631 13.4ZM141.631 17.96C140.858 17.96 140.244 18.24 139.791 18.8C139.364 19.36 139.044 20.3333 138.831 21.72C138.618 23.08 138.511 25.0133 138.511 27.52C138.511 30.0533 138.618 32.0133 138.831 33.4C139.044 34.7867 139.364 35.76 139.791 36.32C140.244 36.8533 140.858 37.12 141.631 37.12C142.404 37.12 143.018 36.8533 143.471 36.32C143.924 35.76 144.244 34.8 144.431 33.44C144.644 32.0533 144.751 30.08 144.751 27.52C144.751 24.9867 144.644 23.04 144.431 21.68C144.218 20.2933 143.884 19.3333 143.431 18.8C143.004 18.24 142.404 17.96 141.631 17.96Z" fill="#E36F1E"></path><path d="M97.53 65V52.616H103.542L103.362 53.912H99.204V58.232H102.804V59.528H99.204V65H97.53ZM110.182 62.84C110.182 63.224 110.236 63.512 110.344 63.704C110.452 63.884 110.62 64.022 110.848 64.118L110.506 65.216C110.038 65.144 109.672 65 109.408 64.784C109.144 64.568 108.958 64.238 108.85 63.794C108.238 64.754 107.38 65.234 106.276 65.234C105.436 65.234 104.77 64.976 104.278 64.46C103.786 63.932 103.54 63.23 103.54 62.354C103.54 61.346 103.87 60.578 104.53 60.05C105.19 59.522 106.132 59.258 107.356 59.258H108.58V58.448C108.58 57.788 108.442 57.314 108.166 57.026C107.902 56.726 107.464 56.576 106.852 56.576C106.192 56.576 105.424 56.744 104.548 57.08L104.152 55.946C105.208 55.514 106.192 55.298 107.104 55.298C109.156 55.298 110.182 56.324 110.182 58.376V62.84ZM106.654 64.01C107.494 64.01 108.136 63.518 108.58 62.534V60.302H107.536C105.976 60.302 105.196 60.956 105.196 62.264C105.196 62.828 105.322 63.26 105.574 63.56C105.826 63.86 106.186 64.01 106.654 64.01ZM121.851 55.298C122.535 55.298 123.081 55.556 123.489 56.072C123.897 56.576 124.101 57.254 124.101 58.106V65H122.499V58.286C122.499 57.134 122.127 56.558 121.383 56.558C120.663 56.558 120.003 57.11 119.403 58.214V65H117.801V58.286C117.801 57.134 117.429 56.558 116.685 56.558C115.953 56.558 115.293 57.11 114.705 58.214V65H113.103V55.532H114.507L114.633 56.918C115.329 55.838 116.169 55.298 117.153 55.298C117.669 55.298 118.107 55.448 118.467 55.748C118.827 56.048 119.085 56.474 119.241 57.026C119.973 55.874 120.843 55.298 121.851 55.298ZM128.557 55.532V65H126.937V55.532H128.557ZM127.747 51.068C128.059 51.068 128.311 51.17 128.503 51.374C128.707 51.578 128.809 51.83 128.809 52.13C128.809 52.43 128.713 52.682 128.521 52.886C128.329 53.078 128.071 53.174 127.747 53.174C127.435 53.174 127.177 53.078 126.973 52.886C126.781 52.682 126.685 52.43 126.685 52.13C126.685 51.83 126.781 51.578 126.973 51.374C127.177 51.17 127.435 51.068 127.747 51.068ZM133.254 65.234C132.678 65.234 132.222 65.06 131.886 64.712C131.55 64.364 131.382 63.878 131.382 63.254V51.698L133.002 51.518V63.2C133.002 63.668 133.194 63.902 133.578 63.902C133.734 63.902 133.908 63.866 134.1 63.794L134.46 64.928C134.076 65.132 133.674 65.234 133.254 65.234ZM137.838 55.532V65H136.218V55.532H137.838ZM137.028 51.068C137.34 51.068 137.592 51.17 137.784 51.374C137.988 51.578 138.09 51.83 138.09 52.13C138.09 52.43 137.994 52.682 137.802 52.886C137.61 53.078 137.352 53.174 137.028 53.174C136.716 53.174 136.458 53.078 136.254 52.886C136.062 52.682 135.966 52.43 135.966 52.13C135.966 51.83 136.062 51.578 136.254 51.374C136.458 51.17 136.716 51.068 137.028 51.068ZM146.657 62.84C146.657 63.224 146.711 63.512 146.819 63.704C146.927 63.884 147.095 64.022 147.323 64.118L146.981 65.216C146.513 65.144 146.147 65 145.883 64.784C145.619 64.568 145.433 64.238 145.325 63.794C144.713 64.754 143.855 65.234 142.751 65.234C141.911 65.234 141.245 64.976 140.753 64.46C140.261 63.932 140.015 63.23 140.015 62.354C140.015 61.346 140.345 60.578 141.005 60.05C141.665 59.522 142.607 59.258 143.831 59.258H145.055V58.448C145.055 57.788 144.917 57.314 144.641 57.026C144.377 56.726 143.939 56.576 143.327 56.576C142.667 56.576 141.899 56.744 141.023 57.08L140.627 55.946C141.683 55.514 142.667 55.298 143.579 55.298C145.631 55.298 146.657 56.324 146.657 58.376V62.84ZM143.129 64.01C143.969 64.01 144.611 63.518 145.055 62.534V60.302H144.011C142.451 60.302 141.671 60.956 141.671 62.264C141.671 62.828 141.797 63.26 142.049 63.56C142.301 63.86 142.661 64.01 143.129 64.01ZM151.902 55.298C152.994 55.298 153.966 55.658 154.818 56.378L154.134 57.332C153.75 57.068 153.39 56.87 153.054 56.738C152.718 56.606 152.364 56.54 151.992 56.54C151.5 56.54 151.11 56.66 150.822 56.9C150.546 57.128 150.408 57.446 150.408 57.854C150.408 58.25 150.54 58.562 150.804 58.79C151.08 59.018 151.596 59.252 152.352 59.492C153.3 59.792 153.99 60.158 154.422 60.59C154.854 61.022 155.07 61.616 155.07 62.372C155.07 63.26 154.746 63.962 154.098 64.478C153.45 64.982 152.64 65.234 151.668 65.234C150.384 65.234 149.298 64.808 148.41 63.956L149.238 63.056C149.994 63.668 150.792 63.974 151.632 63.974C152.16 63.974 152.586 63.842 152.91 63.578C153.234 63.314 153.396 62.948 153.396 62.48C153.396 62.144 153.336 61.874 153.216 61.67C153.108 61.466 152.904 61.286 152.604 61.13C152.316 60.962 151.89 60.788 151.326 60.608C150.426 60.308 149.778 59.948 149.382 59.528C148.986 59.108 148.788 58.574 148.788 57.926C148.788 57.422 148.92 56.972 149.184 56.576C149.448 56.18 149.814 55.868 150.282 55.64C150.75 55.412 151.29 55.298 151.902 55.298ZM99.078 75.532V85H97.458V75.532H99.078ZM98.268 71.068C98.58 71.068 98.832 71.17 99.024 71.374C99.228 71.578 99.33 71.83 99.33 72.13C99.33 72.43 99.234 72.682 99.042 72.886C98.85 73.078 98.592 73.174 98.268 73.174C97.956 73.174 97.698 73.078 97.494 72.886C97.302 72.682 97.206 72.43 97.206 72.13C97.206 71.83 97.302 71.578 97.494 71.374C97.698 71.17 97.956 71.068 98.268 71.068ZM106.223 75.298C106.979 75.298 107.567 75.55 107.987 76.054C108.419 76.546 108.635 77.23 108.635 78.106V85H107.015V78.304C107.015 77.692 106.913 77.254 106.709 76.99C106.505 76.714 106.193 76.576 105.773 76.576C104.981 76.576 104.261 77.14 103.613 78.268V85H101.993V75.532H103.397L103.523 76.936C104.255 75.844 105.155 75.298 106.223 75.298ZM117.752 75.532L114.926 85H112.982L110.066 75.532H111.758L113.954 83.632L116.132 75.532H117.752ZM122.602 75.298C123.814 75.298 124.756 75.724 125.428 76.576C126.1 77.428 126.436 78.652 126.436 80.248C126.436 81.784 126.094 83.002 125.41 83.902C124.726 84.79 123.784 85.234 122.584 85.234C121.372 85.234 120.424 84.796 119.74 83.92C119.068 83.044 118.732 81.826 118.732 80.266C118.732 78.694 119.074 77.476 119.758 76.612C120.442 75.736 121.39 75.298 122.602 75.298ZM122.602 76.594C121.894 76.594 121.354 76.894 120.982 77.494C120.61 78.082 120.424 79.006 120.424 80.266C120.424 82.726 121.144 83.956 122.584 83.956C124.024 83.956 124.744 82.72 124.744 80.248C124.744 78.988 124.564 78.064 124.204 77.476C123.844 76.888 123.31 76.594 122.602 76.594ZM130.564 85.234C129.988 85.234 129.532 85.06 129.196 84.712C128.86 84.364 128.692 83.878 128.692 83.254V71.698L130.312 71.518V83.2C130.312 83.668 130.504 83.902 130.888 83.902C131.044 83.902 131.218 83.866 131.41 83.794L131.77 84.928C131.386 85.132 130.984 85.234 130.564 85.234ZM140.026 85H138.622L138.532 83.578C137.872 84.682 136.99 85.234 135.886 85.234C135.13 85.234 134.536 84.988 134.104 84.496C133.672 84.004 133.456 83.338 133.456 82.498V75.532H135.076V82.354C135.076 82.906 135.178 83.314 135.382 83.578C135.598 83.83 135.916 83.956 136.336 83.956C137.14 83.956 137.83 83.428 138.406 82.372V75.532H140.026V85ZM146.244 75.298C146.748 75.298 147.21 75.382 147.63 75.55C148.05 75.718 148.452 75.976 148.836 76.324L148.116 77.296C147.828 77.068 147.54 76.9 147.252 76.792C146.964 76.672 146.652 76.612 146.316 76.612C145.608 76.612 145.056 76.912 144.66 77.512C144.276 78.112 144.084 79.048 144.084 80.32C144.084 82.696 144.828 83.884 146.316 83.884C146.652 83.884 146.958 83.83 147.234 83.722C147.51 83.602 147.804 83.428 148.116 83.2L148.872 84.19C148.104 84.886 147.234 85.234 146.262 85.234C145.05 85.234 144.096 84.814 143.4 83.974C142.716 83.134 142.374 81.922 142.374 80.338C142.374 79.306 142.53 78.412 142.842 77.656C143.166 76.9 143.616 76.318 144.192 75.91C144.78 75.502 145.464 75.298 146.244 75.298ZM154.537 75.316C154.849 75.316 155.119 75.352 155.347 75.424L155.077 76.99C154.849 76.918 154.603 76.882 154.339 76.882C153.811 76.882 153.379 77.092 153.043 77.512C152.719 77.932 152.461 78.574 152.269 79.438V85H150.649V75.532H152.053L152.179 77.404C152.647 76.012 153.433 75.316 154.537 75.316ZM162.266 82.84C162.266 83.224 162.32 83.512 162.428 83.704C162.536 83.884 162.704 84.022 162.932 84.118L162.59 85.216C162.122 85.144 161.756 85 161.492 84.784C161.228 84.568 161.042 84.238 160.934 83.794C160.322 84.754 159.464 85.234 158.36 85.234C157.52 85.234 156.854 84.976 156.362 84.46C155.87 83.932 155.624 83.23 155.624 82.354C155.624 81.346 155.954 80.578 156.614 80.05C157.274 79.522 158.216 79.258 159.44 79.258H160.664V78.448C160.664 77.788 160.526 77.314 160.25 77.026C159.986 76.726 159.548 76.576 158.936 76.576C158.276 76.576 157.508 76.744 156.632 77.08L156.236 75.946C157.292 75.514 158.276 75.298 159.188 75.298C161.24 75.298 162.266 76.324 162.266 78.376V82.84ZM158.738 84.01C159.578 84.01 160.22 83.518 160.664 82.534V80.302H159.62C158.06 80.302 157.28 80.956 157.28 82.264C157.28 82.828 157.406 83.26 157.658 83.56C157.91 83.86 158.27 84.01 158.738 84.01ZM171.919 71.698V85H170.479L170.371 83.758C169.759 84.742 168.937 85.234 167.905 85.234C166.873 85.234 166.069 84.796 165.493 83.92C164.929 83.044 164.647 81.838 164.647 80.302C164.647 79.306 164.785 78.43 165.061 77.674C165.349 76.918 165.751 76.336 166.267 75.928C166.783 75.508 167.377 75.298 168.049 75.298C168.949 75.298 169.699 75.676 170.299 76.432V71.518L171.919 71.698ZM168.283 83.956C168.715 83.956 169.087 83.836 169.399 83.596C169.723 83.356 170.023 83.002 170.299 82.534V77.782C169.759 76.978 169.129 76.576 168.409 76.576C167.773 76.576 167.269 76.882 166.897 77.494C166.525 78.106 166.345 79.03 166.357 80.266C166.357 81.526 166.525 82.456 166.861 83.056C167.197 83.656 167.671 83.956 168.283 83.956ZM180.741 82.84C180.741 83.224 180.795 83.512 180.903 83.704C181.011 83.884 181.179 84.022 181.407 84.118L181.065 85.216C180.597 85.144 180.231 85 179.967 84.784C179.703 84.568 179.517 84.238 179.409 83.794C178.797 84.754 177.939 85.234 176.835 85.234C175.995 85.234 175.329 84.976 174.837 84.46C174.345 83.932 174.099 83.23 174.099 82.354C174.099 81.346 174.429 80.578 175.089 80.05C175.749 79.522 176.691 79.258 177.915 79.258H179.139V78.448C179.139 77.788 179.001 77.314 178.725 77.026C178.461 76.726 178.023 76.576 177.411 76.576C176.751 76.576 175.983 76.744 175.107 77.08L174.711 75.946C175.767 75.514 176.751 75.298 177.663 75.298C179.715 75.298 180.741 76.324 180.741 78.376V82.84ZM177.213 84.01C178.053 84.01 178.695 83.518 179.139 82.534V80.302H178.095C176.535 80.302 175.755 80.956 175.755 82.264C175.755 82.828 175.881 83.26 176.133 83.56C176.385 83.86 176.745 84.01 177.213 84.01ZM185.986 75.298C187.078 75.298 188.05 75.658 188.902 76.378L188.218 77.332C187.834 77.068 187.474 76.87 187.138 76.738C186.802 76.606 186.448 76.54 186.076 76.54C185.584 76.54 185.194 76.66 184.906 76.9C184.63 77.128 184.492 77.446 184.492 77.854C184.492 78.25 184.624 78.562 184.888 78.79C185.164 79.018 185.68 79.252 186.436 79.492C187.384 79.792 188.074 80.158 188.506 80.59C188.938 81.022 189.154 81.616 189.154 82.372C189.154 83.26 188.83 83.962 188.182 84.478C187.534 84.982 186.724 85.234 185.752 85.234C184.468 85.234 183.382 84.808 182.494 83.956L183.322 83.056C184.078 83.668 184.876 83.974 185.716 83.974C186.244 83.974 186.67 83.842 186.994 83.578C187.318 83.314 187.48 82.948 187.48 82.48C187.48 82.144 187.42 81.874 187.3 81.67C187.192 81.466 186.988 81.286 186.688 81.13C186.4 80.962 185.974 80.788 185.41 80.608C184.51 80.308 183.862 79.948 183.466 79.528C183.07 79.108 182.872 78.574 182.872 77.926C182.872 77.422 183.004 76.972 183.268 76.576C183.532 76.18 183.898 75.868 184.366 75.64C184.834 75.412 185.374 75.298 185.986 75.298Z" fill="#8B8B8B"></path><path d="M0 51.2106C0.21296 50.145 0.376776 49.0629 0.671644 48.0301C0.966512 47.0464 1.37605 46.1119 1.80197 45.1774C2.17875 44.3413 2.89954 44.079 3.62033 44.4069C4.29197 44.7347 4.55408 45.4725 4.16092 46.2594C3.29269 48.0465 2.73572 49.9154 2.65381 51.8992C2.55552 54.342 3.07973 56.6536 4.25921 58.8997C5.4223 56.1126 7.50276 54.5387 10.4514 53.9321C10.2712 53.6206 10.1074 53.3747 9.97637 53.1124C8.87881 51.0795 8.73137 46.489 10.9593 44.0462C13.9735 40.7509 19.6415 41.2591 21.7383 45.1938C23.2127 47.9645 23.1144 50.8008 21.6564 53.5714C21.6073 53.6698 21.5581 53.7682 21.4926 53.9157C24.3758 54.5223 26.4726 56.0634 27.6521 58.8997C28.5039 57.375 28.9954 55.8503 29.1756 54.2272C29.9946 46.8005 25.3587 40.6197 17.987 39.3245C15.3659 38.8655 12.8268 39.2753 10.4023 40.3738C10.1238 40.5049 9.8617 40.6525 9.56683 40.7509C8.82966 41.0296 8.15802 40.7673 7.86315 40.1279C7.56828 39.4721 7.78124 38.7343 8.48565 38.4228C9.61598 37.9146 10.7627 37.39 11.9422 37.0785C18.4948 35.3898 24.9655 37.7834 28.9626 43.2592C29.0937 43.4396 29.2247 43.6035 29.3721 43.8003C29.5523 43.7183 29.7325 43.6527 29.8964 43.5543C33.5003 41.6198 37.1042 39.6852 40.7246 37.767C41.1669 37.5211 41.2815 37.3408 41.1013 36.8161C40.0038 33.7995 40.0365 30.7501 41.1177 27.7335C41.4781 26.7007 42.3791 26.34 43.1654 26.8646C43.706 27.2417 43.8698 27.7663 43.6077 28.5533C43.1327 29.9468 42.8542 31.3731 42.9525 32.8487C43.0508 34.5209 43.4767 36.0948 44.3777 37.6523C45.2623 35.5538 46.7858 34.275 48.9154 33.734C47.9816 31.8486 47.9161 29.9304 48.5222 27.9958C49.2266 25.7498 51.7166 24.1267 53.9936 24.3562C56.6966 24.6349 58.7443 26.5203 59.0555 29.0123C59.2521 30.619 59.2357 32.1929 58.3839 33.7012C60.5135 34.2586 62.037 35.5046 63.069 37.5867C63.3803 36.767 63.7734 35.98 63.9864 35.1439C65.5754 29.1271 62.0206 23.225 55.9594 21.8479C54.1575 21.438 52.3719 21.5036 50.6027 22.061C50.2423 22.1758 49.8982 22.2905 49.5379 22.3725C48.7679 22.5364 48.1454 22.1758 47.9488 21.4872C47.7686 20.8478 48.0799 20.1592 48.7843 19.9133C49.7508 19.5854 50.7337 19.2575 51.7494 19.1264C57.4502 18.3886 62.4793 20.9134 65.3297 25.8645C69.294 32.7667 65.8867 42.0788 58.433 44.7839C52.5848 46.8988 46.6056 45.1282 42.8869 40.1607C42.7886 40.0459 42.7067 39.9147 42.5593 39.7508C38.595 41.8821 34.6142 43.997 30.6335 46.1283C32.3536 50.3581 32.37 54.5715 30.6335 58.8341C34.6142 60.9654 38.5786 63.0803 42.5757 65.228C43.6077 63.7361 44.8036 62.4901 46.2943 61.5392C50.0621 59.1292 54.0755 58.6538 58.302 60.1293C59.1702 60.4244 59.5306 61.0966 59.3013 61.8343C59.0883 62.5557 58.3675 62.8836 57.4829 62.6049C55.7792 62.0639 54.0756 61.8015 52.2736 62.0147C47.6212 62.5721 43.6569 66.474 43.0508 71.1301C42.7395 73.5237 43.149 75.7534 44.3613 77.9994C45.2623 75.9009 46.753 74.6057 48.9317 74.0647C48.0799 72.54 48.0471 70.9333 48.2601 69.2939C48.5877 66.8511 50.6518 64.9493 53.3056 64.7034C55.5663 64.4739 58.0399 66.0805 58.7607 68.2774C59.3832 70.212 59.334 72.1302 58.4003 74.0647C60.4807 74.6221 62.0206 75.8517 62.9052 77.9666C63.0363 77.7863 63.1346 77.6551 63.2001 77.524C64.4942 74.9336 64.7236 72.2449 63.8717 69.4578C63.7734 69.1463 63.6588 68.8348 63.5932 68.5233C63.4458 67.7692 63.7898 67.179 64.4451 66.9658C65.084 66.7527 65.7884 67.0478 66.0341 67.7528C66.3617 68.7201 66.6894 69.7038 66.8368 70.7038C67.6723 76.8518 64.6089 82.3604 58.9573 84.8688C57.8597 85.3606 56.6311 85.5409 55.4516 85.8688C55.2878 85.918 55.124 85.9672 54.9602 86C54.0919 86 53.2237 86 52.3391 86C52.2244 85.9508 52.1098 85.9016 51.9787 85.8852C43.4111 84.7048 38.251 76.278 41.1013 68.1299C41.2652 67.6544 41.1669 67.4577 40.741 67.2282C37.1206 65.31 33.5167 63.3754 29.9127 61.4409C29.7489 61.3425 29.5687 61.2769 29.3721 61.1785C29.2247 61.3753 29.0773 61.5392 28.9626 61.7196C26.3252 65.3592 22.8031 67.5233 18.3637 68.261C11.0576 69.4742 3.50566 65.0805 1.04842 58.0964C0.556973 56.7192 0.344013 55.2437 0 53.801C0 52.9648 0 52.0959 0 51.2106Z" fill="#1C1D30"></path></svg>