<svg xmlns="http://www.w3.org/2000/svg" width="72" height="59" viewBox="0 0 72 59" fill="none"><path d="M1.59109 13.4887C1.59109 13.7081 1.59109 13.7081 1.59109 13.4887C1.81486 13.4887 1.81486 13.4887 1.81486 13.4887H2.03863C2.03863 13.4887 2.2624 13.4887 2.2624 13.7081C2.2624 13.7081 2.48617 13.7081 2.48617 13.9276L2.70993 14.147C2.70993 14.147 2.70993 14.147 2.9337 14.3664L3.15747 14.5859C3.15747 14.5859 3.15747 14.5859 3.38124 14.8053L3.60501 15.0247C3.82878 15.0247 4.27631 15.0247 4.50008 15.2441C6.06646 15.4636 8.30415 16.1219 10.0943 16.3413C10.0943 16.3413 10.0943 16.5607 10.0943 16.7801C10.5418 16.9996 10.7656 16.9996 10.7656 17.219C11.4369 17.6578 11.8844 18.0967 12.332 18.5356C12.7795 18.755 13.0033 19.1938 13.2271 19.4133C13.4508 19.8521 13.4508 20.0716 13.6746 20.5104C13.8984 20.0716 14.1221 19.4133 14.3459 18.9744C14.5697 18.5356 14.7934 18.0967 14.7934 17.6578C14.7934 17.4384 15.0172 17.219 15.241 16.9996C15.241 16.7801 15.4647 16.5607 15.6885 16.3413C15.9123 15.9024 16.3598 15.9024 16.8074 15.683C17.0311 15.683 17.2549 15.683 17.4787 15.683C17.4787 15.4636 17.4787 15.2441 17.2549 15.0247C18.15 11.9527 19.2688 8.88073 20.1639 5.58932C21.954 8.22245 24.6392 11.5139 25.0868 12.3916C24.6392 14.8053 24.4155 17.219 23.9679 19.6327H24.1917C25.3106 19.6327 26.4294 19.6327 27.3245 20.291C28.2195 20.7298 28.8909 21.3881 29.3384 22.0464C29.5622 22.2658 29.7859 22.7047 30.0097 23.1435C30.2335 23.5824 30.4572 24.0213 30.681 24.4601C31.3523 23.5824 32.0236 22.9241 32.6949 22.2658C32.9187 22.0464 33.1425 21.827 33.59 21.6076C32.9187 18.3161 32.4711 15.0247 31.7998 11.9527C31.7998 11.7333 31.7998 11.5139 31.7998 11.075C32.9187 9.53902 35.3801 6.02817 36.499 4.27275C36.7227 4.05332 36.9465 3.61446 36.9465 3.39504C38.0654 6.90588 39.408 10.6362 40.5268 14.3664C39.8555 17.8773 39.408 21.1687 38.9604 24.6795C39.1842 25.1184 39.1842 25.3378 39.408 25.7767C41.1981 23.8018 43.6596 22.4853 46.3448 24.0213C46.7923 24.2407 47.0161 24.4601 47.2399 24.899C47.2399 24.6795 47.4636 24.2407 47.4636 24.0213C47.6874 23.8018 47.6874 23.5824 47.6874 23.363C47.9112 22.9241 48.1349 22.4853 48.3587 22.0464C48.3587 21.827 48.5825 21.6075 48.5825 21.3881C48.3587 18.9744 48.1349 16.5607 47.9112 14.5859C49.2538 11.9527 50.5964 9.97787 51.939 8.22245C52.3865 7.56417 52.6103 7.34474 52.8341 6.68645C53.9529 9.97787 55.7431 14.3664 56.4144 15.4636C55.9668 16.7801 55.5193 18.0967 55.0718 19.6327C55.2955 20.0716 55.5193 20.5104 55.7431 20.9493C56.4144 19.4133 57.3095 17.8773 58.8758 16.9996C60.2184 16.3413 61.7848 16.1219 63.1274 16.7801C63.1274 16.5607 63.1274 16.3413 63.1274 16.1219C64.47 15.9024 66.0364 15.4636 67.6028 14.8053C67.6028 14.5859 67.8266 14.5859 67.8266 14.3664C68.2741 13.7081 68.9454 13.0499 69.8405 13.0499C70.288 13.0499 70.9593 13.0499 71.4069 13.2693C71.4069 13.0499 71.6306 12.8304 71.6306 12.3916C71.6306 10.8556 70.288 11.2944 70.288 11.2944C67.6028 11.9527 65.1414 12.3916 62.4561 13.0499C62.2324 13.0499 62.0086 12.8304 61.7848 12.8304C61.7848 12.611 61.7848 12.611 61.7848 12.3916C62.0086 12.3916 62.2324 12.3916 62.4561 12.3916H62.6799C63.1274 12.1722 64.0225 11.7333 64.2463 10.8556C64.9176 9.75845 63.7987 8.22245 63.7987 8.22245C63.7987 8.22245 63.7987 8.22245 63.575 8.00302C63.1274 7.12531 62.2324 6.68645 61.3373 6.2476C59.5471 5.58932 57.757 6.68645 57.5332 8.44188C57.3095 9.75844 58.2045 11.2944 59.5471 11.9527C59.5471 12.1722 59.5471 12.1722 59.5471 12.3916C59.0996 12.3916 58.2045 12.1722 57.5332 12.1722C56.8619 10.8556 55.7431 8.44188 55.2955 7.12531C54.848 6.02817 54.848 5.58932 54.4005 4.49218C54.4005 4.27275 54.1767 4.27275 54.1767 4.05332C54.1767 4.05332 53.7292 3.39504 53.0579 3.39504C52.3865 3.17561 52.1628 3.61446 52.1628 3.83389C50.3726 6.2476 48.5825 8.66131 47.0161 11.2944C46.5686 11.075 46.3448 11.075 45.8973 10.8556C45.8973 10.6362 45.8973 10.4167 45.8973 10.1973C46.5686 10.1973 47.2399 9.97787 47.4636 9.53902C47.9112 9.10016 48.1349 8.66131 48.1349 8.00302C48.1349 6.46703 46.7923 4.7116 45.0022 4.27275C43.212 3.83389 41.6457 4.7116 41.6457 6.46703C41.6457 7.78359 42.5407 9.10016 43.8833 9.75845C43.8833 9.97787 43.8833 10.1973 43.8833 10.6362C43.4358 10.6362 42.5407 10.1973 41.8694 10.1973C40.9744 7.12531 39.8555 3.83389 38.7367 0.761902C38.7367 0.761902 38.5129 0.103619 37.8416 0.103619C36.9465 -0.335237 36.0514 0.761902 36.0514 0.761902C34.2613 3.17561 32.6949 5.80874 31.1285 8.22245C30.4572 8.22245 29.5622 8.44188 29.1146 8.44188C29.1146 8.22245 29.1146 8.22245 29.1146 8.00302C29.3384 7.78359 29.5622 7.78359 29.7859 7.56417C29.7859 7.56417 30.0097 7.56417 30.0097 7.34474C30.4572 6.90588 31.1285 6.02817 31.5761 5.15046C32.0236 3.61446 30.681 2.51733 30.681 2.51733C30.681 2.51733 30.681 2.51733 30.4572 2.51733C30.0097 1.85904 29.1146 1.63961 28.2195 1.63961C26.2056 2.07847 24.6392 3.61446 24.6392 5.36989C24.6392 6.68645 25.7581 7.78359 27.1007 8.00302C27.1007 8.22245 27.1007 8.22245 27.1007 8.44188C26.4294 8.66131 26.2056 8.88073 25.5343 9.10016C24.6392 7.56417 23.5204 6.02817 22.6253 4.7116C22.1778 3.83389 21.7303 3.39504 21.2827 2.51733C21.059 2.2979 21.059 2.2979 20.8352 2.07847C20.8352 2.07847 20.3876 1.63961 19.7163 1.85904C19.045 2.07847 18.8213 2.51733 18.8213 2.95618C18.8213 3.17561 18.5975 3.17561 18.5975 3.39504C18.3737 4.27275 18.15 4.93103 17.9262 5.80874C17.2549 8.00302 16.5836 10.1973 15.9123 12.1722C15.241 12.3916 14.3459 12.3916 13.8984 12.611C13.8984 12.3916 13.8984 12.3916 13.8984 12.1722C15.0172 11.5139 15.9123 10.1973 15.6885 8.88073C15.6885 7.34474 14.1221 6.2476 12.1082 6.68645C11.4369 6.90588 10.5418 7.56417 10.0943 8.22245C9.87053 8.44188 9.87053 8.44188 9.87053 8.44188C9.87053 8.44188 8.75168 9.97787 9.42299 11.2944C9.64676 11.9527 10.3181 12.3916 10.7656 12.611H10.9894C11.2131 12.611 11.4369 12.611 11.6607 12.611C11.6607 12.8304 11.6607 12.8304 11.6607 13.0499C11.4369 13.2693 10.9894 13.2693 10.5418 13.4887C7.85661 13.2693 4.72385 13.0499 2.2624 12.611C2.2624 12.611 1.14355 12.611 1.14355 13.4887C1.14355 13.4887 1.36732 13.4887 1.59109 13.4887Z" fill="#1A1A1A"></path><path d="M19.7167 38.0648C19.9405 37.187 19.9405 36.3093 20.1643 35.2122C20.1643 34.7733 20.1643 34.3345 20.1643 33.6762C20.1643 33.0179 20.1643 32.5791 19.9405 31.7013C20.1643 31.7013 20.6118 31.4819 20.8356 31.4819C20.8356 31.2625 20.8356 31.0431 21.0593 30.8236C21.0593 30.6042 21.0593 30.6042 21.0593 30.3848C21.0593 30.1654 20.8356 29.9459 20.8356 29.9459L17.7028 23.5825L15.0176 30.3848C15.0176 30.3848 15.0176 30.6042 15.0176 30.8236C15.0176 31.4819 15.2413 32.1402 15.2413 32.5791V32.7985C16.1364 32.5791 16.8077 32.3596 17.9266 32.1402C17.9266 33.0179 17.9266 33.4568 18.1503 34.1151C18.1503 35.2122 18.3741 35.8705 18.3741 37.187C18.3741 37.187 18.3741 38.5036 19.4929 38.2842C19.7167 38.2842 19.7167 38.2842 19.9405 38.0648C19.7167 38.2842 19.7167 38.0648 19.7167 38.0648Z" fill="#1A1A1A"></path><path d="M34.933 27.7515C34.0379 28.8486 32.2477 30.8235 31.1289 31.9206V32.14C31.1289 33.4566 31.1289 34.1149 31.3527 35.212C31.3527 35.212 31.3527 36.5286 32.4715 36.5286C33.8141 36.5286 34.0379 34.7732 34.0379 34.7732C34.0379 33.4566 33.8141 33.0177 33.8141 31.7012C34.4854 31.4817 34.933 31.4817 35.6043 31.2623C35.3805 30.1652 35.1567 29.068 34.933 27.7515Z" fill="#1A1A1A"></path><path d="M53.7293 34.7731C53.7293 34.7731 53.953 34.7731 54.1768 34.9925C54.1768 34.7731 54.1768 34.5536 54.1768 34.3342C54.1768 33.6759 54.4006 33.0176 54.4006 32.3594V31.9205C54.4006 31.7011 54.4006 31.4817 54.4006 31.4817C54.4006 31.2622 54.4006 31.0428 54.4006 30.6039C54.4006 30.3845 54.4006 30.3845 54.4006 30.1651C54.4006 29.9457 54.4006 29.9457 54.1768 29.7262C53.953 29.5068 53.7293 29.2874 53.5055 28.8485C53.2817 28.6291 53.2817 28.6291 53.2817 28.4097L53.058 28.1902C52.8342 27.9708 52.6104 27.532 52.3867 27.0931C52.1629 26.8737 52.1629 26.6542 51.9391 26.4348C50.5965 30.8234 49.2539 34.3342 49.2539 34.3342C49.2539 34.3342 50.149 34.5536 50.3727 34.5536C50.149 35.8702 50.149 36.5285 49.9252 37.8451C49.9252 37.8451 49.7014 39.6005 51.0441 39.8199C52.1629 40.0393 52.3867 38.7228 52.3867 38.7228C53.5055 37.4062 53.7293 34.7731 53.7293 34.7731Z" fill="#1A1A1A"></path><path d="M49.7015 30.1653C49.7015 30.3847 49.4777 30.3847 49.4777 30.6041C49.4777 30.8236 49.254 31.043 49.254 31.2624C49.0302 31.7013 48.8064 32.1401 48.8064 32.3596C48.8064 32.579 48.5827 32.7984 48.5827 33.2373C48.5827 33.2373 48.5827 33.4567 48.3589 33.4567C48.3589 33.6761 48.3589 33.6761 48.3589 33.8956C48.3589 34.3344 48.3589 34.7733 48.5827 35.2121C48.5827 35.4316 48.5827 35.8704 48.5827 36.0898C48.5827 36.3093 48.5827 36.3093 48.5827 36.5287C48.8064 36.3093 48.8064 35.8704 48.8064 35.8704C49.0302 34.7733 49.0302 33.0178 49.0302 33.0178V32.3596L49.9253 32.579C49.9253 32.7984 49.9253 31.7013 49.7015 30.1653Z" fill="#1A1A1A"></path><path d="M70.7357 14.147C69.6169 13.4887 68.7218 14.8052 68.7218 14.8052C66.9317 17.6578 64.9177 20.7298 63.1276 23.5824C62.68 23.5824 61.785 23.8018 61.3374 23.8018C61.3374 23.5824 61.3374 23.5824 61.3374 23.3629C61.5612 23.1435 61.785 23.1435 62.0087 22.9241C62.0087 22.9241 62.2325 22.9241 62.2325 22.7047C62.9038 22.2658 63.5751 21.3881 63.7989 20.5104C64.4702 18.3161 62.0087 16.9995 60.2186 17.219C58.2047 17.6578 56.6383 19.4132 56.6383 21.1687C56.6383 22.4852 57.5334 23.5824 59.0997 23.8018C59.0997 24.0212 59.0997 24.0212 59.0997 24.2406C58.6522 24.4601 57.9809 24.6795 57.3096 24.8989L54.1768 20.7298C53.7293 20.0715 53.2818 18.0967 52.3867 17.6578C52.1629 17.6578 52.1629 17.6578 51.9392 17.6578C51.2679 17.6578 50.8203 18.0967 50.5965 18.755C49.0302 22.2658 47.6876 26.4349 46.1212 30.1652C45.4499 30.1652 44.7786 30.1652 44.5548 30.1652C44.5548 29.9458 44.5548 29.7263 44.5548 29.5069C45.2261 29.0681 45.8974 28.6292 46.3449 27.9709C46.7925 27.3126 47.0163 26.8738 47.0163 26.2155C47.0163 24.4601 45.4499 23.3629 43.6597 23.5824C41.6458 24.0212 40.0794 25.5572 40.0794 27.3126C40.0794 28.6292 40.9745 29.7263 42.5409 29.9458C42.5409 30.1652 42.5409 30.3846 42.5409 30.6041C42.0933 30.6041 41.422 30.8235 40.7507 31.0429C40.7507 31.0429 40.7507 31.2623 40.527 31.2623C39.1844 28.4098 38.0655 24.8989 36.7229 22.0464C36.7229 22.0464 36.4991 21.6075 36.0516 21.6075C35.8278 21.6075 35.6041 21.6075 35.3803 21.6075C35.1565 21.6075 34.9328 21.6075 34.9328 21.8269C34.4852 21.8269 34.2614 22.2658 34.2614 22.2658C32.4713 24.4601 30.4574 26.4349 28.6672 28.6292C28.6672 28.6292 28.6672 28.6292 28.6672 28.4098C28.2197 28.1903 27.7722 27.9709 27.3246 27.9709C27.3246 27.7515 27.3246 27.7515 27.3246 27.5321C27.5484 27.5321 27.7722 27.5321 27.9959 27.5321H28.2197C28.891 27.3126 29.5623 26.6544 29.7861 25.9961C30.6812 23.8018 27.9959 21.3881 25.982 20.9492C23.9681 20.2909 22.4017 21.3881 22.4017 23.1435C22.4017 24.6795 23.5206 26.2155 24.8632 27.0932C24.8632 27.3126 24.8632 27.3126 24.8632 27.5321C24.4156 27.5321 23.5206 27.3126 22.8493 27.0932C21.2829 23.8018 19.0452 18.9744 18.5977 18.3161C18.5977 17.8772 18.3739 17.8772 18.3739 17.6578C18.3739 17.6578 18.1501 17.219 17.7026 16.9995C17.255 16.7801 16.8075 16.5607 16.36 16.9995C15.6887 17.4384 15.4649 18.9744 15.0174 19.8521C14.1223 21.8269 13.6747 22.7047 12.7797 24.6795L12.5559 25.1184C11.8846 24.6795 10.9895 24.4601 10.542 24.2406C10.542 24.0212 10.542 24.0212 10.542 23.8018C11.8846 23.8018 12.7797 22.9241 12.7797 21.6075C12.7797 19.8521 11.2133 18.0967 9.19937 17.4384C7.40922 16.9995 5.17154 17.8772 5.84284 20.0715C6.06661 20.9492 6.73792 21.8269 7.40922 22.2658L7.63299 22.4852C7.85676 22.7047 8.08053 22.9241 8.3043 22.9241C8.3043 23.1435 8.3043 23.1435 8.3043 23.3629C8.08053 23.3629 6.96169 23.1435 6.51415 22.9241C5.17154 20.5104 3.82893 17.6578 2.48632 15.4635C2.48632 15.4635 1.59124 14.147 0.696169 14.5858C-0.198905 15.0247 0.0248632 16.3412 0.0248632 16.3412C0.4724 17.219 5.39531 26.4349 6.51415 28.6292C5.39531 33.2372 4.27647 37.8452 3.38139 42.6726C3.38139 42.6726 4.27646 43.5503 6.29038 44.6474C6.29038 45.0863 6.29038 47.7194 6.29038 49.036C6.29038 49.036 6.51415 50.572 7.85676 51.0109C9.19937 51.2303 9.19937 49.9137 9.19937 49.9137C9.19937 48.5971 9.19937 46.1834 9.19937 45.7446C9.64691 45.964 10.0944 45.964 10.542 46.1834C10.542 46.6223 10.542 49.036 10.542 50.3526C10.542 50.3526 10.3182 51.6691 11.6608 52.3274C13.0034 52.7663 13.0034 51.2303 13.0034 51.2303C13.0034 49.9137 13.0034 47.2806 13.0034 46.8417C13.8985 47.0611 14.7936 47.0611 15.6887 47.0611C14.5698 41.7949 13.6747 36.5286 12.5559 31.0429C13.8985 27.7515 15.4649 24.4601 16.8075 21.3881L21.5066 31.0429C21.0591 36.0898 20.164 41.1366 19.269 46.4029C19.269 46.4029 20.164 47.0611 21.9542 47.9389C21.9542 48.8166 21.9542 53.2051 21.9542 55.18C21.9542 55.18 21.9542 56.9354 23.5206 57.3743C24.8632 57.5937 25.0869 56.2771 25.0869 56.2771C25.0869 54.3023 25.0869 53.4246 25.0869 51.4497C25.0869 50.572 25.0869 49.9137 25.0869 49.2554C25.5345 49.4749 25.982 49.4749 26.6533 49.6943C26.6533 51.0108 26.6533 54.9606 26.6533 56.4965C26.6533 56.4965 26.6533 57.8131 27.9959 58.4714C29.5623 59.1297 29.7861 57.3743 29.7861 57.3743C29.7861 56.0577 29.7861 51.8886 29.7861 50.1331C30.6812 50.1331 31.5762 50.3526 32.6951 50.3526C31.5762 44.428 30.4574 38.7229 29.3385 32.7983C29.3385 32.5789 29.3385 32.5789 29.3385 32.3595C29.3385 32.3595 33.3664 28.4098 34.709 26.4349L34.9328 26.2155C35.1565 26.4349 35.1565 26.8738 35.3803 27.0932C36.7229 29.9458 38.0655 32.5789 39.1844 35.4315C38.513 41.356 37.618 47.2806 36.9467 53.2051C36.9467 53.2051 38.0655 53.2051 39.6319 53.2051C39.6319 53.644 39.6319 56.0577 39.6319 57.3743C39.6319 57.3743 39.8557 58.9103 40.9745 58.4714C42.0933 58.0325 42.0933 56.9354 42.0933 56.9354C42.0933 55.6188 42.3171 53.4246 42.3171 52.9857C42.7646 52.9857 43.2122 52.7663 43.6597 52.7663C43.6597 52.9857 43.6597 55.3994 43.6597 56.4965C43.6597 56.4965 43.6597 58.0325 44.7786 57.8131C45.8974 57.5937 46.1212 56.0577 46.1212 56.0577C46.1212 54.7411 46.3449 52.3274 46.3449 52.108C47.24 51.8886 48.1351 51.4497 48.8064 51.0109C48.1351 45.3057 47.4638 39.6006 47.0163 34.1149C48.3589 30.8235 49.7015 27.3126 51.2679 24.0212C51.4916 23.3629 51.7154 22.9241 51.9392 22.2658C53.5055 24.8989 55.967 28.4098 57.0858 30.1652C55.7432 36.3092 54.6244 42.4532 53.2818 48.3777C53.2818 48.3777 54.1768 48.3777 55.7432 48.1583C55.7432 48.5971 55.7432 51.6691 55.967 52.9857C55.967 52.9857 55.967 54.7411 57.3096 54.3023C58.876 53.8634 58.876 52.3274 58.876 52.3274C58.876 51.0109 58.876 48.1583 58.876 47.7194C59.3235 47.7194 59.7711 47.5 60.4424 47.5C60.4424 47.9389 60.4424 50.572 60.4424 51.6691C60.4424 51.6691 60.4424 52.9857 61.785 52.9857C63.3514 52.9857 63.5751 51.2303 63.5751 51.2303C63.5751 49.9137 63.5751 47.2806 63.5751 46.6223C64.4702 46.1834 65.589 45.964 66.4841 45.3057C65.3653 39.82 64.2464 34.3343 63.1276 28.8486C64.694 26.4349 67.8267 21.1687 69.1693 18.5355C69.8406 17.4384 70.0644 16.7801 70.7357 15.683C70.9595 15.683 71.6308 14.8052 70.7357 14.147Z" fill="#1A1A1A"></path></svg>