<svg xmlns="http://www.w3.org/2000/svg" width="282" height="107" viewBox="0 0 282 107" fill="none"><path d="M123.48 13.4C125.293 13.4 126.84 13.7467 128.12 14.44C129.427 15.1067 130.413 16.0133 131.08 17.16C131.747 18.3067 132.08 19.5867 132.08 21C132.08 22.44 131.813 23.8267 131.28 25.16C130.747 26.4667 129.8 27.9733 128.44 29.68C127.107 31.3867 125.147 33.5733 122.56 36.24H132.6L131.96 41H115.8V36.6C118.627 33.48 120.72 31.0667 122.08 29.36C123.467 27.6267 124.427 26.1867 124.96 25.04C125.493 23.8667 125.76 22.68 125.76 21.48C125.76 20.4133 125.493 19.6 124.96 19.04C124.453 18.4533 123.733 18.16 122.8 18.16C121.973 18.16 121.24 18.3733 120.6 18.8C119.96 19.2 119.253 19.88 118.48 20.84L114.92 18.04C117.107 14.9467 119.96 13.4 123.48 13.4ZM138.036 34.56C139.022 34.56 139.836 34.8933 140.476 35.56C141.142 36.2267 141.476 37.0667 141.476 38.08C141.476 38.5867 141.382 39.12 141.196 39.68C141.036 40.24 140.716 41.1067 140.236 42.28L137.916 48.04H134.596L136.156 41.08C135.116 40.3333 134.596 39.3333 134.596 38.08C134.596 37.0667 134.916 36.2267 135.556 35.56C136.222 34.8933 137.049 34.56 138.036 34.56ZM152.675 14V41H146.635V20L141.515 23.48L138.795 19.48L147.155 14H152.675ZM163.949 13.4C165.762 13.4 167.309 13.7467 168.589 14.44C169.895 15.1067 170.882 16.0133 171.549 17.16C172.215 18.3067 172.549 19.5867 172.549 21C172.549 22.44 172.282 23.8267 171.749 25.16C171.215 26.4667 170.269 27.9733 168.909 29.68C167.575 31.3867 165.615 33.5733 163.029 36.24H173.069L172.429 41H156.269V36.6C159.095 33.48 161.189 31.0667 162.549 29.36C163.935 27.6267 164.895 26.1867 165.429 25.04C165.962 23.8667 166.229 22.68 166.229 21.48C166.229 20.4133 165.962 19.6 165.429 19.04C164.922 18.4533 164.202 18.16 163.269 18.16C162.442 18.16 161.709 18.3733 161.069 18.8C160.429 19.2 159.722 19.88 158.949 20.84L155.389 18.04C157.575 14.9467 160.429 13.4 163.949 13.4ZM187.44 14V41H181.4V20L176.28 23.48L173.56 19.48L181.92 14H187.44Z" fill="#E36F1E"></path><path d="M121.54 53.24L121.32 54.68H116.56V59.22H120.7V60.66H116.56V65.54H121.6V67H114.7V53.24H121.54ZM126.617 56.22C127.831 56.22 128.911 56.62 129.857 57.42L129.097 58.48C128.671 58.1867 128.271 57.9667 127.897 57.82C127.524 57.6733 127.131 57.6 126.717 57.6C126.171 57.6 125.737 57.7333 125.417 58C125.111 58.2533 124.957 58.6067 124.957 59.06C124.957 59.5 125.104 59.8467 125.397 60.1C125.704 60.3533 126.277 60.6133 127.117 60.88C128.171 61.2133 128.937 61.62 129.417 62.1C129.897 62.58 130.137 63.24 130.137 64.08C130.137 65.0667 129.777 65.8467 129.057 66.42C128.337 66.98 127.437 67.26 126.357 67.26C124.931 67.26 123.724 66.7867 122.737 65.84L123.657 64.84C124.497 65.52 125.384 65.86 126.317 65.86C126.904 65.86 127.377 65.7133 127.737 65.42C128.097 65.1267 128.277 64.72 128.277 64.2C128.277 63.8267 128.211 63.5267 128.077 63.3C127.957 63.0733 127.731 62.8733 127.397 62.7C127.077 62.5133 126.604 62.32 125.977 62.12C124.977 61.7867 124.257 61.3867 123.817 60.92C123.377 60.4533 123.157 59.86 123.157 59.14C123.157 58.58 123.304 58.08 123.597 57.64C123.891 57.2 124.297 56.8533 124.817 56.6C125.337 56.3467 125.937 56.22 126.617 56.22ZM137.413 66.54C136.746 67.02 136.006 67.26 135.193 67.26C134.339 67.26 133.679 67.0133 133.213 66.52C132.759 66.0267 132.533 65.3333 132.533 64.44V57.84H131.033V56.48H132.533V54.06L134.333 53.84V56.48H136.653L136.453 57.84H134.333V64.42C134.333 65.3267 134.713 65.78 135.473 65.78C135.699 65.78 135.906 65.7467 136.092 65.68C136.293 65.6133 136.513 65.5133 136.753 65.38L137.413 66.54ZM146.195 67H144.635L144.535 65.42C143.802 66.6467 142.822 67.26 141.595 67.26C140.755 67.26 140.095 66.9867 139.615 66.44C139.135 65.8933 138.895 65.1533 138.895 64.22V56.48H140.695V64.06C140.695 64.6733 140.809 65.1267 141.035 65.42C141.275 65.7 141.629 65.84 142.095 65.84C142.989 65.84 143.755 65.2533 144.395 64.08V56.48H146.195V67ZM156.924 52.22V67H155.324L155.204 65.62C154.524 66.7133 153.611 67.26 152.464 67.26C151.318 67.26 150.424 66.7733 149.784 65.8C149.158 64.8267 148.844 63.4867 148.844 61.78C148.844 60.6733 148.998 59.7 149.304 58.86C149.624 58.02 150.071 57.3733 150.644 56.92C151.218 56.4533 151.878 56.22 152.624 56.22C153.624 56.22 154.458 56.64 155.124 57.48V52.02L156.924 52.22ZM152.884 65.84C153.364 65.84 153.778 65.7067 154.124 65.44C154.484 65.1733 154.818 64.78 155.124 64.26V58.98C154.524 58.0867 153.824 57.64 153.024 57.64C152.318 57.64 151.758 57.98 151.344 58.66C150.931 59.34 150.731 60.3667 150.744 61.74C150.744 63.14 150.931 64.1733 151.304 64.84C151.678 65.5067 152.204 65.84 152.884 65.84ZM161.967 56.48V67H160.167V56.48H161.967ZM161.067 51.52C161.414 51.52 161.694 51.6333 161.907 51.86C162.134 52.0867 162.247 52.3667 162.247 52.7C162.247 53.0333 162.14 53.3133 161.927 53.54C161.714 53.7533 161.427 53.86 161.067 53.86C160.72 53.86 160.434 53.7533 160.207 53.54C159.994 53.3133 159.887 53.0333 159.887 52.7C159.887 52.3667 159.994 52.0867 160.207 51.86C160.434 51.6333 160.72 51.52 161.067 51.52ZM171.766 64.6C171.766 65.0267 171.826 65.3467 171.946 65.56C172.066 65.76 172.253 65.9133 172.506 66.02L172.126 67.24C171.606 67.16 171.199 67 170.906 66.76C170.613 66.52 170.406 66.1533 170.286 65.66C169.606 66.7267 168.653 67.26 167.426 67.26C166.493 67.26 165.753 66.9733 165.206 66.4C164.659 65.8133 164.386 65.0333 164.386 64.06C164.386 62.94 164.753 62.0867 165.486 61.5C166.219 60.9133 167.266 60.62 168.626 60.62H169.986V59.72C169.986 58.9867 169.833 58.46 169.526 58.14C169.233 57.8067 168.746 57.64 168.066 57.64C167.333 57.64 166.479 57.8267 165.506 58.2L165.066 56.94C166.239 56.46 167.333 56.22 168.346 56.22C170.626 56.22 171.766 57.36 171.766 59.64V64.6ZM167.846 65.9C168.779 65.9 169.493 65.3533 169.986 64.26V61.78H168.826C167.093 61.78 166.226 62.5067 166.226 63.96C166.226 64.5867 166.366 65.0667 166.646 65.4C166.926 65.7333 167.326 65.9 167.846 65.9ZM179.711 56.22C180.551 56.22 181.204 56.5 181.671 57.06C182.151 57.6067 182.391 58.3667 182.391 59.34V67H180.591V59.56C180.591 58.88 180.477 58.3933 180.251 58.1C180.024 57.7933 179.677 57.64 179.211 57.64C178.331 57.64 177.531 58.2667 176.811 59.52V67H175.011V56.48H176.571L176.711 58.04C177.524 56.8267 178.524 56.22 179.711 56.22ZM190.538 66.54C189.871 67.02 189.131 67.26 188.318 67.26C187.464 67.26 186.804 67.0133 186.338 66.52C185.884 66.0267 185.658 65.3333 185.658 64.44V57.84H184.158V56.48H185.658V54.06L187.458 53.84V56.48H189.778L189.578 57.84H187.458V64.42C187.458 65.3267 187.838 65.78 188.598 65.78C188.824 65.78 189.031 65.7467 189.217 65.68C189.418 65.6133 189.638 65.5133 189.878 65.38L190.538 66.54ZM199.188 61.42C199.188 61.7 199.174 62.0133 199.148 62.36H193.028C193.081 63.5867 193.328 64.4733 193.768 65.02C194.208 65.5533 194.808 65.82 195.568 65.82C196.048 65.82 196.474 65.7467 196.848 65.6C197.234 65.4533 197.634 65.2133 198.048 64.88L198.848 65.94C197.861 66.82 196.741 67.26 195.488 67.26C194.114 67.26 193.048 66.7867 192.288 65.84C191.541 64.88 191.168 63.54 191.168 61.82C191.168 60.1 191.528 58.74 192.248 57.74C192.968 56.7267 193.968 56.22 195.248 56.22C196.514 56.22 197.488 56.6733 198.168 57.58C198.848 58.4733 199.188 59.7533 199.188 61.42ZM197.448 60.88C197.448 58.68 196.721 57.58 195.268 57.58C194.601 57.58 194.074 57.86 193.688 58.42C193.301 58.9667 193.081 59.86 193.028 61.1H197.448V60.88ZM204.41 56.22C205.624 56.22 206.704 56.62 207.65 57.42L206.89 58.48C206.464 58.1867 206.064 57.9667 205.69 57.82C205.317 57.6733 204.924 57.6 204.51 57.6C203.964 57.6 203.53 57.7333 203.21 58C202.904 58.2533 202.75 58.6067 202.75 59.06C202.75 59.5 202.897 59.8467 203.19 60.1C203.497 60.3533 204.07 60.6133 204.91 60.88C205.964 61.2133 206.73 61.62 207.21 62.1C207.69 62.58 207.93 63.24 207.93 64.08C207.93 65.0667 207.57 65.8467 206.85 66.42C206.13 66.98 205.23 67.26 204.15 67.26C202.724 67.26 201.517 66.7867 200.53 65.84L201.45 64.84C202.29 65.52 203.177 65.86 204.11 65.86C204.697 65.86 205.17 65.7133 205.53 65.42C205.89 65.1267 206.07 64.72 206.07 64.2C206.07 63.8267 206.004 63.5267 205.87 63.3C205.75 63.0733 205.524 62.8733 205.19 62.7C204.87 62.5133 204.397 62.32 203.77 62.12C202.77 61.7867 202.05 61.3867 201.61 60.92C201.17 60.4533 200.95 59.86 200.95 59.14C200.95 58.58 201.097 58.08 201.39 57.64C201.684 57.2 202.09 56.8533 202.61 56.6C203.13 56.3467 203.73 56.22 204.41 56.22ZM224.653 56.22C225.413 56.22 226.019 56.5067 226.473 57.08C226.926 57.64 227.153 58.3933 227.153 59.34V67H225.373V59.54C225.373 58.26 224.959 57.62 224.133 57.62C223.333 57.62 222.599 58.2333 221.933 59.46V67H220.153V59.54C220.153 58.26 219.739 57.62 218.913 57.62C218.099 57.62 217.366 58.2333 216.713 59.46V67H214.933V56.48H216.493L216.633 58.02C217.406 56.82 218.339 56.22 219.433 56.22C220.006 56.22 220.493 56.3867 220.893 56.72C221.293 57.0533 221.579 57.5267 221.753 58.14C222.566 56.86 223.533 56.22 224.653 56.22ZM237.524 67H235.964L235.864 65.42C235.13 66.6467 234.15 67.26 232.924 67.26C232.084 67.26 231.424 66.9867 230.944 66.44C230.464 65.8933 230.224 65.1533 230.224 64.22V56.48H232.024V64.06C232.024 64.6733 232.137 65.1267 232.364 65.42C232.604 65.7 232.957 65.84 233.424 65.84C234.317 65.84 235.084 65.2533 235.724 64.08V56.48H237.524V67ZM242.572 66.58C242.572 67.4733 242.452 68.2 242.212 68.76C241.986 69.3333 241.652 69.7933 241.212 70.14C240.786 70.5 240.206 70.8533 239.472 71.2L238.912 69.9C239.379 69.66 239.739 69.42 239.992 69.18C240.246 68.94 240.439 68.62 240.572 68.22C240.706 67.82 240.772 67.2867 240.772 66.62V56.48H242.572V66.58ZM241.672 51.52C242.019 51.52 242.299 51.6333 242.512 51.86C242.739 52.0867 242.852 52.3667 242.852 52.7C242.852 53.0333 242.746 53.3133 242.532 53.54C242.319 53.7533 242.032 53.86 241.672 53.86C241.326 53.86 241.039 53.7533 240.812 53.54C240.599 53.3133 240.492 53.0333 240.492 52.7C240.492 52.3667 240.599 52.0867 240.812 51.86C241.039 51.6333 241.326 51.52 241.672 51.52ZM253.191 61.42C253.191 61.7 253.178 62.0133 253.151 62.36H247.031C247.085 63.5867 247.331 64.4733 247.771 65.02C248.211 65.5533 248.811 65.82 249.571 65.82C250.051 65.82 250.478 65.7467 250.851 65.6C251.238 65.4533 251.638 65.2133 252.051 64.88L252.851 65.94C251.865 66.82 250.745 67.26 249.491 67.26C248.118 67.26 247.051 66.7867 246.291 65.84C245.545 64.88 245.171 63.54 245.171 61.82C245.171 60.1 245.531 58.74 246.251 57.74C246.971 56.7267 247.971 56.22 249.251 56.22C250.518 56.22 251.491 56.6733 252.171 57.58C252.851 58.4733 253.191 59.7533 253.191 61.42ZM251.451 60.88C251.451 58.68 250.725 57.58 249.271 57.58C248.605 57.58 248.078 57.86 247.691 58.42C247.305 58.9667 247.085 59.86 247.031 61.1H251.451V60.88ZM260.014 56.24C260.361 56.24 260.661 56.28 260.914 56.36L260.614 58.1C260.361 58.02 260.088 57.98 259.794 57.98C259.208 57.98 258.728 58.2133 258.354 58.68C257.994 59.1467 257.708 59.86 257.494 60.82V67H255.694V56.48H257.254L257.394 58.56C257.914 57.0133 258.788 56.24 260.014 56.24ZM269.48 61.42C269.48 61.7 269.467 62.0133 269.44 62.36H263.32C263.374 63.5867 263.62 64.4733 264.06 65.02C264.5 65.5533 265.1 65.82 265.86 65.82C266.34 65.82 266.767 65.7467 267.14 65.6C267.527 65.4533 267.927 65.2133 268.34 64.88L269.14 65.94C268.154 66.82 267.034 67.26 265.78 67.26C264.407 67.26 263.34 66.7867 262.58 65.84C261.834 64.88 261.46 63.54 261.46 61.82C261.46 60.1 261.82 58.74 262.54 57.74C263.26 56.7267 264.26 56.22 265.54 56.22C266.807 56.22 267.78 56.6733 268.46 57.58C269.14 58.4733 269.48 59.7533 269.48 61.42ZM267.74 60.88C267.74 58.68 267.014 57.58 265.56 57.58C264.894 57.58 264.367 57.86 263.98 58.42C263.594 58.9667 263.374 59.86 263.32 61.1H267.74V60.88ZM274.703 56.22C275.917 56.22 276.997 56.62 277.943 57.42L277.183 58.48C276.757 58.1867 276.357 57.9667 275.983 57.82C275.61 57.6733 275.217 57.6 274.803 57.6C274.257 57.6 273.823 57.7333 273.503 58C273.197 58.2533 273.043 58.6067 273.043 59.06C273.043 59.5 273.19 59.8467 273.483 60.1C273.79 60.3533 274.363 60.6133 275.203 60.88C276.257 61.2133 277.023 61.62 277.503 62.1C277.983 62.58 278.223 63.24 278.223 64.08C278.223 65.0667 277.863 65.8467 277.143 66.42C276.423 66.98 275.523 67.26 274.443 67.26C273.017 67.26 271.81 66.7867 270.823 65.84L271.743 64.84C272.583 65.52 273.47 65.86 274.403 65.86C274.99 65.86 275.463 65.7133 275.823 65.42C276.183 65.1267 276.363 64.72 276.363 64.2C276.363 63.8267 276.297 63.5267 276.163 63.3C276.043 63.0733 275.817 62.8733 275.483 62.7C275.163 62.5133 274.69 62.32 274.063 62.12C273.063 61.7867 272.343 61.3867 271.903 60.92C271.463 60.4533 271.243 59.86 271.243 59.14C271.243 58.58 271.39 58.08 271.683 57.64C271.977 57.2 272.383 56.8533 272.903 56.6C273.423 56.3467 274.023 56.22 274.703 56.22ZM119.16 81.22C120.307 81.22 121.167 81.6933 121.74 82.64C122.327 83.5867 122.62 84.94 122.62 86.7C122.62 88.4067 122.293 89.76 121.64 90.76C121 91.76 120.1 92.26 118.94 92.26C117.9 92.26 117.06 91.84 116.42 91V96L114.62 96.22V81.48H116.2L116.3 82.9C117.02 81.78 117.973 81.22 119.16 81.22ZM118.52 90.82C120 90.82 120.74 89.4533 120.74 86.72C120.74 85.2933 120.567 84.26 120.22 83.62C119.887 82.9667 119.373 82.64 118.68 82.64C118.213 82.64 117.8 82.78 117.44 83.06C117.08 83.34 116.74 83.72 116.42 84.2V89.52C116.967 90.3867 117.667 90.82 118.52 90.82ZM131.649 89.6C131.649 90.0267 131.709 90.3467 131.829 90.56C131.949 90.76 132.135 90.9133 132.389 91.02L132.009 92.24C131.489 92.16 131.082 92 130.789 91.76C130.495 91.52 130.289 91.1533 130.169 90.66C129.489 91.7267 128.535 92.26 127.309 92.26C126.375 92.26 125.635 91.9733 125.089 91.4C124.542 90.8133 124.269 90.0333 124.269 89.06C124.269 87.94 124.635 87.0867 125.369 86.5C126.102 85.9133 127.149 85.62 128.509 85.62H129.869V84.72C129.869 83.9867 129.715 83.46 129.409 83.14C129.115 82.8067 128.629 82.64 127.949 82.64C127.215 82.64 126.362 82.8267 125.389 83.2L124.949 81.94C126.122 81.46 127.215 81.22 128.229 81.22C130.509 81.22 131.649 82.36 131.649 84.64V89.6ZM127.729 90.9C128.662 90.9 129.375 90.3533 129.869 89.26V86.78H128.709C126.975 86.78 126.109 87.5067 126.109 88.96C126.109 89.5867 126.249 90.0667 126.529 90.4C126.809 90.7333 127.209 90.9 127.729 90.9ZM139.213 81.24C139.56 81.24 139.86 81.28 140.113 81.36L139.813 83.1C139.56 83.02 139.287 82.98 138.993 82.98C138.407 82.98 137.927 83.2133 137.553 83.68C137.193 84.1467 136.907 84.86 136.693 85.82V92H134.893V81.48H136.453L136.593 83.56C137.113 82.0133 137.987 81.24 139.213 81.24ZM146.846 91.54C146.179 92.02 145.439 92.26 144.626 92.26C143.773 92.26 143.113 92.0133 142.646 91.52C142.193 91.0267 141.966 90.3333 141.966 89.44V82.84H140.466V81.48H141.966V79.06L143.766 78.84V81.48H146.086L145.886 82.84H143.766V89.42C143.766 90.3267 144.146 90.78 144.906 90.78C145.133 90.78 145.339 90.7467 145.526 90.68C145.726 90.6133 145.946 90.5133 146.186 90.38L146.846 91.54ZM150.209 81.48V92H148.409V81.48H150.209ZM149.309 76.52C149.656 76.52 149.936 76.6333 150.149 76.86C150.376 77.0867 150.489 77.3667 150.489 77.7C150.489 78.0333 150.382 78.3133 150.169 78.54C149.956 78.7533 149.669 78.86 149.309 78.86C148.962 78.86 148.676 78.7533 148.449 78.54C148.236 78.3133 148.129 78.0333 148.129 77.7C148.129 77.3667 148.236 77.0867 148.449 76.86C148.676 76.6333 148.962 76.52 149.309 76.52ZM157.108 81.22C157.668 81.22 158.181 81.3133 158.648 81.5C159.115 81.6867 159.561 81.9733 159.988 82.36L159.188 83.44C158.868 83.1867 158.548 83 158.228 82.88C157.908 82.7467 157.561 82.68 157.188 82.68C156.401 82.68 155.788 83.0133 155.348 83.68C154.921 84.3467 154.708 85.3867 154.708 86.8C154.708 89.44 155.535 90.76 157.188 90.76C157.561 90.76 157.901 90.7 158.208 90.58C158.515 90.4467 158.841 90.2533 159.188 90L160.028 91.1C159.175 91.8733 158.208 92.26 157.128 92.26C155.781 92.26 154.721 91.7933 153.948 90.86C153.188 89.9267 152.808 88.58 152.808 86.82C152.808 85.6733 152.981 84.68 153.328 83.84C153.688 83 154.188 82.3533 154.828 81.9C155.481 81.4467 156.241 81.22 157.108 81.22ZM163.803 81.48V92H162.003V81.48H163.803ZM162.903 76.52C163.249 76.52 163.529 76.6333 163.743 76.86C163.969 77.0867 164.083 77.3667 164.083 77.7C164.083 78.0333 163.976 78.3133 163.763 78.54C163.549 78.7533 163.263 78.86 162.903 78.86C162.556 78.86 162.269 78.7533 162.043 78.54C161.829 78.3133 161.723 78.0333 161.723 77.7C161.723 77.3667 161.829 77.0867 162.043 76.86C162.269 76.6333 162.556 76.52 162.903 76.52ZM171.582 81.22C172.729 81.22 173.589 81.6933 174.162 82.64C174.749 83.5867 175.042 84.94 175.042 86.7C175.042 88.4067 174.715 89.76 174.062 90.76C173.422 91.76 172.522 92.26 171.362 92.26C170.322 92.26 169.482 91.84 168.842 91V96L167.042 96.22V81.48H168.622L168.722 82.9C169.442 81.78 170.395 81.22 171.582 81.22ZM170.942 90.82C172.422 90.82 173.162 89.4533 173.162 86.72C173.162 85.2933 172.989 84.26 172.642 83.62C172.309 82.9667 171.795 82.64 171.102 82.64C170.635 82.64 170.222 82.78 169.862 83.06C169.502 83.34 169.162 83.72 168.842 84.2V89.52C169.389 90.3867 170.089 90.82 170.942 90.82ZM184.071 89.6C184.071 90.0267 184.131 90.3467 184.251 90.56C184.371 90.76 184.557 90.9133 184.811 91.02L184.431 92.24C183.911 92.16 183.504 92 183.211 91.76C182.917 91.52 182.711 91.1533 182.591 90.66C181.911 91.7267 180.957 92.26 179.731 92.26C178.797 92.26 178.057 91.9733 177.511 91.4C176.964 90.8133 176.691 90.0333 176.691 89.06C176.691 87.94 177.057 87.0867 177.791 86.5C178.524 85.9133 179.571 85.62 180.931 85.62H182.291V84.72C182.291 83.9867 182.137 83.46 181.831 83.14C181.537 82.8067 181.051 82.64 180.371 82.64C179.637 82.64 178.784 82.8267 177.811 83.2L177.371 81.94C178.544 81.46 179.637 81.22 180.651 81.22C182.931 81.22 184.071 82.36 184.071 84.64V89.6ZM180.151 90.9C181.084 90.9 181.797 90.3533 182.291 89.26V86.78H181.131C179.397 86.78 178.531 87.5067 178.531 88.96C178.531 89.5867 178.671 90.0667 178.951 90.4C179.231 90.7333 179.631 90.9 180.151 90.9ZM192.015 81.22C192.855 81.22 193.509 81.5 193.975 82.06C194.455 82.6067 194.695 83.3667 194.695 84.34V92H192.895V84.56C192.895 83.88 192.782 83.3933 192.555 83.1C192.329 82.7933 191.982 82.64 191.515 82.64C190.635 82.64 189.835 83.2667 189.115 84.52V92H187.315V81.48H188.875L189.015 83.04C189.829 81.8267 190.829 81.22 192.015 81.22ZM202.842 91.54C202.176 92.02 201.436 92.26 200.622 92.26C199.769 92.26 199.109 92.0133 198.642 91.52C198.189 91.0267 197.962 90.3333 197.962 89.44V82.84H196.462V81.48H197.962V79.06L199.762 78.84V81.48H202.082L201.882 82.84H199.762V89.42C199.762 90.3267 200.142 90.78 200.902 90.78C201.129 90.78 201.336 90.7467 201.522 90.68C201.722 90.6133 201.942 90.5133 202.182 90.38L202.842 91.54ZM211.492 86.42C211.492 86.7 211.479 87.0133 211.452 87.36H205.332C205.386 88.5867 205.632 89.4733 206.072 90.02C206.512 90.5533 207.112 90.82 207.872 90.82C208.352 90.82 208.779 90.7467 209.152 90.6C209.539 90.4533 209.939 90.2133 210.352 89.88L211.152 90.94C210.166 91.82 209.046 92.26 207.792 92.26C206.419 92.26 205.352 91.7867 204.592 90.84C203.846 89.88 203.472 88.54 203.472 86.82C203.472 85.1 203.832 83.74 204.552 82.74C205.272 81.7267 206.272 81.22 207.552 81.22C208.819 81.22 209.792 81.6733 210.472 82.58C211.152 83.4733 211.492 84.7533 211.492 86.42ZM209.752 85.88C209.752 83.68 209.026 82.58 207.572 82.58C206.906 82.58 206.379 82.86 205.992 83.42C205.606 83.9667 205.386 84.86 205.332 86.1H209.752V85.88ZM216.715 81.22C217.928 81.22 219.008 81.62 219.955 82.42L219.195 83.48C218.768 83.1867 218.368 82.9667 217.995 82.82C217.622 82.6733 217.228 82.6 216.815 82.6C216.268 82.6 215.835 82.7333 215.515 83C215.208 83.2533 215.055 83.6067 215.055 84.06C215.055 84.5 215.202 84.8467 215.495 85.1C215.802 85.3533 216.375 85.6133 217.215 85.88C218.268 86.2133 219.035 86.62 219.515 87.1C219.995 87.58 220.235 88.24 220.235 89.08C220.235 90.0667 219.875 90.8467 219.155 91.42C218.435 91.98 217.535 92.26 216.455 92.26C215.028 92.26 213.822 91.7867 212.835 90.84L213.755 89.84C214.595 90.52 215.482 90.86 216.415 90.86C217.002 90.86 217.475 90.7133 217.835 90.42C218.195 90.1267 218.375 89.72 218.375 89.2C218.375 88.8267 218.308 88.5267 218.175 88.3C218.055 88.0733 217.828 87.8733 217.495 87.7C217.175 87.5133 216.702 87.32 216.075 87.12C215.075 86.7867 214.355 86.3867 213.915 85.92C213.475 85.4533 213.255 84.86 213.255 84.14C213.255 83.58 213.402 83.08 213.695 82.64C213.988 82.2 214.395 81.8533 214.915 81.6C215.435 81.3467 216.035 81.22 216.715 81.22Z" fill="#8B8B8B"></path><path d="M2.2276 32.8688C2.2276 33.1758 2.2276 33.1758 2.2276 32.8688C2.54063 32.8688 2.54063 32.8688 2.54063 32.8688H2.85365C2.85365 32.8688 3.16667 32.8688 3.16667 33.1758C3.16667 33.1758 3.47969 33.1758 3.47969 33.4827L3.79271 33.7897C3.79271 33.7897 3.79271 33.7897 4.10573 34.0966L4.41875 34.4036C4.41875 34.4036 4.41875 34.4036 4.73177 34.7105L5.04479 35.0175C5.35781 35.0175 5.98385 35.0175 6.29688 35.3244C8.48802 35.6314 11.6182 36.5522 14.1224 36.8592C14.1224 36.8592 14.1224 37.1661 14.1224 37.4731C14.7484 37.78 15.0615 37.78 15.0615 38.087C16.0005 38.7009 16.6266 39.3148 17.2526 39.9287C17.8786 40.2356 18.1917 40.8495 18.5047 41.1565C18.8177 41.7703 18.8177 42.0773 19.1307 42.6912C19.4438 42.0773 19.7568 41.1564 20.0698 40.5426C20.3828 39.9287 20.6958 39.3148 20.6958 38.7009C20.6958 38.3939 21.0089 38.087 21.3219 37.78C21.3219 37.4731 21.6349 37.1661 21.9479 36.8592C22.2609 36.2453 22.887 36.2453 23.513 35.9383C23.826 35.9383 24.1391 35.9383 24.4521 35.9383C24.4521 35.6314 24.4521 35.3244 24.1391 35.0175C25.3911 30.7202 26.9563 26.4229 28.2083 21.8187C30.7125 25.5021 34.4688 30.1063 35.0948 31.3341C34.4688 34.7105 34.1557 38.087 33.5297 41.4634H33.8427C35.4078 41.4634 36.9729 41.4634 38.225 42.3842C39.4771 42.9981 40.4161 43.919 41.0422 44.8398C41.3552 45.1468 41.6682 45.7607 41.9813 46.3746C42.2943 46.9885 42.6073 47.6024 42.9203 48.2163C43.8594 46.9885 44.7984 46.0676 45.7375 45.1468C46.0505 44.8398 46.3635 44.5329 46.9896 44.2259C46.0505 39.6217 45.4245 35.0175 44.4854 30.7202C44.4854 30.4132 44.4854 30.1063 44.4854 29.4924C46.0505 27.3438 49.4938 22.4326 51.0589 19.977C51.3719 19.67 51.6849 19.0561 51.6849 18.7492C53.25 23.6604 55.1281 28.8785 56.6932 34.0966C55.7542 39.0078 55.1281 43.612 54.5021 48.5232C54.8151 49.1371 54.8151 49.4441 55.1281 50.058C57.6323 47.2954 61.0755 45.4537 64.8318 47.6024C65.4578 47.9093 65.7708 48.2163 66.0839 48.8302C66.0839 48.5232 66.3969 47.9093 66.3969 47.6024C66.7099 47.2954 66.7099 46.9885 66.7099 46.6815C67.0229 46.0676 67.3359 45.4537 67.649 44.8398C67.649 44.5329 67.962 44.2259 67.962 43.919C67.649 40.5426 67.3359 37.1661 67.0229 34.4036C68.901 30.7202 70.7792 27.9576 72.6573 25.5021C73.2833 24.5812 73.5964 24.2743 73.9094 23.3534C75.4745 27.9576 77.9787 34.0966 78.9177 35.6314C78.2917 37.4731 77.6656 39.3148 77.0396 41.4634C77.3526 42.0773 77.6656 42.6912 77.9786 43.3051C78.9177 41.1565 80.1698 39.0078 82.3609 37.78C84.2391 36.8592 86.4302 36.5522 88.3083 37.4731C88.3083 37.1661 88.3083 36.8592 88.3083 36.5522C90.1865 36.2453 92.3776 35.6314 94.5688 34.7105C94.5688 34.4036 94.8818 34.4036 94.8818 34.0966C95.5078 33.1758 96.4469 32.2549 97.699 32.2549C98.325 32.2549 99.2641 32.2549 99.8901 32.5619C99.8901 32.2549 100.203 31.948 100.203 31.3341C100.203 29.1854 98.325 29.7993 98.325 29.7993C94.5688 30.7202 91.1255 31.3341 87.3693 32.2549C87.0563 32.2549 86.7432 31.948 86.4302 31.948C86.4302 31.641 86.4302 31.641 86.4302 31.3341C86.7432 31.3341 87.0563 31.3341 87.3693 31.3341H87.6823C88.3083 31.0271 89.5604 30.4132 89.8734 29.1854C90.8125 27.6507 89.2474 25.5021 89.2474 25.5021C89.2474 25.5021 89.2474 25.5021 88.9344 25.1951C88.3083 23.9673 87.0563 23.3534 85.8042 22.7395C83.3 21.8187 80.7958 23.3534 80.4828 25.809C80.1698 27.6507 81.4219 29.7993 83.3 30.7202C83.3 31.0271 83.3 31.0271 83.3 31.3341C82.674 31.3341 81.4219 31.0271 80.4828 31.0271C79.5438 29.1854 77.9787 25.809 77.3526 23.9673C76.7266 22.4326 76.7266 21.8187 76.1005 20.2839C76.1005 19.977 75.7875 19.977 75.7875 19.67C75.7875 19.67 75.1615 18.7492 74.2224 18.7492C73.2833 18.4422 72.9703 19.0561 72.9703 19.3631C70.4661 22.7395 67.962 26.116 65.7708 29.7993C65.1448 29.4924 64.8318 29.4924 64.2057 29.1854C64.2057 28.8785 64.2057 28.5715 64.2057 28.2646C65.1448 28.2646 66.0839 27.9576 66.3969 27.3438C67.0229 26.7299 67.3359 26.116 67.3359 25.1951C67.3359 23.0465 65.4578 20.5909 62.9537 19.977C60.4495 19.3631 58.2583 20.5909 58.2583 23.0465C58.2583 24.8882 59.5104 26.7299 61.3885 27.6507C61.3885 27.9576 61.3885 28.2646 61.3885 28.8785C60.7625 28.8785 59.5104 28.2646 58.5714 28.2646C57.3193 23.9673 55.7542 19.3631 54.1891 15.0658C54.1891 15.0658 53.876 14.1449 52.937 14.1449C51.6849 13.5311 50.4328 15.0658 50.4328 15.0658C47.9286 18.4422 45.7375 22.1256 43.5464 25.5021C42.6073 25.5021 41.3552 25.809 40.7292 25.809C40.7292 25.5021 40.7292 25.5021 40.7292 25.1951C41.0422 24.8882 41.3552 24.8882 41.6682 24.5812C41.6682 24.5812 41.9813 24.5812 41.9813 24.2743C42.6073 23.6604 43.5464 22.4326 44.1724 21.2048C44.7984 19.0561 42.9203 17.5214 42.9203 17.5214C42.9203 17.5214 42.9203 17.5214 42.6073 17.5214C41.9813 16.6005 40.7292 16.2936 39.4771 16.2936C36.6599 16.9075 34.4688 19.0561 34.4688 21.5117C34.4688 23.3534 36.0339 24.8882 37.912 25.1951C37.912 25.5021 37.912 25.5021 37.912 25.809C36.9729 26.116 36.6599 26.4229 35.7208 26.7299C34.4688 24.5812 32.9036 22.4326 31.6516 20.5909C31.0255 19.3631 30.3995 18.7492 29.7734 17.5214C29.4604 17.2144 29.4604 17.2144 29.1474 16.9075C29.1474 16.9075 28.5214 16.2936 27.5823 16.6005C26.6432 16.9075 26.3302 17.5214 26.3302 18.1353C26.3302 18.4422 26.0172 18.4422 26.0172 18.7492C25.7042 19.977 25.3911 20.8978 25.0781 22.1256C24.1391 25.1951 23.2 28.2646 22.2609 31.0271C21.3219 31.3341 20.0698 31.3341 19.4438 31.641C19.4438 31.3341 19.4438 31.3341 19.4438 31.0271C21.0089 30.1063 22.2609 28.2646 21.9479 26.4229C21.9479 24.2743 19.7568 22.7395 16.9396 23.3534C16.0005 23.6604 14.7484 24.5812 14.1224 25.5021C13.8094 25.809 13.8094 25.809 13.8094 25.809C13.8094 25.809 12.2443 27.9576 13.1833 29.7993C13.4964 30.7202 14.4354 31.3341 15.0615 31.641H15.3745C15.6875 31.641 16.0005 31.641 16.3135 31.641C16.3135 31.948 16.3135 31.948 16.3135 32.2549C16.0005 32.5619 15.3745 32.5619 14.7484 32.8688C10.9922 32.5619 6.6099 32.2549 3.16667 31.641C3.16667 31.641 1.60156 31.641 1.60156 32.8688C1.60156 32.8688 1.91458 32.8688 2.2276 32.8688Z" fill="#1A1A1A"></path><path d="M27.5813 67.2471C27.8943 66.0193 27.8943 64.7915 28.2073 63.2568C28.2073 62.6429 28.2073 62.029 28.2073 61.1081C28.2073 60.1873 28.2073 59.5734 27.8943 58.3456C28.2073 58.3456 28.8333 58.0386 29.1464 58.0386C29.1464 57.7317 29.1464 57.4247 29.4594 57.1178C29.4594 56.8108 29.4594 56.8108 29.4594 56.5039C29.4594 56.1969 29.1464 55.89 29.1464 55.89L24.7641 46.9885L21.0078 56.5039C21.0078 56.5039 21.0078 56.8108 21.0078 57.1178C21.0078 58.0386 21.3208 58.9595 21.3208 59.5734V59.8803C22.5729 59.5734 23.512 59.2664 25.0771 58.9595C25.0771 60.1873 25.0771 60.8012 25.3901 61.722C25.3901 63.2568 25.7031 64.1776 25.7031 66.0193C25.7031 66.0193 25.7031 67.861 27.2682 67.5541C27.5812 67.5541 27.5812 67.5541 27.8943 67.2471C27.5812 67.5541 27.5813 67.2471 27.5813 67.2471Z" fill="#1A1A1A"></path><path d="M48.8643 52.8204C47.6122 54.3552 45.1081 57.1177 43.543 58.6525V58.9594C43.543 60.8011 43.543 61.7219 43.856 63.2567C43.856 63.2567 43.856 65.0984 45.4211 65.0984C47.2992 65.0984 47.6122 62.6428 47.6122 62.6428C47.6122 60.8011 47.2992 60.1872 47.2992 58.3455C48.2383 58.0386 48.8643 58.0386 49.8034 57.7316C49.4904 56.1969 49.1773 54.6621 48.8643 52.8204Z" fill="#1A1A1A"></path><path d="M75.1608 62.6428C75.1608 62.6428 75.4738 62.6428 75.7869 62.9497C75.7869 62.6428 75.7869 62.3358 75.7869 62.0289C75.7869 61.108 76.0999 60.1872 76.0999 59.2663V58.6524C76.0999 58.3455 76.0999 58.0385 76.0999 58.0385C76.0999 57.7316 76.0999 57.4246 76.0999 56.8107C76.0999 56.5038 76.0999 56.5038 76.0999 56.1968C76.0999 55.8899 76.0999 55.8899 75.7869 55.5829C75.4738 55.276 75.1608 54.969 74.8478 54.3551C74.5348 54.0482 74.5348 54.0482 74.5348 53.7413L74.2217 53.4343C73.9087 53.1274 73.5957 52.5135 73.2827 51.8996C72.9697 51.5926 72.9697 51.2857 72.6566 50.9787C70.7785 57.1177 68.9004 62.0289 68.9004 62.0289C68.9004 62.0289 70.1525 62.3358 70.4655 62.3358C70.1525 64.1775 70.1525 65.0984 69.8395 66.9401C69.8395 66.9401 69.5264 69.3956 71.4046 69.7026C72.9697 70.0095 73.2827 68.1678 73.2827 68.1678C74.8478 66.3262 75.1608 62.6428 75.1608 62.6428Z" fill="#1A1A1A"></path><path d="M69.5266 56.1971C69.5266 56.504 69.2135 56.504 69.2135 56.8109C69.2135 57.1179 68.9005 57.4248 68.9005 57.7318C68.5875 58.3457 68.2745 58.9596 68.2745 59.2665C68.2745 59.5735 67.9615 59.8804 67.9615 60.4943C67.9615 60.4943 67.9615 60.8013 67.6484 60.8013C67.6484 61.1082 67.6484 61.1082 67.6484 61.4152C67.6484 62.0291 67.6484 62.643 67.9615 63.2569C67.9615 63.5638 67.9615 64.1777 67.9615 64.4847C67.9615 64.7916 67.9615 64.7916 67.9615 65.0986C68.2745 64.7916 68.2745 64.1777 68.2745 64.1777C68.5875 62.643 68.5875 60.1874 68.5875 60.1874V59.2665L69.8396 59.5735C69.8396 59.8804 69.8396 58.3457 69.5266 56.1971Z" fill="#1A1A1A"></path><path d="M98.9494 33.7897C97.3843 32.8689 96.1322 34.7106 96.1322 34.7106C93.628 38.7009 90.8108 42.9982 88.3067 46.9885C87.6806 46.9885 86.4285 47.2955 85.8025 47.2955C85.8025 46.9885 85.8025 46.9885 85.8025 46.6816C86.1155 46.3746 86.4285 46.3746 86.7416 46.0677C86.7416 46.0677 87.0546 46.0677 87.0546 45.7607C87.9936 45.1468 88.9327 43.919 89.2457 42.6912C90.1848 39.6217 86.7416 37.78 84.2374 38.087C81.4202 38.7009 79.229 41.1565 79.229 43.6121C79.229 45.4538 80.4811 46.9885 82.6723 47.2955C82.6723 47.6024 82.6723 47.6024 82.6723 47.9094C82.0462 48.2163 81.1072 48.5233 80.1681 48.8302L75.7858 42.9982C75.1598 42.0773 74.5337 39.3148 73.2817 38.7009C72.9686 38.7009 72.9686 38.7009 72.6556 38.7009C71.7166 38.7009 71.0905 39.3148 70.7775 40.2356C68.5863 45.1468 66.7082 50.9788 64.5171 56.197C63.578 56.197 62.6389 56.197 62.3259 56.197C62.3259 55.89 62.3259 55.5831 62.3259 55.2761C63.265 54.6622 64.2041 54.0483 64.8301 53.1275C65.4561 52.2066 65.7692 51.5927 65.7692 50.6719C65.7692 48.2163 63.578 46.6816 61.0738 46.9885C58.2567 47.6024 56.0655 49.7511 56.0655 52.2066C56.0655 54.0483 57.3176 55.5831 59.5087 55.89C59.5087 56.197 59.5087 56.5039 59.5087 56.8109C58.8827 56.8109 57.9436 57.1178 57.0046 57.4248C57.0046 57.4248 57.0046 57.7317 56.6916 57.7317C54.8134 53.7414 53.2483 48.8302 51.3702 44.8399C51.3702 44.8399 51.0572 44.226 50.4311 44.226C50.1181 44.226 49.8051 44.226 49.4921 44.226C49.1791 44.226 48.866 44.226 48.866 44.5329C48.24 44.5329 47.927 45.1468 47.927 45.1468C45.4228 48.2163 42.6056 50.9788 40.1014 54.0483C40.1014 54.0483 40.1014 54.0483 40.1014 53.7414C39.4754 53.4344 38.8494 53.1275 38.2233 53.1275C38.2233 52.8205 38.2233 52.8205 38.2233 52.5136C38.5363 52.5136 38.8494 52.5136 39.1624 52.5136H39.4754C40.4145 52.2066 41.3535 51.2858 41.6666 50.365C42.9186 47.2955 39.1624 43.919 36.3452 43.3051C33.528 42.3843 31.3369 43.919 31.3369 46.3746C31.3369 48.5233 32.902 50.6719 34.7801 51.8997C34.7801 52.2066 34.7801 52.2066 34.7801 52.5136C34.1541 52.5136 32.902 52.2066 31.9629 51.8997C29.7718 47.2955 26.6416 40.5426 26.0155 39.6217C26.0155 39.0078 25.7025 39.0078 25.7025 38.7009C25.7025 38.7009 25.3895 38.087 24.7634 37.78C24.1374 37.4731 23.5113 37.1661 22.8853 37.78C21.9462 38.3939 21.6332 40.5426 21.0072 41.7704C19.7551 44.5329 19.1291 45.7607 17.877 48.5233L17.5639 49.1372C16.6249 48.5233 15.3728 48.2163 14.7468 47.9094C14.7468 47.6024 14.7468 47.6024 14.7468 47.2955C16.6249 47.2955 17.877 46.0677 17.877 44.226C17.877 41.7704 15.6858 39.3148 12.8686 38.3939C10.3645 37.78 7.23426 39.0078 8.17332 42.0773C8.48634 43.3051 9.42541 44.5329 10.3645 45.1468L10.6775 45.4538C10.9905 45.7607 11.3035 46.0677 11.6166 46.0677C11.6166 46.3746 11.6166 46.3746 11.6166 46.6816C11.3035 46.6816 9.73843 46.3746 9.11238 46.0677C7.23426 42.6912 5.35613 38.7009 3.47801 35.6314C3.47801 35.6314 2.22593 33.7897 0.973843 34.4036C-0.278241 35.0175 0.0347801 36.8592 0.0347801 36.8592C0.660822 38.087 7.54728 50.9788 9.11238 54.0483C7.54728 60.4943 5.98218 66.9402 4.73009 73.6931C4.73009 73.6931 5.98218 74.9209 8.79936 76.4556C8.79936 77.0695 8.79936 80.7529 8.79936 82.5946C8.79936 82.5946 9.11238 84.7432 10.9905 85.3571C12.8686 85.6641 12.8686 83.8224 12.8686 83.8224C12.8686 81.9807 12.8686 78.6042 12.8686 77.9904C13.4947 78.2973 14.1207 78.2973 14.7468 78.6042C14.7468 79.2181 14.7468 82.5946 14.7468 84.4363C14.7468 84.4363 14.4337 86.278 16.3119 87.1988C18.19 87.8127 18.19 85.6641 18.19 85.6641C18.19 83.8224 18.19 80.139 18.19 79.5251C19.4421 79.832 20.6942 79.832 21.9462 79.832C20.3811 72.4653 19.1291 65.0985 17.5639 57.4248C19.4421 52.8205 21.6332 48.2163 23.5113 43.919L30.0848 57.4248C29.4587 64.4846 28.2067 71.5444 26.9546 78.9112C26.9546 78.9112 28.2067 79.832 30.7108 81.0598C30.7108 82.2876 30.7108 88.4266 30.7108 91.1892C30.7108 91.1892 30.7108 93.6447 32.902 94.2586C34.7801 94.5656 35.0931 92.7239 35.0931 92.7239C35.0931 89.9614 35.0931 88.7336 35.0931 85.971C35.0931 84.7432 35.0931 83.8224 35.0931 82.9015C35.7192 83.2085 36.3452 83.2085 37.2843 83.5154C37.2843 85.3571 37.2843 90.8822 37.2843 93.0308C37.2843 93.0308 37.2843 94.8725 39.1624 95.7934C41.3535 96.7142 41.6666 94.2586 41.6666 94.2586C41.6666 92.417 41.6666 86.5849 41.6666 84.1293C42.9186 84.1293 44.1707 84.4363 45.7358 84.4363C44.1707 76.1487 42.6056 68.168 41.0405 59.8804C41.0405 59.5734 41.0405 59.5734 41.0405 59.2665C41.0405 59.2665 46.6749 53.7414 48.553 50.9788L48.866 50.6719C49.1791 50.9788 49.1791 51.5927 49.4921 51.8997C51.3702 55.89 53.2483 59.5734 54.8134 63.5638C53.8744 71.8514 52.6223 80.139 51.6832 88.4266C51.6832 88.4266 53.2483 88.4266 55.4395 88.4266C55.4395 89.0405 55.4395 92.417 55.4395 94.2586C55.4395 94.2586 55.7525 96.4073 57.3176 95.7934C58.8827 95.1795 58.8827 93.6447 58.8827 93.6447C58.8827 91.8031 59.1957 88.7336 59.1957 88.1197C59.8218 88.1197 60.4478 87.8127 61.0738 87.8127C61.0738 88.1197 61.0738 91.4961 61.0738 93.0308C61.0738 93.0308 61.0738 95.1795 62.6389 94.8725C64.204 94.5656 64.5171 92.417 64.5171 92.417C64.5171 90.5753 64.8301 87.1988 64.8301 86.8919C66.0822 86.5849 67.3343 85.971 68.2733 85.3571C67.3343 77.3765 66.3952 69.3958 65.7692 61.7221C67.6473 57.1178 69.5254 52.2066 71.7166 47.6024C72.0296 46.6816 72.3426 46.0677 72.6556 45.1468C74.8468 48.8302 78.29 53.7414 79.8551 56.197C77.977 64.7915 76.4119 73.3861 74.5337 81.6737C74.5337 81.6737 75.7858 81.6737 77.977 81.3668C77.977 81.9807 77.977 86.278 78.29 88.1197C78.29 88.1197 78.29 90.5753 80.1681 89.9614C82.3593 89.3475 82.3593 87.1988 82.3593 87.1988C82.3593 85.3571 82.3593 81.3668 82.3593 80.7529C82.9853 80.7529 83.6113 80.4459 84.5504 80.4459C84.5504 81.0598 84.5504 84.7432 84.5504 86.278C84.5504 86.278 84.5504 88.1197 86.4285 88.1197C88.6197 88.1197 88.9327 85.6641 88.9327 85.6641C88.9327 83.8224 88.9327 80.139 88.9327 79.2181C90.1848 78.6042 91.7499 78.2973 93.002 77.3764C91.4369 69.7027 89.8718 62.029 88.3067 54.3553C90.4978 50.9788 94.8801 43.6121 96.7582 39.9287C97.6973 38.3939 98.0103 37.4731 98.9494 35.9384C99.2624 35.9384 100.201 34.7106 98.9494 33.7897Z" fill="#1A1A1A"></path></svg>