<svg xmlns="http://www.w3.org/2000/svg" width="233" height="107" viewBox="0 0 233 107" fill="none"><path d="M66.7175 14H9.33398V97.3386H66.7175C67.0632 97.3386 67.4088 97.0079 67.4088 96.6772V14.6614C67.4088 14.3307 67.0632 14 66.7175 14ZM57.384 48.7244C43.5567 50.378 30.7664 50.378 16.939 48.7244C16.939 41.1181 16.939 37.4803 16.939 29.874C30.7664 28.2205 43.5567 28.2205 57.384 29.874C57.384 37.4803 57.384 41.1181 57.384 48.7244Z" fill="black"></path><path d="M6.56799 14.3307H0V97.3386H6.56799V14.3307Z" fill="black"></path><path d="M19.3574 35.8268C19.3574 36.4882 20.0488 37.1496 20.3945 37.1496H53.5801C54.2715 37.1496 54.6172 36.4882 54.6172 36.1575C54.6172 35.4961 53.9258 35.1654 53.5801 35.1654H20.3945C20.0488 34.8347 19.3574 35.1654 19.3574 35.8268Z" fill="black"></path><path d="M53.9258 40.126H20.3945C20.0488 40.126 19.3574 40.4567 19.3574 41.1181C19.3574 41.7795 20.0488 42.1102 20.3945 42.1102H53.5801C54.2715 42.1102 54.6172 41.4488 54.6172 41.1181C54.9628 40.4567 54.2715 40.126 53.9258 40.126Z" fill="black"></path><path d="M72.7181 35.2963L72.1172 80.5989L83.178 80.7332L83.7789 35.4306L72.7181 35.2963Z" fill="black"></path><path d="M72.6813 31.0793L72.6504 33.3941L83.7112 33.5291L83.742 31.2144L72.6813 31.0793Z" fill="black"></path><path d="M72.8997 27.0082L72.8691 29.323L83.9299 29.4564L83.9604 27.1417L72.8997 27.0082Z" fill="black"></path><path d="M83.9994 19.2914C83.9994 16.9764 81.9253 14.9921 79.5055 14.9921H77.7771C75.3573 14.9921 73.2832 16.6457 72.9375 19.2914V24.9134H83.9994V19.2914Z" fill="black"></path><path d="M77.4335 98L79.5076 92.0473H75.3594L77.4335 98Z" fill="black"></path><path d="M74.6698 90.3937H80.5464L82.9662 83.1181H72.25L74.6698 90.3937Z" fill="black"></path><path d="M117.68 13.4C119.387 13.4 120.867 13.7067 122.12 14.32C123.4 14.9333 124.36 15.7733 125 16.84C125.667 17.88 126 19.04 126 20.32C126 23.6 124.267 25.7333 120.8 26.72C122.64 26.9333 124.093 27.5867 125.16 28.68C126.253 29.7467 126.8 31.2933 126.8 33.32C126.8 34.84 126.427 36.24 125.68 37.52C124.96 38.7733 123.88 39.7867 122.44 40.56C121.027 41.3067 119.333 41.68 117.36 41.68C115.52 41.68 113.893 41.3333 112.48 40.64C111.067 39.9467 109.813 38.9333 108.72 37.6L112.04 34.52C112.893 35.4 113.68 36.04 114.4 36.44C115.147 36.8133 115.973 37 116.88 37C117.973 37 118.853 36.6533 119.52 35.96C120.187 35.24 120.52 34.24 120.52 32.96C120.52 31.5733 120.173 30.5733 119.48 29.96C118.813 29.32 117.813 29 116.48 29H114.52L115.2 24.76H116.52C117.613 24.76 118.48 24.4533 119.12 23.84C119.76 23.2 120.08 22.3067 120.08 21.16C120.08 20.1467 119.8 19.36 119.24 18.8C118.68 18.24 117.907 17.96 116.92 17.96C115.267 17.96 113.72 18.72 112.28 20.24L109.2 17.04C111.627 14.6133 114.453 13.4 117.68 13.4ZM132.426 34.56C133.413 34.56 134.226 34.8933 134.866 35.56C135.533 36.2267 135.866 37.0667 135.866 38.08C135.866 38.5867 135.773 39.12 135.586 39.68C135.426 40.24 135.106 41.1067 134.626 42.28L132.306 48.04H128.986L130.546 41.08C129.506 40.3333 128.986 39.3333 128.986 38.08C128.986 37.0667 129.306 36.2267 129.946 35.56C130.613 34.8933 131.44 34.56 132.426 34.56ZM146.231 13.4C149.245 13.4 151.551 14.3467 153.151 16.24C154.751 18.1067 155.551 20.6667 155.551 23.92C155.551 27.5733 154.991 30.6 153.871 33C152.778 35.3733 151.098 37.28 148.831 38.72C146.565 40.16 143.605 41.2933 139.951 42.12L138.711 37.8C141.885 36.9467 144.258 35.88 145.831 34.6C147.431 33.2933 148.485 31.4667 148.991 29.12C147.605 30.7733 145.938 31.6 143.991 31.6C142.711 31.6 141.525 31.24 140.431 30.52C139.365 29.8 138.511 28.7733 137.871 27.44C137.231 26.08 136.911 24.5067 136.911 22.72C136.911 20.8 137.311 19.1467 138.111 17.76C138.938 16.3467 140.058 15.2667 141.471 14.52C142.885 13.7733 144.471 13.4 146.231 13.4ZM145.951 27.32C147.231 27.32 148.325 26.5467 149.231 25C149.258 23.1333 149.178 21.68 148.991 20.64C148.805 19.6 148.485 18.8667 148.031 18.44C147.605 17.9867 147.005 17.76 146.231 17.76C145.245 17.76 144.471 18.1467 143.911 18.92C143.351 19.6933 143.071 20.8933 143.071 22.52C143.071 24.2 143.325 25.4267 143.831 26.2C144.365 26.9467 145.071 27.32 145.951 27.32ZM164.628 13.4C166.442 13.4 167.988 13.7467 169.268 14.44C170.575 15.1067 171.562 16.0133 172.228 17.16C172.895 18.3067 173.228 19.5867 173.228 21C173.228 22.44 172.962 23.8267 172.428 25.16C171.895 26.4667 170.948 27.9733 169.588 29.68C168.255 31.3867 166.295 33.5733 163.708 36.24H173.748L173.108 41H156.948V36.6C159.775 33.48 161.868 31.0667 163.228 29.36C164.615 27.6267 165.575 26.1867 166.108 25.04C166.642 23.8667 166.908 22.68 166.908 21.48C166.908 20.4133 166.642 19.6 166.108 19.04C165.602 18.4533 164.882 18.16 163.948 18.16C163.122 18.16 162.388 18.3733 161.748 18.8C161.108 19.2 160.402 19.88 159.628 20.84L156.068 18.04C158.255 14.9467 161.108 13.4 164.628 13.4ZM187.704 22.84C189.037 22.84 190.224 23.1867 191.264 23.88C192.331 24.5733 193.157 25.6 193.744 26.96C194.357 28.2933 194.664 29.8933 194.664 31.76C194.664 33.68 194.304 35.4 193.584 36.92C192.864 38.4133 191.824 39.5867 190.464 40.44C189.131 41.2667 187.531 41.68 185.664 41.68C182.464 41.68 180.077 40.5467 178.504 38.28C176.957 36.0133 176.184 32.8 176.184 28.64C176.184 25.5733 176.624 22.8933 177.504 20.6C178.384 18.3067 179.637 16.5333 181.264 15.28C182.917 14.0267 184.864 13.4 187.104 13.4C189.211 13.4 191.091 14 192.744 15.2L190.504 18.8C189.437 18.1333 188.371 17.8 187.304 17.8C185.971 17.8 184.877 18.44 184.024 19.72C183.197 21 182.691 22.8933 182.504 25.4C183.891 23.6933 185.624 22.84 187.704 22.84ZM185.664 37.24C187.531 37.24 188.491 35.44 188.544 31.84C188.544 30.0533 188.331 28.8133 187.904 28.12C187.477 27.4 186.824 27.04 185.944 27.04C184.744 27.04 183.597 27.8 182.504 29.32C182.531 31.32 182.651 32.8933 182.864 34.04C183.077 35.16 183.397 35.9733 183.824 36.48C184.277 36.9867 184.891 37.24 185.664 37.24Z" fill="#E36F1E"></path><path d="M115.54 53.24L115.32 54.68H110.56V59.22H114.7V60.66H110.56V65.54H115.6V67H108.7V53.24H115.54ZM120.617 56.22C121.831 56.22 122.911 56.62 123.857 57.42L123.097 58.48C122.671 58.1867 122.271 57.9667 121.897 57.82C121.524 57.6733 121.131 57.6 120.717 57.6C120.171 57.6 119.737 57.7333 119.417 58C119.111 58.2533 118.957 58.6067 118.957 59.06C118.957 59.5 119.104 59.8467 119.397 60.1C119.704 60.3533 120.277 60.6133 121.117 60.88C122.171 61.2133 122.937 61.62 123.417 62.1C123.897 62.58 124.137 63.24 124.137 64.08C124.137 65.0667 123.777 65.8467 123.057 66.42C122.337 66.98 121.437 67.26 120.357 67.26C118.931 67.26 117.724 66.7867 116.737 65.84L117.657 64.84C118.497 65.52 119.384 65.86 120.317 65.86C120.904 65.86 121.377 65.7133 121.737 65.42C122.097 65.1267 122.277 64.72 122.277 64.2C122.277 63.8267 122.211 63.5267 122.077 63.3C121.957 63.0733 121.731 62.8733 121.397 62.7C121.077 62.5133 120.604 62.32 119.977 62.12C118.977 61.7867 118.257 61.3867 117.817 60.92C117.377 60.4533 117.157 59.86 117.157 59.14C117.157 58.58 117.304 58.08 117.597 57.64C117.891 57.2 118.297 56.8533 118.817 56.6C119.337 56.3467 119.937 56.22 120.617 56.22ZM131.413 66.54C130.746 67.02 130.006 67.26 129.193 67.26C128.339 67.26 127.679 67.0133 127.213 66.52C126.759 66.0267 126.533 65.3333 126.533 64.44V57.84H125.033V56.48H126.533V54.06L128.333 53.84V56.48H130.653L130.453 57.84H128.333V64.42C128.333 65.3267 128.713 65.78 129.473 65.78C129.699 65.78 129.906 65.7467 130.092 65.68C130.293 65.6133 130.513 65.5133 130.753 65.38L131.413 66.54ZM140.195 67H138.635L138.535 65.42C137.802 66.6467 136.822 67.26 135.595 67.26C134.755 67.26 134.095 66.9867 133.615 66.44C133.135 65.8933 132.895 65.1533 132.895 64.22V56.48H134.695V64.06C134.695 64.6733 134.809 65.1267 135.035 65.42C135.275 65.7 135.629 65.84 136.095 65.84C136.989 65.84 137.755 65.2533 138.395 64.08V56.48H140.195V67ZM150.924 52.22V67H149.324L149.204 65.62C148.524 66.7133 147.611 67.26 146.464 67.26C145.318 67.26 144.424 66.7733 143.784 65.8C143.158 64.8267 142.844 63.4867 142.844 61.78C142.844 60.6733 142.998 59.7 143.304 58.86C143.624 58.02 144.071 57.3733 144.644 56.92C145.218 56.4533 145.878 56.22 146.624 56.22C147.624 56.22 148.458 56.64 149.124 57.48V52.02L150.924 52.22ZM146.884 65.84C147.364 65.84 147.778 65.7067 148.124 65.44C148.484 65.1733 148.818 64.78 149.124 64.26V58.98C148.524 58.0867 147.824 57.64 147.024 57.64C146.318 57.64 145.758 57.98 145.344 58.66C144.931 59.34 144.731 60.3667 144.744 61.74C144.744 63.14 144.931 64.1733 145.304 64.84C145.678 65.5067 146.204 65.84 146.884 65.84ZM155.967 56.48V67H154.167V56.48H155.967ZM155.067 51.52C155.414 51.52 155.694 51.6333 155.907 51.86C156.134 52.0867 156.247 52.3667 156.247 52.7C156.247 53.0333 156.14 53.3133 155.927 53.54C155.714 53.7533 155.427 53.86 155.067 53.86C154.72 53.86 154.434 53.7533 154.207 53.54C153.994 53.3133 153.887 53.0333 153.887 52.7C153.887 52.3667 153.994 52.0867 154.207 51.86C154.434 51.6333 154.72 51.52 155.067 51.52ZM165.766 64.6C165.766 65.0267 165.826 65.3467 165.946 65.56C166.066 65.76 166.253 65.9133 166.506 66.02L166.126 67.24C165.606 67.16 165.199 67 164.906 66.76C164.613 66.52 164.406 66.1533 164.286 65.66C163.606 66.7267 162.653 67.26 161.426 67.26C160.493 67.26 159.753 66.9733 159.206 66.4C158.659 65.8133 158.386 65.0333 158.386 64.06C158.386 62.94 158.753 62.0867 159.486 61.5C160.219 60.9133 161.266 60.62 162.626 60.62H163.986V59.72C163.986 58.9867 163.833 58.46 163.526 58.14C163.233 57.8067 162.746 57.64 162.066 57.64C161.333 57.64 160.479 57.8267 159.506 58.2L159.066 56.94C160.239 56.46 161.333 56.22 162.346 56.22C164.626 56.22 165.766 57.36 165.766 59.64V64.6ZM161.846 65.9C162.779 65.9 163.493 65.3533 163.986 64.26V61.78H162.826C161.093 61.78 160.226 62.5067 160.226 63.96C160.226 64.5867 160.366 65.0667 160.646 65.4C160.926 65.7333 161.326 65.9 161.846 65.9ZM173.711 56.22C174.551 56.22 175.204 56.5 175.671 57.06C176.151 57.6067 176.391 58.3667 176.391 59.34V67H174.591V59.56C174.591 58.88 174.477 58.3933 174.251 58.1C174.024 57.7933 173.677 57.64 173.211 57.64C172.331 57.64 171.531 58.2667 170.811 59.52V67H169.011V56.48H170.571L170.711 58.04C171.524 56.8267 172.524 56.22 173.711 56.22ZM184.538 66.54C183.871 67.02 183.131 67.26 182.318 67.26C181.464 67.26 180.804 67.0133 180.338 66.52C179.884 66.0267 179.658 65.3333 179.658 64.44V57.84H178.158V56.48H179.658V54.06L181.458 53.84V56.48H183.778L183.578 57.84H181.458V64.42C181.458 65.3267 181.838 65.78 182.598 65.78C182.824 65.78 183.031 65.7467 183.217 65.68C183.418 65.6133 183.638 65.5133 183.878 65.38L184.538 66.54ZM193.188 61.42C193.188 61.7 193.174 62.0133 193.148 62.36H187.028C187.081 63.5867 187.328 64.4733 187.768 65.02C188.208 65.5533 188.808 65.82 189.568 65.82C190.048 65.82 190.474 65.7467 190.848 65.6C191.234 65.4533 191.634 65.2133 192.048 64.88L192.848 65.94C191.861 66.82 190.741 67.26 189.488 67.26C188.114 67.26 187.048 66.7867 186.288 65.84C185.541 64.88 185.168 63.54 185.168 61.82C185.168 60.1 185.528 58.74 186.248 57.74C186.968 56.7267 187.968 56.22 189.248 56.22C190.514 56.22 191.488 56.6733 192.168 57.58C192.848 58.4733 193.188 59.7533 193.188 61.42ZM191.448 60.88C191.448 58.68 190.721 57.58 189.268 57.58C188.601 57.58 188.074 57.86 187.688 58.42C187.301 58.9667 187.081 59.86 187.028 61.1H191.448V60.88ZM198.41 56.22C199.624 56.22 200.704 56.62 201.65 57.42L200.89 58.48C200.464 58.1867 200.064 57.9667 199.69 57.82C199.317 57.6733 198.924 57.6 198.51 57.6C197.964 57.6 197.53 57.7333 197.21 58C196.904 58.2533 196.75 58.6067 196.75 59.06C196.75 59.5 196.897 59.8467 197.19 60.1C197.497 60.3533 198.07 60.6133 198.91 60.88C199.964 61.2133 200.73 61.62 201.21 62.1C201.69 62.58 201.93 63.24 201.93 64.08C201.93 65.0667 201.57 65.8467 200.85 66.42C200.13 66.98 199.23 67.26 198.15 67.26C196.724 67.26 195.517 66.7867 194.53 65.84L195.45 64.84C196.29 65.52 197.177 65.86 198.11 65.86C198.697 65.86 199.17 65.7133 199.53 65.42C199.89 65.1267 200.07 64.72 200.07 64.2C200.07 63.8267 200.004 63.5267 199.87 63.3C199.75 63.0733 199.524 62.8733 199.19 62.7C198.87 62.5133 198.397 62.32 197.77 62.12C196.77 61.7867 196.05 61.3867 195.61 60.92C195.17 60.4533 194.95 59.86 194.95 59.14C194.95 58.58 195.097 58.08 195.39 57.64C195.684 57.2 196.09 56.8533 196.61 56.6C197.13 56.3467 197.73 56.22 198.41 56.22ZM113.16 81.22C114.307 81.22 115.167 81.6933 115.74 82.64C116.327 83.5867 116.62 84.94 116.62 86.7C116.62 88.4067 116.293 89.76 115.64 90.76C115 91.76 114.1 92.26 112.94 92.26C111.9 92.26 111.06 91.84 110.42 91V96L108.62 96.22V81.48H110.2L110.3 82.9C111.02 81.78 111.973 81.22 113.16 81.22ZM112.52 90.82C114 90.82 114.74 89.4533 114.74 86.72C114.74 85.2933 114.567 84.26 114.22 83.62C113.887 82.9667 113.373 82.64 112.68 82.64C112.213 82.64 111.8 82.78 111.44 83.06C111.08 83.34 110.74 83.72 110.42 84.2V89.52C110.967 90.3867 111.667 90.82 112.52 90.82ZM125.649 89.6C125.649 90.0267 125.709 90.3467 125.829 90.56C125.949 90.76 126.135 90.9133 126.389 91.02L126.009 92.24C125.489 92.16 125.082 92 124.789 91.76C124.495 91.52 124.289 91.1533 124.169 90.66C123.489 91.7267 122.535 92.26 121.309 92.26C120.375 92.26 119.635 91.9733 119.089 91.4C118.542 90.8133 118.269 90.0333 118.269 89.06C118.269 87.94 118.635 87.0867 119.369 86.5C120.102 85.9133 121.149 85.62 122.509 85.62H123.869V84.72C123.869 83.9867 123.715 83.46 123.409 83.14C123.115 82.8067 122.629 82.64 121.949 82.64C121.215 82.64 120.362 82.8267 119.389 83.2L118.949 81.94C120.122 81.46 121.215 81.22 122.229 81.22C124.509 81.22 125.649 82.36 125.649 84.64V89.6ZM121.729 90.9C122.662 90.9 123.375 90.3533 123.869 89.26V86.78H122.709C120.975 86.78 120.109 87.5067 120.109 88.96C120.109 89.5867 120.249 90.0667 120.529 90.4C120.809 90.7333 121.209 90.9 121.729 90.9ZM133.213 81.24C133.56 81.24 133.86 81.28 134.113 81.36L133.813 83.1C133.56 83.02 133.287 82.98 132.993 82.98C132.407 82.98 131.927 83.2133 131.553 83.68C131.193 84.1467 130.907 84.86 130.693 85.82V92H128.893V81.48H130.453L130.593 83.56C131.113 82.0133 131.987 81.24 133.213 81.24ZM140.846 91.54C140.179 92.02 139.439 92.26 138.626 92.26C137.773 92.26 137.113 92.0133 136.646 91.52C136.193 91.0267 135.966 90.3333 135.966 89.44V82.84H134.466V81.48H135.966V79.06L137.766 78.84V81.48H140.086L139.886 82.84H137.766V89.42C137.766 90.3267 138.146 90.78 138.906 90.78C139.133 90.78 139.339 90.7467 139.526 90.68C139.726 90.6133 139.946 90.5133 140.186 90.38L140.846 91.54ZM144.209 81.48V92H142.409V81.48H144.209ZM143.309 76.52C143.656 76.52 143.936 76.6333 144.149 76.86C144.376 77.0867 144.489 77.3667 144.489 77.7C144.489 78.0333 144.382 78.3133 144.169 78.54C143.956 78.7533 143.669 78.86 143.309 78.86C142.962 78.86 142.676 78.7533 142.449 78.54C142.236 78.3133 142.129 78.0333 142.129 77.7C142.129 77.3667 142.236 77.0867 142.449 76.86C142.676 76.6333 142.962 76.52 143.309 76.52ZM151.108 81.22C151.668 81.22 152.181 81.3133 152.648 81.5C153.115 81.6867 153.561 81.9733 153.988 82.36L153.188 83.44C152.868 83.1867 152.548 83 152.228 82.88C151.908 82.7467 151.561 82.68 151.188 82.68C150.401 82.68 149.788 83.0133 149.348 83.68C148.921 84.3467 148.708 85.3867 148.708 86.8C148.708 89.44 149.535 90.76 151.188 90.76C151.561 90.76 151.901 90.7 152.208 90.58C152.515 90.4467 152.841 90.2533 153.188 90L154.028 91.1C153.175 91.8733 152.208 92.26 151.128 92.26C149.781 92.26 148.721 91.7933 147.948 90.86C147.188 89.9267 146.808 88.58 146.808 86.82C146.808 85.6733 146.981 84.68 147.328 83.84C147.688 83 148.188 82.3533 148.828 81.9C149.481 81.4467 150.241 81.22 151.108 81.22ZM157.803 81.48V92H156.003V81.48H157.803ZM156.903 76.52C157.249 76.52 157.529 76.6333 157.743 76.86C157.969 77.0867 158.083 77.3667 158.083 77.7C158.083 78.0333 157.976 78.3133 157.763 78.54C157.549 78.7533 157.263 78.86 156.903 78.86C156.556 78.86 156.269 78.7533 156.043 78.54C155.829 78.3133 155.723 78.0333 155.723 77.7C155.723 77.3667 155.829 77.0867 156.043 76.86C156.269 76.6333 156.556 76.52 156.903 76.52ZM165.582 81.22C166.729 81.22 167.589 81.6933 168.162 82.64C168.749 83.5867 169.042 84.94 169.042 86.7C169.042 88.4067 168.715 89.76 168.062 90.76C167.422 91.76 166.522 92.26 165.362 92.26C164.322 92.26 163.482 91.84 162.842 91V96L161.042 96.22V81.48H162.622L162.722 82.9C163.442 81.78 164.395 81.22 165.582 81.22ZM164.942 90.82C166.422 90.82 167.162 89.4533 167.162 86.72C167.162 85.2933 166.989 84.26 166.642 83.62C166.309 82.9667 165.795 82.64 165.102 82.64C164.635 82.64 164.222 82.78 163.862 83.06C163.502 83.34 163.162 83.72 162.842 84.2V89.52C163.389 90.3867 164.089 90.82 164.942 90.82ZM178.071 89.6C178.071 90.0267 178.131 90.3467 178.251 90.56C178.371 90.76 178.557 90.9133 178.811 91.02L178.431 92.24C177.911 92.16 177.504 92 177.211 91.76C176.917 91.52 176.711 91.1533 176.591 90.66C175.911 91.7267 174.957 92.26 173.731 92.26C172.797 92.26 172.057 91.9733 171.511 91.4C170.964 90.8133 170.691 90.0333 170.691 89.06C170.691 87.94 171.057 87.0867 171.791 86.5C172.524 85.9133 173.571 85.62 174.931 85.62H176.291V84.72C176.291 83.9867 176.137 83.46 175.831 83.14C175.537 82.8067 175.051 82.64 174.371 82.64C173.637 82.64 172.784 82.8267 171.811 83.2L171.371 81.94C172.544 81.46 173.637 81.22 174.651 81.22C176.931 81.22 178.071 82.36 178.071 84.64V89.6ZM174.151 90.9C175.084 90.9 175.797 90.3533 176.291 89.26V86.78H175.131C173.397 86.78 172.531 87.5067 172.531 88.96C172.531 89.5867 172.671 90.0667 172.951 90.4C173.231 90.7333 173.631 90.9 174.151 90.9ZM186.015 81.22C186.855 81.22 187.509 81.5 187.975 82.06C188.455 82.6067 188.695 83.3667 188.695 84.34V92H186.895V84.56C186.895 83.88 186.782 83.3933 186.555 83.1C186.329 82.7933 185.982 82.64 185.515 82.64C184.635 82.64 183.835 83.2667 183.115 84.52V92H181.315V81.48H182.875L183.015 83.04C183.829 81.8267 184.829 81.22 186.015 81.22ZM196.842 91.54C196.176 92.02 195.436 92.26 194.622 92.26C193.769 92.26 193.109 92.0133 192.642 91.52C192.189 91.0267 191.962 90.3333 191.962 89.44V82.84H190.462V81.48H191.962V79.06L193.762 78.84V81.48H196.082L195.882 82.84H193.762V89.42C193.762 90.3267 194.142 90.78 194.902 90.78C195.129 90.78 195.336 90.7467 195.522 90.68C195.722 90.6133 195.942 90.5133 196.182 90.38L196.842 91.54ZM205.492 86.42C205.492 86.7 205.479 87.0133 205.452 87.36H199.332C199.386 88.5867 199.632 89.4733 200.072 90.02C200.512 90.5533 201.112 90.82 201.872 90.82C202.352 90.82 202.779 90.7467 203.152 90.6C203.539 90.4533 203.939 90.2133 204.352 89.88L205.152 90.94C204.166 91.82 203.046 92.26 201.792 92.26C200.419 92.26 199.352 91.7867 198.592 90.84C197.846 89.88 197.472 88.54 197.472 86.82C197.472 85.1 197.832 83.74 198.552 82.74C199.272 81.7267 200.272 81.22 201.552 81.22C202.819 81.22 203.792 81.6733 204.472 82.58C205.152 83.4733 205.492 84.7533 205.492 86.42ZM203.752 85.88C203.752 83.68 203.026 82.58 201.572 82.58C200.906 82.58 200.379 82.86 199.992 83.42C199.606 83.9667 199.386 84.86 199.332 86.1H203.752V85.88ZM210.715 81.22C211.928 81.22 213.008 81.62 213.955 82.42L213.195 83.48C212.768 83.1867 212.368 82.9667 211.995 82.82C211.622 82.6733 211.228 82.6 210.815 82.6C210.268 82.6 209.835 82.7333 209.515 83C209.208 83.2533 209.055 83.6067 209.055 84.06C209.055 84.5 209.202 84.8467 209.495 85.1C209.802 85.3533 210.375 85.6133 211.215 85.88C212.268 86.2133 213.035 86.62 213.515 87.1C213.995 87.58 214.235 88.24 214.235 89.08C214.235 90.0667 213.875 90.8467 213.155 91.42C212.435 91.98 211.535 92.26 210.455 92.26C209.028 92.26 207.822 91.7867 206.835 90.84L207.755 89.84C208.595 90.52 209.482 90.86 210.415 90.86C211.002 90.86 211.475 90.7133 211.835 90.42C212.195 90.1267 212.375 89.72 212.375 89.2C212.375 88.8267 212.308 88.5267 212.175 88.3C212.055 88.0733 211.828 87.8733 211.495 87.7C211.175 87.5133 210.702 87.32 210.075 87.12C209.075 86.7867 208.355 86.3867 207.915 85.92C207.475 85.4533 207.255 84.86 207.255 84.14C207.255 83.58 207.402 83.08 207.695 82.64C207.988 82.2 208.395 81.8533 208.915 81.6C209.435 81.3467 210.035 81.22 210.715 81.22Z" fill="#8B8B8B"></path></svg>