<svg xmlns="http://www.w3.org/2000/svg" width="207" height="90" viewBox="0 0 207 90" fill="none"><path d="M115.12 14V41H109.08V20L103.96 23.48L101.24 19.48L109.6 14H115.12ZM126.594 13.4C128.301 13.4 129.781 13.7067 131.034 14.32C132.314 14.9333 133.274 15.7733 133.914 16.84C134.581 17.88 134.914 19.04 134.914 20.32C134.914 23.6 133.181 25.7333 129.714 26.72C131.554 26.9333 133.007 27.5867 134.074 28.68C135.167 29.7467 135.714 31.2933 135.714 33.32C135.714 34.84 135.341 36.24 134.594 37.52C133.874 38.7733 132.794 39.7867 131.354 40.56C129.941 41.3067 128.247 41.68 126.274 41.68C124.434 41.68 122.807 41.3333 121.394 40.64C119.981 39.9467 118.727 38.9333 117.634 37.6L120.954 34.52C121.807 35.4 122.594 36.04 123.314 36.44C124.061 36.8133 124.887 37 125.794 37C126.887 37 127.767 36.6533 128.434 35.96C129.101 35.24 129.434 34.24 129.434 32.96C129.434 31.5733 129.087 30.5733 128.394 29.96C127.727 29.32 126.727 29 125.394 29H123.434L124.114 24.76H125.434C126.527 24.76 127.394 24.4533 128.034 23.84C128.674 23.2 128.994 22.3067 128.994 21.16C128.994 20.1467 128.714 19.36 128.154 18.8C127.594 18.24 126.821 17.96 125.834 17.96C124.181 17.96 122.634 18.72 121.194 20.24L118.114 17.04C120.541 14.6133 123.367 13.4 126.594 13.4ZM147.74 13.4C150.78 13.4 153.1 14.6 154.7 17C156.327 19.4 157.14 22.9067 157.14 27.52C157.14 32.1867 156.34 35.72 154.74 38.12C153.14 40.4933 150.807 41.68 147.74 41.68C144.674 41.68 142.34 40.4933 140.74 38.12C139.14 35.72 138.34 32.1867 138.34 27.52C138.34 22.8533 139.14 19.3333 140.74 16.96C142.34 14.5867 144.674 13.4 147.74 13.4ZM147.74 17.96C146.967 17.96 146.354 18.24 145.9 18.8C145.474 19.36 145.154 20.3333 144.94 21.72C144.727 23.08 144.62 25.0133 144.62 27.52C144.62 30.0533 144.727 32.0133 144.94 33.4C145.154 34.7867 145.474 35.76 145.9 36.32C146.354 36.8533 146.967 37.12 147.74 37.12C148.514 37.12 149.127 36.8533 149.58 36.32C150.034 35.76 150.354 34.8 150.54 33.44C150.754 32.0533 150.86 30.08 150.86 27.52C150.86 24.9867 150.754 23.04 150.54 21.68C150.327 20.2933 149.994 19.3333 149.54 18.8C149.114 18.24 148.514 17.96 147.74 17.96Z" fill="#E36F1E"></path><path d="M104.086 51.616C105.154 51.616 106.084 51.778 106.876 52.102C107.668 52.426 108.31 53.038 108.802 53.938C109.306 54.838 109.558 56.104 109.558 57.736C109.558 60.064 109.06 61.69 108.064 62.614C107.08 63.538 105.832 64 104.32 64H101.53V51.616H104.086ZM103.204 52.93V62.704H104.428C105.46 62.704 106.282 62.35 106.894 61.642C107.506 60.922 107.812 59.62 107.812 57.736C107.812 56.416 107.65 55.402 107.326 54.694C107.014 53.986 106.606 53.518 106.102 53.29C105.61 53.05 105.022 52.93 104.338 52.93H103.204ZM115.211 54.298C116.423 54.298 117.365 54.724 118.037 55.576C118.709 56.428 119.045 57.652 119.045 59.248C119.045 60.784 118.703 62.002 118.019 62.902C117.335 63.79 116.393 64.234 115.193 64.234C113.981 64.234 113.033 63.796 112.349 62.92C111.677 62.044 111.341 60.826 111.341 59.266C111.341 57.694 111.683 56.476 112.367 55.612C113.051 54.736 113.999 54.298 115.211 54.298ZM115.211 55.594C114.503 55.594 113.963 55.894 113.591 56.494C113.219 57.082 113.033 58.006 113.033 59.266C113.033 61.726 113.753 62.956 115.193 62.956C116.633 62.956 117.353 61.72 117.353 59.248C117.353 57.988 117.173 57.064 116.813 56.476C116.453 55.888 115.919 55.594 115.211 55.594ZM124.686 54.298C125.19 54.298 125.652 54.382 126.072 54.55C126.492 54.718 126.894 54.976 127.278 55.324L126.558 56.296C126.27 56.068 125.982 55.9 125.694 55.792C125.406 55.672 125.094 55.612 124.758 55.612C124.05 55.612 123.498 55.912 123.102 56.512C122.718 57.112 122.526 58.048 122.526 59.32C122.526 61.696 123.27 62.884 124.758 62.884C125.094 62.884 125.4 62.83 125.676 62.722C125.952 62.602 126.246 62.428 126.558 62.2L127.314 63.19C126.546 63.886 125.676 64.234 124.704 64.234C123.492 64.234 122.538 63.814 121.842 62.974C121.158 62.134 120.816 60.922 120.816 59.338C120.816 58.306 120.972 57.412 121.284 56.656C121.608 55.9 122.058 55.318 122.634 54.91C123.222 54.502 123.906 54.298 124.686 54.298ZM135.399 58.978C135.399 59.23 135.387 59.512 135.363 59.824H129.855C129.903 60.928 130.125 61.726 130.521 62.218C130.917 62.698 131.457 62.938 132.141 62.938C132.573 62.938 132.957 62.872 133.293 62.74C133.641 62.608 134.001 62.392 134.373 62.092L135.093 63.046C134.205 63.838 133.197 64.234 132.069 64.234C130.833 64.234 129.873 63.808 129.189 62.956C128.517 62.092 128.181 60.886 128.181 59.338C128.181 57.79 128.505 56.566 129.153 55.666C129.801 54.754 130.701 54.298 131.853 54.298C132.993 54.298 133.869 54.706 134.481 55.522C135.093 56.326 135.399 57.478 135.399 58.978ZM133.833 58.492C133.833 56.512 133.179 55.522 131.871 55.522C131.271 55.522 130.797 55.774 130.449 56.278C130.101 56.77 129.903 57.574 129.855 58.69H133.833V58.492ZM141.881 54.298C142.637 54.298 143.225 54.55 143.645 55.054C144.077 55.546 144.293 56.23 144.293 57.106V64H142.673V57.304C142.673 56.692 142.571 56.254 142.367 55.99C142.163 55.714 141.851 55.576 141.431 55.576C140.639 55.576 139.919 56.14 139.271 57.268V64H137.651V54.532H139.055L139.181 55.936C139.913 54.844 140.813 54.298 141.881 54.298ZM151.626 63.586C151.026 64.018 150.36 64.234 149.628 64.234C148.86 64.234 148.266 64.012 147.846 63.568C147.438 63.124 147.234 62.5 147.234 61.696V55.756H145.884V54.532H147.234V52.354L148.854 52.156V54.532H150.942L150.762 55.756H148.854V61.678C148.854 62.494 149.196 62.902 149.88 62.902C150.084 62.902 150.27 62.872 150.438 62.812C150.618 62.752 150.816 62.662 151.032 62.542L151.626 63.586ZM159.411 58.978C159.411 59.23 159.399 59.512 159.375 59.824H153.867C153.915 60.928 154.137 61.726 154.533 62.218C154.929 62.698 155.469 62.938 156.153 62.938C156.585 62.938 156.969 62.872 157.305 62.74C157.653 62.608 158.013 62.392 158.385 62.092L159.105 63.046C158.217 63.838 157.209 64.234 156.081 64.234C154.845 64.234 153.885 63.808 153.201 62.956C152.529 62.092 152.193 60.886 152.193 59.338C152.193 57.79 152.517 56.566 153.165 55.666C153.813 54.754 154.713 54.298 155.865 54.298C157.005 54.298 157.881 54.706 158.493 55.522C159.105 56.326 159.411 57.478 159.411 58.978ZM157.845 58.492C157.845 56.512 157.191 55.522 155.883 55.522C155.283 55.522 154.809 55.774 154.461 56.278C154.113 56.77 153.915 57.574 153.867 58.69H157.845V58.492ZM164.111 54.298C165.203 54.298 166.175 54.658 167.027 55.378L166.343 56.332C165.959 56.068 165.599 55.87 165.263 55.738C164.927 55.606 164.573 55.54 164.201 55.54C163.709 55.54 163.319 55.66 163.031 55.9C162.755 56.128 162.617 56.446 162.617 56.854C162.617 57.25 162.749 57.562 163.013 57.79C163.289 58.018 163.805 58.252 164.561 58.492C165.509 58.792 166.199 59.158 166.631 59.59C167.063 60.022 167.279 60.616 167.279 61.372C167.279 62.26 166.955 62.962 166.307 63.478C165.659 63.982 164.849 64.234 163.877 64.234C162.593 64.234 161.507 63.808 160.619 62.956L161.447 62.056C162.203 62.668 163.001 62.974 163.841 62.974C164.369 62.974 164.795 62.842 165.119 62.578C165.443 62.314 165.605 61.948 165.605 61.48C165.605 61.144 165.545 60.874 165.425 60.67C165.317 60.466 165.113 60.286 164.813 60.13C164.525 59.962 164.099 59.788 163.535 59.608C162.635 59.308 161.987 58.948 161.591 58.528C161.195 58.108 160.997 57.574 160.997 56.926C160.997 56.422 161.129 55.972 161.393 55.576C161.657 55.18 162.023 54.868 162.491 54.64C162.959 54.412 163.499 54.298 164.111 54.298ZM105.544 74.298C106.576 74.298 107.35 74.724 107.866 75.576C108.394 76.428 108.658 77.646 108.658 79.23C108.658 80.766 108.364 81.984 107.776 82.884C107.2 83.784 106.39 84.234 105.346 84.234C104.41 84.234 103.654 83.856 103.078 83.1V87.6L101.458 87.798V74.532H102.88L102.97 75.81C103.618 74.802 104.476 74.298 105.544 74.298ZM104.968 82.938C106.3 82.938 106.966 81.708 106.966 79.248C106.966 77.964 106.81 77.034 106.498 76.458C106.198 75.87 105.736 75.576 105.112 75.576C104.692 75.576 104.32 75.702 103.996 75.954C103.672 76.206 103.366 76.548 103.078 76.98V81.768C103.57 82.548 104.2 82.938 104.968 82.938ZM116.784 81.84C116.784 82.224 116.838 82.512 116.946 82.704C117.054 82.884 117.222 83.022 117.45 83.118L117.108 84.216C116.64 84.144 116.274 84 116.01 83.784C115.746 83.568 115.56 83.238 115.452 82.794C114.84 83.754 113.982 84.234 112.878 84.234C112.038 84.234 111.372 83.976 110.88 83.46C110.388 82.932 110.142 82.23 110.142 81.354C110.142 80.346 110.472 79.578 111.132 79.05C111.792 78.522 112.734 78.258 113.958 78.258H115.182V77.448C115.182 76.788 115.044 76.314 114.768 76.026C114.504 75.726 114.066 75.576 113.454 75.576C112.794 75.576 112.026 75.744 111.15 76.08L110.754 74.946C111.81 74.514 112.794 74.298 113.706 74.298C115.758 74.298 116.784 75.324 116.784 77.376V81.84ZM113.256 83.01C114.096 83.01 114.738 82.518 115.182 81.534V79.302H114.138C112.578 79.302 111.798 79.956 111.798 81.264C111.798 81.828 111.924 82.26 112.176 82.56C112.428 82.86 112.788 83.01 113.256 83.01ZM123.592 74.316C123.904 74.316 124.174 74.352 124.402 74.424L124.132 75.99C123.904 75.918 123.658 75.882 123.394 75.882C122.866 75.882 122.434 76.092 122.098 76.512C121.774 76.932 121.516 77.574 121.324 78.438V84H119.704V74.532H121.108L121.234 76.404C121.702 75.012 122.488 74.316 123.592 74.316ZM130.461 83.586C129.861 84.018 129.195 84.234 128.463 84.234C127.695 84.234 127.101 84.012 126.681 83.568C126.273 83.124 126.069 82.5 126.069 81.696V75.756H124.719V74.532H126.069V72.354L127.689 72.156V74.532H129.777L129.597 75.756H127.689V81.678C127.689 82.494 128.031 82.902 128.715 82.902C128.919 82.902 129.105 82.872 129.273 82.812C129.453 82.752 129.651 82.662 129.867 82.542L130.461 83.586ZM133.488 74.532V84H131.868V74.532H133.488ZM132.678 70.068C132.99 70.068 133.242 70.17 133.434 70.374C133.638 70.578 133.74 70.83 133.74 71.13C133.74 71.43 133.644 71.682 133.452 71.886C133.26 72.078 133.002 72.174 132.678 72.174C132.366 72.174 132.108 72.078 131.904 71.886C131.712 71.682 131.616 71.43 131.616 71.13C131.616 70.83 131.712 70.578 131.904 70.374C132.108 70.17 132.366 70.068 132.678 70.068ZM139.697 74.298C140.201 74.298 140.663 74.382 141.083 74.55C141.503 74.718 141.905 74.976 142.289 75.324L141.569 76.296C141.281 76.068 140.993 75.9 140.705 75.792C140.417 75.672 140.105 75.612 139.769 75.612C139.061 75.612 138.509 75.912 138.113 76.512C137.729 77.112 137.537 78.048 137.537 79.32C137.537 81.696 138.281 82.884 139.769 82.884C140.105 82.884 140.411 82.83 140.687 82.722C140.963 82.602 141.257 82.428 141.569 82.2L142.325 83.19C141.557 83.886 140.687 84.234 139.715 84.234C138.503 84.234 137.549 83.814 136.853 82.974C136.169 82.134 135.827 80.922 135.827 79.338C135.827 78.306 135.983 77.412 136.295 76.656C136.619 75.9 137.069 75.318 137.645 74.91C138.233 74.502 138.917 74.298 139.697 74.298ZM145.723 74.532V84H144.103V74.532H145.723ZM144.913 70.068C145.225 70.068 145.477 70.17 145.669 70.374C145.873 70.578 145.975 70.83 145.975 71.13C145.975 71.43 145.879 71.682 145.687 71.886C145.495 72.078 145.237 72.174 144.913 72.174C144.601 72.174 144.343 72.078 144.139 71.886C143.947 71.682 143.851 71.43 143.851 71.13C143.851 70.83 143.947 70.578 144.139 70.374C144.343 70.17 144.601 70.068 144.913 70.068ZM152.724 74.298C153.756 74.298 154.53 74.724 155.046 75.576C155.574 76.428 155.838 77.646 155.838 79.23C155.838 80.766 155.544 81.984 154.956 82.884C154.38 83.784 153.57 84.234 152.526 84.234C151.59 84.234 150.834 83.856 150.258 83.1V87.6L148.638 87.798V74.532H150.06L150.15 75.81C150.798 74.802 151.656 74.298 152.724 74.298ZM152.148 82.938C153.48 82.938 154.146 81.708 154.146 79.248C154.146 77.964 153.99 77.034 153.678 76.458C153.378 75.87 152.916 75.576 152.292 75.576C151.872 75.576 151.5 75.702 151.176 75.954C150.852 76.206 150.546 76.548 150.258 76.98V81.768C150.75 82.548 151.38 82.938 152.148 82.938ZM163.964 81.84C163.964 82.224 164.018 82.512 164.126 82.704C164.234 82.884 164.402 83.022 164.63 83.118L164.288 84.216C163.82 84.144 163.454 84 163.19 83.784C162.926 83.568 162.74 83.238 162.632 82.794C162.02 83.754 161.162 84.234 160.058 84.234C159.218 84.234 158.552 83.976 158.06 83.46C157.568 82.932 157.322 82.23 157.322 81.354C157.322 80.346 157.652 79.578 158.312 79.05C158.972 78.522 159.914 78.258 161.138 78.258H162.362V77.448C162.362 76.788 162.224 76.314 161.948 76.026C161.684 75.726 161.246 75.576 160.634 75.576C159.974 75.576 159.206 75.744 158.33 76.08L157.934 74.946C158.99 74.514 159.974 74.298 160.886 74.298C162.938 74.298 163.964 75.324 163.964 77.376V81.84ZM160.436 83.01C161.276 83.01 161.918 82.518 162.362 81.534V79.302H161.318C159.758 79.302 158.978 79.956 158.978 81.264C158.978 81.828 159.104 82.26 159.356 82.56C159.608 82.86 159.968 83.01 160.436 83.01ZM171.114 74.298C171.87 74.298 172.458 74.55 172.878 75.054C173.31 75.546 173.526 76.23 173.526 77.106V84H171.906V77.304C171.906 76.692 171.804 76.254 171.6 75.99C171.396 75.714 171.084 75.576 170.664 75.576C169.872 75.576 169.152 76.14 168.504 77.268V84H166.884V74.532H168.288L168.414 75.936C169.146 74.844 170.046 74.298 171.114 74.298ZM180.858 83.586C180.258 84.018 179.592 84.234 178.86 84.234C178.092 84.234 177.498 84.012 177.078 83.568C176.67 83.124 176.466 82.5 176.466 81.696V75.756H175.116V74.532H176.466V72.354L178.086 72.156V74.532H180.174L179.994 75.756H178.086V81.678C178.086 82.494 178.428 82.902 179.112 82.902C179.316 82.902 179.502 82.872 179.67 82.812C179.85 82.752 180.048 82.662 180.264 82.542L180.858 83.586ZM188.643 78.978C188.643 79.23 188.631 79.512 188.607 79.824H183.099C183.147 80.928 183.369 81.726 183.765 82.218C184.161 82.698 184.701 82.938 185.385 82.938C185.817 82.938 186.201 82.872 186.537 82.74C186.885 82.608 187.245 82.392 187.617 82.092L188.337 83.046C187.449 83.838 186.441 84.234 185.313 84.234C184.077 84.234 183.117 83.808 182.433 82.956C181.761 82.092 181.425 80.886 181.425 79.338C181.425 77.79 181.749 76.566 182.397 75.666C183.045 74.754 183.945 74.298 185.097 74.298C186.237 74.298 187.113 74.706 187.725 75.522C188.337 76.326 188.643 77.478 188.643 78.978ZM187.077 78.492C187.077 76.512 186.423 75.522 185.115 75.522C184.515 75.522 184.041 75.774 183.693 76.278C183.345 76.77 183.147 77.574 183.099 78.69H187.077V78.492ZM193.344 74.298C194.436 74.298 195.408 74.658 196.26 75.378L195.576 76.332C195.192 76.068 194.832 75.87 194.496 75.738C194.16 75.606 193.806 75.54 193.434 75.54C192.942 75.54 192.552 75.66 192.264 75.9C191.988 76.128 191.85 76.446 191.85 76.854C191.85 77.25 191.982 77.562 192.246 77.79C192.522 78.018 193.038 78.252 193.794 78.492C194.742 78.792 195.432 79.158 195.864 79.59C196.296 80.022 196.512 80.616 196.512 81.372C196.512 82.26 196.188 82.962 195.54 83.478C194.892 83.982 194.082 84.234 193.11 84.234C191.826 84.234 190.74 83.808 189.852 82.956L190.68 82.056C191.436 82.668 192.234 82.974 193.074 82.974C193.602 82.974 194.028 82.842 194.352 82.578C194.676 82.314 194.838 81.948 194.838 81.48C194.838 81.144 194.778 80.874 194.658 80.67C194.55 80.466 194.346 80.286 194.046 80.13C193.758 79.962 193.332 79.788 192.768 79.608C191.868 79.308 191.22 78.948 190.824 78.528C190.428 78.108 190.23 77.574 190.23 76.926C190.23 76.422 190.362 75.972 190.625 75.576C190.89 75.18 191.256 74.868 191.724 74.64C192.192 74.412 192.732 74.298 193.344 74.298Z" fill="#8B8B8B"></path><g clip-path="url(#clip0_743_277)"><path d="M49.8656 61.5789L46.8974 55.8947C45.1165 57.1579 43.0388 58.4211 41.5547 59.6842C44.8197 61.8947 47.7879 62.5263 49.8656 61.5789Z" fill="#1C1D30"></path><path d="M54.0204 52.4211C52.2395 53.0526 50.1618 54 48.3809 55.2632L51.3491 60.6316C53.13 59.3684 54.0204 56.2105 54.0204 52.4211Z" fill="#1C1D30"></path><path d="M39.1804 58.1053C39.4772 58.4211 40.0709 58.7368 40.3677 59.0526C42.1486 57.4737 44.2264 56.2105 46.3041 54.9474L41.555 45.4737C38.5868 47.3684 35.3218 49.2632 32.6504 51.1579C34.7281 54 36.8059 56.2105 39.1804 58.1053Z" fill="#1C1D30"></path><path d="M42.7422 44.8421L47.4913 54C49.569 52.7368 51.6468 51.7895 54.0213 50.8421C54.0213 47.3684 53.1309 43.5789 51.9436 39.4737C48.9754 41.3684 45.7104 42.9474 42.7422 44.8421Z" fill="#1C1D30"></path><path d="M33.2422 8.52632C35.9136 10.4211 38.5849 13.2632 41.2563 16.4211C44.2245 14.5263 46.8959 12.3158 49.2705 10.7368C46.8959 8.8421 44.2245 7.26316 41.2563 6C39.7722 5.36842 38.5849 5.05263 37.1008 4.73684C35.9136 6 34.7263 7.26316 33.2422 8.52632Z" fill="#1C1D30"></path><path d="M38.5858 2.52632C38.5858 2.84211 38.5858 2.84211 38.5858 2.52632C38.289 3.15789 38.289 3.15789 37.9922 3.47368C39.1795 3.78947 40.3667 4.10526 41.554 4.73684C44.5222 6 47.4904 7.57895 50.1618 9.78947C51.0523 9.1579 51.9427 8.52632 52.5364 7.89474C48.3809 4.73684 43.6318 3.15789 38.5858 2.52632Z" fill="#1C1D30"></path><path d="M50.1625 11.6842C47.788 13.5789 44.8198 15.4737 41.8516 17.6842C43.9293 20.2105 45.7102 23.3684 47.4911 26.5263L57.2862 20.8421C55.5053 17.3684 53.1307 14.2105 50.1625 11.6842Z" fill="#1C1D30"></path><path d="M58.1759 22.1053L48.3809 27.7895C50.1618 31.2632 51.6459 34.4211 52.5363 37.5789C55.8014 36 58.7696 34.4211 61.4409 33.1579C61.1441 29.3684 59.9568 25.5789 58.1759 22.1053Z" fill="#1C1D30"></path><path d="M40.6633 44.2105L35.9141 35.3684L25.8223 41.3684C27.6032 44.5263 29.3841 47.6842 31.4618 50.2105C34.43 48 37.6951 46.1053 40.6633 44.2105Z" fill="#1C1D30"></path><path d="M35.3216 34.1053L30.5725 25.2632C27.3074 26.8421 24.3392 28.7368 21.0742 30.3158C22.2615 33.4737 23.4488 36.6316 25.2297 40.1053L35.3216 34.1053Z" fill="#1C1D30"></path><path d="M51.3489 38.2105C50.1616 35.0526 48.9744 31.8947 47.1934 28.4211L37.1016 34.421L41.8507 43.5789C45.1157 41.6842 48.3807 39.7895 51.3489 38.2105Z" fill="#1C1D30"></path><path d="M32.0555 9.47368C30.2746 11.0526 28.1969 12.3158 26.1191 13.5789L31.1651 22.7368C34.1333 20.8421 37.3983 18.9474 40.0697 17.0526C37.3983 14.2105 34.7269 11.3684 32.0555 9.47368Z" fill="#1C1D30"></path><path d="M9.49749 36C8.60704 36.3158 7.41976 36.9474 6.5293 37.2632C6.82612 41.3684 8.0134 45.4737 9.79431 49.2632L13.3562 47.3684C11.5752 43.5789 10.0911 39.7895 9.49749 36Z" fill="#1C1D30"></path><path d="M31.7598 24.3158L36.5089 33.1579L46.6008 27.1579C44.8198 24 43.0389 20.8421 40.9612 18.3158C37.993 20.5263 35.0248 22.4211 31.7598 24.3158Z" fill="#1C1D30"></path><path d="M20.777 29.0526C23.7452 27.4737 26.7134 25.5789 29.9784 24L24.9324 14.5263C22.8547 15.4737 20.777 16.7368 18.6992 17.3684C18.6992 18 18.6992 18.6316 18.6992 19.2632C18.996 22.4211 19.5897 25.5789 20.777 29.0526Z" fill="#1C1D30"></path><path d="M22.5566 6.94737L25.5248 12.6316C27.3058 11.3684 29.3835 10.1053 30.8676 8.84211C27.6026 6.63158 24.6344 6 22.5566 6.94737Z" fill="#1C1D30"></path><path d="M18.4023 16.1053C20.1833 15.4737 22.261 14.5263 24.0419 13.2632L21.0737 7.89474C19.5896 9.1579 18.6992 12 18.4023 16.1053Z" fill="#1C1D30"></path><path d="M19.8867 60.6316C24.0422 63.4737 28.7913 65.3684 33.8372 65.6842C34.1341 65.3684 34.1341 65.0526 34.4309 64.7368C30.2754 63.7895 25.8231 61.579 22.2613 58.4211C21.3708 59.3684 20.4804 60 19.8867 60.6316Z" fill="#1C1D30"></path><path d="M53.7242 8.8421C53.1305 9.47368 52.2401 10.1053 51.3496 10.7368C54.021 13.2632 56.6924 16.4211 58.4733 19.8947L61.7383 18C59.6606 14.2105 56.9892 11.0526 53.7242 8.8421Z" fill="#1C1D30"></path><path d="M65.8933 31.5789C65.8933 27.4737 64.706 23.0526 62.6283 19.2632L59.3633 21.1579C61.1442 24.9474 62.3315 28.7368 63.2219 32.5263C63.8156 32.2105 65.0029 31.8947 65.8933 31.5789Z" fill="#1C1D30"></path><path d="M61.7386 34.7368C59.0672 36 56.099 37.2632 52.834 38.8421C54.0213 42.9474 54.9117 46.7368 55.2085 50.2105C56.9895 49.5789 58.4736 49.2632 59.9577 48.9474C60.5513 47.3684 60.8481 45.7895 61.1449 44.2105C62.0354 41.0526 62.3322 37.8947 61.7386 34.7368Z" fill="#1C1D30"></path><path d="M36.509 3.15789C36.8059 2.84211 36.8059 2.84211 37.1027 2.52632C35.6186 2.52632 34.1345 2.52632 32.6504 2.84211C33.8377 2.84211 35.0249 2.84211 36.509 3.15789Z" fill="#1C1D30"></path><path d="M61.144 50.2105C60.5504 52.1053 59.6599 53.6842 58.4727 55.2632C59.6599 53.6842 60.8472 52.1053 62.0345 50.2105C61.7377 50.2105 61.4408 50.2105 61.144 50.2105Z" fill="#1C1D30"></path><path d="M40.0694 65.6842C38.5853 65.6842 37.3981 65.6842 35.914 65.3684C35.6171 65.6842 35.6171 66 35.3203 66C37.1012 66 39.179 66 40.9599 65.6842C40.6631 65.6842 40.3662 65.6842 40.0694 65.6842Z" fill="#1C1D30"></path><path d="M63.2224 34.1053C63.5192 37.5789 63.5192 41.0526 62.9256 44.5263C62.6287 46.1053 62.3319 47.3684 61.7383 48.9474C62.0351 48.9474 62.0351 48.9474 62.3319 48.9474H62.6287C65.0033 44.2105 66.1906 38.5263 65.8938 33.1579C65.3001 33.4737 64.1128 33.7895 63.2224 34.1053Z" fill="#1C1D30"></path><path d="M18.6997 59.6842C19.5901 59.0526 20.1838 58.421 21.0742 57.7895C18.4029 55.2632 15.7315 52.1053 13.9506 48.6316L10.6855 50.5263C12.7633 54.3158 15.4347 57.4737 18.6997 59.6842Z" fill="#1C1D30"></path><path d="M9.49745 34.4211C8.90381 30.9474 9.20063 27.4737 9.79427 24C10.0911 22.4211 10.3879 21.1579 10.9816 19.5789C10.6847 19.5789 10.6847 19.5789 10.3879 19.5789H10.0911C7.71653 24.3158 6.52925 30 6.82607 35.3684C7.41971 35.3684 8.31017 34.7368 9.49745 34.4211Z" fill="#1C1D30"></path><path d="M26.416 5.05263C28.1969 5.36842 29.9779 6.31579 32.0556 7.57895C33.2429 6.63158 34.4302 5.36842 35.3206 4.42105C32.3524 4.10526 29.3842 4.42105 26.416 5.05263Z" fill="#1C1D30"></path><path d="M11.2791 18C11.8728 16.4211 12.7632 15.1579 13.3569 13.8947C12.1696 15.1579 11.2791 16.7368 10.3887 18.3158C10.9823 18 10.9823 18 11.2791 18Z" fill="#1C1D30"></path><path d="M24.0424 40.7368C22.2615 37.5789 21.0742 34.1053 19.887 30.9474C16.6219 32.5263 13.6537 34.1053 10.6855 35.3684C11.2792 39.1579 12.4665 42.9474 14.2474 46.4211L24.0424 40.7368Z" fill="#1C1D30"></path><path d="M10.6852 33.7895C13.3566 32.5263 16.3248 31.2632 19.5898 29.3684C18.4025 26.2105 17.5121 22.7368 17.2152 19.5789C17.2152 18.9474 17.2152 18.6316 17.2152 18C15.4343 18.6316 13.9502 18.9474 12.4661 19.2632C11.8725 20.8421 11.2788 22.4211 10.982 24.3158C10.3884 27.4737 10.3884 30.6316 10.6852 33.7895Z" fill="#1C1D30"></path><path d="M55.5037 51.7895C55.5037 54.3158 55.2069 56.2105 54.6133 58.1053C56.691 55.8947 58.4719 53.3684 59.6592 50.5263C58.1751 50.8421 56.9878 51.4737 55.5037 51.7895Z" fill="#1C1D30"></path><path d="M17.2141 16.4211C17.2141 13.8947 17.5109 12 18.1045 10.1053C16.0268 12.3158 14.2459 14.8421 13.0586 17.6842C14.2459 17.3684 15.73 17.0526 17.2141 16.4211Z" fill="#1C1D30"></path><path d="M22.2604 56.8421C24.635 54.9474 27.6032 53.0526 30.5713 50.8421C28.4936 48.3158 26.7127 45.1579 24.9318 42L15.1367 47.6842C17.2145 51.1579 19.589 54.3158 22.2604 56.8421Z" fill="#1C1D30"></path><path d="M46.303 63.1579C44.5221 62.8421 42.7412 61.8947 40.6635 60.6316C39.4762 61.579 38.2889 62.8421 37.3984 63.7895C40.0698 64.4211 43.3348 64.1053 46.303 63.1579Z" fill="#1C1D30"></path><path d="M39.1787 60C38.8819 59.6842 38.5851 59.6842 38.2883 59.3684C35.9137 57.4737 33.5391 54.9474 31.4614 52.1053C28.4932 54 25.8218 55.8947 23.4473 57.7895C27.0091 60.9474 31.4614 62.8421 35.6169 63.7895C36.5073 62.5263 37.9914 61.2632 39.1787 60Z" fill="#1C1D30"></path><path d="M59.9576 63.4737C60.5512 62.8421 60.5512 61.8947 59.9576 61.2632C59.364 60.6316 58.4735 60.6316 57.8799 61.2632C51.9435 66.9474 43.9293 70.1053 35.9152 70.1053C17.8092 69.7895 2.9682 54 2.9682 34.4211C2.9682 21.1579 9.79505 9.15789 20.7774 3.15789C21.371 2.84211 21.6678 1.89474 21.371 0.947368C20.7774 -2.67949e-09 19.8869 -0.315789 19.2933 0.315789C7.42049 6.94737 0 19.8947 0 34.4211C0 54.9474 14.841 71.6842 33.8375 72.9474V82.4211H19.8869C17.8092 82.4211 16.3251 84 16.3251 86.2105C16.3251 88.4211 17.8092 90 19.8869 90H52.5371C54.6148 90 56.0989 88.4211 56.0989 86.2105C56.0989 84 54.6148 82.4211 52.5371 82.4211H39.1802V72.9474C46.6007 72.3158 54.0212 68.8421 59.9576 63.4737Z" fill="#1C1D30"></path><path d="M73.5688 30.4656L73.1445 32.6295L81.5707 34.4995L81.995 32.3356L73.5688 30.4656Z" fill="#1C1D30"></path><path d="M74.2383 27.0736L73.8145 29.2377L82.2415 31.1059L82.6653 28.9418L74.2383 27.0736Z" fill="#1C1D30"></path><path d="M81.032 18.3158L79.8448 18C78.0638 17.6842 75.9861 18.9474 75.6893 20.8421L74.7988 25.5789L83.4066 27.4737L84.2971 22.7368C84.0002 20.5263 82.813 18.6316 81.032 18.3158Z" fill="#1C1D30"></path><path d="M66.4882 88.1053L69.1595 83.3684L65.8945 82.7368L66.4882 88.1053Z" fill="#1C1D30"></path><path d="M65.5975 81.1579L70.0498 82.1053L73.3149 76.4211L65.0039 74.5263L65.5975 81.1579Z" fill="#1C1D30"></path><path d="M72.7655 34.0201L65.2461 72.3518L68.7328 73.126L76.2522 34.7943L72.7655 34.0201Z" fill="#1C1D30"></path><path d="M77.8145 35.3451L70.2988 73.6768L73.7855 74.4506L81.3012 36.1189L77.8145 35.3451Z" fill="#1C1D30"></path></g><defs><clipPath id="clip0_743_277"><rect width="84" height="90" fill="white"></rect></clipPath></defs></svg>