<svg xmlns="http://www.w3.org/2000/svg" width="275" height="91" viewBox="0 0 275 91" fill="none"><path d="M122.88 30.48V35.12H120.24V41H114.36L114.32 35.12H103.88V31L110.76 13.28L115.96 15.16L110.12 30.48H114.4L115.08 24.04H120.24V30.48H122.88ZM136.587 22.84C137.92 22.84 139.107 23.1867 140.147 23.88C141.214 24.5733 142.04 25.6 142.627 26.96C143.24 28.2933 143.547 29.8933 143.547 31.76C143.547 33.68 143.187 35.4 142.467 36.92C141.747 38.4133 140.707 39.5867 139.347 40.44C138.014 41.2667 136.414 41.68 134.547 41.68C131.347 41.68 128.96 40.5467 127.387 38.28C125.84 36.0133 125.067 32.8 125.067 28.64C125.067 25.5733 125.507 22.8933 126.387 20.6C127.267 18.3067 128.52 16.5333 130.147 15.28C131.8 14.0267 133.747 13.4 135.987 13.4C138.094 13.4 139.974 14 141.627 15.2L139.387 18.8C138.32 18.1333 137.254 17.8 136.187 17.8C134.854 17.8 133.76 18.44 132.907 19.72C132.08 21 131.574 22.8933 131.387 25.4C132.774 23.6933 134.507 22.84 136.587 22.84ZM134.547 37.24C136.414 37.24 137.374 35.44 137.427 31.84C137.427 30.0533 137.214 28.8133 136.787 28.12C136.36 27.4 135.707 27.04 134.827 27.04C133.627 27.04 132.48 27.8 131.387 29.32C131.414 31.32 131.534 32.8933 131.747 34.04C131.96 35.16 132.28 35.9733 132.707 36.48C133.16 36.9867 133.774 37.24 134.547 37.24Z" fill="#E36F1E"></path><path d="M105.204 52.616V65H103.53V52.616H105.204ZM112.399 55.298C113.155 55.298 113.743 55.55 114.163 56.054C114.595 56.546 114.811 57.23 114.811 58.106V65H113.191V58.304C113.191 57.692 113.089 57.254 112.885 56.99C112.681 56.714 112.369 56.576 111.949 56.576C111.157 56.576 110.437 57.14 109.789 58.268V65H108.169V55.532H109.573L109.699 56.936C110.431 55.844 111.331 55.298 112.399 55.298ZM120.109 55.298C121.201 55.298 122.173 55.658 123.025 56.378L122.341 57.332C121.957 57.068 121.597 56.87 121.261 56.738C120.925 56.606 120.571 56.54 120.199 56.54C119.707 56.54 119.317 56.66 119.029 56.9C118.753 57.128 118.615 57.446 118.615 57.854C118.615 58.25 118.747 58.562 119.011 58.79C119.287 59.018 119.803 59.252 120.559 59.492C121.507 59.792 122.197 60.158 122.629 60.59C123.061 61.022 123.277 61.616 123.277 62.372C123.277 63.26 122.953 63.962 122.305 64.478C121.657 64.982 120.847 65.234 119.875 65.234C118.591 65.234 117.505 64.808 116.617 63.956L117.445 63.056C118.201 63.668 118.999 63.974 119.839 63.974C120.367 63.974 120.793 63.842 121.117 63.578C121.441 63.314 121.603 62.948 121.603 62.48C121.603 62.144 121.543 61.874 121.423 61.67C121.315 61.466 121.111 61.286 120.811 61.13C120.523 60.962 120.097 60.788 119.533 60.608C118.633 60.308 117.985 59.948 117.589 59.528C117.193 59.108 116.995 58.574 116.995 57.926C116.995 57.422 117.127 56.972 117.391 56.576C117.655 56.18 118.021 55.868 118.489 55.64C118.957 55.412 119.497 55.298 120.109 55.298ZM129.825 64.586C129.225 65.018 128.559 65.234 127.827 65.234C127.059 65.234 126.465 65.012 126.045 64.568C125.637 64.124 125.433 63.5 125.433 62.696V56.756H124.083V55.532H125.433V53.354L127.053 53.156V55.532H129.141L128.961 56.756H127.053V62.678C127.053 63.494 127.395 63.902 128.079 63.902C128.283 63.902 128.469 63.872 128.637 63.812C128.817 63.752 129.015 63.662 129.231 63.542L129.825 64.586ZM132.851 55.532V65H131.231V55.532H132.851ZM132.041 51.068C132.353 51.068 132.605 51.17 132.797 51.374C133.001 51.578 133.103 51.83 133.103 52.13C133.103 52.43 133.007 52.682 132.815 52.886C132.623 53.078 132.365 53.174 132.041 53.174C131.729 53.174 131.471 53.078 131.267 52.886C131.075 52.682 130.979 52.43 130.979 52.13C130.979 51.83 131.075 51.578 131.267 51.374C131.471 51.17 131.729 51.068 132.041 51.068ZM140.249 64.586C139.649 65.018 138.983 65.234 138.251 65.234C137.483 65.234 136.889 65.012 136.469 64.568C136.061 64.124 135.857 63.5 135.857 62.696V56.756H134.507V55.532H135.857V53.354L137.477 53.156V55.532H139.565L139.385 56.756H137.477V62.678C137.477 63.494 137.819 63.902 138.503 63.902C138.707 63.902 138.893 63.872 139.061 63.812C139.241 63.752 139.439 63.662 139.655 63.542L140.249 64.586ZM148.153 65H146.749L146.659 63.578C145.999 64.682 145.117 65.234 144.013 65.234C143.257 65.234 142.663 64.988 142.231 64.496C141.799 64.004 141.583 63.338 141.583 62.498V55.532H143.203V62.354C143.203 62.906 143.305 63.314 143.509 63.578C143.725 63.83 144.043 63.956 144.463 63.956C145.267 63.956 145.957 63.428 146.533 62.372V55.532H148.153V65ZM154.371 55.298C154.875 55.298 155.337 55.382 155.757 55.55C156.177 55.718 156.579 55.976 156.963 56.324L156.243 57.296C155.955 57.068 155.667 56.9 155.379 56.792C155.091 56.672 154.779 56.612 154.443 56.612C153.735 56.612 153.183 56.912 152.787 57.512C152.403 58.112 152.211 59.048 152.211 60.32C152.211 62.696 152.955 63.884 154.443 63.884C154.779 63.884 155.085 63.83 155.361 63.722C155.637 63.602 155.931 63.428 156.243 63.2L156.999 64.19C156.231 64.886 155.361 65.234 154.389 65.234C153.177 65.234 152.223 64.814 151.527 63.974C150.843 63.134 150.501 61.922 150.501 60.338C150.501 59.306 150.657 58.412 150.969 57.656C151.293 56.9 151.743 56.318 152.319 55.91C152.907 55.502 153.591 55.298 154.371 55.298ZM160.396 55.532V65H158.776V55.532H160.396ZM159.586 51.068C159.898 51.068 160.15 51.17 160.342 51.374C160.546 51.578 160.648 51.83 160.648 52.13C160.648 52.43 160.552 52.682 160.36 52.886C160.168 53.078 159.91 53.174 159.586 53.174C159.274 53.174 159.016 53.078 158.812 52.886C158.62 52.682 158.524 52.43 158.524 52.13C158.524 51.83 158.62 51.578 158.812 51.374C159.016 51.17 159.274 51.068 159.586 51.068ZM166.606 55.298C167.818 55.298 168.76 55.724 169.432 56.576C170.104 57.428 170.44 58.652 170.44 60.248C170.44 61.784 170.098 63.002 169.414 63.902C168.73 64.79 167.788 65.234 166.588 65.234C165.376 65.234 164.428 64.796 163.744 63.92C163.072 63.044 162.736 61.826 162.736 60.266C162.736 58.694 163.078 57.476 163.762 56.612C164.446 55.736 165.394 55.298 166.606 55.298ZM166.606 56.594C165.898 56.594 165.358 56.894 164.986 57.494C164.614 58.082 164.428 59.006 164.428 60.266C164.428 62.726 165.148 63.956 166.588 63.956C168.028 63.956 168.748 62.72 168.748 60.248C168.748 58.988 168.568 58.064 168.208 57.476C167.848 56.888 167.314 56.594 166.606 56.594ZM177.016 55.298C177.772 55.298 178.36 55.55 178.78 56.054C179.212 56.546 179.428 57.23 179.428 58.106V65H177.808V58.304C177.808 57.692 177.706 57.254 177.502 56.99C177.298 56.714 176.986 56.576 176.566 56.576C175.774 56.576 175.054 57.14 174.406 58.268V65H172.786V55.532H174.19L174.316 56.936C175.048 55.844 175.948 55.298 177.016 55.298ZM188.92 59.978C188.92 60.23 188.908 60.512 188.884 60.824H183.376C183.424 61.928 183.646 62.726 184.042 63.218C184.438 63.698 184.978 63.938 185.662 63.938C186.094 63.938 186.478 63.872 186.814 63.74C187.162 63.608 187.522 63.392 187.894 63.092L188.614 64.046C187.726 64.838 186.718 65.234 185.59 65.234C184.354 65.234 183.394 64.808 182.71 63.956C182.038 63.092 181.702 61.886 181.702 60.338C181.702 58.79 182.026 57.566 182.674 56.666C183.322 55.754 184.222 55.298 185.374 55.298C186.514 55.298 187.39 55.706 188.002 56.522C188.614 57.326 188.92 58.478 188.92 59.978ZM187.354 59.492C187.354 57.512 186.7 56.522 185.392 56.522C184.792 56.522 184.318 56.774 183.97 57.278C183.622 57.77 183.424 58.574 183.376 59.69H187.354V59.492ZM193.621 55.298C194.713 55.298 195.685 55.658 196.537 56.378L195.853 57.332C195.469 57.068 195.109 56.87 194.773 56.738C194.437 56.606 194.083 56.54 193.711 56.54C193.219 56.54 192.829 56.66 192.541 56.9C192.265 57.128 192.127 57.446 192.127 57.854C192.127 58.25 192.259 58.562 192.523 58.79C192.799 59.018 193.315 59.252 194.071 59.492C195.019 59.792 195.709 60.158 196.141 60.59C196.573 61.022 196.789 61.616 196.789 62.372C196.789 63.26 196.465 63.962 195.817 64.478C195.169 64.982 194.359 65.234 193.387 65.234C192.103 65.234 191.017 64.808 190.129 63.956L190.957 63.056C191.713 63.668 192.511 63.974 193.351 63.974C193.879 63.974 194.305 63.842 194.629 63.578C194.953 63.314 195.115 62.948 195.115 62.48C195.115 62.144 195.055 61.874 194.935 61.67C194.827 61.466 194.623 61.286 194.323 61.13C194.035 60.962 193.609 60.788 193.045 60.608C192.145 60.308 191.497 59.948 191.101 59.528C190.705 59.108 190.507 58.574 190.507 57.926C190.507 57.422 190.639 56.972 190.903 56.576C191.167 56.18 191.533 55.868 192.001 55.64C192.469 55.412 193.009 55.298 193.621 55.298ZM110.1 79.978C110.1 80.23 110.088 80.512 110.064 80.824H104.556C104.604 81.928 104.826 82.726 105.222 83.218C105.618 83.698 106.158 83.938 106.842 83.938C107.274 83.938 107.658 83.872 107.994 83.74C108.342 83.608 108.702 83.392 109.074 83.092L109.794 84.046C108.906 84.838 107.898 85.234 106.77 85.234C105.534 85.234 104.574 84.808 103.89 83.956C103.218 83.092 102.882 81.886 102.882 80.338C102.882 78.79 103.206 77.566 103.854 76.666C104.502 75.754 105.402 75.298 106.554 75.298C107.694 75.298 108.57 75.706 109.182 76.522C109.794 77.326 110.1 78.478 110.1 79.978ZM108.534 79.492C108.534 77.512 107.88 76.522 106.572 76.522C105.972 76.522 105.498 76.774 105.15 77.278C104.802 77.77 104.604 78.574 104.556 79.69H108.534V79.492ZM119.085 71.698V85H117.645L117.537 83.758C116.925 84.742 116.103 85.234 115.071 85.234C114.039 85.234 113.235 84.796 112.659 83.92C112.095 83.044 111.813 81.838 111.813 80.302C111.813 79.306 111.951 78.43 112.227 77.674C112.515 76.918 112.917 76.336 113.433 75.928C113.949 75.508 114.543 75.298 115.215 75.298C116.115 75.298 116.865 75.676 117.465 76.432V71.518L119.085 71.698ZM115.449 83.956C115.881 83.956 116.253 83.836 116.565 83.596C116.889 83.356 117.189 83.002 117.465 82.534V77.782C116.925 76.978 116.295 76.576 115.575 76.576C114.939 76.576 114.435 76.882 114.063 77.494C113.691 78.106 113.511 79.03 113.523 80.266C113.523 81.526 113.691 82.456 114.027 83.056C114.363 83.656 114.837 83.956 115.449 83.956ZM128.501 85H127.097L127.007 83.578C126.347 84.682 125.465 85.234 124.361 85.234C123.605 85.234 123.011 84.988 122.579 84.496C122.147 84.004 121.931 83.338 121.931 82.498V75.532H123.551V82.354C123.551 82.906 123.653 83.314 123.857 83.578C124.073 83.83 124.391 83.956 124.811 83.956C125.615 83.956 126.305 83.428 126.881 82.372V75.532H128.501V85ZM134.719 75.298C135.223 75.298 135.685 75.382 136.105 75.55C136.525 75.718 136.927 75.976 137.311 76.324L136.591 77.296C136.303 77.068 136.015 76.9 135.727 76.792C135.439 76.672 135.127 76.612 134.791 76.612C134.083 76.612 133.531 76.912 133.135 77.512C132.751 78.112 132.559 79.048 132.559 80.32C132.559 82.696 133.303 83.884 134.791 83.884C135.127 83.884 135.433 83.83 135.709 83.722C135.985 83.602 136.279 83.428 136.591 83.2L137.347 84.19C136.579 84.886 135.709 85.234 134.737 85.234C133.525 85.234 132.571 84.814 131.875 83.974C131.191 83.134 130.849 81.922 130.849 80.338C130.849 79.306 131.005 78.412 131.317 77.656C131.641 76.9 132.091 76.318 132.667 75.91C133.255 75.502 133.939 75.298 134.719 75.298ZM144.852 82.84C144.852 83.224 144.906 83.512 145.014 83.704C145.122 83.884 145.29 84.022 145.518 84.118L145.176 85.216C144.708 85.144 144.342 85 144.078 84.784C143.814 84.568 143.628 84.238 143.52 83.794C142.908 84.754 142.05 85.234 140.946 85.234C140.106 85.234 139.44 84.976 138.948 84.46C138.456 83.932 138.21 83.23 138.21 82.354C138.21 81.346 138.54 80.578 139.2 80.05C139.86 79.522 140.802 79.258 142.026 79.258H143.25V78.448C143.25 77.788 143.112 77.314 142.836 77.026C142.572 76.726 142.134 76.576 141.522 76.576C140.862 76.576 140.094 76.744 139.218 77.08L138.822 75.946C139.878 75.514 140.862 75.298 141.774 75.298C143.826 75.298 144.852 76.324 144.852 78.376V82.84ZM141.324 84.01C142.164 84.01 142.806 83.518 143.25 82.534V80.302H142.206C140.646 80.302 139.866 80.956 139.866 82.264C139.866 82.828 139.992 83.26 140.244 83.56C140.496 83.86 140.856 84.01 141.324 84.01ZM152.254 84.586C151.654 85.018 150.988 85.234 150.256 85.234C149.488 85.234 148.894 85.012 148.474 84.568C148.066 84.124 147.862 83.5 147.862 82.696V76.756H146.512V75.532H147.862V73.354L149.482 73.156V75.532H151.57L151.39 76.756H149.482V82.678C149.482 83.494 149.824 83.902 150.508 83.902C150.712 83.902 150.898 83.872 151.066 83.812C151.246 83.752 151.444 83.662 151.66 83.542L152.254 84.586ZM155.281 75.532V85H153.661V75.532H155.281ZM154.471 71.068C154.783 71.068 155.035 71.17 155.227 71.374C155.431 71.578 155.533 71.83 155.533 72.13C155.533 72.43 155.437 72.682 155.245 72.886C155.053 73.078 154.795 73.174 154.471 73.174C154.159 73.174 153.901 73.078 153.697 72.886C153.505 72.682 153.409 72.43 153.409 72.13C153.409 71.83 153.505 71.578 153.697 71.374C153.901 71.17 154.159 71.068 154.471 71.068ZM164.586 75.532L161.76 85H159.816L156.9 75.532H158.592L160.788 83.632L162.966 75.532H164.586ZM171.87 82.84C171.87 83.224 171.924 83.512 172.032 83.704C172.14 83.884 172.308 84.022 172.536 84.118L172.194 85.216C171.726 85.144 171.36 85 171.096 84.784C170.832 84.568 170.646 84.238 170.538 83.794C169.926 84.754 169.068 85.234 167.964 85.234C167.124 85.234 166.458 84.976 165.966 84.46C165.474 83.932 165.228 83.23 165.228 82.354C165.228 81.346 165.558 80.578 166.218 80.05C166.878 79.522 167.82 79.258 169.044 79.258H170.268V78.448C170.268 77.788 170.13 77.314 169.854 77.026C169.59 76.726 169.152 76.576 168.54 76.576C167.88 76.576 167.112 76.744 166.236 77.08L165.84 75.946C166.896 75.514 167.88 75.298 168.792 75.298C170.844 75.298 171.87 76.324 171.87 78.376V82.84ZM168.342 84.01C169.182 84.01 169.824 83.518 170.268 82.534V80.302H169.224C167.664 80.302 166.884 80.956 166.884 82.264C166.884 82.828 167.01 83.26 167.262 83.56C167.514 83.86 167.874 84.01 168.342 84.01ZM177.115 75.298C178.207 75.298 179.179 75.658 180.031 76.378L179.347 77.332C178.963 77.068 178.603 76.87 178.267 76.738C177.931 76.606 177.577 76.54 177.205 76.54C176.713 76.54 176.323 76.66 176.035 76.9C175.759 77.128 175.621 77.446 175.621 77.854C175.621 78.25 175.753 78.562 176.017 78.79C176.293 79.018 176.809 79.252 177.565 79.492C178.513 79.792 179.203 80.158 179.635 80.59C180.067 81.022 180.283 81.616 180.283 82.372C180.283 83.26 179.959 83.962 179.311 84.478C178.663 84.982 177.853 85.234 176.881 85.234C175.597 85.234 174.511 84.808 173.623 83.956L174.451 83.056C175.207 83.668 176.005 83.974 176.845 83.974C177.373 83.974 177.799 83.842 178.123 83.578C178.447 83.314 178.609 82.948 178.609 82.48C178.609 82.144 178.549 81.874 178.429 81.67C178.321 81.466 178.117 81.286 177.817 81.13C177.529 80.962 177.103 80.788 176.539 80.608C175.639 80.308 174.991 79.948 174.595 79.528C174.199 79.108 174.001 78.574 174.001 77.926C174.001 77.422 174.133 76.972 174.397 76.576C174.661 76.18 175.027 75.868 175.495 75.64C175.963 75.412 176.503 75.298 177.115 75.298ZM189.681 72.796C189.237 72.796 188.907 72.904 188.691 73.12C188.487 73.336 188.385 73.672 188.385 74.128V75.532H190.509L190.329 76.756H188.385V85H186.765V76.756H185.361V75.532H186.765V74.146C186.765 73.354 187.005 72.718 187.485 72.238C187.977 71.758 188.655 71.518 189.519 71.518C190.239 71.518 190.947 71.692 191.643 72.04L191.157 73.156C190.665 72.916 190.173 72.796 189.681 72.796ZM195.205 75.298C196.417 75.298 197.359 75.724 198.031 76.576C198.703 77.428 199.039 78.652 199.039 80.248C199.039 81.784 198.697 83.002 198.013 83.902C197.329 84.79 196.387 85.234 195.187 85.234C193.975 85.234 193.027 84.796 192.343 83.92C191.671 83.044 191.335 81.826 191.335 80.266C191.335 78.694 191.677 77.476 192.361 76.612C193.045 75.736 193.993 75.298 195.205 75.298ZM195.205 76.594C194.497 76.594 193.957 76.894 193.585 77.494C193.213 78.082 193.027 79.006 193.027 80.266C193.027 82.726 193.747 83.956 195.187 83.956C196.627 83.956 197.347 82.72 197.347 80.248C197.347 78.988 197.167 78.064 196.807 77.476C196.447 76.888 195.913 76.594 195.205 76.594ZM204.68 75.298C205.184 75.298 205.646 75.382 206.066 75.55C206.486 75.718 206.888 75.976 207.272 76.324L206.552 77.296C206.264 77.068 205.976 76.9 205.688 76.792C205.4 76.672 205.088 76.612 204.752 76.612C204.044 76.612 203.492 76.912 203.096 77.512C202.712 78.112 202.52 79.048 202.52 80.32C202.52 82.696 203.264 83.884 204.752 83.884C205.088 83.884 205.394 83.83 205.67 83.722C205.946 83.602 206.24 83.428 206.552 83.2L207.308 84.19C206.54 84.886 205.67 85.234 204.698 85.234C203.486 85.234 202.532 84.814 201.836 83.974C201.152 83.134 200.81 81.922 200.81 80.338C200.81 79.306 200.966 78.412 201.278 77.656C201.602 76.9 202.052 76.318 202.628 75.91C203.216 75.502 203.9 75.298 204.68 75.298ZM214.813 82.84C214.813 83.224 214.867 83.512 214.975 83.704C215.083 83.884 215.251 84.022 215.479 84.118L215.137 85.216C214.669 85.144 214.303 85 214.039 84.784C213.775 84.568 213.589 84.238 213.481 83.794C212.869 84.754 212.011 85.234 210.907 85.234C210.067 85.234 209.401 84.976 208.909 84.46C208.417 83.932 208.171 83.23 208.171 82.354C208.171 81.346 208.501 80.578 209.161 80.05C209.821 79.522 210.763 79.258 211.987 79.258H213.211V78.448C213.211 77.788 213.073 77.314 212.797 77.026C212.533 76.726 212.095 76.576 211.483 76.576C210.823 76.576 210.055 76.744 209.179 77.08L208.783 75.946C209.839 75.514 210.823 75.298 211.735 75.298C213.787 75.298 214.813 76.324 214.813 78.376V82.84ZM211.285 84.01C212.125 84.01 212.767 83.518 213.211 82.534V80.302H212.167C210.607 80.302 209.827 80.956 209.827 82.264C209.827 82.828 209.953 83.26 210.205 83.56C210.457 83.86 210.817 84.01 211.285 84.01ZM219.34 85.234C218.764 85.234 218.308 85.06 217.972 84.712C217.636 84.364 217.468 83.878 217.468 83.254V71.698L219.088 71.518V83.2C219.088 83.668 219.28 83.902 219.664 83.902C219.82 83.902 219.994 83.866 220.186 83.794L220.546 84.928C220.162 85.132 219.76 85.234 219.34 85.234ZM223.924 75.532V85H222.304V75.532H223.924ZM223.114 71.068C223.426 71.068 223.678 71.17 223.87 71.374C224.074 71.578 224.176 71.83 224.176 72.13C224.176 72.43 224.08 72.682 223.888 72.886C223.696 73.078 223.438 73.174 223.114 73.174C222.802 73.174 222.544 73.078 222.34 72.886C222.148 72.682 222.052 72.43 222.052 72.13C222.052 71.83 222.148 71.578 222.34 71.374C222.544 71.17 222.802 71.068 223.114 71.068ZM232.005 75.532V76.738L227.523 83.668H232.023L231.861 85H225.741V83.794L230.223 76.864H226.119V75.532H232.005ZM239.633 82.84C239.633 83.224 239.687 83.512 239.795 83.704C239.903 83.884 240.071 84.022 240.299 84.118L239.957 85.216C239.489 85.144 239.123 85 238.859 84.784C238.595 84.568 238.409 84.238 238.301 83.794C237.689 84.754 236.831 85.234 235.727 85.234C234.887 85.234 234.221 84.976 233.729 84.46C233.237 83.932 232.991 83.23 232.991 82.354C232.991 81.346 233.321 80.578 233.981 80.05C234.641 79.522 235.583 79.258 236.807 79.258H238.031V78.448C238.031 77.788 237.893 77.314 237.617 77.026C237.353 76.726 236.915 76.576 236.303 76.576C235.643 76.576 234.875 76.744 233.999 77.08L233.603 75.946C234.659 75.514 235.643 75.298 236.555 75.298C238.607 75.298 239.633 76.324 239.633 78.376V82.84ZM236.105 84.01C236.945 84.01 237.587 83.518 238.031 82.534V80.302H236.987C235.427 80.302 234.647 80.956 234.647 82.264C234.647 82.828 234.773 83.26 235.025 83.56C235.277 83.86 235.637 84.01 236.105 84.01ZM249.286 71.698V85H247.846L247.738 83.758C247.126 84.742 246.304 85.234 245.272 85.234C244.24 85.234 243.436 84.796 242.86 83.92C242.296 83.044 242.014 81.838 242.014 80.302C242.014 79.306 242.152 78.43 242.428 77.674C242.716 76.918 243.118 76.336 243.634 75.928C244.15 75.508 244.744 75.298 245.416 75.298C246.316 75.298 247.066 75.676 247.666 76.432V71.518L249.286 71.698ZM245.65 83.956C246.082 83.956 246.454 83.836 246.766 83.596C247.09 83.356 247.39 83.002 247.666 82.534V77.782C247.126 76.978 246.496 76.576 245.776 76.576C245.14 76.576 244.636 76.882 244.264 77.494C243.892 78.106 243.712 79.03 243.724 80.266C243.724 81.526 243.892 82.456 244.228 83.056C244.564 83.656 245.038 83.956 245.65 83.956ZM258.108 82.84C258.108 83.224 258.162 83.512 258.27 83.704C258.378 83.884 258.546 84.022 258.774 84.118L258.432 85.216C257.964 85.144 257.598 85 257.334 84.784C257.07 84.568 256.884 84.238 256.776 83.794C256.164 84.754 255.306 85.234 254.202 85.234C253.362 85.234 252.696 84.976 252.204 84.46C251.712 83.932 251.466 83.23 251.466 82.354C251.466 81.346 251.796 80.578 252.456 80.05C253.116 79.522 254.058 79.258 255.282 79.258H256.506V78.448C256.506 77.788 256.368 77.314 256.092 77.026C255.828 76.726 255.39 76.576 254.778 76.576C254.118 76.576 253.35 76.744 252.474 77.08L252.078 75.946C253.134 75.514 254.118 75.298 255.03 75.298C257.082 75.298 258.108 76.324 258.108 78.376V82.84ZM254.58 84.01C255.42 84.01 256.062 83.518 256.506 82.534V80.302H255.462C253.902 80.302 253.122 80.956 253.122 82.264C253.122 82.828 253.248 83.26 253.5 83.56C253.752 83.86 254.112 84.01 254.58 84.01ZM263.353 75.298C264.445 75.298 265.417 75.658 266.269 76.378L265.585 77.332C265.201 77.068 264.841 76.87 264.505 76.738C264.169 76.606 263.815 76.54 263.443 76.54C262.951 76.54 262.561 76.66 262.273 76.9C261.997 77.128 261.859 77.446 261.859 77.854C261.859 78.25 261.991 78.562 262.255 78.79C262.531 79.018 263.047 79.252 263.803 79.492C264.751 79.792 265.441 80.158 265.873 80.59C266.305 81.022 266.521 81.616 266.521 82.372C266.521 83.26 266.197 83.962 265.549 84.478C264.901 84.982 264.091 85.234 263.119 85.234C261.835 85.234 260.749 84.808 259.861 83.956L260.689 83.056C261.445 83.668 262.243 83.974 263.083 83.974C263.611 83.974 264.037 83.842 264.361 83.578C264.685 83.314 264.847 82.948 264.847 82.48C264.847 82.144 264.787 81.874 264.667 81.67C264.559 81.466 264.355 81.286 264.055 81.13C263.767 80.962 263.341 80.788 262.777 80.608C261.877 80.308 261.229 79.948 260.833 79.528C260.437 79.108 260.239 78.574 260.239 77.926C260.239 77.422 260.371 76.972 260.635 76.576C260.899 76.18 261.265 75.868 261.733 75.64C262.201 75.412 262.741 75.298 263.353 75.298Z" fill="#8B8B8B"></path><g clip-path="url(#clip0_743_278)"><path d="M25.2437 91C25.2437 75.9195 25.2437 60.839 25.2168 45.7585C25.2168 45.2755 25.3784 44.9535 25.7287 44.6583C30.8743 40.3381 35.9929 35.9911 41.1116 31.6172C41.5965 31.1878 41.8659 31.2415 42.3239 31.644C47.3618 35.9642 52.4265 40.2576 57.4913 44.551C57.9224 44.9267 58.1379 45.3023 58.1379 45.8927C58.111 60.678 58.1379 75.4633 58.111 90.2487C58.111 90.517 58.0571 90.7585 58.0571 91.0268C55.6324 91.0268 53.2348 91.0268 50.8101 91.0268C50.8101 85.2576 50.8101 79.4884 50.8101 73.746C50.8101 72.0555 50.2983 71.5456 48.601 71.5456C44.075 71.5456 39.5491 71.5456 35.0231 71.5456C33.2181 71.5456 32.7332 72.0286 32.7332 73.8533C32.7332 79.3005 32.7332 84.7478 32.7332 90.1682C32.7332 90.4633 32.7601 90.7585 32.787 91.0268C30.2816 91 27.7761 91 25.2437 91ZM41.812 58.4508C39.3066 58.4508 36.8281 58.4508 34.3226 58.4776C33.2989 58.5045 32.6523 59.2021 32.6254 60.1413C32.6254 61.0805 33.272 61.7513 34.2688 61.8587C34.5112 61.8855 34.7267 61.8587 34.9692 61.8587C39.4952 61.8587 44.0212 61.8587 48.5471 61.8587C48.8704 61.8587 49.1937 61.8587 49.517 61.805C50.3521 61.6708 50.9179 60.9463 50.8909 60.1145C50.8909 59.2827 50.2983 58.6118 49.4631 58.4776C49.1668 58.424 48.8704 58.4508 48.5741 58.4508C46.3111 58.4508 44.0481 58.4508 41.812 58.4508Z" fill="#1C1D30"></path><path d="M61.5855 91C61.5855 79.2737 61.5855 67.5742 61.5586 55.8479C61.5586 55.1771 61.7202 54.9624 62.4207 54.9624C68.5631 54.9893 74.7055 54.9893 80.8479 54.9893C82.9492 54.9893 83.946 55.9553 83.946 58.0483C83.946 68.6476 83.946 79.2469 83.946 89.873C83.946 90.2487 83.973 90.6243 83.973 91C76.5374 91 69.048 91 61.5855 91ZM70.395 79.8104C70.395 79.1932 70.422 78.576 70.395 77.9589C70.3411 76.8855 69.6676 76.2147 68.6978 76.2147C67.7549 76.2147 67.0544 76.805 67.0005 77.8515C66.9197 79.1127 66.9197 80.3739 67.0005 81.6082C67.0544 82.6279 67.8088 83.2719 68.7247 83.2451C69.6676 83.2183 70.3411 82.5206 70.422 81.4472C70.422 80.9374 70.395 80.3739 70.395 79.8104ZM79.0159 65.5886C79.0159 64.7835 79.0159 64.1932 79.0159 63.6029C79.0159 63.4687 78.9621 63.3077 78.9351 63.1735C78.7465 62.3685 78.073 61.8318 77.3187 61.8318C76.5374 61.8318 75.81 62.3417 75.6753 63.1467C75.4598 64.6225 75.4598 66.1252 75.6753 67.6011C75.81 68.4329 76.5105 68.8891 77.3187 68.8891C78.1269 68.8623 78.7196 68.3793 78.9351 67.5474C79.0968 66.8229 78.962 66.0984 79.0159 65.5886ZM75.5406 79.6762C75.5406 80.2934 75.5137 80.9106 75.5406 81.5277C75.6214 82.5742 76.3488 83.2719 77.2917 83.2719C78.1808 83.2719 78.9082 82.6011 78.9621 81.5814C79.0429 80.347 79.0429 79.1127 78.9621 77.9052C78.9082 76.8318 78.1538 76.1878 77.184 76.2147C76.268 76.2415 75.6214 76.8855 75.5406 77.932C75.5137 78.5224 75.5406 79.1127 75.5406 79.6762ZM70.395 65.4276C70.395 64.8372 70.422 64.2469 70.395 63.6834C70.3411 62.61 69.6676 61.8855 68.7247 61.8587C67.8088 61.8318 67.0275 62.5027 66.9736 63.576C66.8928 64.8104 66.8928 66.0447 66.9736 67.2522C67.0275 68.3256 67.7818 68.9696 68.7517 68.9159C69.6946 68.8891 70.3411 68.1914 70.395 67.0912C70.422 66.5277 70.395 65.9642 70.395 65.4276Z" fill="#1C1D30"></path><path d="M0 91C0 90.1682 0.0269403 89.3632 0.0269403 88.5313C0.0269403 78.4687 0.0269403 68.3793 0.0269403 58.3166C0.0269403 55.8479 0.915972 54.9624 3.36754 54.9624C9.18666 54.9624 15.0058 54.9624 20.8249 54.9356C21.5253 54.9356 21.7947 55.0698 21.7678 55.8479C21.7409 67.3327 21.7409 78.7907 21.7409 90.2755C21.7409 90.517 21.7139 90.7317 21.687 90.9732C14.467 91 7.24695 91 0 91ZM4.76844 79.703C4.76844 80.2934 4.7415 80.8837 4.76844 81.4472C4.82232 82.5206 5.49583 83.2451 6.43874 83.2719C7.35472 83.2988 8.13599 82.6279 8.18987 81.5814C8.27069 80.347 8.27069 79.1127 8.18987 77.9052C8.13599 76.8318 7.4086 76.1878 6.4118 76.2415C5.46889 76.2683 4.82232 76.966 4.76844 78.0394C4.7415 78.576 4.76844 79.1395 4.76844 79.703ZM17.0532 79.703C16.9994 79.0054 17.1071 78.3077 16.9724 77.61C16.7838 76.7513 16.2181 76.2415 15.4099 76.2147C14.5478 76.1878 13.8204 76.644 13.6857 77.5295C13.4702 79.0054 13.4702 80.508 13.6857 81.9839C13.7935 82.7889 14.5747 83.2988 15.3291 83.2719C16.1103 83.2451 16.7569 82.7084 16.9455 81.9034C17.1341 81.1789 17.0263 80.4544 17.0532 79.703ZM4.76844 65.3202C4.76844 65.9106 4.76844 66.5009 4.76844 67.0644C4.76844 67.1181 4.76844 67.1717 4.76844 67.2522C4.90314 68.2182 5.52277 68.8623 6.4118 68.8891C7.35472 68.9159 8.0821 68.3524 8.16293 67.3059C8.24375 66.0179 8.24375 64.7299 8.16293 63.4419C8.10904 62.449 7.30083 61.7782 6.4118 61.8318C5.52277 61.8587 4.82232 62.5564 4.76844 63.576C4.7415 64.1664 4.76844 64.7567 4.76844 65.3202ZM13.6049 65.3471C13.6049 65.9374 13.5779 66.5277 13.6049 67.0912C13.6588 68.1646 14.3053 68.8623 15.2752 68.8891C16.245 68.9159 16.9724 68.2719 17.0263 67.1986C17.1071 65.9642 17.0802 64.7299 17.0263 63.5224C16.9724 62.4759 16.1642 61.7782 15.2752 61.8318C14.3323 61.8855 13.6857 62.5832 13.6318 63.6565C13.5779 64.22 13.6049 64.7835 13.6049 65.3471Z" fill="#1C1D30"></path><path d="M47.308 91C43.5902 91 39.8994 91 36.1816 91C36.1816 85.9284 36.2086 80.8569 36.1816 75.7853C36.1816 75.0877 36.3972 74.8998 37.0707 74.8998C40.2227 74.9267 43.3747 74.9267 46.4998 74.8998C47.2003 74.8998 47.3888 75.0877 47.3888 75.7853C47.3619 80.6154 47.3619 85.4454 47.3619 90.2755C47.3619 90.5438 47.308 90.7853 47.308 91Z" fill="#1C1D30"></path><path d="M20.394 44.7657C20.1246 44.7657 20.0437 44.5778 19.936 44.4705C19.1547 43.5581 18.3734 42.619 17.5652 41.7335C17.215 41.3309 17.2958 41.1431 17.673 40.8211C25.5396 34.1127 33.4062 27.4311 41.2458 20.6959C41.7307 20.2934 41.9732 20.3739 42.4042 20.7496C48.7622 26.1968 55.1201 31.6172 61.5049 37.0376C62.9597 38.2719 64.3876 39.5331 65.8693 40.7406C66.3542 41.1431 66.3542 41.3846 65.9232 41.814C65.1419 42.619 64.4145 43.4508 63.7141 44.3363C63.3638 44.7925 63.1214 44.7925 62.6903 44.4168C58.2721 40.6333 53.8539 36.8766 49.4357 33.093C47.4151 31.3488 45.3677 29.6315 43.3471 27.8873C42.1887 26.8945 41.4883 26.8945 40.3298 27.8873C33.918 33.3077 27.5332 38.7549 21.1214 44.1753C20.852 44.39 20.6095 44.5778 20.394 44.7657Z" fill="#1C1D30"></path><path d="M40.2754 10.1234C40.2754 7.86941 40.2754 5.61538 40.2754 3.36136C40.2754 1.61717 40.895 1 42.5923 1C46.768 1 50.9438 1 55.1195 1C55.9816 1 56.709 1.161 57.1131 1.96601C57.5172 2.79785 57.167 3.49553 56.6551 4.13953C55.9816 4.99821 55.362 5.88372 54.6615 6.71556C54.3652 7.09123 54.3652 7.33274 54.6615 7.68157C55.335 8.51342 55.9816 9.39893 56.6551 10.2576C57.167 10.9284 57.5172 11.5993 57.1131 12.4311C56.709 13.263 55.9547 13.424 55.1195 13.424C51.6173 13.424 48.115 13.4508 44.6397 13.3971C43.9662 13.3971 43.6968 13.5313 43.7507 14.2558C43.8046 15.2487 43.7507 16.2415 43.7776 17.2343C43.8046 17.7442 43.5891 17.9052 43.1041 17.8784C42.4306 17.8515 41.7571 17.8247 41.0836 17.8784C40.464 17.932 40.2754 17.7174 40.2754 17.1002C40.2754 14.8193 40.2754 12.458 40.2754 10.1234Z" fill="#1C1D30"></path></g><defs><clipPath id="clip0_743_278"><rect width="84" height="90" fill="white" transform="translate(0 1)"></rect></clipPath></defs></svg>