<svg xmlns="http://www.w3.org/2000/svg" width="50" height="68" viewBox="0 0 50 68" fill="none"><g clip-path="url(#clip0_550_5108)"><path d="M24.4553 0.000108493C36.739 0.000108493 47.0783 8.87609 49.004 20.8296C49.7332 25.3332 48.817 29.5179 47.1343 33.6275C44.4981 40.0265 40.9458 45.9188 37.1503 51.6985C33.841 56.7463 30.2887 61.6065 26.5867 66.3729C25.4836 67.7991 23.8757 67.8554 22.81 66.4855C16.4157 58.2288 10.3954 49.7281 5.4408 40.5331C3.42156 36.7801 1.60798 32.9332 0.579665 28.786C-0.616921 23.9821 0.112248 19.3283 2.09409 14.8997C5.55298 7.13092 11.5172 2.34577 19.7811 0.488006C20.4916 0.337884 21.2021 0.244057 21.9126 0.150231C22.8287 0.0751696 23.7448 -0.0186568 24.4553 0.000108493ZM24.6797 31.4695C29.5595 31.4695 33.598 27.4349 33.598 22.5372C33.6167 17.5456 29.5969 13.4736 24.6423 13.4923C19.6877 13.5111 15.6866 17.5269 15.7053 22.5184C15.7053 27.4537 19.7437 31.4695 24.6797 31.4695Z" fill="#E36F1E"></path></g><defs><clipPath id="clip0_550_5108"><rect width="49.2657" height="67.4612" fill="white"></rect></clipPath></defs></svg>