<svg width="15" height="38" viewBox="0 0 15 38" fill="none" xmlns="http://www.w3.org/2000/svg">
<path d="M9.75 15.3722L9.5 11.3139V11.1909C9.5 8.85437 8.375 7.74757 6.375 7.50162V7.00971C8 6.64078 9.125 5.28803 9.125 3.56634C9.125 1.59871 7.5 0 5.5 0C3.5 0 1.875 1.59871 1.875 3.56634C1.875 4.91909 2.75 6.14887 4 6.76375V7.6246C2.25 7.99353 1.25 9.10032 1.25 11.1909V11.3139L0.875 21.521L0 29.1456H3.25L3.625 38H8L8.125 28.4078C8.375 28.4078 8.75 28.5307 9 28.5307C12.375 28.5307 15 25.5793 15 21.89C15 18.5696 12.75 15.7411 9.75 15.3722Z" fill="#E36F1E"/>
</svg>
