<svg xmlns="http://www.w3.org/2000/svg" width="44" height="46" viewBox="0 0 44 46" fill="none"><path d="M34.9463 0H4.88867V45.6378H34.9463C35.1274 45.6378 35.3084 45.4567 35.3084 45.2756V0.362205C35.3084 0.181102 35.1274 0 34.9463 0ZM30.0574 19.0157C22.8146 19.9213 16.115 19.9213 8.87221 19.0157C8.87221 14.8504 8.87221 12.8583 8.87221 8.69291C16.115 7.7874 22.8146 7.7874 30.0574 8.69291C30.0574 12.8583 30.0574 14.8504 30.0574 19.0157Z" fill="black"></path><path d="M3.44033 0.181152H0V45.6378H3.44033V0.181152Z" fill="black"></path><path d="M10.1401 11.9528C10.1401 12.315 10.5023 12.6772 10.6833 12.6772H28.0661C28.4282 12.6772 28.6093 12.315 28.6093 12.1339C28.6093 11.7717 28.2471 11.5906 28.0661 11.5906H10.6833C10.5023 11.4095 10.1401 11.5906 10.1401 11.9528Z" fill="black"></path><path d="M28.2471 14.3071H10.6833C10.5023 14.3071 10.1401 14.4882 10.1401 14.8504C10.1401 15.2126 10.5023 15.3937 10.6833 15.3937H28.0661C28.4282 15.3937 28.6093 15.0315 28.6093 14.8504C28.7903 14.4882 28.4282 14.3071 28.2471 14.3071Z" fill="black"></path><path d="M38.0907 11.6622L37.7759 36.4707L43.5695 36.5442L43.8843 11.7357L38.0907 11.6622Z" fill="black"></path><path d="M38.0704 9.35302L38.0542 10.6206L43.8479 10.6946L43.864 9.42697L38.0704 9.35302Z" fill="black"></path><path d="M38.1849 7.12352L38.1689 8.39111L43.9626 8.4642L43.9786 7.1966L38.1849 7.12352Z" fill="black"></path><path d="M43.9998 2.89754C43.9998 1.62983 42.9134 0.543213 41.6459 0.543213H40.7405C39.4731 0.543213 38.3866 1.44872 38.2056 2.89754V5.97628H43.9998V2.89754Z" fill="black"></path><path d="M40.5596 46.0001L41.646 42.7402H39.4731L40.5596 46.0001Z" fill="black"></path><path d="M39.1112 41.8346H42.1894L43.4569 37.8503H37.8438L39.1112 41.8346Z" fill="black"></path></svg>